<?xml version="1.0" encoding="utf-8" standalone="no"?>
<!DOCTYPE svg PUBLIC "-//W3C//DTD SVG 1.1//EN"
  "http://www.w3.org/Graphics/SVG/1.1/DTD/svg11.dtd">
<svg xmlns:xlink="http://www.w3.org/1999/xlink" width="460.8pt" height="345.6pt" viewBox="0 0 460.8 345.6" xmlns="http://www.w3.org/2000/svg" version="1.1">
 <metadata>
  <rdf:RDF xmlns:dc="http://purl.org/dc/elements/1.1/" xmlns:cc="http://creativecommons.org/ns#" xmlns:rdf="http://www.w3.org/1999/02/22-rdf-syntax-ns#">
   <cc:Work>
    <dc:type rdf:resource="http://purl.org/dc/dcmitype/StillImage"/>
    <dc:date>2024-04-02T15:03:36.108803</dc:date>
    <dc:format>image/svg+xml</dc:format>
    <dc:creator>
     <cc:Agent>
      <dc:title>Matplotlib v3.6.1, https://matplotlib.org/</dc:title>
     </cc:Agent>
    </dc:creator>
   </cc:Work>
  </rdf:RDF>
 </metadata>
 <defs>
  <style type="text/css">*{stroke-linejoin: round; stroke-linecap: butt}</style>
 </defs>
 <g id="figure_1">
  <g id="patch_1">
   <path d="M 0 345.6 
L 460.8 345.6 
L 460.8 0 
L 0 0 
z
" style="fill: #ffffff"/>
  </g>
  <g id="axes_1">
   <g id="patch_2">
    <path d="M 79.311614 110.635403 
L 445.68 110.635403 
L 445.68 15.12 
L 79.311614 15.12 
z
" style="fill: #ffffff"/>
   </g>
   <g id="matplotlib.axis_1">
    <g id="xtick_1">
     <g id="line2d_1">
      <defs>
       <path id="m680fffcca1" d="M 0 0 
L 0 3.5 
" style="stroke: #000000; stroke-width: 0.8"/>
      </defs>
      <g>
       <use xlink:href="#m680fffcca1" x="79.311614" y="110.635403" style="stroke: #000000; stroke-width: 0.8"/>
      </g>
     </g>
    </g>
    <g id="xtick_2">
     <g id="line2d_2">
      <g>
       <use xlink:href="#m680fffcca1" x="167.240026" y="110.635403" style="stroke: #000000; stroke-width: 0.8"/>
      </g>
     </g>
    </g>
    <g id="xtick_3">
     <g id="line2d_3">
      <g>
       <use xlink:href="#m680fffcca1" x="255.168439" y="110.635403" style="stroke: #000000; stroke-width: 0.8"/>
      </g>
     </g>
    </g>
    <g id="xtick_4">
     <g id="line2d_4">
      <g>
       <use xlink:href="#m680fffcca1" x="343.096852" y="110.635403" style="stroke: #000000; stroke-width: 0.8"/>
      </g>
     </g>
    </g>
    <g id="xtick_5">
     <g id="line2d_5">
      <g>
       <use xlink:href="#m680fffcca1" x="431.025265" y="110.635403" style="stroke: #000000; stroke-width: 0.8"/>
      </g>
     </g>
    </g>
   </g>
   <g id="matplotlib.axis_2">
    <g id="ytick_1">
     <g id="line2d_6">
      <defs>
       <path id="m7c441fd0b0" d="M 0 0 
L -3.5 0 
" style="stroke: #000000; stroke-width: 0.8"/>
      </defs>
      <g>
       <use xlink:href="#m7c441fd0b0" x="79.311614" y="110.635403" style="stroke: #000000; stroke-width: 0.8"/>
      </g>
     </g>
     <g id="text_1">
      <!-- $\mathdefault{10^{-15}}$ -->
      <g transform="translate(33.251614 115.954309) scale(0.14 -0.14)">
       <defs>
        <path id="DejaVuSans-31" d="M 794 531 
L 1825 531 
L 1825 4091 
L 703 3866 
L 703 4441 
L 1819 4666 
L 2450 4666 
L 2450 531 
L 3481 531 
L 3481 0 
L 794 0 
L 794 531 
z
" transform="scale(0.015625)"/>
        <path id="DejaVuSans-30" d="M 2034 4250 
Q 1547 4250 1301 3770 
Q 1056 3291 1056 2328 
Q 1056 1369 1301 889 
Q 1547 409 2034 409 
Q 2525 409 2770 889 
Q 3016 1369 3016 2328 
Q 3016 3291 2770 3770 
Q 2525 4250 2034 4250 
z
M 2034 4750 
Q 2819 4750 3233 4129 
Q 3647 3509 3647 2328 
Q 3647 1150 3233 529 
Q 2819 -91 2034 -91 
Q 1250 -91 836 529 
Q 422 1150 422 2328 
Q 422 3509 836 4129 
Q 1250 4750 2034 4750 
z
" transform="scale(0.015625)"/>
        <path id="DejaVuSans-2212" d="M 678 2272 
L 4684 2272 
L 4684 1741 
L 678 1741 
L 678 2272 
z
" transform="scale(0.015625)"/>
        <path id="DejaVuSans-35" d="M 691 4666 
L 3169 4666 
L 3169 4134 
L 1269 4134 
L 1269 2991 
Q 1406 3038 1543 3061 
Q 1681 3084 1819 3084 
Q 2600 3084 3056 2656 
Q 3513 2228 3513 1497 
Q 3513 744 3044 326 
Q 2575 -91 1722 -91 
Q 1428 -91 1123 -41 
Q 819 9 494 109 
L 494 744 
Q 775 591 1075 516 
Q 1375 441 1709 441 
Q 2250 441 2565 725 
Q 2881 1009 2881 1497 
Q 2881 1984 2565 2268 
Q 2250 2553 1709 2553 
Q 1456 2553 1204 2497 
Q 953 2441 691 2322 
L 691 4666 
z
" transform="scale(0.015625)"/>
       </defs>
       <use xlink:href="#DejaVuSans-31" transform="translate(0 0.684375)"/>
       <use xlink:href="#DejaVuSans-30" transform="translate(63.623047 0.684375)"/>
       <use xlink:href="#DejaVuSans-2212" transform="translate(128.203125 38.965625) scale(0.7)"/>
       <use xlink:href="#DejaVuSans-31" transform="translate(186.855469 38.965625) scale(0.7)"/>
       <use xlink:href="#DejaVuSans-35" transform="translate(231.391602 38.965625) scale(0.7)"/>
      </g>
     </g>
    </g>
    <g id="ytick_2">
     <g id="line2d_7">
      <g>
       <use xlink:href="#m7c441fd0b0" x="79.311614" y="75.259328" style="stroke: #000000; stroke-width: 0.8"/>
      </g>
     </g>
     <g id="text_2">
      <!-- $\mathdefault{10^{-9}}$ -->
      <g transform="translate(39.411614 80.578234) scale(0.14 -0.14)">
       <defs>
        <path id="DejaVuSans-39" d="M 703 97 
L 703 672 
Q 941 559 1184 500 
Q 1428 441 1663 441 
Q 2288 441 2617 861 
Q 2947 1281 2994 2138 
Q 2813 1869 2534 1725 
Q 2256 1581 1919 1581 
Q 1219 1581 811 2004 
Q 403 2428 403 3163 
Q 403 3881 828 4315 
Q 1253 4750 1959 4750 
Q 2769 4750 3195 4129 
Q 3622 3509 3622 2328 
Q 3622 1225 3098 567 
Q 2575 -91 1691 -91 
Q 1453 -91 1209 -44 
Q 966 3 703 97 
z
M 1959 2075 
Q 2384 2075 2632 2365 
Q 2881 2656 2881 3163 
Q 2881 3666 2632 3958 
Q 2384 4250 1959 4250 
Q 1534 4250 1286 3958 
Q 1038 3666 1038 3163 
Q 1038 2656 1286 2365 
Q 1534 2075 1959 2075 
z
" transform="scale(0.015625)"/>
       </defs>
       <use xlink:href="#DejaVuSans-31" transform="translate(0 0.765625)"/>
       <use xlink:href="#DejaVuSans-30" transform="translate(63.623047 0.765625)"/>
       <use xlink:href="#DejaVuSans-2212" transform="translate(128.203125 39.046875) scale(0.7)"/>
       <use xlink:href="#DejaVuSans-39" transform="translate(186.855469 39.046875) scale(0.7)"/>
      </g>
     </g>
    </g>
    <g id="ytick_3">
     <g id="line2d_8">
      <g>
       <use xlink:href="#m7c441fd0b0" x="79.311614" y="39.883253" style="stroke: #000000; stroke-width: 0.8"/>
      </g>
     </g>
     <g id="text_3">
      <!-- $\mathdefault{10^{-3}}$ -->
      <g transform="translate(39.411614 45.202159) scale(0.14 -0.14)">
       <defs>
        <path id="DejaVuSans-33" d="M 2597 2516 
Q 3050 2419 3304 2112 
Q 3559 1806 3559 1356 
Q 3559 666 3084 287 
Q 2609 -91 1734 -91 
Q 1441 -91 1130 -33 
Q 819 25 488 141 
L 488 750 
Q 750 597 1062 519 
Q 1375 441 1716 441 
Q 2309 441 2620 675 
Q 2931 909 2931 1356 
Q 2931 1769 2642 2001 
Q 2353 2234 1838 2234 
L 1294 2234 
L 1294 2753 
L 1863 2753 
Q 2328 2753 2575 2939 
Q 2822 3125 2822 3475 
Q 2822 3834 2567 4026 
Q 2313 4219 1838 4219 
Q 1578 4219 1281 4162 
Q 984 4106 628 3988 
L 628 4550 
Q 988 4650 1302 4700 
Q 1616 4750 1894 4750 
Q 2613 4750 3031 4423 
Q 3450 4097 3450 3541 
Q 3450 3153 3228 2886 
Q 3006 2619 2597 2516 
z
" transform="scale(0.015625)"/>
       </defs>
       <use xlink:href="#DejaVuSans-31" transform="translate(0 0.765625)"/>
       <use xlink:href="#DejaVuSans-30" transform="translate(63.623047 0.765625)"/>
       <use xlink:href="#DejaVuSans-2212" transform="translate(128.203125 39.046875) scale(0.7)"/>
       <use xlink:href="#DejaVuSans-33" transform="translate(186.855469 39.046875) scale(0.7)"/>
      </g>
     </g>
    </g>
    <g id="text_4">
     <!-- Intensity -->
     <g transform="translate(26.340051 93.345201) rotate(-90) scale(0.14 -0.14)">
      <defs>
       <path id="DejaVuSans-49" d="M 628 4666 
L 1259 4666 
L 1259 0 
L 628 0 
L 628 4666 
z
" transform="scale(0.015625)"/>
       <path id="DejaVuSans-6e" d="M 3513 2113 
L 3513 0 
L 2938 0 
L 2938 2094 
Q 2938 2591 2744 2837 
Q 2550 3084 2163 3084 
Q 1697 3084 1428 2787 
Q 1159 2491 1159 1978 
L 1159 0 
L 581 0 
L 581 3500 
L 1159 3500 
L 1159 2956 
Q 1366 3272 1645 3428 
Q 1925 3584 2291 3584 
Q 2894 3584 3203 3211 
Q 3513 2838 3513 2113 
z
" transform="scale(0.015625)"/>
       <path id="DejaVuSans-74" d="M 1172 4494 
L 1172 3500 
L 2356 3500 
L 2356 3053 
L 1172 3053 
L 1172 1153 
Q 1172 725 1289 603 
Q 1406 481 1766 481 
L 2356 481 
L 2356 0 
L 1766 0 
Q 1100 0 847 248 
Q 594 497 594 1153 
L 594 3053 
L 172 3053 
L 172 3500 
L 594 3500 
L 594 4494 
L 1172 4494 
z
" transform="scale(0.015625)"/>
       <path id="DejaVuSans-65" d="M 3597 1894 
L 3597 1613 
L 953 1613 
Q 991 1019 1311 708 
Q 1631 397 2203 397 
Q 2534 397 2845 478 
Q 3156 559 3463 722 
L 3463 178 
Q 3153 47 2828 -22 
Q 2503 -91 2169 -91 
Q 1331 -91 842 396 
Q 353 884 353 1716 
Q 353 2575 817 3079 
Q 1281 3584 2069 3584 
Q 2775 3584 3186 3129 
Q 3597 2675 3597 1894 
z
M 3022 2063 
Q 3016 2534 2758 2815 
Q 2500 3097 2075 3097 
Q 1594 3097 1305 2825 
Q 1016 2553 972 2059 
L 3022 2063 
z
" transform="scale(0.015625)"/>
       <path id="DejaVuSans-73" d="M 2834 3397 
L 2834 2853 
Q 2591 2978 2328 3040 
Q 2066 3103 1784 3103 
Q 1356 3103 1142 2972 
Q 928 2841 928 2578 
Q 928 2378 1081 2264 
Q 1234 2150 1697 2047 
L 1894 2003 
Q 2506 1872 2764 1633 
Q 3022 1394 3022 966 
Q 3022 478 2636 193 
Q 2250 -91 1575 -91 
Q 1294 -91 989 -36 
Q 684 19 347 128 
L 347 722 
Q 666 556 975 473 
Q 1284 391 1588 391 
Q 1994 391 2212 530 
Q 2431 669 2431 922 
Q 2431 1156 2273 1281 
Q 2116 1406 1581 1522 
L 1381 1569 
Q 847 1681 609 1914 
Q 372 2147 372 2553 
Q 372 3047 722 3315 
Q 1072 3584 1716 3584 
Q 2034 3584 2315 3537 
Q 2597 3491 2834 3397 
z
" transform="scale(0.015625)"/>
       <path id="DejaVuSans-69" d="M 603 3500 
L 1178 3500 
L 1178 0 
L 603 0 
L 603 3500 
z
M 603 4863 
L 1178 4863 
L 1178 4134 
L 603 4134 
L 603 4863 
z
" transform="scale(0.015625)"/>
       <path id="DejaVuSans-79" d="M 2059 -325 
Q 1816 -950 1584 -1140 
Q 1353 -1331 966 -1331 
L 506 -1331 
L 506 -850 
L 844 -850 
Q 1081 -850 1212 -737 
Q 1344 -625 1503 -206 
L 1606 56 
L 191 3500 
L 800 3500 
L 1894 763 
L 2988 3500 
L 3597 3500 
L 2059 -325 
z
" transform="scale(0.015625)"/>
      </defs>
      <use xlink:href="#DejaVuSans-49"/>
      <use xlink:href="#DejaVuSans-6e" x="29.492188"/>
      <use xlink:href="#DejaVuSans-74" x="92.871094"/>
      <use xlink:href="#DejaVuSans-65" x="132.080078"/>
      <use xlink:href="#DejaVuSans-6e" x="193.603516"/>
      <use xlink:href="#DejaVuSans-73" x="256.982422"/>
      <use xlink:href="#DejaVuSans-69" x="309.082031"/>
      <use xlink:href="#DejaVuSans-74" x="336.865234"/>
      <use xlink:href="#DejaVuSans-79" x="376.074219"/>
     </g>
    </g>
   </g>
   <g id="line2d_9">
    <path d="M 79.306916 17.48627 
L 84.190262 18.00987 
L 89.073608 23.70805 
L 93.956954 43.817125 
L 98.8403 40.476692 
L 103.723646 35.33733 
L 108.606992 33.181637 
L 113.490338 33.188952 
L 118.373684 35.352573 
L 123.25703 40.108763 
L 128.140376 52.648712 
L 133.023722 40.92656 
L 137.907068 37.693807 
L 142.790414 36.768192 
L 147.67376 37.932405 
L 152.557106 42.023444 
L 157.440452 46.523682 
L 162.323798 38.785419 
L 167.207144 35.211864 
L 172.09049 34.301486 
L 176.973836 35.401533 
L 181.857182 38.938931 
L 186.740528 57.314566 
L 191.623874 40.137766 
L 196.50722 37.747861 
L 201.390566 38.314495 
L 206.273912 41.865386 
L 211.157258 47.41417 
L 216.040604 43.67378 
L 220.92395 42.725075 
L 225.807296 43.021463 
L 230.690642 43.187923 
L 235.573988 42.915995 
L 240.457334 42.891634 
L 245.34068 43.136525 
L 250.224025 43.532123 
L 255.107371 44.197515 
L 259.990717 45.218484 
L 264.874063 46.552485 
L 269.757409 47.992732 
L 274.640755 49.236188 
L 279.524101 50.332778 
L 284.407447 51.626776 
L 289.290793 53.313495 
L 294.174139 55.38663 
L 299.057485 57.529966 
L 303.940831 59.255493 
L 308.824177 60.682341 
L 313.707523 62.285043 
L 318.590869 64.343076 
L 323.474215 66.962476 
L 328.357561 69.658852 
L 333.240907 71.749314 
L 338.124253 73.382542 
L 343.007599 74.969111 
L 347.890945 77.294366 
L 352.774291 80.413339 
L 357.657637 83.2772 
L 362.540983 86.335032 
L 367.424329 88.058093 
L 372.307675 88.54553 
L 377.191021 92.741432 
L 382.074367 93.87029 
L 386.957713 96.536718 
L 391.841059 106.005848 
L 396.724405 99.160492 
L 401.607751 99.828986 
L 406.491097 102.77427 
L 411.374443 100.794979 
L 416.257789 102.310622 
L 421.141135 102.390303 
L 426.024481 102.495435 
L 430.907827 103.062904 
L 435.791173 103.282774 
L 440.674519 103.567228 
L 445.557865 103.919472 
L 450.441211 104.200643 
" clip-path="url(#p21db21fd02)" style="fill: none; stroke: #000000; stroke-width: 1.5; stroke-linecap: square"/>
   </g>
   <g id="line2d_10">
    <path d="M 79.306916 17.482678 
L 84.190262 18.0062 
L 89.073608 23.704124 
L 93.956954 43.80765 
L 98.8403 40.471094 
L 103.723646 35.329251 
L 108.606992 33.172317 
L 113.490338 33.180886 
L 118.373684 35.344979 
L 123.25703 40.101904 
L 128.140376 52.220532 
L 133.023722 40.890792 
L 137.907068 37.676546 
L 142.790414 36.768802 
L 147.67376 37.94618 
L 152.557106 42.094486 
L 157.440452 46.374235 
L 162.323798 38.710392 
L 167.207144 35.215291 
L 172.09049 34.326616 
L 176.973836 35.414393 
L 181.857182 38.917091 
L 186.740528 53.398525 
L 191.623874 40.139157 
L 196.50722 37.821696 
L 201.390566 38.417307 
L 206.273912 42.076978 
L 211.157258 47.36801 
L 216.040604 43.386325 
L 220.92395 42.561551 
L 225.807296 43.192505 
L 230.690642 43.465238 
L 235.573988 42.881332 
L 240.457334 42.675248 
L 245.34068 42.899725 
L 250.224025 43.386228 
L 255.107371 44.199617 
L 259.990717 45.248669 
L 264.874063 46.497482 
L 269.757409 47.794669 
L 274.640755 49.278486 
L 279.524101 50.84073 
L 284.407447 52.190457 
L 289.290793 53.229743 
L 294.174139 54.716714 
L 299.057485 57.485959 
L 303.940831 60.14177 
L 308.824177 62.819248 
L 313.707523 62.25553 
L 318.590869 61.365475 
L 323.474215 63.13209 
L 328.357561 63.773542 
L 333.240907 64.372298 
L 338.124253 67.092542 
L 343.007599 63.292429 
L 347.890945 60.929332 
L 352.774291 60.333693 
L 357.657637 60.493453 
L 362.540983 60.784475 
L 367.424329 61.327509 
L 372.307675 64.385904 
L 377.191021 67.792284 
L 382.074367 63.131194 
L 386.957713 62.9968 
L 391.841059 63.957323 
L 396.724405 64.814222 
L 401.607751 64.848501 
L 406.491097 64.499361 
L 411.374443 64.834182 
L 416.257789 65.809406 
L 421.141135 69.131035 
L 426.024481 70.485492 
L 430.907827 67.835827 
L 435.791173 64.851277 
L 440.674519 63.224487 
L 445.557865 64.190871 
L 450.441211 70.568116 
" clip-path="url(#p21db21fd02)" style="fill: none; stroke-dasharray: 5.55,2.4; stroke-dashoffset: 0; stroke: #0000ff; stroke-width: 1.5"/>
   </g>
   <g id="line2d_11">
    <path d="M 79.306916 17.482662 
L 84.190262 18.006189 
L 89.073608 23.704129 
L 93.956954 43.805834 
L 98.8403 40.468161 
L 103.723646 35.327795 
L 108.606992 33.17189 
L 113.490338 33.179241 
L 118.373684 35.342539 
L 123.25703 40.096108 
L 128.140376 52.438468 
L 133.023722 40.8874 
L 137.907068 37.659402 
L 142.790414 36.746026 
L 147.67376 37.918781 
L 152.557106 42.017777 
L 157.440452 46.577504 
L 162.323798 38.746511 
L 167.207144 35.199137 
L 172.09049 34.29464 
L 176.973836 35.384957 
L 181.857182 38.902996 
L 186.740528 56.851962 
L 191.623874 40.149757 
L 196.50722 37.801931 
L 201.390566 38.355247 
L 206.273912 41.858438 
L 211.157258 47.066941 
L 216.040604 43.670173 
L 220.92395 42.724932 
L 225.807296 43.045335 
L 230.690642 43.319889 
L 235.573988 43.05193 
L 240.457334 42.947172 
L 245.34068 43.155676 
L 250.224025 43.567543 
L 255.107371 44.262596 
L 259.990717 45.314235 
L 264.874063 46.732994 
L 269.757409 48.053097 
L 274.640755 49.230977 
L 279.524101 50.359793 
L 284.407447 51.707264 
L 289.290793 53.56836 
L 294.174139 56.109809 
L 299.057485 59.198752 
L 303.940831 60.901958 
L 308.824177 62.234205 
L 313.707523 64.124587 
L 318.590869 65.371442 
L 323.474215 70.973755 
L 328.357561 71.350458 
L 333.240907 68.937313 
L 338.124253 67.714973 
L 343.007599 67.677613 
L 347.890945 67.455481 
L 352.774291 67.266139 
L 357.657637 65.812753 
L 362.540983 65.416276 
L 367.424329 65.559963 
L 372.307675 67.148077 
L 377.191021 69.630032 
L 382.074367 73.516146 
L 386.957713 82.20841 
L 391.841059 77.340169 
L 396.724405 69.738722 
L 401.607751 66.864663 
L 406.491097 67.068374 
L 411.374443 67.095331 
L 416.257789 67.382661 
L 421.141135 66.969009 
L 426.024481 68.444201 
L 430.907827 73.687031 
L 435.791173 76.718406 
L 440.674519 71.558146 
L 445.557865 68.269998 
L 450.441211 69.214496 
" clip-path="url(#p21db21fd02)" style="fill: none; stroke-dasharray: 5.55,2.4; stroke-dashoffset: 0; stroke: #008000; stroke-width: 1.5"/>
   </g>
   <g id="line2d_12">
    <path d="M 79.306916 17.482665 
L 84.190262 18.006188 
L 89.073608 23.704118 
L 93.956954 43.803505 
L 98.8403 40.470587 
L 103.723646 35.329115 
L 108.606992 33.172904 
L 113.490338 33.180142 
L 118.373684 35.34348 
L 123.25703 40.095863 
L 128.140376 52.356317 
L 133.023722 40.906783 
L 137.907068 37.678087 
L 142.790414 36.761455 
L 147.67376 37.930214 
L 152.557106 42.037141 
L 157.440452 46.477606 
L 162.323798 38.713955 
L 167.207144 35.1826 
L 172.09049 34.290807 
L 176.973836 35.410114 
L 181.857182 39.002733 
L 186.740528 57.142982 
L 191.623874 40.093979 
L 196.50722 37.791954 
L 201.390566 38.353628 
L 206.273912 41.877449 
L 211.157258 47.523873 
L 216.040604 43.713614 
L 220.92395 42.702169 
L 225.807296 42.974643 
L 230.690642 43.153273 
L 235.573988 42.87022 
L 240.457334 42.837814 
L 245.34068 43.123582 
L 250.224025 43.54292 
L 255.107371 44.190419 
L 259.990717 45.184546 
L 264.874063 46.583378 
L 269.757409 47.974117 
L 274.640755 49.170984 
L 279.524101 50.213068 
L 284.407447 51.602896 
L 289.290793 53.486007 
L 294.174139 55.362747 
L 299.057485 57.263428 
L 303.940831 58.789717 
L 308.824177 59.797177 
L 313.707523 61.823808 
L 318.590869 64.335749 
L 323.474215 68.172181 
L 328.357561 75.767086 
L 333.240907 70.318181 
L 338.124253 68.947144 
L 343.007599 69.623429 
L 347.890945 72.193631 
L 352.774291 75.534908 
L 357.657637 74.487196 
L 362.540983 74.939954 
L 367.424329 77.181857 
L 372.307675 77.705347 
L 377.191021 75.039548 
L 382.074367 77.047944 
L 386.957713 80.245761 
L 391.841059 74.17444 
L 396.724405 73.408893 
L 401.607751 71.655293 
L 406.491097 72.086398 
L 411.374443 73.861309 
L 416.257789 73.879037 
L 421.141135 76.047625 
L 426.024481 77.912712 
L 430.907827 74.307483 
L 435.791173 71.94836 
L 440.674519 73.83685 
L 445.557865 85.349739 
L 450.441211 76.53806 
" clip-path="url(#p21db21fd02)" style="fill: none; stroke-dasharray: 5.55,2.4; stroke-dashoffset: 0; stroke: #ff0000; stroke-width: 1.5"/>
   </g>
   <g id="line2d_13">
    <path d="M 249.648254 110.635403 
L 249.648254 15.12 
" clip-path="url(#p21db21fd02)" style="fill: none; stroke-dasharray: 1.5,2.475; stroke-dashoffset: 0; stroke: #808080; stroke-width: 1.5"/>
   </g>
   <g id="patch_3">
    <path d="M 79.311614 110.635403 
L 79.311614 15.12 
" style="fill: none; stroke: #000000; stroke-width: 0.8; stroke-linejoin: miter; stroke-linecap: square"/>
   </g>
   <g id="patch_4">
    <path d="M 445.68 110.635403 
L 445.68 15.12 
" style="fill: none; stroke: #000000; stroke-width: 0.8; stroke-linejoin: miter; stroke-linecap: square"/>
   </g>
   <g id="patch_5">
    <path d="M 79.311614 110.635403 
L 445.68 110.635403 
" style="fill: none; stroke: #000000; stroke-width: 0.8; stroke-linejoin: miter; stroke-linecap: square"/>
   </g>
   <g id="patch_6">
    <path d="M 79.311614 15.12 
L 445.68 15.12 
" style="fill: none; stroke: #000000; stroke-width: 0.8; stroke-linejoin: miter; stroke-linecap: square"/>
   </g>
  </g>
  <g id="axes_2">
   <g id="patch_7">
    <path d="M 79.311614 224.64 
L 445.68 224.64 
L 445.68 129.124597 
L 79.311614 129.124597 
z
" style="fill: #ffffff"/>
   </g>
   <g id="matplotlib.axis_3">
    <g id="xtick_6">
     <g id="line2d_14">
      <g>
       <use xlink:href="#m680fffcca1" x="79.311614" y="224.64" style="stroke: #000000; stroke-width: 0.8"/>
      </g>
     </g>
     <g id="text_5">
      <!-- 1 -->
      <g transform="translate(74.857864 242.277812) scale(0.14 -0.14)">
       <use xlink:href="#DejaVuSans-31"/>
      </g>
     </g>
    </g>
    <g id="xtick_7">
     <g id="line2d_15">
      <g>
       <use xlink:href="#m680fffcca1" x="167.240026" y="224.64" style="stroke: #000000; stroke-width: 0.8"/>
      </g>
     </g>
     <g id="text_6">
      <!-- 7 -->
      <g transform="translate(162.786276 242.277812) scale(0.14 -0.14)">
       <defs>
        <path id="DejaVuSans-37" d="M 525 4666 
L 3525 4666 
L 3525 4397 
L 1831 0 
L 1172 0 
L 2766 4134 
L 525 4134 
L 525 4666 
z
" transform="scale(0.015625)"/>
       </defs>
       <use xlink:href="#DejaVuSans-37"/>
      </g>
     </g>
    </g>
    <g id="xtick_8">
     <g id="line2d_16">
      <g>
       <use xlink:href="#m680fffcca1" x="255.168439" y="224.64" style="stroke: #000000; stroke-width: 0.8"/>
      </g>
     </g>
     <g id="text_7">
      <!-- 13 -->
      <g transform="translate(246.260939 242.277812) scale(0.14 -0.14)">
       <use xlink:href="#DejaVuSans-31"/>
       <use xlink:href="#DejaVuSans-33" x="63.623047"/>
      </g>
     </g>
    </g>
    <g id="xtick_9">
     <g id="line2d_17">
      <g>
       <use xlink:href="#m680fffcca1" x="343.096852" y="224.64" style="stroke: #000000; stroke-width: 0.8"/>
      </g>
     </g>
     <g id="text_8">
      <!-- 19 -->
      <g transform="translate(334.189352 242.277812) scale(0.14 -0.14)">
       <use xlink:href="#DejaVuSans-31"/>
       <use xlink:href="#DejaVuSans-39" x="63.623047"/>
      </g>
     </g>
    </g>
    <g id="xtick_10">
     <g id="line2d_18">
      <g>
       <use xlink:href="#m680fffcca1" x="431.025265" y="224.64" style="stroke: #000000; stroke-width: 0.8"/>
      </g>
     </g>
     <g id="text_9">
      <!-- 25 -->
      <g transform="translate(422.117765 242.277812) scale(0.14 -0.14)">
       <defs>
        <path id="DejaVuSans-32" d="M 1228 531 
L 3431 531 
L 3431 0 
L 469 0 
L 469 531 
Q 828 903 1448 1529 
Q 2069 2156 2228 2338 
Q 2531 2678 2651 2914 
Q 2772 3150 2772 3378 
Q 2772 3750 2511 3984 
Q 2250 4219 1831 4219 
Q 1534 4219 1204 4116 
Q 875 4013 500 3803 
L 500 4441 
Q 881 4594 1212 4672 
Q 1544 4750 1819 4750 
Q 2544 4750 2975 4387 
Q 3406 4025 3406 3419 
Q 3406 3131 3298 2873 
Q 3191 2616 2906 2266 
Q 2828 2175 2409 1742 
Q 1991 1309 1228 531 
z
" transform="scale(0.015625)"/>
       </defs>
       <use xlink:href="#DejaVuSans-32"/>
       <use xlink:href="#DejaVuSans-35" x="63.623047"/>
      </g>
     </g>
    </g>
    <g id="text_10">
     <!-- Harmonic order -->
     <g transform="translate(207.963619 259.827187) scale(0.14 -0.14)">
      <defs>
       <path id="DejaVuSans-48" d="M 628 4666 
L 1259 4666 
L 1259 2753 
L 3553 2753 
L 3553 4666 
L 4184 4666 
L 4184 0 
L 3553 0 
L 3553 2222 
L 1259 2222 
L 1259 0 
L 628 0 
L 628 4666 
z
" transform="scale(0.015625)"/>
       <path id="DejaVuSans-61" d="M 2194 1759 
Q 1497 1759 1228 1600 
Q 959 1441 959 1056 
Q 959 750 1161 570 
Q 1363 391 1709 391 
Q 2188 391 2477 730 
Q 2766 1069 2766 1631 
L 2766 1759 
L 2194 1759 
z
M 3341 1997 
L 3341 0 
L 2766 0 
L 2766 531 
Q 2569 213 2275 61 
Q 1981 -91 1556 -91 
Q 1019 -91 701 211 
Q 384 513 384 1019 
Q 384 1609 779 1909 
Q 1175 2209 1959 2209 
L 2766 2209 
L 2766 2266 
Q 2766 2663 2505 2880 
Q 2244 3097 1772 3097 
Q 1472 3097 1187 3025 
Q 903 2953 641 2809 
L 641 3341 
Q 956 3463 1253 3523 
Q 1550 3584 1831 3584 
Q 2591 3584 2966 3190 
Q 3341 2797 3341 1997 
z
" transform="scale(0.015625)"/>
       <path id="DejaVuSans-72" d="M 2631 2963 
Q 2534 3019 2420 3045 
Q 2306 3072 2169 3072 
Q 1681 3072 1420 2755 
Q 1159 2438 1159 1844 
L 1159 0 
L 581 0 
L 581 3500 
L 1159 3500 
L 1159 2956 
Q 1341 3275 1631 3429 
Q 1922 3584 2338 3584 
Q 2397 3584 2469 3576 
Q 2541 3569 2628 3553 
L 2631 2963 
z
" transform="scale(0.015625)"/>
       <path id="DejaVuSans-6d" d="M 3328 2828 
Q 3544 3216 3844 3400 
Q 4144 3584 4550 3584 
Q 5097 3584 5394 3201 
Q 5691 2819 5691 2113 
L 5691 0 
L 5113 0 
L 5113 2094 
Q 5113 2597 4934 2840 
Q 4756 3084 4391 3084 
Q 3944 3084 3684 2787 
Q 3425 2491 3425 1978 
L 3425 0 
L 2847 0 
L 2847 2094 
Q 2847 2600 2669 2842 
Q 2491 3084 2119 3084 
Q 1678 3084 1418 2786 
Q 1159 2488 1159 1978 
L 1159 0 
L 581 0 
L 581 3500 
L 1159 3500 
L 1159 2956 
Q 1356 3278 1631 3431 
Q 1906 3584 2284 3584 
Q 2666 3584 2933 3390 
Q 3200 3197 3328 2828 
z
" transform="scale(0.015625)"/>
       <path id="DejaVuSans-6f" d="M 1959 3097 
Q 1497 3097 1228 2736 
Q 959 2375 959 1747 
Q 959 1119 1226 758 
Q 1494 397 1959 397 
Q 2419 397 2687 759 
Q 2956 1122 2956 1747 
Q 2956 2369 2687 2733 
Q 2419 3097 1959 3097 
z
M 1959 3584 
Q 2709 3584 3137 3096 
Q 3566 2609 3566 1747 
Q 3566 888 3137 398 
Q 2709 -91 1959 -91 
Q 1206 -91 779 398 
Q 353 888 353 1747 
Q 353 2609 779 3096 
Q 1206 3584 1959 3584 
z
" transform="scale(0.015625)"/>
       <path id="DejaVuSans-63" d="M 3122 3366 
L 3122 2828 
Q 2878 2963 2633 3030 
Q 2388 3097 2138 3097 
Q 1578 3097 1268 2742 
Q 959 2388 959 1747 
Q 959 1106 1268 751 
Q 1578 397 2138 397 
Q 2388 397 2633 464 
Q 2878 531 3122 666 
L 3122 134 
Q 2881 22 2623 -34 
Q 2366 -91 2075 -91 
Q 1284 -91 818 406 
Q 353 903 353 1747 
Q 353 2603 823 3093 
Q 1294 3584 2113 3584 
Q 2378 3584 2631 3529 
Q 2884 3475 3122 3366 
z
" transform="scale(0.015625)"/>
       <path id="DejaVuSans-20" transform="scale(0.015625)"/>
       <path id="DejaVuSans-64" d="M 2906 2969 
L 2906 4863 
L 3481 4863 
L 3481 0 
L 2906 0 
L 2906 525 
Q 2725 213 2448 61 
Q 2172 -91 1784 -91 
Q 1150 -91 751 415 
Q 353 922 353 1747 
Q 353 2572 751 3078 
Q 1150 3584 1784 3584 
Q 2172 3584 2448 3432 
Q 2725 3281 2906 2969 
z
M 947 1747 
Q 947 1113 1208 752 
Q 1469 391 1925 391 
Q 2381 391 2643 752 
Q 2906 1113 2906 1747 
Q 2906 2381 2643 2742 
Q 2381 3103 1925 3103 
Q 1469 3103 1208 2742 
Q 947 2381 947 1747 
z
" transform="scale(0.015625)"/>
      </defs>
      <use xlink:href="#DejaVuSans-48"/>
      <use xlink:href="#DejaVuSans-61" x="75.195312"/>
      <use xlink:href="#DejaVuSans-72" x="136.474609"/>
      <use xlink:href="#DejaVuSans-6d" x="175.837891"/>
      <use xlink:href="#DejaVuSans-6f" x="273.25"/>
      <use xlink:href="#DejaVuSans-6e" x="334.431641"/>
      <use xlink:href="#DejaVuSans-69" x="397.810547"/>
      <use xlink:href="#DejaVuSans-63" x="425.59375"/>
      <use xlink:href="#DejaVuSans-20" x="480.574219"/>
      <use xlink:href="#DejaVuSans-6f" x="512.361328"/>
      <use xlink:href="#DejaVuSans-72" x="573.542969"/>
      <use xlink:href="#DejaVuSans-64" x="612.90625"/>
      <use xlink:href="#DejaVuSans-65" x="676.382812"/>
      <use xlink:href="#DejaVuSans-72" x="737.90625"/>
     </g>
    </g>
   </g>
   <g id="matplotlib.axis_4">
    <g id="ytick_4">
     <g id="line2d_19">
      <g>
       <use xlink:href="#m7c441fd0b0" x="79.311614" y="224.64" style="stroke: #000000; stroke-width: 0.8"/>
      </g>
     </g>
     <g id="text_11">
      <!-- $\mathdefault{10^{-15}}$ -->
      <g transform="translate(33.251614 229.958906) scale(0.14 -0.14)">
       <use xlink:href="#DejaVuSans-31" transform="translate(0 0.684375)"/>
       <use xlink:href="#DejaVuSans-30" transform="translate(63.623047 0.684375)"/>
       <use xlink:href="#DejaVuSans-2212" transform="translate(128.203125 38.965625) scale(0.7)"/>
       <use xlink:href="#DejaVuSans-31" transform="translate(186.855469 38.965625) scale(0.7)"/>
       <use xlink:href="#DejaVuSans-35" transform="translate(231.391602 38.965625) scale(0.7)"/>
      </g>
     </g>
    </g>
    <g id="ytick_5">
     <g id="line2d_20">
      <g>
       <use xlink:href="#m7c441fd0b0" x="79.311614" y="189.263925" style="stroke: #000000; stroke-width: 0.8"/>
      </g>
     </g>
     <g id="text_12">
      <!-- $\mathdefault{10^{-9}}$ -->
      <g transform="translate(39.411614 194.582831) scale(0.14 -0.14)">
       <use xlink:href="#DejaVuSans-31" transform="translate(0 0.765625)"/>
       <use xlink:href="#DejaVuSans-30" transform="translate(63.623047 0.765625)"/>
       <use xlink:href="#DejaVuSans-2212" transform="translate(128.203125 39.046875) scale(0.7)"/>
       <use xlink:href="#DejaVuSans-39" transform="translate(186.855469 39.046875) scale(0.7)"/>
      </g>
     </g>
    </g>
    <g id="ytick_6">
     <g id="line2d_21">
      <g>
       <use xlink:href="#m7c441fd0b0" x="79.311614" y="153.88785" style="stroke: #000000; stroke-width: 0.8"/>
      </g>
     </g>
     <g id="text_13">
      <!-- $\mathdefault{10^{-3}}$ -->
      <g transform="translate(39.411614 159.206756) scale(0.14 -0.14)">
       <use xlink:href="#DejaVuSans-31" transform="translate(0 0.765625)"/>
       <use xlink:href="#DejaVuSans-30" transform="translate(63.623047 0.765625)"/>
       <use xlink:href="#DejaVuSans-2212" transform="translate(128.203125 39.046875) scale(0.7)"/>
       <use xlink:href="#DejaVuSans-33" transform="translate(186.855469 39.046875) scale(0.7)"/>
      </g>
     </g>
    </g>
    <g id="text_14">
     <!-- Intensity -->
     <g transform="translate(26.340051 207.349799) rotate(-90) scale(0.14 -0.14)">
      <use xlink:href="#DejaVuSans-49"/>
      <use xlink:href="#DejaVuSans-6e" x="29.492188"/>
      <use xlink:href="#DejaVuSans-74" x="92.871094"/>
      <use xlink:href="#DejaVuSans-65" x="132.080078"/>
      <use xlink:href="#DejaVuSans-6e" x="193.603516"/>
      <use xlink:href="#DejaVuSans-73" x="256.982422"/>
      <use xlink:href="#DejaVuSans-69" x="309.082031"/>
      <use xlink:href="#DejaVuSans-74" x="336.865234"/>
      <use xlink:href="#DejaVuSans-79" x="376.074219"/>
     </g>
    </g>
   </g>
   <g id="line2d_22">
    <path d="M 79.306916 131.490867 
L 84.190262 132.014467 
L 89.073608 137.712647 
L 93.956954 157.821723 
L 98.8403 154.481289 
L 103.723646 149.341927 
L 108.606992 147.186234 
L 113.490338 147.193549 
L 118.373684 149.35717 
L 123.25703 154.11336 
L 128.140376 166.65331 
L 133.023722 154.931157 
L 137.907068 151.698404 
L 142.790414 150.772789 
L 147.67376 151.937002 
L 152.557106 156.028041 
L 157.440452 160.528279 
L 162.323798 152.790016 
L 167.207144 149.216461 
L 172.09049 148.306083 
L 176.973836 149.40613 
L 181.857182 152.943528 
L 186.740528 171.319163 
L 191.623874 154.142363 
L 196.50722 151.752458 
L 201.390566 152.319092 
L 206.273912 155.869983 
L 211.157258 161.418767 
L 216.040604 157.678377 
L 220.92395 156.729672 
L 225.807296 157.02606 
L 230.690642 157.19252 
L 235.573988 156.920592 
L 240.457334 156.896232 
L 245.34068 157.141122 
L 250.224025 157.53672 
L 255.107371 158.202112 
L 259.990717 159.223081 
L 264.874063 160.557082 
L 269.757409 161.99733 
L 274.640755 163.240786 
L 279.524101 164.337375 
L 284.407447 165.631373 
L 289.290793 167.318093 
L 294.174139 169.391227 
L 299.057485 171.534563 
L 303.940831 173.26009 
L 308.824177 174.686938 
L 313.707523 176.28964 
L 318.590869 178.347673 
L 323.474215 180.967073 
L 328.357561 183.663449 
L 333.240907 185.753912 
L 338.124253 187.387139 
L 343.007599 188.973708 
L 347.890945 191.298964 
L 352.774291 194.417936 
L 357.657637 197.281797 
L 362.540983 200.339629 
L 367.424329 202.06269 
L 372.307675 202.550127 
L 377.191021 206.746029 
L 382.074367 207.874887 
L 386.957713 210.541315 
L 391.841059 220.010445 
L 396.724405 213.165089 
L 401.607751 213.833583 
L 406.491097 216.778867 
L 411.374443 214.799576 
L 416.257789 216.31522 
L 421.141135 216.3949 
L 426.024481 216.500032 
L 430.907827 217.067502 
L 435.791173 217.287372 
L 440.674519 217.571825 
L 445.557865 217.924069 
L 450.441211 218.20524 
" clip-path="url(#p6bf32025a5)" style="fill: none; stroke: #000000; stroke-width: 1.5; stroke-linecap: square"/>
   </g>
   <g id="line2d_23">
    <path d="M 79.306916 131.487262 
L 84.190262 132.010785 
L 89.073608 137.708716 
L 93.956954 157.808102 
L 98.8403 154.475184 
L 103.723646 149.333712 
L 108.606992 147.177501 
L 113.490338 147.184739 
L 118.373684 149.348077 
L 123.25703 154.10046 
L 128.140376 166.360914 
L 133.023722 154.91138 
L 137.907068 151.682685 
L 142.790414 150.766052 
L 147.67376 151.934812 
L 152.557106 156.041738 
L 157.440452 160.482203 
L 162.323798 152.718552 
L 167.207144 149.187198 
L 172.09049 148.295404 
L 176.973836 149.414712 
L 181.857182 153.00733 
L 186.740528 171.147579 
L 191.623874 154.098577 
L 196.50722 151.796552 
L 201.390566 152.358225 
L 206.273912 155.882046 
L 211.157258 161.52847 
L 216.040604 157.718212 
L 220.92395 156.706766 
L 225.807296 156.979241 
L 230.690642 157.15787 
L 235.573988 156.874817 
L 240.457334 156.842411 
L 245.34068 157.128179 
L 250.224025 157.547517 
L 255.107371 158.195016 
L 259.990717 159.189143 
L 264.874063 160.587975 
L 269.757409 161.978714 
L 274.640755 163.175581 
L 279.524101 164.217666 
L 284.407447 165.607493 
L 289.290793 167.490604 
L 294.174139 169.367344 
L 299.057485 171.268026 
L 303.940831 172.794314 
L 308.824177 173.801774 
L 313.707523 175.828405 
L 318.590869 178.340346 
L 323.474215 182.176779 
L 328.357561 189.771683 
L 333.240907 184.322778 
L 338.124253 182.951741 
L 343.007599 183.628026 
L 347.890945 186.198228 
L 352.774291 189.539505 
L 357.657637 188.491793 
L 362.540983 188.944552 
L 367.424329 191.186454 
L 372.307675 191.709945 
L 377.191021 189.044146 
L 382.074367 191.052542 
L 386.957713 194.250358 
L 391.841059 188.179037 
L 396.724405 187.41349 
L 401.607751 185.65989 
L 406.491097 186.090995 
L 411.374443 187.865906 
L 416.257789 187.883634 
L 421.141135 190.052222 
L 426.024481 191.917309 
L 430.907827 188.31208 
L 435.791173 185.952958 
L 440.674519 187.841448 
L 445.557865 199.354337 
L 450.441211 190.542657 
" clip-path="url(#p6bf32025a5)" style="fill: none; stroke-dasharray: 5.55,2.4; stroke-dashoffset: 0; stroke: #ff0000; stroke-width: 1.5"/>
   </g>
   <g id="line2d_24">
    <path d="M 79.306916 131.702744 
L 84.190262 132.224998 
L 89.073608 137.910946 
L 93.956954 157.769488 
L 98.8403 154.408754 
L 103.723646 149.28763 
L 108.606992 147.16085 
L 113.490338 147.189243 
L 118.373684 149.340798 
L 123.25703 153.937886 
L 128.140376 171.520373 
L 133.023722 155.455327 
L 137.907068 152.417239 
L 142.790414 151.913502 
L 147.67376 153.83895 
L 152.557106 155.698902 
L 157.440452 152.936528 
L 162.323798 151.777005 
L 167.207144 152.345743 
L 172.09049 153.890641 
L 176.973836 153.679982 
L 181.857182 154.696327 
L 186.740528 160.295805 
L 191.623874 158.470798 
L 196.50722 154.251536 
L 201.390566 154.014886 
L 206.273912 154.15158 
L 211.157258 152.724423 
L 216.040604 151.175468 
L 220.92395 150.024103 
L 225.807296 150.592541 
L 230.690642 154.52078 
L 235.573988 158.007274 
L 240.457334 151.852528 
L 245.34068 150.668713 
L 250.224025 151.544116 
L 255.107371 153.652837 
L 259.990717 155.236433 
L 264.874063 155.426882 
L 269.757409 155.01358 
L 274.640755 154.702333 
L 279.524101 155.078204 
L 284.407447 156.23726 
L 289.290793 157.90904 
L 294.174139 159.501204 
L 299.057485 160.45657 
L 303.940831 161.016194 
L 308.824177 161.713595 
L 313.707523 162.86907 
L 318.590869 164.459084 
L 323.474215 166.268163 
L 328.357561 168.164122 
L 333.240907 169.725855 
L 338.124253 170.735645 
L 343.007599 171.549996 
L 347.890945 173.052673 
L 352.774291 176.282569 
L 357.657637 181.509762 
L 362.540983 186.939476 
L 367.424329 186.529365 
L 372.307675 184.980158 
L 377.191021 183.942561 
L 382.074367 181.430804 
L 386.957713 181.012963 
L 391.841059 184.371803 
L 396.724405 191.780015 
L 401.607751 184.676435 
L 406.491097 184.303272 
L 411.374443 185.104717 
L 416.257789 187.181219 
L 421.141135 188.225905 
L 426.024481 187.856258 
L 430.907827 187.601108 
L 435.791173 184.9841 
L 440.674519 182.971691 
L 445.557865 182.550285 
L 450.441211 183.065198 
" clip-path="url(#p6bf32025a5)" style="fill: none; stroke-dasharray: 5.55,2.4; stroke-dashoffset: 0; stroke: #800080; stroke-width: 1.5"/>
   </g>
   <g id="line2d_25">
    <path d="M 79.306916 131.48639 
L 84.190262 132.011924 
L 89.073608 137.715616 
L 93.956954 157.961849 
L 98.8403 154.661376 
L 103.723646 149.502092 
L 108.606992 147.334462 
L 113.490338 147.321603 
L 118.373684 149.436309 
L 123.25703 154.049979 
L 128.140376 171.499265 
L 133.023722 155.468454 
L 137.907068 152.276875 
L 142.790414 151.522218 
L 147.67376 153.027503 
L 152.557106 156.121462 
L 157.440452 154.738205 
L 162.323798 152.46063 
L 167.207144 151.179903 
L 172.09049 151.257207 
L 176.973836 152.115444 
L 181.857182 155.142297 
L 186.740528 164.218886 
L 191.623874 154.622462 
L 196.50722 153.686464 
L 201.390566 158.915822 
L 206.273912 155.272401 
L 211.157258 151.948399 
L 216.040604 151.439119 
L 220.92395 152.094838 
L 225.807296 152.677394 
L 230.690642 152.451652 
L 235.573988 152.542164 
L 240.457334 153.464401 
L 245.34068 155.069233 
L 250.224025 157.199967 
L 255.107371 159.593488 
L 259.990717 161.845333 
L 264.874063 165.298379 
L 269.757409 170.887085 
L 274.640755 161.948065 
L 279.524101 159.585407 
L 284.407447 159.313637 
L 289.290793 160.276115 
L 294.174139 163.646886 
L 299.057485 162.623589 
L 303.940831 157.25761 
L 308.824177 155.537795 
L 313.707523 156.087529 
L 318.590869 159.232874 
L 323.474215 169.926313 
L 328.357561 163.845114 
L 333.240907 163.175044 
L 338.124253 165.9429 
L 343.007599 167.541361 
L 347.890945 164.188937 
L 352.774291 163.048229 
L 357.657637 163.054718 
L 362.540983 162.97986 
L 367.424329 163.002185 
L 372.307675 163.96379 
L 377.191021 165.982402 
L 382.074367 168.570343 
L 386.957713 171.600621 
L 391.841059 174.778552 
L 396.724405 178.188799 
L 401.607751 180.130419 
L 406.491097 182.165474 
L 411.374443 189.305437 
L 416.257789 183.660387 
L 421.141135 181.736993 
L 426.024481 184.419387 
L 430.907827 186.471819 
L 435.791173 182.759851 
L 440.674519 182.351499 
L 445.557865 180.487198 
L 450.441211 179.625664 
" clip-path="url(#p6bf32025a5)" style="fill: none; stroke-dasharray: 5.55,2.4; stroke-dashoffset: 0; stroke: #ffa500; stroke-width: 1.5"/>
   </g>
   <g id="line2d_26">
    <path d="M 249.648254 224.64 
L 249.648254 129.124597 
" clip-path="url(#p6bf32025a5)" style="fill: none; stroke-dasharray: 1.5,2.475; stroke-dashoffset: 0; stroke: #808080; stroke-width: 1.5"/>
   </g>
   <g id="patch_8">
    <path d="M 79.311614 224.64 
L 79.311614 129.124597 
" style="fill: none; stroke: #000000; stroke-width: 0.8; stroke-linejoin: miter; stroke-linecap: square"/>
   </g>
   <g id="patch_9">
    <path d="M 445.68 224.64 
L 445.68 129.124597 
" style="fill: none; stroke: #000000; stroke-width: 0.8; stroke-linejoin: miter; stroke-linecap: square"/>
   </g>
   <g id="patch_10">
    <path d="M 79.311614 224.64 
L 445.68 224.64 
" style="fill: none; stroke: #000000; stroke-width: 0.8; stroke-linejoin: miter; stroke-linecap: square"/>
   </g>
   <g id="patch_11">
    <path d="M 79.311614 129.124597 
L 445.68 129.124597 
" style="fill: none; stroke: #000000; stroke-width: 0.8; stroke-linejoin: miter; stroke-linecap: square"/>
   </g>
  </g>
  <g id="legend_1">
   <g id="patch_12">
    <path d="M 14.412812 338.6 
L 446.387188 338.6 
Q 449.187188 338.6 449.187188 335.8 
L 449.187188 275.551875 
Q 449.187188 272.751875 446.387188 272.751875 
L 14.412812 272.751875 
Q 11.612812 272.751875 11.612812 275.551875 
L 11.612812 335.8 
Q 11.612812 338.6 14.412812 338.6 
z
" style="fill: #ffffff; opacity: 0.8; stroke: #cccccc; stroke-linejoin: miter"/>
   </g>
   <g id="line2d_27">
    <path d="M 17.212812 284.089687 
L 31.212812 284.089687 
L 45.212812 284.089687 
" style="fill: none; stroke: #000000; stroke-width: 1.5; stroke-linecap: square"/>
   </g>
   <g id="text_15">
    <!-- DVR -->
    <g transform="translate(56.412812 288.989687) scale(0.14 -0.14)">
     <defs>
      <path id="DejaVuSans-44" d="M 1259 4147 
L 1259 519 
L 2022 519 
Q 2988 519 3436 956 
Q 3884 1394 3884 2338 
Q 3884 3275 3436 3711 
Q 2988 4147 2022 4147 
L 1259 4147 
z
M 628 4666 
L 1925 4666 
Q 3281 4666 3915 4102 
Q 4550 3538 4550 2338 
Q 4550 1131 3912 565 
Q 3275 0 1925 0 
L 628 0 
L 628 4666 
z
" transform="scale(0.015625)"/>
      <path id="DejaVuSans-56" d="M 1831 0 
L 50 4666 
L 709 4666 
L 2188 738 
L 3669 4666 
L 4325 4666 
L 2547 0 
L 1831 0 
z
" transform="scale(0.015625)"/>
      <path id="DejaVuSans-52" d="M 2841 2188 
Q 3044 2119 3236 1894 
Q 3428 1669 3622 1275 
L 4263 0 
L 3584 0 
L 2988 1197 
Q 2756 1666 2539 1819 
Q 2322 1972 1947 1972 
L 1259 1972 
L 1259 0 
L 628 0 
L 628 4666 
L 2053 4666 
Q 2853 4666 3247 4331 
Q 3641 3997 3641 3322 
Q 3641 2881 3436 2590 
Q 3231 2300 2841 2188 
z
M 1259 4147 
L 1259 2491 
L 2053 2491 
Q 2509 2491 2742 2702 
Q 2975 2913 2975 3322 
Q 2975 3731 2742 3939 
Q 2509 4147 2053 4147 
L 1259 4147 
z
" transform="scale(0.015625)"/>
     </defs>
     <use xlink:href="#DejaVuSans-44"/>
     <use xlink:href="#DejaVuSans-56" x="75.251953"/>
     <use xlink:href="#DejaVuSans-52" x="143.660156"/>
    </g>
   </g>
   <g id="line2d_28">
    <path d="M 17.212812 304.639062 
L 31.212812 304.639062 
L 45.212812 304.639062 
" style="fill: none; stroke-dasharray: 5.55,2.4; stroke-dashoffset: 0; stroke: #0000ff; stroke-width: 1.5"/>
   </g>
   <g id="text_16">
    <!-- Rothe ($M_{max}=50$) -->
    <g transform="translate(56.412812 309.539062) scale(0.14 -0.14)">
     <defs>
      <path id="DejaVuSans-68" d="M 3513 2113 
L 3513 0 
L 2938 0 
L 2938 2094 
Q 2938 2591 2744 2837 
Q 2550 3084 2163 3084 
Q 1697 3084 1428 2787 
Q 1159 2491 1159 1978 
L 1159 0 
L 581 0 
L 581 4863 
L 1159 4863 
L 1159 2956 
Q 1366 3272 1645 3428 
Q 1925 3584 2291 3584 
Q 2894 3584 3203 3211 
Q 3513 2838 3513 2113 
z
" transform="scale(0.015625)"/>
      <path id="DejaVuSans-28" d="M 1984 4856 
Q 1566 4138 1362 3434 
Q 1159 2731 1159 2009 
Q 1159 1288 1364 580 
Q 1569 -128 1984 -844 
L 1484 -844 
Q 1016 -109 783 600 
Q 550 1309 550 2009 
Q 550 2706 781 3412 
Q 1013 4119 1484 4856 
L 1984 4856 
z
" transform="scale(0.015625)"/>
      <path id="DejaVuSans-Oblique-4d" d="M 1081 4666 
L 2028 4666 
L 2572 1522 
L 4378 4666 
L 5350 4666 
L 4441 0 
L 3828 0 
L 4622 4091 
L 2791 897 
L 2175 897 
L 1581 4103 
L 788 0 
L 172 0 
L 1081 4666 
z
" transform="scale(0.015625)"/>
      <path id="DejaVuSans-Oblique-6d" d="M 5747 2113 
L 5338 0 
L 4763 0 
L 5166 2094 
Q 5191 2228 5203 2325 
Q 5216 2422 5216 2491 
Q 5216 2772 5059 2928 
Q 4903 3084 4622 3084 
Q 4203 3084 3875 2770 
Q 3547 2456 3450 1953 
L 3066 0 
L 2491 0 
L 2900 2094 
Q 2925 2209 2937 2307 
Q 2950 2406 2950 2484 
Q 2950 2769 2794 2926 
Q 2638 3084 2363 3084 
Q 1938 3084 1609 2770 
Q 1281 2456 1184 1953 
L 800 0 
L 225 0 
L 909 3500 
L 1484 3500 
L 1375 2956 
Q 1609 3263 1923 3423 
Q 2238 3584 2597 3584 
Q 2978 3584 3223 3384 
Q 3469 3184 3519 2828 
Q 3781 3197 4126 3390 
Q 4472 3584 4856 3584 
Q 5306 3584 5551 3325 
Q 5797 3066 5797 2591 
Q 5797 2488 5784 2364 
Q 5772 2241 5747 2113 
z
" transform="scale(0.015625)"/>
      <path id="DejaVuSans-Oblique-61" d="M 3438 1997 
L 3047 0 
L 2472 0 
L 2578 531 
Q 2325 219 2001 64 
Q 1678 -91 1281 -91 
Q 834 -91 548 182 
Q 263 456 263 884 
Q 263 1497 752 1853 
Q 1241 2209 2100 2209 
L 2900 2209 
L 2931 2363 
Q 2938 2388 2941 2417 
Q 2944 2447 2944 2509 
Q 2944 2788 2717 2942 
Q 2491 3097 2081 3097 
Q 1800 3097 1504 3025 
Q 1209 2953 897 2809 
L 997 3341 
Q 1322 3463 1633 3523 
Q 1944 3584 2234 3584 
Q 2853 3584 3176 3315 
Q 3500 3047 3500 2534 
Q 3500 2431 3484 2292 
Q 3469 2153 3438 1997 
z
M 2816 1759 
L 2241 1759 
Q 1534 1759 1195 1570 
Q 856 1381 856 984 
Q 856 709 1029 553 
Q 1203 397 1509 397 
Q 1978 397 2328 733 
Q 2678 1069 2791 1631 
L 2816 1759 
z
" transform="scale(0.015625)"/>
      <path id="DejaVuSans-Oblique-78" d="M 3841 3500 
L 2234 1784 
L 3219 0 
L 2559 0 
L 1819 1388 
L 531 0 
L -166 0 
L 1556 1844 
L 641 3500 
L 1300 3500 
L 1972 2234 
L 3144 3500 
L 3841 3500 
z
" transform="scale(0.015625)"/>
      <path id="DejaVuSans-3d" d="M 678 2906 
L 4684 2906 
L 4684 2381 
L 678 2381 
L 678 2906 
z
M 678 1631 
L 4684 1631 
L 4684 1100 
L 678 1100 
L 678 1631 
z
" transform="scale(0.015625)"/>
      <path id="DejaVuSans-29" d="M 513 4856 
L 1013 4856 
Q 1481 4119 1714 3412 
Q 1947 2706 1947 2009 
Q 1947 1309 1714 600 
Q 1481 -109 1013 -844 
L 513 -844 
Q 928 -128 1133 580 
Q 1338 1288 1338 2009 
Q 1338 2731 1133 3434 
Q 928 4138 513 4856 
z
" transform="scale(0.015625)"/>
     </defs>
     <use xlink:href="#DejaVuSans-52" transform="translate(0 0.015625)"/>
     <use xlink:href="#DejaVuSans-6f" transform="translate(69.482422 0.015625)"/>
     <use xlink:href="#DejaVuSans-74" transform="translate(130.664062 0.015625)"/>
     <use xlink:href="#DejaVuSans-68" transform="translate(169.873047 0.015625)"/>
     <use xlink:href="#DejaVuSans-65" transform="translate(233.251953 0.015625)"/>
     <use xlink:href="#DejaVuSans-20" transform="translate(294.775391 0.015625)"/>
     <use xlink:href="#DejaVuSans-28" transform="translate(326.5625 0.015625)"/>
     <use xlink:href="#DejaVuSans-Oblique-4d" transform="translate(365.576172 0.015625)"/>
     <use xlink:href="#DejaVuSans-Oblique-6d" transform="translate(451.855469 -16.390625) scale(0.7)"/>
     <use xlink:href="#DejaVuSans-Oblique-61" transform="translate(520.043945 -16.390625) scale(0.7)"/>
     <use xlink:href="#DejaVuSans-Oblique-78" transform="translate(562.939453 -16.390625) scale(0.7)"/>
     <use xlink:href="#DejaVuSans-3d" transform="translate(626.582031 0.015625)"/>
     <use xlink:href="#DejaVuSans-35" transform="translate(729.853516 0.015625)"/>
     <use xlink:href="#DejaVuSans-30" transform="translate(793.476562 0.015625)"/>
     <use xlink:href="#DejaVuSans-29" transform="translate(857.099609 0.015625)"/>
    </g>
   </g>
   <g id="line2d_29">
    <path d="M 17.212812 325.188437 
L 31.212812 325.188437 
L 45.212812 325.188437 
" style="fill: none; stroke-dasharray: 5.55,2.4; stroke-dashoffset: 0; stroke: #008000; stroke-width: 1.5"/>
   </g>
   <g id="text_17">
    <!-- Rothe ($M_{max}=69$) -->
    <g transform="translate(56.412812 330.088437) scale(0.14 -0.14)">
     <defs>
      <path id="DejaVuSans-36" d="M 2113 2584 
Q 1688 2584 1439 2293 
Q 1191 2003 1191 1497 
Q 1191 994 1439 701 
Q 1688 409 2113 409 
Q 2538 409 2786 701 
Q 3034 994 3034 1497 
Q 3034 2003 2786 2293 
Q 2538 2584 2113 2584 
z
M 3366 4563 
L 3366 3988 
Q 3128 4100 2886 4159 
Q 2644 4219 2406 4219 
Q 1781 4219 1451 3797 
Q 1122 3375 1075 2522 
Q 1259 2794 1537 2939 
Q 1816 3084 2150 3084 
Q 2853 3084 3261 2657 
Q 3669 2231 3669 1497 
Q 3669 778 3244 343 
Q 2819 -91 2113 -91 
Q 1303 -91 875 529 
Q 447 1150 447 2328 
Q 447 3434 972 4092 
Q 1497 4750 2381 4750 
Q 2619 4750 2861 4703 
Q 3103 4656 3366 4563 
z
" transform="scale(0.015625)"/>
     </defs>
     <use xlink:href="#DejaVuSans-52" transform="translate(0 0.015625)"/>
     <use xlink:href="#DejaVuSans-6f" transform="translate(69.482422 0.015625)"/>
     <use xlink:href="#DejaVuSans-74" transform="translate(130.664062 0.015625)"/>
     <use xlink:href="#DejaVuSans-68" transform="translate(169.873047 0.015625)"/>
     <use xlink:href="#DejaVuSans-65" transform="translate(233.251953 0.015625)"/>
     <use xlink:href="#DejaVuSans-20" transform="translate(294.775391 0.015625)"/>
     <use xlink:href="#DejaVuSans-28" transform="translate(326.5625 0.015625)"/>
     <use xlink:href="#DejaVuSans-Oblique-4d" transform="translate(365.576172 0.015625)"/>
     <use xlink:href="#DejaVuSans-Oblique-6d" transform="translate(451.855469 -16.390625) scale(0.7)"/>
     <use xlink:href="#DejaVuSans-Oblique-61" transform="translate(520.043945 -16.390625) scale(0.7)"/>
     <use xlink:href="#DejaVuSans-Oblique-78" transform="translate(562.939453 -16.390625) scale(0.7)"/>
     <use xlink:href="#DejaVuSans-3d" transform="translate(626.582031 0.015625)"/>
     <use xlink:href="#DejaVuSans-36" transform="translate(729.853516 0.015625)"/>
     <use xlink:href="#DejaVuSans-39" transform="translate(793.476562 0.015625)"/>
     <use xlink:href="#DejaVuSans-29" transform="translate(857.099609 0.015625)"/>
    </g>
   </g>
   <g id="line2d_30">
    <path d="M 209.992813 284.089687 
L 223.992813 284.089687 
L 237.992813 284.089687 
" style="fill: none; stroke-dasharray: 5.55,2.4; stroke-dashoffset: 0; stroke: #ff0000; stroke-width: 1.5"/>
   </g>
   <g id="text_18">
    <!-- Rothe ($M_{max}=94$) -->
    <g transform="translate(249.192813 288.989687) scale(0.14 -0.14)">
     <defs>
      <path id="DejaVuSans-34" d="M 2419 4116 
L 825 1625 
L 2419 1625 
L 2419 4116 
z
M 2253 4666 
L 3047 4666 
L 3047 1625 
L 3713 1625 
L 3713 1100 
L 3047 1100 
L 3047 0 
L 2419 0 
L 2419 1100 
L 313 1100 
L 313 1709 
L 2253 4666 
z
" transform="scale(0.015625)"/>
     </defs>
     <use xlink:href="#DejaVuSans-52" transform="translate(0 0.015625)"/>
     <use xlink:href="#DejaVuSans-6f" transform="translate(69.482422 0.015625)"/>
     <use xlink:href="#DejaVuSans-74" transform="translate(130.664062 0.015625)"/>
     <use xlink:href="#DejaVuSans-68" transform="translate(169.873047 0.015625)"/>
     <use xlink:href="#DejaVuSans-65" transform="translate(233.251953 0.015625)"/>
     <use xlink:href="#DejaVuSans-20" transform="translate(294.775391 0.015625)"/>
     <use xlink:href="#DejaVuSans-28" transform="translate(326.5625 0.015625)"/>
     <use xlink:href="#DejaVuSans-Oblique-4d" transform="translate(365.576172 0.015625)"/>
     <use xlink:href="#DejaVuSans-Oblique-6d" transform="translate(451.855469 -16.390625) scale(0.7)"/>
     <use xlink:href="#DejaVuSans-Oblique-61" transform="translate(520.043945 -16.390625) scale(0.7)"/>
     <use xlink:href="#DejaVuSans-Oblique-78" transform="translate(562.939453 -16.390625) scale(0.7)"/>
     <use xlink:href="#DejaVuSans-3d" transform="translate(626.582031 0.015625)"/>
     <use xlink:href="#DejaVuSans-39" transform="translate(729.853516 0.015625)"/>
     <use xlink:href="#DejaVuSans-34" transform="translate(793.476562 0.015625)"/>
     <use xlink:href="#DejaVuSans-29" transform="translate(857.099609 0.015625)"/>
    </g>
   </g>
   <g id="line2d_31">
    <path d="M 209.992813 304.639062 
L 223.992813 304.639062 
L 237.992813 304.639062 
" style="fill: none; stroke-dasharray: 5.55,2.4; stroke-dashoffset: 0; stroke: #800080; stroke-width: 1.5"/>
   </g>
   <g id="text_19">
    <!-- 6-aug-ccPVTZ+8K (HLM) -->
    <g transform="translate(249.192813 309.539062) scale(0.14 -0.14)">
     <defs>
      <path id="DejaVuSans-2d" d="M 313 2009 
L 1997 2009 
L 1997 1497 
L 313 1497 
L 313 2009 
z
" transform="scale(0.015625)"/>
      <path id="DejaVuSans-75" d="M 544 1381 
L 544 3500 
L 1119 3500 
L 1119 1403 
Q 1119 906 1312 657 
Q 1506 409 1894 409 
Q 2359 409 2629 706 
Q 2900 1003 2900 1516 
L 2900 3500 
L 3475 3500 
L 3475 0 
L 2900 0 
L 2900 538 
Q 2691 219 2414 64 
Q 2138 -91 1772 -91 
Q 1169 -91 856 284 
Q 544 659 544 1381 
z
M 1991 3584 
L 1991 3584 
z
" transform="scale(0.015625)"/>
      <path id="DejaVuSans-67" d="M 2906 1791 
Q 2906 2416 2648 2759 
Q 2391 3103 1925 3103 
Q 1463 3103 1205 2759 
Q 947 2416 947 1791 
Q 947 1169 1205 825 
Q 1463 481 1925 481 
Q 2391 481 2648 825 
Q 2906 1169 2906 1791 
z
M 3481 434 
Q 3481 -459 3084 -895 
Q 2688 -1331 1869 -1331 
Q 1566 -1331 1297 -1286 
Q 1028 -1241 775 -1147 
L 775 -588 
Q 1028 -725 1275 -790 
Q 1522 -856 1778 -856 
Q 2344 -856 2625 -561 
Q 2906 -266 2906 331 
L 2906 616 
Q 2728 306 2450 153 
Q 2172 0 1784 0 
Q 1141 0 747 490 
Q 353 981 353 1791 
Q 353 2603 747 3093 
Q 1141 3584 1784 3584 
Q 2172 3584 2450 3431 
Q 2728 3278 2906 2969 
L 2906 3500 
L 3481 3500 
L 3481 434 
z
" transform="scale(0.015625)"/>
      <path id="DejaVuSans-50" d="M 1259 4147 
L 1259 2394 
L 2053 2394 
Q 2494 2394 2734 2622 
Q 2975 2850 2975 3272 
Q 2975 3691 2734 3919 
Q 2494 4147 2053 4147 
L 1259 4147 
z
M 628 4666 
L 2053 4666 
Q 2838 4666 3239 4311 
Q 3641 3956 3641 3272 
Q 3641 2581 3239 2228 
Q 2838 1875 2053 1875 
L 1259 1875 
L 1259 0 
L 628 0 
L 628 4666 
z
" transform="scale(0.015625)"/>
      <path id="DejaVuSans-54" d="M -19 4666 
L 3928 4666 
L 3928 4134 
L 2272 4134 
L 2272 0 
L 1638 0 
L 1638 4134 
L -19 4134 
L -19 4666 
z
" transform="scale(0.015625)"/>
      <path id="DejaVuSans-5a" d="M 359 4666 
L 4025 4666 
L 4025 4184 
L 1075 531 
L 4097 531 
L 4097 0 
L 288 0 
L 288 481 
L 3238 4134 
L 359 4134 
L 359 4666 
z
" transform="scale(0.015625)"/>
      <path id="DejaVuSans-2b" d="M 2944 4013 
L 2944 2272 
L 4684 2272 
L 4684 1741 
L 2944 1741 
L 2944 0 
L 2419 0 
L 2419 1741 
L 678 1741 
L 678 2272 
L 2419 2272 
L 2419 4013 
L 2944 4013 
z
" transform="scale(0.015625)"/>
      <path id="DejaVuSans-38" d="M 2034 2216 
Q 1584 2216 1326 1975 
Q 1069 1734 1069 1313 
Q 1069 891 1326 650 
Q 1584 409 2034 409 
Q 2484 409 2743 651 
Q 3003 894 3003 1313 
Q 3003 1734 2745 1975 
Q 2488 2216 2034 2216 
z
M 1403 2484 
Q 997 2584 770 2862 
Q 544 3141 544 3541 
Q 544 4100 942 4425 
Q 1341 4750 2034 4750 
Q 2731 4750 3128 4425 
Q 3525 4100 3525 3541 
Q 3525 3141 3298 2862 
Q 3072 2584 2669 2484 
Q 3125 2378 3379 2068 
Q 3634 1759 3634 1313 
Q 3634 634 3220 271 
Q 2806 -91 2034 -91 
Q 1263 -91 848 271 
Q 434 634 434 1313 
Q 434 1759 690 2068 
Q 947 2378 1403 2484 
z
M 1172 3481 
Q 1172 3119 1398 2916 
Q 1625 2713 2034 2713 
Q 2441 2713 2670 2916 
Q 2900 3119 2900 3481 
Q 2900 3844 2670 4047 
Q 2441 4250 2034 4250 
Q 1625 4250 1398 4047 
Q 1172 3844 1172 3481 
z
" transform="scale(0.015625)"/>
      <path id="DejaVuSans-4b" d="M 628 4666 
L 1259 4666 
L 1259 2694 
L 3353 4666 
L 4166 4666 
L 1850 2491 
L 4331 0 
L 3500 0 
L 1259 2247 
L 1259 0 
L 628 0 
L 628 4666 
z
" transform="scale(0.015625)"/>
      <path id="DejaVuSans-4c" d="M 628 4666 
L 1259 4666 
L 1259 531 
L 3531 531 
L 3531 0 
L 628 0 
L 628 4666 
z
" transform="scale(0.015625)"/>
      <path id="DejaVuSans-4d" d="M 628 4666 
L 1569 4666 
L 2759 1491 
L 3956 4666 
L 4897 4666 
L 4897 0 
L 4281 0 
L 4281 4097 
L 3078 897 
L 2444 897 
L 1241 4097 
L 1241 0 
L 628 0 
L 628 4666 
z
" transform="scale(0.015625)"/>
     </defs>
     <use xlink:href="#DejaVuSans-36"/>
     <use xlink:href="#DejaVuSans-2d" x="63.623047"/>
     <use xlink:href="#DejaVuSans-61" x="99.707031"/>
     <use xlink:href="#DejaVuSans-75" x="160.986328"/>
     <use xlink:href="#DejaVuSans-67" x="224.365234"/>
     <use xlink:href="#DejaVuSans-2d" x="287.841797"/>
     <use xlink:href="#DejaVuSans-63" x="323.925781"/>
     <use xlink:href="#DejaVuSans-63" x="378.90625"/>
     <use xlink:href="#DejaVuSans-50" x="433.886719"/>
     <use xlink:href="#DejaVuSans-56" x="494.189453"/>
     <use xlink:href="#DejaVuSans-54" x="562.597656"/>
     <use xlink:href="#DejaVuSans-5a" x="623.681641"/>
     <use xlink:href="#DejaVuSans-2b" x="692.1875"/>
     <use xlink:href="#DejaVuSans-38" x="775.976562"/>
     <use xlink:href="#DejaVuSans-4b" x="839.599609"/>
     <use xlink:href="#DejaVuSans-20" x="905.175781"/>
     <use xlink:href="#DejaVuSans-28" x="936.962891"/>
     <use xlink:href="#DejaVuSans-48" x="975.976562"/>
     <use xlink:href="#DejaVuSans-4c" x="1051.171875"/>
     <use xlink:href="#DejaVuSans-4d" x="1106.884766"/>
     <use xlink:href="#DejaVuSans-29" x="1193.164062"/>
    </g>
   </g>
   <g id="line2d_32">
    <path d="M 209.992813 325.188437 
L 223.992813 325.188437 
L 237.992813 325.188437 
" style="fill: none; stroke-dasharray: 5.55,2.4; stroke-dashoffset: 0; stroke: #ffa500; stroke-width: 1.5"/>
   </g>
   <g id="text_20">
    <!-- 6-aug-ccPVTZ+8K (no HLM) -->
    <g transform="translate(249.192813 330.088437) scale(0.14 -0.14)">
     <use xlink:href="#DejaVuSans-36"/>
     <use xlink:href="#DejaVuSans-2d" x="63.623047"/>
     <use xlink:href="#DejaVuSans-61" x="99.707031"/>
     <use xlink:href="#DejaVuSans-75" x="160.986328"/>
     <use xlink:href="#DejaVuSans-67" x="224.365234"/>
     <use xlink:href="#DejaVuSans-2d" x="287.841797"/>
     <use xlink:href="#DejaVuSans-63" x="323.925781"/>
     <use xlink:href="#DejaVuSans-63" x="378.90625"/>
     <use xlink:href="#DejaVuSans-50" x="433.886719"/>
     <use xlink:href="#DejaVuSans-56" x="494.189453"/>
     <use xlink:href="#DejaVuSans-54" x="562.597656"/>
     <use xlink:href="#DejaVuSans-5a" x="623.681641"/>
     <use xlink:href="#DejaVuSans-2b" x="692.1875"/>
     <use xlink:href="#DejaVuSans-38" x="775.976562"/>
     <use xlink:href="#DejaVuSans-4b" x="839.599609"/>
     <use xlink:href="#DejaVuSans-20" x="905.175781"/>
     <use xlink:href="#DejaVuSans-28" x="936.962891"/>
     <use xlink:href="#DejaVuSans-6e" x="975.976562"/>
     <use xlink:href="#DejaVuSans-6f" x="1039.355469"/>
     <use xlink:href="#DejaVuSans-20" x="1100.537109"/>
     <use xlink:href="#DejaVuSans-48" x="1132.324219"/>
     <use xlink:href="#DejaVuSans-4c" x="1207.519531"/>
     <use xlink:href="#DejaVuSans-4d" x="1263.232422"/>
     <use xlink:href="#DejaVuSans-29" x="1349.511719"/>
    </g>
   </g>
  </g>
 </g>
 <defs>
  <clipPath id="p21db21fd02">
   <rect x="79.311614" y="15.12" width="366.368386" height="95.515403"/>
  </clipPath>
  <clipPath id="p6bf32025a5">
   <rect x="79.311614" y="129.124597" width="366.368386" height="95.515403"/>
  </clipPath>
 </defs>
</svg>
