<?xml version="1.0" encoding="utf-8" standalone="no"?>
<!DOCTYPE svg PUBLIC "-//W3C//DTD SVG 1.1//EN"
  "http://www.w3.org/Graphics/SVG/1.1/DTD/svg11.dtd">
<svg xmlns:xlink="http://www.w3.org/1999/xlink" width="460.8pt" height="345.6pt" viewBox="0 0 460.8 345.6" xmlns="http://www.w3.org/2000/svg" version="1.1">
 <metadata>
  <rdf:RDF xmlns:dc="http://purl.org/dc/elements/1.1/" xmlns:cc="http://creativecommons.org/ns#" xmlns:rdf="http://www.w3.org/1999/02/22-rdf-syntax-ns#">
   <cc:Work>
    <dc:type rdf:resource="http://purl.org/dc/dcmitype/StillImage"/>
    <dc:date>2024-04-02T14:28:08.179228</dc:date>
    <dc:format>image/svg+xml</dc:format>
    <dc:creator>
     <cc:Agent>
      <dc:title>Matplotlib v3.6.1, https://matplotlib.org/</dc:title>
     </cc:Agent>
    </dc:creator>
   </cc:Work>
  </rdf:RDF>
 </metadata>
 <defs>
  <style type="text/css">*{stroke-linejoin: round; stroke-linecap: butt}</style>
 </defs>
 <g id="figure_1">
  <g id="patch_1">
   <path d="M 0 345.6 
L 460.8 345.6 
L 460.8 0 
L 0 0 
z
" style="fill: #ffffff"/>
  </g>
  <g id="axes_1">
   <g id="patch_2">
    <path d="M 73.058741 141.398 
L 436.77 141.398 
L 436.77 15.12 
L 73.058741 15.12 
z
" style="fill: #ffffff"/>
   </g>
   <g id="matplotlib.axis_1">
    <g id="xtick_1">
     <g id="line2d_1">
      <defs>
       <path id="m44e21ae26e" d="M 0 0 
L 0 3.5 
" style="stroke: #000000; stroke-width: 0.8"/>
      </defs>
      <g>
       <use xlink:href="#m44e21ae26e" x="73.058741" y="141.398" style="stroke: #000000; stroke-width: 0.8"/>
      </g>
     </g>
    </g>
    <g id="xtick_2">
     <g id="line2d_2">
      <g>
       <use xlink:href="#m44e21ae26e" x="106.123401" y="141.398" style="stroke: #000000; stroke-width: 0.8"/>
      </g>
     </g>
    </g>
    <g id="xtick_3">
     <g id="line2d_3">
      <g>
       <use xlink:href="#m44e21ae26e" x="139.188061" y="141.398" style="stroke: #000000; stroke-width: 0.8"/>
      </g>
     </g>
    </g>
    <g id="xtick_4">
     <g id="line2d_4">
      <g>
       <use xlink:href="#m44e21ae26e" x="172.25272" y="141.398" style="stroke: #000000; stroke-width: 0.8"/>
      </g>
     </g>
    </g>
    <g id="xtick_5">
     <g id="line2d_5">
      <g>
       <use xlink:href="#m44e21ae26e" x="205.31738" y="141.398" style="stroke: #000000; stroke-width: 0.8"/>
      </g>
     </g>
    </g>
    <g id="xtick_6">
     <g id="line2d_6">
      <g>
       <use xlink:href="#m44e21ae26e" x="238.38204" y="141.398" style="stroke: #000000; stroke-width: 0.8"/>
      </g>
     </g>
    </g>
    <g id="xtick_7">
     <g id="line2d_7">
      <g>
       <use xlink:href="#m44e21ae26e" x="271.4467" y="141.398" style="stroke: #000000; stroke-width: 0.8"/>
      </g>
     </g>
    </g>
    <g id="xtick_8">
     <g id="line2d_8">
      <g>
       <use xlink:href="#m44e21ae26e" x="304.51136" y="141.398" style="stroke: #000000; stroke-width: 0.8"/>
      </g>
     </g>
    </g>
    <g id="xtick_9">
     <g id="line2d_9">
      <g>
       <use xlink:href="#m44e21ae26e" x="337.57602" y="141.398" style="stroke: #000000; stroke-width: 0.8"/>
      </g>
     </g>
    </g>
    <g id="xtick_10">
     <g id="line2d_10">
      <g>
       <use xlink:href="#m44e21ae26e" x="370.64068" y="141.398" style="stroke: #000000; stroke-width: 0.8"/>
      </g>
     </g>
    </g>
    <g id="xtick_11">
     <g id="line2d_11">
      <g>
       <use xlink:href="#m44e21ae26e" x="403.70534" y="141.398" style="stroke: #000000; stroke-width: 0.8"/>
      </g>
     </g>
    </g>
    <g id="xtick_12">
     <g id="line2d_12">
      <g>
       <use xlink:href="#m44e21ae26e" x="436.77" y="141.398" style="stroke: #000000; stroke-width: 0.8"/>
      </g>
     </g>
    </g>
   </g>
   <g id="matplotlib.axis_2">
    <g id="ytick_1">
     <g id="line2d_13">
      <defs>
       <path id="m9af46bd576" d="M 0 0 
L -3.5 0 
" style="stroke: #000000; stroke-width: 0.8"/>
      </defs>
      <g>
       <use xlink:href="#m9af46bd576" x="73.058741" y="141.398" style="stroke: #000000; stroke-width: 0.8"/>
      </g>
     </g>
     <g id="text_1">
      <!-- $\mathdefault{10^{-9}}$ -->
      <g transform="translate(33.158741 146.716906) scale(0.14 -0.14)">
       <defs>
        <path id="DejaVuSans-31" d="M 794 531 
L 1825 531 
L 1825 4091 
L 703 3866 
L 703 4441 
L 1819 4666 
L 2450 4666 
L 2450 531 
L 3481 531 
L 3481 0 
L 794 0 
L 794 531 
z
" transform="scale(0.015625)"/>
        <path id="DejaVuSans-30" d="M 2034 4250 
Q 1547 4250 1301 3770 
Q 1056 3291 1056 2328 
Q 1056 1369 1301 889 
Q 1547 409 2034 409 
Q 2525 409 2770 889 
Q 3016 1369 3016 2328 
Q 3016 3291 2770 3770 
Q 2525 4250 2034 4250 
z
M 2034 4750 
Q 2819 4750 3233 4129 
Q 3647 3509 3647 2328 
Q 3647 1150 3233 529 
Q 2819 -91 2034 -91 
Q 1250 -91 836 529 
Q 422 1150 422 2328 
Q 422 3509 836 4129 
Q 1250 4750 2034 4750 
z
" transform="scale(0.015625)"/>
        <path id="DejaVuSans-2212" d="M 678 2272 
L 4684 2272 
L 4684 1741 
L 678 1741 
L 678 2272 
z
" transform="scale(0.015625)"/>
        <path id="DejaVuSans-39" d="M 703 97 
L 703 672 
Q 941 559 1184 500 
Q 1428 441 1663 441 
Q 2288 441 2617 861 
Q 2947 1281 2994 2138 
Q 2813 1869 2534 1725 
Q 2256 1581 1919 1581 
Q 1219 1581 811 2004 
Q 403 2428 403 3163 
Q 403 3881 828 4315 
Q 1253 4750 1959 4750 
Q 2769 4750 3195 4129 
Q 3622 3509 3622 2328 
Q 3622 1225 3098 567 
Q 2575 -91 1691 -91 
Q 1453 -91 1209 -44 
Q 966 3 703 97 
z
M 1959 2075 
Q 2384 2075 2632 2365 
Q 2881 2656 2881 3163 
Q 2881 3666 2632 3958 
Q 2384 4250 1959 4250 
Q 1534 4250 1286 3958 
Q 1038 3666 1038 3163 
Q 1038 2656 1286 2365 
Q 1534 2075 1959 2075 
z
" transform="scale(0.015625)"/>
       </defs>
       <use xlink:href="#DejaVuSans-31" transform="translate(0 0.765625)"/>
       <use xlink:href="#DejaVuSans-30" transform="translate(63.623047 0.765625)"/>
       <use xlink:href="#DejaVuSans-2212" transform="translate(128.203125 39.046875) scale(0.7)"/>
       <use xlink:href="#DejaVuSans-39" transform="translate(186.855469 39.046875) scale(0.7)"/>
      </g>
     </g>
    </g>
    <g id="ytick_2">
     <g id="line2d_14">
      <g>
       <use xlink:href="#m9af46bd576" x="73.058741" y="105.318571" style="stroke: #000000; stroke-width: 0.8"/>
      </g>
     </g>
     <g id="text_2">
      <!-- $\mathdefault{10^{-5}}$ -->
      <g transform="translate(33.158741 110.637478) scale(0.14 -0.14)">
       <defs>
        <path id="DejaVuSans-35" d="M 691 4666 
L 3169 4666 
L 3169 4134 
L 1269 4134 
L 1269 2991 
Q 1406 3038 1543 3061 
Q 1681 3084 1819 3084 
Q 2600 3084 3056 2656 
Q 3513 2228 3513 1497 
Q 3513 744 3044 326 
Q 2575 -91 1722 -91 
Q 1428 -91 1123 -41 
Q 819 9 494 109 
L 494 744 
Q 775 591 1075 516 
Q 1375 441 1709 441 
Q 2250 441 2565 725 
Q 2881 1009 2881 1497 
Q 2881 1984 2565 2268 
Q 2250 2553 1709 2553 
Q 1456 2553 1204 2497 
Q 953 2441 691 2322 
L 691 4666 
z
" transform="scale(0.015625)"/>
       </defs>
       <use xlink:href="#DejaVuSans-31" transform="translate(0 0.684375)"/>
       <use xlink:href="#DejaVuSans-30" transform="translate(63.623047 0.684375)"/>
       <use xlink:href="#DejaVuSans-2212" transform="translate(128.203125 38.965625) scale(0.7)"/>
       <use xlink:href="#DejaVuSans-35" transform="translate(186.855469 38.965625) scale(0.7)"/>
      </g>
     </g>
    </g>
    <g id="ytick_3">
     <g id="line2d_15">
      <g>
       <use xlink:href="#m9af46bd576" x="73.058741" y="69.239143" style="stroke: #000000; stroke-width: 0.8"/>
      </g>
     </g>
     <g id="text_3">
      <!-- $\mathdefault{10^{-1}}$ -->
      <g transform="translate(33.158741 74.558049) scale(0.14 -0.14)">
       <use xlink:href="#DejaVuSans-31" transform="translate(0 0.684375)"/>
       <use xlink:href="#DejaVuSans-30" transform="translate(63.623047 0.684375)"/>
       <use xlink:href="#DejaVuSans-2212" transform="translate(128.203125 38.965625) scale(0.7)"/>
       <use xlink:href="#DejaVuSans-31" transform="translate(186.855469 38.965625) scale(0.7)"/>
      </g>
     </g>
    </g>
    <g id="ytick_4">
     <g id="line2d_16">
      <g>
       <use xlink:href="#m9af46bd576" x="73.058741" y="33.159714" style="stroke: #000000; stroke-width: 0.8"/>
      </g>
     </g>
     <g id="text_4">
      <!-- $\mathdefault{10^{3}}$ -->
      <g transform="translate(41.418741 38.478621) scale(0.14 -0.14)">
       <defs>
        <path id="DejaVuSans-33" d="M 2597 2516 
Q 3050 2419 3304 2112 
Q 3559 1806 3559 1356 
Q 3559 666 3084 287 
Q 2609 -91 1734 -91 
Q 1441 -91 1130 -33 
Q 819 25 488 141 
L 488 750 
Q 750 597 1062 519 
Q 1375 441 1716 441 
Q 2309 441 2620 675 
Q 2931 909 2931 1356 
Q 2931 1769 2642 2001 
Q 2353 2234 1838 2234 
L 1294 2234 
L 1294 2753 
L 1863 2753 
Q 2328 2753 2575 2939 
Q 2822 3125 2822 3475 
Q 2822 3834 2567 4026 
Q 2313 4219 1838 4219 
Q 1578 4219 1281 4162 
Q 984 4106 628 3988 
L 628 4550 
Q 988 4650 1302 4700 
Q 1616 4750 1894 4750 
Q 2613 4750 3031 4423 
Q 3450 4097 3450 3541 
Q 3450 3153 3228 2886 
Q 3006 2619 2597 2516 
z
" transform="scale(0.015625)"/>
       </defs>
       <use xlink:href="#DejaVuSans-31" transform="translate(0 0.765625)"/>
       <use xlink:href="#DejaVuSans-30" transform="translate(63.623047 0.765625)"/>
       <use xlink:href="#DejaVuSans-33" transform="translate(128.203125 39.046875) scale(0.7)"/>
      </g>
     </g>
    </g>
    <g id="text_5">
     <!-- Intensity -->
     <g transform="translate(26.247178 108.7265) rotate(-90) scale(0.14 -0.14)">
      <defs>
       <path id="DejaVuSans-49" d="M 628 4666 
L 1259 4666 
L 1259 0 
L 628 0 
L 628 4666 
z
" transform="scale(0.015625)"/>
       <path id="DejaVuSans-6e" d="M 3513 2113 
L 3513 0 
L 2938 0 
L 2938 2094 
Q 2938 2591 2744 2837 
Q 2550 3084 2163 3084 
Q 1697 3084 1428 2787 
Q 1159 2491 1159 1978 
L 1159 0 
L 581 0 
L 581 3500 
L 1159 3500 
L 1159 2956 
Q 1366 3272 1645 3428 
Q 1925 3584 2291 3584 
Q 2894 3584 3203 3211 
Q 3513 2838 3513 2113 
z
" transform="scale(0.015625)"/>
       <path id="DejaVuSans-74" d="M 1172 4494 
L 1172 3500 
L 2356 3500 
L 2356 3053 
L 1172 3053 
L 1172 1153 
Q 1172 725 1289 603 
Q 1406 481 1766 481 
L 2356 481 
L 2356 0 
L 1766 0 
Q 1100 0 847 248 
Q 594 497 594 1153 
L 594 3053 
L 172 3053 
L 172 3500 
L 594 3500 
L 594 4494 
L 1172 4494 
z
" transform="scale(0.015625)"/>
       <path id="DejaVuSans-65" d="M 3597 1894 
L 3597 1613 
L 953 1613 
Q 991 1019 1311 708 
Q 1631 397 2203 397 
Q 2534 397 2845 478 
Q 3156 559 3463 722 
L 3463 178 
Q 3153 47 2828 -22 
Q 2503 -91 2169 -91 
Q 1331 -91 842 396 
Q 353 884 353 1716 
Q 353 2575 817 3079 
Q 1281 3584 2069 3584 
Q 2775 3584 3186 3129 
Q 3597 2675 3597 1894 
z
M 3022 2063 
Q 3016 2534 2758 2815 
Q 2500 3097 2075 3097 
Q 1594 3097 1305 2825 
Q 1016 2553 972 2059 
L 3022 2063 
z
" transform="scale(0.015625)"/>
       <path id="DejaVuSans-73" d="M 2834 3397 
L 2834 2853 
Q 2591 2978 2328 3040 
Q 2066 3103 1784 3103 
Q 1356 3103 1142 2972 
Q 928 2841 928 2578 
Q 928 2378 1081 2264 
Q 1234 2150 1697 2047 
L 1894 2003 
Q 2506 1872 2764 1633 
Q 3022 1394 3022 966 
Q 3022 478 2636 193 
Q 2250 -91 1575 -91 
Q 1294 -91 989 -36 
Q 684 19 347 128 
L 347 722 
Q 666 556 975 473 
Q 1284 391 1588 391 
Q 1994 391 2212 530 
Q 2431 669 2431 922 
Q 2431 1156 2273 1281 
Q 2116 1406 1581 1522 
L 1381 1569 
Q 847 1681 609 1914 
Q 372 2147 372 2553 
Q 372 3047 722 3315 
Q 1072 3584 1716 3584 
Q 2034 3584 2315 3537 
Q 2597 3491 2834 3397 
z
" transform="scale(0.015625)"/>
       <path id="DejaVuSans-69" d="M 603 3500 
L 1178 3500 
L 1178 0 
L 603 0 
L 603 3500 
z
M 603 4863 
L 1178 4863 
L 1178 4134 
L 603 4134 
L 603 4863 
z
" transform="scale(0.015625)"/>
       <path id="DejaVuSans-79" d="M 2059 -325 
Q 1816 -950 1584 -1140 
Q 1353 -1331 966 -1331 
L 506 -1331 
L 506 -850 
L 844 -850 
Q 1081 -850 1212 -737 
Q 1344 -625 1503 -206 
L 1606 56 
L 191 3500 
L 800 3500 
L 1894 763 
L 2988 3500 
L 3597 3500 
L 2059 -325 
z
" transform="scale(0.015625)"/>
      </defs>
      <use xlink:href="#DejaVuSans-49"/>
      <use xlink:href="#DejaVuSans-6e" x="29.492188"/>
      <use xlink:href="#DejaVuSans-74" x="92.871094"/>
      <use xlink:href="#DejaVuSans-65" x="132.080078"/>
      <use xlink:href="#DejaVuSans-6e" x="193.603516"/>
      <use xlink:href="#DejaVuSans-73" x="256.982422"/>
      <use xlink:href="#DejaVuSans-69" x="309.082031"/>
      <use xlink:href="#DejaVuSans-74" x="336.865234"/>
      <use xlink:href="#DejaVuSans-79" x="376.074219"/>
     </g>
    </g>
   </g>
   <g id="line2d_17">
    <path d="M 73.057416 19.474047 
L 74.434668 22.435417 
L 75.811921 29.290738 
L 77.189173 39.630747 
L 78.566426 42.233439 
L 79.943679 42.780457 
L 81.320931 43.461502 
L 82.698184 46.75552 
L 84.075436 54.033311 
L 85.452689 65.158025 
L 86.829941 64.3482 
L 88.207194 54.425198 
L 89.584446 53.924981 
L 90.961699 56.251674 
L 92.338951 61.978699 
L 93.716204 64.566033 
L 95.093457 61.493152 
L 96.470709 56.20336 
L 97.847962 54.706859 
L 99.225214 56.936786 
L 100.602467 63.379467 
L 101.979719 64.10062 
L 103.356972 63.726491 
L 104.734224 55.707888 
L 106.111477 53.870996 
L 107.48873 59.265759 
L 108.865982 78.219159 
L 110.243235 72.563854 
L 111.620487 60.681552 
L 112.99774 57.953915 
L 114.374992 57.417973 
L 115.752245 60.164814 
L 117.129497 69.364424 
L 118.50675 76.452975 
L 119.884003 65.003591 
L 121.261255 60.224904 
L 122.638508 60.773953 
L 124.01576 64.972972 
L 125.393013 69.857203 
L 126.770265 72.303613 
L 128.147518 67.059378 
L 129.52477 63.993391 
L 130.902023 64.620745 
L 132.279275 69.362215 
L 133.656528 71.916732 
L 135.033781 73.589144 
L 136.411033 68.626131 
L 137.788286 66.86275 
L 139.165538 68.57601 
L 140.542791 71.190635 
L 141.920043 70.525307 
L 143.297296 72.835131 
L 144.674548 70.140887 
L 146.051801 69.77251 
L 147.429054 72.039366 
L 148.806306 70.405086 
L 150.183559 71.208249 
L 151.560811 74.452391 
L 152.938064 72.620347 
L 154.315316 72.235425 
L 155.692569 73.433245 
L 157.069821 71.293246 
L 158.447074 73.25623 
L 159.824326 81.028894 
L 161.201579 80.901748 
L 162.578832 74.884014 
L 163.956084 71.264025 
L 165.333337 73.546392 
L 166.710589 84.646076 
L 168.087842 85.40828 
L 169.465094 82.635511 
L 170.842347 74.981451 
L 172.219599 74.282315 
L 173.596852 76.187697 
L 174.974105 78.518584 
L 176.351357 84.142431 
L 177.72861 83.369522 
L 179.105862 79.208349 
L 180.483115 76.054347 
L 181.860367 75.128747 
L 183.23762 77.010507 
L 184.614872 82.42383 
L 185.992125 84.457839 
L 187.369377 80.10372 
L 188.74663 78.024908 
L 190.123883 77.27411 
L 191.501135 78.808963 
L 192.878388 83.195091 
L 194.25564 84.898797 
L 195.632893 80.662995 
L 197.010145 79.632512 
L 198.387398 81.629719 
L 199.76465 84.10853 
L 201.141903 87.05801 
L 202.519156 92.92671 
L 203.896408 83.65152 
L 205.273661 79.249174 
L 206.650913 78.033053 
L 208.028166 79.791717 
L 209.405418 84.489784 
L 210.782671 88.162821 
L 212.159923 85.218967 
L 213.537176 83.157876 
L 214.914428 82.185017 
L 216.291681 81.92087 
L 217.668934 84.42843 
L 219.046186 89.804713 
L 220.423439 84.962772 
L 221.800691 81.86841 
L 223.177944 81.781981 
L 224.555196 84.545632 
L 225.932449 91.108913 
L 227.309701 98.382105 
L 228.686954 90.502085 
L 230.064207 85.107009 
L 231.441459 82.387664 
L 232.818712 81.871382 
L 234.195964 83.965776 
L 235.573217 88.921117 
L 236.950469 86.90909 
L 238.327722 83.879562 
L 239.704974 83.954715 
L 241.082227 86.642055 
L 243.836732 102.325789 
L 245.213985 92.927959 
L 246.591237 88.03738 
L 247.96849 84.595607 
L 249.345742 83.638701 
L 250.722995 84.786115 
L 252.100247 89.084221 
L 253.4775 89.320092 
L 254.854752 85.061361 
L 256.232005 83.956833 
L 257.609258 85.150706 
L 258.98651 89.066517 
L 260.363763 92.152689 
L 261.741015 89.330033 
L 263.118268 88.602566 
L 265.872773 89.670634 
L 267.250025 89.994398 
L 268.627278 93.638471 
L 270.004531 104.704479 
L 271.381783 89.771446 
L 272.759036 85.520963 
L 274.136288 84.411639 
L 275.513541 85.210548 
L 276.890793 87.798449 
L 278.268046 88.19692 
L 279.645298 85.899915 
L 281.022551 85.079578 
L 282.399803 85.87329 
L 283.777056 88.066322 
L 285.154309 88.321242 
L 286.531561 86.038221 
L 287.908814 85.162027 
L 289.286066 86.235107 
L 290.663319 89.969144 
L 292.040571 97.737497 
L 293.417824 91.036311 
L 294.795076 87.25869 
L 296.172329 86.739934 
L 297.549582 88.161487 
L 298.926834 92.998518 
L 300.304087 104.339526 
L 301.681339 94.12982 
L 303.058592 90.437329 
L 304.435844 90.031316 
L 305.813097 91.351024 
L 307.190349 95.317357 
L 308.567602 99.922 
L 311.322107 95.186478 
L 312.69936 94.671372 
L 314.076612 96.030389 
L 315.453865 98.76483 
L 316.831117 102.387353 
L 318.20837 101.83682 
L 319.585622 101.140796 
L 320.962875 100.288978 
L 322.340127 102.224195 
L 323.71738 103.748589 
L 325.094633 107.913597 
L 326.471885 107.019733 
L 327.849138 107.974389 
L 329.22639 106.781356 
L 330.603643 109.575994 
L 331.980895 109.844668 
L 333.358148 114.29103 
L 334.7354 113.741147 
L 336.112653 115.52172 
L 337.489905 115.292263 
L 338.867158 116.017778 
L 340.244411 117.343805 
L 341.621663 119.407343 
L 342.998916 123.210816 
L 344.376168 119.806101 
L 345.753421 125.869554 
L 347.130673 120.903776 
L 348.507926 128.563413 
L 349.885178 123.380428 
L 351.262431 132.75481 
L 352.639684 123.057005 
L 354.016936 130.835288 
L 355.394189 124.37635 
L 356.771441 130.010279 
L 358.148694 124.469863 
L 359.525946 129.235729 
L 360.903199 126.389068 
L 362.280451 126.16197 
L 363.657704 127.852464 
L 365.034957 127.363773 
L 366.412209 127.174275 
L 367.789462 126.535473 
L 369.166714 127.63113 
L 370.543967 127.829588 
L 371.921219 126.83769 
L 373.298472 128.860176 
L 374.675724 126.727988 
L 376.052977 127.471738 
L 377.430229 128.650976 
L 378.807482 128.009038 
L 380.184735 127.781422 
L 381.561987 127.145332 
L 382.93924 129.577334 
L 384.316492 127.667407 
L 385.693745 127.788648 
L 387.070997 129.211984 
L 388.44825 127.987576 
L 389.825502 128.438777 
L 391.202755 128.04856 
L 392.580008 129.851572 
L 393.95726 127.923102 
L 395.334513 128.253297 
L 396.711765 129.791914 
L 398.089018 127.929782 
L 399.46627 129.456804 
L 400.843523 128.851756 
L 402.220775 129.371664 
L 403.598028 128.594437 
L 404.97528 128.726994 
L 406.352533 130.587954 
L 407.729786 128.312399 
L 409.107038 129.589675 
L 410.484291 129.662176 
L 411.861543 128.99516 
L 413.238796 129.778181 
L 414.616048 129.399618 
L 415.993301 130.832057 
L 417.370553 128.517398 
L 420.125059 130.819208 
L 421.502311 129.461485 
L 422.879564 130.336122 
L 424.256816 129.460922 
L 425.634069 130.508456 
L 427.011321 129.960836 
L 428.388574 130.626866 
L 429.765826 130.689151 
L 431.143079 129.117697 
L 432.520331 130.905754 
L 433.897584 131.081477 
L 436.652089 129.989233 
L 438.029342 130.425792 
L 438.029342 130.425792 
" clip-path="url(#p6287ad879e)" style="fill: none; stroke: #000000; stroke-width: 1.5; stroke-linecap: square"/>
   </g>
   <g id="line2d_18">
    <path d="M 73.057416 18.88168 
L 74.434668 21.774056 
L 75.811921 28.727022 
L 77.189173 38.454457 
L 78.566426 41.095053 
L 79.943679 41.988562 
L 81.320931 42.66627 
L 82.698184 45.829793 
L 84.075436 52.878111 
L 85.452689 62.196351 
L 86.829941 64.756007 
L 88.207194 54.529593 
L 89.584446 54.044534 
L 90.961699 56.172551 
L 92.338951 63.258002 
L 93.716204 65.850667 
L 96.470709 55.877854 
L 97.847962 54.485224 
L 99.225214 56.942503 
L 100.602467 63.97817 
L 101.979719 64.367155 
L 103.356972 63.268124 
L 104.734224 55.186464 
L 106.111477 54.162879 
L 107.48873 60.148674 
L 108.865982 69.535869 
L 110.243235 70.678909 
L 111.620487 61.51632 
L 112.99774 58.08563 
L 114.374992 56.9146 
L 115.752245 60.196945 
L 117.129497 69.623271 
L 118.50675 74.938694 
L 119.884003 64.631129 
L 121.261255 60.405778 
L 122.638508 61.014708 
L 124.01576 64.305467 
L 125.393013 70.193476 
L 126.770265 74.619628 
L 128.147518 67.745792 
L 129.52477 64.173196 
L 130.902023 64.671388 
L 132.279275 69.279498 
L 133.656528 71.868956 
L 135.033781 75.661616 
L 136.411033 69.538846 
L 137.788286 67.304153 
L 139.165538 68.395691 
L 140.542791 70.210445 
L 141.920043 70.253906 
L 143.297296 73.588372 
L 144.674548 70.956541 
L 146.051801 70.21301 
L 147.429054 71.351144 
L 148.806306 69.702083 
L 150.183559 71.070889 
L 151.560811 74.754076 
L 152.938064 72.656911 
L 154.315316 72.762398 
L 155.692569 73.329365 
L 157.069821 71.146271 
L 158.447074 73.392507 
L 159.824326 82.808891 
L 161.201579 81.404801 
L 162.578832 74.963766 
L 163.956084 71.981062 
L 165.333337 74.681195 
L 166.710589 83.290704 
L 168.087842 82.5447 
L 169.465094 83.390655 
L 170.842347 75.410965 
L 172.219599 74.574676 
L 173.596852 76.352149 
L 174.974105 78.623957 
L 176.351357 85.292227 
L 177.72861 84.519899 
L 179.105862 79.209507 
L 180.483115 75.858073 
L 181.860367 75.156783 
L 183.23762 77.368713 
L 184.614872 83.094235 
L 185.992125 85.078975 
L 187.369377 80.109872 
L 188.74663 78.067388 
L 190.123883 77.405288 
L 191.501135 79.202674 
L 192.878388 84.528584 
L 194.25564 87.185678 
L 195.632893 82.143465 
L 197.010145 80.871707 
L 198.387398 82.043913 
L 199.76465 82.705119 
L 201.141903 85.203389 
L 202.519156 91.734689 
L 203.896408 83.187199 
L 205.273661 79.202607 
L 206.650913 78.313237 
L 208.028166 80.452923 
L 209.405418 86.214143 
L 210.782671 89.852352 
L 212.159923 86.104614 
L 213.537176 83.438244 
L 214.914428 81.988668 
L 216.291681 81.649144 
L 217.668934 84.241194 
L 219.046186 91.047891 
L 220.423439 85.741794 
L 221.800691 82.510772 
L 223.177944 82.665554 
L 224.555196 85.415467 
L 225.932449 92.31293 
L 227.309701 103.687431 
L 228.686954 90.938088 
L 230.064207 85.029064 
L 231.441459 82.216474 
L 232.818712 81.987106 
L 234.195964 84.135729 
L 235.573217 90.058965 
L 236.950469 87.917911 
L 238.327722 84.574126 
L 239.704974 85.051252 
L 241.082227 87.693859 
L 242.45948 96.239756 
L 243.836732 111.312373 
L 245.213985 93.708568 
L 246.591237 88.252736 
L 247.96849 84.389209 
L 249.345742 83.684499 
L 250.722995 84.837888 
L 252.100247 89.544676 
L 253.4775 90.368731 
L 254.854752 85.679397 
L 256.232005 84.742485 
L 257.609258 86.234343 
L 258.98651 90.662773 
L 260.363763 94.261585 
L 261.741015 90.270903 
L 263.118268 89.146706 
L 264.49552 89.218962 
L 265.872773 88.953371 
L 267.250025 89.2917 
L 268.627278 92.542531 
L 270.004531 106.656163 
L 271.381783 90.373835 
L 272.759036 85.761936 
L 274.136288 84.870067 
L 275.513541 85.628491 
L 276.890793 88.387482 
L 278.268046 88.912302 
L 279.645298 86.353881 
L 281.022551 85.715792 
L 282.399803 86.778242 
L 283.777056 89.225203 
L 285.154309 89.463291 
L 286.531561 86.694238 
L 287.908814 85.588596 
L 289.286066 86.837067 
L 290.663319 90.551277 
L 292.040571 101.644398 
L 293.417824 92.155495 
L 294.795076 87.80762 
L 296.172329 87.250497 
L 297.549582 88.570372 
L 298.926834 92.99423 
L 300.304087 101.050041 
L 301.681339 94.89682 
L 303.058592 90.855639 
L 304.435844 90.679405 
L 305.813097 91.621626 
L 307.190349 95.58449 
L 308.567602 98.873468 
L 309.944854 98.185499 
L 311.322107 95.539208 
L 312.69936 95.458554 
L 314.076612 96.299491 
L 315.453865 99.333575 
L 316.831117 101.854753 
L 318.20837 102.213965 
L 319.585622 101.639723 
L 320.962875 100.888898 
L 322.340127 102.690211 
L 323.71738 104.118029 
L 325.094633 108.306783 
L 326.471885 106.928006 
L 327.849138 109.478303 
L 329.22639 106.638112 
L 330.603643 111.332236 
L 331.980895 109.307925 
L 333.358148 117.368775 
L 334.7354 112.211804 
L 336.112653 119.533686 
L 337.489905 113.720925 
L 338.867158 119.566855 
L 340.244411 115.158707 
L 341.621663 121.806559 
L 342.998916 118.496607 
L 344.376168 120.034984 
L 345.753421 120.000725 
L 347.130673 120.609529 
L 349.885178 121.421092 
L 351.262431 123.577679 
L 352.639684 120.378188 
L 354.016936 123.557774 
L 355.394189 121.22906 
L 356.771441 124.045229 
L 358.148694 120.9834 
L 359.525946 123.609373 
L 360.903199 122.387312 
L 362.280451 122.226775 
L 363.657704 123.081298 
L 365.034957 123.099988 
L 367.789462 122.63996 
L 369.166714 122.991615 
L 370.543967 123.762967 
L 371.921219 122.466129 
L 373.298472 124.190543 
L 374.675724 122.877427 
L 376.052977 123.137666 
L 377.430229 124.036029 
L 378.807482 123.658117 
L 380.184735 123.649617 
L 381.561987 123.100679 
L 382.93924 124.630887 
L 384.316492 123.750275 
L 385.693745 123.577637 
L 387.070997 124.643109 
L 388.44825 123.870415 
L 389.825502 124.289718 
L 391.202755 123.853216 
L 392.580008 125.151054 
L 393.95726 124.184455 
L 395.334513 123.948948 
L 396.711765 125.377493 
L 398.089018 124.088881 
L 399.46627 125.062644 
L 400.843523 124.711947 
L 402.220775 125.018058 
L 404.97528 124.566043 
L 406.352533 126.096301 
L 407.729786 124.529191 
L 409.107038 125.186913 
L 410.484291 125.559582 
L 411.861543 125.004643 
L 413.238796 125.702969 
L 414.616048 125.150354 
L 415.993301 126.326552 
L 417.370553 124.953785 
L 418.747806 125.400691 
L 420.125059 126.541719 
L 421.502311 125.431255 
L 422.879564 126.131501 
L 424.256816 125.537874 
L 425.634069 126.294795 
L 427.011321 126.023853 
L 428.388574 126.181446 
L 429.765826 126.688675 
L 431.143079 125.465894 
L 432.520331 126.566913 
L 433.897584 126.852098 
L 436.652089 126.234713 
L 438.029342 126.273508 
L 438.029342 126.273508 
" clip-path="url(#p6287ad879e)" style="fill: none; stroke-dasharray: 5.55,2.4; stroke-dashoffset: 0; stroke: #008000; stroke-width: 1.5"/>
   </g>
   <g id="patch_3">
    <path d="M 73.058741 141.398 
L 73.058741 15.12 
" style="fill: none; stroke: #000000; stroke-width: 0.8; stroke-linejoin: miter; stroke-linecap: square"/>
   </g>
   <g id="patch_4">
    <path d="M 436.77 141.398 
L 436.77 15.12 
" style="fill: none; stroke: #000000; stroke-width: 0.8; stroke-linejoin: miter; stroke-linecap: square"/>
   </g>
   <g id="patch_5">
    <path d="M 73.058741 141.398 
L 436.77 141.398 
" style="fill: none; stroke: #000000; stroke-width: 0.8; stroke-linejoin: miter; stroke-linecap: square"/>
   </g>
   <g id="patch_6">
    <path d="M 73.058741 15.12 
L 436.77 15.12 
" style="fill: none; stroke: #000000; stroke-width: 0.8; stroke-linejoin: miter; stroke-linecap: square"/>
   </g>
   <g id="legend_1">
    <g id="patch_7">
     <path d="M 338.21 67.475625 
L 426.97 67.475625 
Q 429.77 67.475625 429.77 64.675625 
L 429.77 24.92 
Q 429.77 22.12 426.97 22.12 
L 338.21 22.12 
Q 335.41 22.12 335.41 24.92 
L 335.41 64.675625 
Q 335.41 67.475625 338.21 67.475625 
z
" style="fill: #ffffff; opacity: 0.8; stroke: #cccccc; stroke-linejoin: miter"/>
    </g>
    <g id="line2d_19">
     <path d="M 341.01 33.457812 
L 355.01 33.457812 
L 369.01 33.457812 
" style="fill: none; stroke: #000000; stroke-width: 1.5; stroke-linecap: square"/>
    </g>
    <g id="text_6">
     <!-- $\mu=\infty$ -->
     <g transform="translate(380.21 38.357812) scale(0.14 -0.14)">
      <defs>
       <path id="DejaVuSans-Oblique-3bc" d="M -84 -1331 
L 856 3500 
L 1434 3500 
L 1009 1322 
Q 997 1256 987 1175 
Q 978 1094 978 1013 
Q 978 722 1161 565 
Q 1344 409 1684 409 
Q 2147 409 2431 671 
Q 2716 934 2816 1459 
L 3213 3500 
L 3788 3500 
L 3266 809 
Q 3253 750 3248 706 
Q 3244 663 3244 628 
Q 3244 531 3283 486 
Q 3322 441 3406 441 
Q 3438 441 3492 456 
Q 3547 472 3647 513 
L 3559 50 
Q 3422 -19 3297 -55 
Q 3172 -91 3053 -91 
Q 2847 -91 2730 40 
Q 2613 172 2613 403 
Q 2438 153 2195 31 
Q 1953 -91 1625 -91 
Q 1334 -91 1117 43 
Q 900 178 831 397 
L 494 -1331 
L -84 -1331 
z
" transform="scale(0.015625)"/>
       <path id="DejaVuSans-3d" d="M 678 2906 
L 4684 2906 
L 4684 2381 
L 678 2381 
L 678 2906 
z
M 678 1631 
L 4684 1631 
L 4684 1100 
L 678 1100 
L 678 1631 
z
" transform="scale(0.015625)"/>
       <path id="DejaVuSans-221e" d="M 2916 1091 
Q 2819 1203 2666 1466 
Q 2456 1091 2272 925 
Q 2041 725 1681 725 
Q 1259 725 981 1041 
Q 688 1372 688 1919 
Q 688 2444 981 2800 
Q 1244 3116 1688 3116 
Q 1916 3116 2084 3022 
Q 2281 2919 2416 2741 
Q 2541 2581 2666 2366 
Q 2875 2741 3059 2906 
Q 3291 3106 3650 3106 
Q 4072 3106 4350 2791 
Q 4644 2459 4644 1913 
Q 4644 1388 4350 1031 
Q 4088 716 3644 716 
Q 3416 716 3247 809 
Q 3078 894 2916 1091 
z
M 1647 1134 
Q 2163 1134 2472 1884 
Q 2075 2703 1647 2703 
Q 1334 2703 1175 2478 
Q 1003 2238 1003 1919 
Q 1003 1569 1175 1353 
Q 1350 1134 1647 1134 
z
M 3684 2697 
Q 3219 2697 2859 1947 
Q 3253 1128 3684 1128 
Q 3997 1128 4156 1353 
Q 4328 1594 4328 1913 
Q 4328 2263 4156 2478 
Q 3981 2697 3684 2697 
z
" transform="scale(0.015625)"/>
      </defs>
      <use xlink:href="#DejaVuSans-Oblique-3bc" transform="translate(0 0.3125)"/>
      <use xlink:href="#DejaVuSans-3d" transform="translate(83.105469 0.3125)"/>
      <use xlink:href="#DejaVuSans-221e" transform="translate(186.376953 0.3125)"/>
     </g>
    </g>
    <g id="line2d_20">
     <path d="M 341.01 54.035625 
L 355.01 54.035625 
L 369.01 54.035625 
" style="fill: none; stroke-dasharray: 5.55,2.4; stroke-dashoffset: 0; stroke: #008000; stroke-width: 1.5"/>
    </g>
    <g id="text_7">
     <!-- $\mu=10$ -->
     <g transform="translate(380.21 58.935625) scale(0.14 -0.14)">
      <use xlink:href="#DejaVuSans-Oblique-3bc" transform="translate(0 0.78125)"/>
      <use xlink:href="#DejaVuSans-3d" transform="translate(83.105469 0.78125)"/>
      <use xlink:href="#DejaVuSans-31" transform="translate(186.376953 0.78125)"/>
      <use xlink:href="#DejaVuSans-30" transform="translate(250 0.78125)"/>
     </g>
    </g>
   </g>
  </g>
  <g id="axes_2">
   <g id="patch_8">
    <path d="M 73.058741 292.12 
L 436.77 292.12 
L 436.77 165.842 
L 73.058741 165.842 
z
" style="fill: #ffffff"/>
   </g>
   <g id="matplotlib.axis_3">
    <g id="xtick_13">
     <g id="line2d_21">
      <g>
       <use xlink:href="#m44e21ae26e" x="73.058741" y="292.12" style="stroke: #000000; stroke-width: 0.8"/>
      </g>
     </g>
     <g id="text_8">
      <!-- 1 -->
      <g transform="translate(68.604991 309.757812) scale(0.14 -0.14)">
       <use xlink:href="#DejaVuSans-31"/>
      </g>
     </g>
    </g>
    <g id="xtick_14">
     <g id="line2d_22">
      <g>
       <use xlink:href="#m44e21ae26e" x="106.123401" y="292.12" style="stroke: #000000; stroke-width: 0.8"/>
      </g>
     </g>
     <g id="text_9">
      <!-- 9 -->
      <g transform="translate(101.669651 309.757812) scale(0.14 -0.14)">
       <use xlink:href="#DejaVuSans-39"/>
      </g>
     </g>
    </g>
    <g id="xtick_15">
     <g id="line2d_23">
      <g>
       <use xlink:href="#m44e21ae26e" x="139.188061" y="292.12" style="stroke: #000000; stroke-width: 0.8"/>
      </g>
     </g>
     <g id="text_10">
      <!-- 17 -->
      <g transform="translate(130.280561 309.757812) scale(0.14 -0.14)">
       <defs>
        <path id="DejaVuSans-37" d="M 525 4666 
L 3525 4666 
L 3525 4397 
L 1831 0 
L 1172 0 
L 2766 4134 
L 525 4134 
L 525 4666 
z
" transform="scale(0.015625)"/>
       </defs>
       <use xlink:href="#DejaVuSans-31"/>
       <use xlink:href="#DejaVuSans-37" x="63.623047"/>
      </g>
     </g>
    </g>
    <g id="xtick_16">
     <g id="line2d_24">
      <g>
       <use xlink:href="#m44e21ae26e" x="172.25272" y="292.12" style="stroke: #000000; stroke-width: 0.8"/>
      </g>
     </g>
     <g id="text_11">
      <!-- 25 -->
      <g transform="translate(163.34522 309.757812) scale(0.14 -0.14)">
       <defs>
        <path id="DejaVuSans-32" d="M 1228 531 
L 3431 531 
L 3431 0 
L 469 0 
L 469 531 
Q 828 903 1448 1529 
Q 2069 2156 2228 2338 
Q 2531 2678 2651 2914 
Q 2772 3150 2772 3378 
Q 2772 3750 2511 3984 
Q 2250 4219 1831 4219 
Q 1534 4219 1204 4116 
Q 875 4013 500 3803 
L 500 4441 
Q 881 4594 1212 4672 
Q 1544 4750 1819 4750 
Q 2544 4750 2975 4387 
Q 3406 4025 3406 3419 
Q 3406 3131 3298 2873 
Q 3191 2616 2906 2266 
Q 2828 2175 2409 1742 
Q 1991 1309 1228 531 
z
" transform="scale(0.015625)"/>
       </defs>
       <use xlink:href="#DejaVuSans-32"/>
       <use xlink:href="#DejaVuSans-35" x="63.623047"/>
      </g>
     </g>
    </g>
    <g id="xtick_17">
     <g id="line2d_25">
      <g>
       <use xlink:href="#m44e21ae26e" x="205.31738" y="292.12" style="stroke: #000000; stroke-width: 0.8"/>
      </g>
     </g>
     <g id="text_12">
      <!-- 33 -->
      <g transform="translate(196.40988 309.757812) scale(0.14 -0.14)">
       <use xlink:href="#DejaVuSans-33"/>
       <use xlink:href="#DejaVuSans-33" x="63.623047"/>
      </g>
     </g>
    </g>
    <g id="xtick_18">
     <g id="line2d_26">
      <g>
       <use xlink:href="#m44e21ae26e" x="238.38204" y="292.12" style="stroke: #000000; stroke-width: 0.8"/>
      </g>
     </g>
     <g id="text_13">
      <!-- 41 -->
      <g transform="translate(229.47454 309.757812) scale(0.14 -0.14)">
       <defs>
        <path id="DejaVuSans-34" d="M 2419 4116 
L 825 1625 
L 2419 1625 
L 2419 4116 
z
M 2253 4666 
L 3047 4666 
L 3047 1625 
L 3713 1625 
L 3713 1100 
L 3047 1100 
L 3047 0 
L 2419 0 
L 2419 1100 
L 313 1100 
L 313 1709 
L 2253 4666 
z
" transform="scale(0.015625)"/>
       </defs>
       <use xlink:href="#DejaVuSans-34"/>
       <use xlink:href="#DejaVuSans-31" x="63.623047"/>
      </g>
     </g>
    </g>
    <g id="xtick_19">
     <g id="line2d_27">
      <g>
       <use xlink:href="#m44e21ae26e" x="271.4467" y="292.12" style="stroke: #000000; stroke-width: 0.8"/>
      </g>
     </g>
     <g id="text_14">
      <!-- 49 -->
      <g transform="translate(262.5392 309.757812) scale(0.14 -0.14)">
       <use xlink:href="#DejaVuSans-34"/>
       <use xlink:href="#DejaVuSans-39" x="63.623047"/>
      </g>
     </g>
    </g>
    <g id="xtick_20">
     <g id="line2d_28">
      <g>
       <use xlink:href="#m44e21ae26e" x="304.51136" y="292.12" style="stroke: #000000; stroke-width: 0.8"/>
      </g>
     </g>
     <g id="text_15">
      <!-- 57 -->
      <g transform="translate(295.60386 309.757812) scale(0.14 -0.14)">
       <use xlink:href="#DejaVuSans-35"/>
       <use xlink:href="#DejaVuSans-37" x="63.623047"/>
      </g>
     </g>
    </g>
    <g id="xtick_21">
     <g id="line2d_29">
      <g>
       <use xlink:href="#m44e21ae26e" x="337.57602" y="292.12" style="stroke: #000000; stroke-width: 0.8"/>
      </g>
     </g>
     <g id="text_16">
      <!-- 65 -->
      <g transform="translate(328.66852 309.757812) scale(0.14 -0.14)">
       <defs>
        <path id="DejaVuSans-36" d="M 2113 2584 
Q 1688 2584 1439 2293 
Q 1191 2003 1191 1497 
Q 1191 994 1439 701 
Q 1688 409 2113 409 
Q 2538 409 2786 701 
Q 3034 994 3034 1497 
Q 3034 2003 2786 2293 
Q 2538 2584 2113 2584 
z
M 3366 4563 
L 3366 3988 
Q 3128 4100 2886 4159 
Q 2644 4219 2406 4219 
Q 1781 4219 1451 3797 
Q 1122 3375 1075 2522 
Q 1259 2794 1537 2939 
Q 1816 3084 2150 3084 
Q 2853 3084 3261 2657 
Q 3669 2231 3669 1497 
Q 3669 778 3244 343 
Q 2819 -91 2113 -91 
Q 1303 -91 875 529 
Q 447 1150 447 2328 
Q 447 3434 972 4092 
Q 1497 4750 2381 4750 
Q 2619 4750 2861 4703 
Q 3103 4656 3366 4563 
z
" transform="scale(0.015625)"/>
       </defs>
       <use xlink:href="#DejaVuSans-36"/>
       <use xlink:href="#DejaVuSans-35" x="63.623047"/>
      </g>
     </g>
    </g>
    <g id="xtick_22">
     <g id="line2d_30">
      <g>
       <use xlink:href="#m44e21ae26e" x="370.64068" y="292.12" style="stroke: #000000; stroke-width: 0.8"/>
      </g>
     </g>
     <g id="text_17">
      <!-- 73 -->
      <g transform="translate(361.73318 309.757812) scale(0.14 -0.14)">
       <use xlink:href="#DejaVuSans-37"/>
       <use xlink:href="#DejaVuSans-33" x="63.623047"/>
      </g>
     </g>
    </g>
    <g id="xtick_23">
     <g id="line2d_31">
      <g>
       <use xlink:href="#m44e21ae26e" x="403.70534" y="292.12" style="stroke: #000000; stroke-width: 0.8"/>
      </g>
     </g>
     <g id="text_18">
      <!-- 81 -->
      <g transform="translate(394.79784 309.757812) scale(0.14 -0.14)">
       <defs>
        <path id="DejaVuSans-38" d="M 2034 2216 
Q 1584 2216 1326 1975 
Q 1069 1734 1069 1313 
Q 1069 891 1326 650 
Q 1584 409 2034 409 
Q 2484 409 2743 651 
Q 3003 894 3003 1313 
Q 3003 1734 2745 1975 
Q 2488 2216 2034 2216 
z
M 1403 2484 
Q 997 2584 770 2862 
Q 544 3141 544 3541 
Q 544 4100 942 4425 
Q 1341 4750 2034 4750 
Q 2731 4750 3128 4425 
Q 3525 4100 3525 3541 
Q 3525 3141 3298 2862 
Q 3072 2584 2669 2484 
Q 3125 2378 3379 2068 
Q 3634 1759 3634 1313 
Q 3634 634 3220 271 
Q 2806 -91 2034 -91 
Q 1263 -91 848 271 
Q 434 634 434 1313 
Q 434 1759 690 2068 
Q 947 2378 1403 2484 
z
M 1172 3481 
Q 1172 3119 1398 2916 
Q 1625 2713 2034 2713 
Q 2441 2713 2670 2916 
Q 2900 3119 2900 3481 
Q 2900 3844 2670 4047 
Q 2441 4250 2034 4250 
Q 1625 4250 1398 4047 
Q 1172 3844 1172 3481 
z
" transform="scale(0.015625)"/>
       </defs>
       <use xlink:href="#DejaVuSans-38"/>
       <use xlink:href="#DejaVuSans-31" x="63.623047"/>
      </g>
     </g>
    </g>
    <g id="xtick_24">
     <g id="line2d_32">
      <g>
       <use xlink:href="#m44e21ae26e" x="436.77" y="292.12" style="stroke: #000000; stroke-width: 0.8"/>
      </g>
     </g>
     <g id="text_19">
      <!-- 89 -->
      <g transform="translate(427.8625 309.757812) scale(0.14 -0.14)">
       <use xlink:href="#DejaVuSans-38"/>
       <use xlink:href="#DejaVuSans-39" x="63.623047"/>
      </g>
     </g>
    </g>
    <g id="text_20">
     <!-- Harmonic order -->
     <g transform="translate(200.382183 327.307187) scale(0.14 -0.14)">
      <defs>
       <path id="DejaVuSans-48" d="M 628 4666 
L 1259 4666 
L 1259 2753 
L 3553 2753 
L 3553 4666 
L 4184 4666 
L 4184 0 
L 3553 0 
L 3553 2222 
L 1259 2222 
L 1259 0 
L 628 0 
L 628 4666 
z
" transform="scale(0.015625)"/>
       <path id="DejaVuSans-61" d="M 2194 1759 
Q 1497 1759 1228 1600 
Q 959 1441 959 1056 
Q 959 750 1161 570 
Q 1363 391 1709 391 
Q 2188 391 2477 730 
Q 2766 1069 2766 1631 
L 2766 1759 
L 2194 1759 
z
M 3341 1997 
L 3341 0 
L 2766 0 
L 2766 531 
Q 2569 213 2275 61 
Q 1981 -91 1556 -91 
Q 1019 -91 701 211 
Q 384 513 384 1019 
Q 384 1609 779 1909 
Q 1175 2209 1959 2209 
L 2766 2209 
L 2766 2266 
Q 2766 2663 2505 2880 
Q 2244 3097 1772 3097 
Q 1472 3097 1187 3025 
Q 903 2953 641 2809 
L 641 3341 
Q 956 3463 1253 3523 
Q 1550 3584 1831 3584 
Q 2591 3584 2966 3190 
Q 3341 2797 3341 1997 
z
" transform="scale(0.015625)"/>
       <path id="DejaVuSans-72" d="M 2631 2963 
Q 2534 3019 2420 3045 
Q 2306 3072 2169 3072 
Q 1681 3072 1420 2755 
Q 1159 2438 1159 1844 
L 1159 0 
L 581 0 
L 581 3500 
L 1159 3500 
L 1159 2956 
Q 1341 3275 1631 3429 
Q 1922 3584 2338 3584 
Q 2397 3584 2469 3576 
Q 2541 3569 2628 3553 
L 2631 2963 
z
" transform="scale(0.015625)"/>
       <path id="DejaVuSans-6d" d="M 3328 2828 
Q 3544 3216 3844 3400 
Q 4144 3584 4550 3584 
Q 5097 3584 5394 3201 
Q 5691 2819 5691 2113 
L 5691 0 
L 5113 0 
L 5113 2094 
Q 5113 2597 4934 2840 
Q 4756 3084 4391 3084 
Q 3944 3084 3684 2787 
Q 3425 2491 3425 1978 
L 3425 0 
L 2847 0 
L 2847 2094 
Q 2847 2600 2669 2842 
Q 2491 3084 2119 3084 
Q 1678 3084 1418 2786 
Q 1159 2488 1159 1978 
L 1159 0 
L 581 0 
L 581 3500 
L 1159 3500 
L 1159 2956 
Q 1356 3278 1631 3431 
Q 1906 3584 2284 3584 
Q 2666 3584 2933 3390 
Q 3200 3197 3328 2828 
z
" transform="scale(0.015625)"/>
       <path id="DejaVuSans-6f" d="M 1959 3097 
Q 1497 3097 1228 2736 
Q 959 2375 959 1747 
Q 959 1119 1226 758 
Q 1494 397 1959 397 
Q 2419 397 2687 759 
Q 2956 1122 2956 1747 
Q 2956 2369 2687 2733 
Q 2419 3097 1959 3097 
z
M 1959 3584 
Q 2709 3584 3137 3096 
Q 3566 2609 3566 1747 
Q 3566 888 3137 398 
Q 2709 -91 1959 -91 
Q 1206 -91 779 398 
Q 353 888 353 1747 
Q 353 2609 779 3096 
Q 1206 3584 1959 3584 
z
" transform="scale(0.015625)"/>
       <path id="DejaVuSans-63" d="M 3122 3366 
L 3122 2828 
Q 2878 2963 2633 3030 
Q 2388 3097 2138 3097 
Q 1578 3097 1268 2742 
Q 959 2388 959 1747 
Q 959 1106 1268 751 
Q 1578 397 2138 397 
Q 2388 397 2633 464 
Q 2878 531 3122 666 
L 3122 134 
Q 2881 22 2623 -34 
Q 2366 -91 2075 -91 
Q 1284 -91 818 406 
Q 353 903 353 1747 
Q 353 2603 823 3093 
Q 1294 3584 2113 3584 
Q 2378 3584 2631 3529 
Q 2884 3475 3122 3366 
z
" transform="scale(0.015625)"/>
       <path id="DejaVuSans-20" transform="scale(0.015625)"/>
       <path id="DejaVuSans-64" d="M 2906 2969 
L 2906 4863 
L 3481 4863 
L 3481 0 
L 2906 0 
L 2906 525 
Q 2725 213 2448 61 
Q 2172 -91 1784 -91 
Q 1150 -91 751 415 
Q 353 922 353 1747 
Q 353 2572 751 3078 
Q 1150 3584 1784 3584 
Q 2172 3584 2448 3432 
Q 2725 3281 2906 2969 
z
M 947 1747 
Q 947 1113 1208 752 
Q 1469 391 1925 391 
Q 2381 391 2643 752 
Q 2906 1113 2906 1747 
Q 2906 2381 2643 2742 
Q 2381 3103 1925 3103 
Q 1469 3103 1208 2742 
Q 947 2381 947 1747 
z
" transform="scale(0.015625)"/>
      </defs>
      <use xlink:href="#DejaVuSans-48"/>
      <use xlink:href="#DejaVuSans-61" x="75.195312"/>
      <use xlink:href="#DejaVuSans-72" x="136.474609"/>
      <use xlink:href="#DejaVuSans-6d" x="175.837891"/>
      <use xlink:href="#DejaVuSans-6f" x="273.25"/>
      <use xlink:href="#DejaVuSans-6e" x="334.431641"/>
      <use xlink:href="#DejaVuSans-69" x="397.810547"/>
      <use xlink:href="#DejaVuSans-63" x="425.59375"/>
      <use xlink:href="#DejaVuSans-20" x="480.574219"/>
      <use xlink:href="#DejaVuSans-6f" x="512.361328"/>
      <use xlink:href="#DejaVuSans-72" x="573.542969"/>
      <use xlink:href="#DejaVuSans-64" x="612.90625"/>
      <use xlink:href="#DejaVuSans-65" x="676.382812"/>
      <use xlink:href="#DejaVuSans-72" x="737.90625"/>
     </g>
    </g>
   </g>
   <g id="matplotlib.axis_4">
    <g id="ytick_5">
     <g id="line2d_33">
      <g>
       <use xlink:href="#m9af46bd576" x="73.058741" y="292.12" style="stroke: #000000; stroke-width: 0.8"/>
      </g>
     </g>
     <g id="text_21">
      <!-- $\mathdefault{10^{-9}}$ -->
      <g transform="translate(33.158741 297.438906) scale(0.14 -0.14)">
       <use xlink:href="#DejaVuSans-31" transform="translate(0 0.765625)"/>
       <use xlink:href="#DejaVuSans-30" transform="translate(63.623047 0.765625)"/>
       <use xlink:href="#DejaVuSans-2212" transform="translate(128.203125 39.046875) scale(0.7)"/>
       <use xlink:href="#DejaVuSans-39" transform="translate(186.855469 39.046875) scale(0.7)"/>
      </g>
     </g>
    </g>
    <g id="ytick_6">
     <g id="line2d_34">
      <g>
       <use xlink:href="#m9af46bd576" x="73.058741" y="256.040571" style="stroke: #000000; stroke-width: 0.8"/>
      </g>
     </g>
     <g id="text_22">
      <!-- $\mathdefault{10^{-5}}$ -->
      <g transform="translate(33.158741 261.359478) scale(0.14 -0.14)">
       <use xlink:href="#DejaVuSans-31" transform="translate(0 0.684375)"/>
       <use xlink:href="#DejaVuSans-30" transform="translate(63.623047 0.684375)"/>
       <use xlink:href="#DejaVuSans-2212" transform="translate(128.203125 38.965625) scale(0.7)"/>
       <use xlink:href="#DejaVuSans-35" transform="translate(186.855469 38.965625) scale(0.7)"/>
      </g>
     </g>
    </g>
    <g id="ytick_7">
     <g id="line2d_35">
      <g>
       <use xlink:href="#m9af46bd576" x="73.058741" y="219.961143" style="stroke: #000000; stroke-width: 0.8"/>
      </g>
     </g>
     <g id="text_23">
      <!-- $\mathdefault{10^{-1}}$ -->
      <g transform="translate(33.158741 225.280049) scale(0.14 -0.14)">
       <use xlink:href="#DejaVuSans-31" transform="translate(0 0.684375)"/>
       <use xlink:href="#DejaVuSans-30" transform="translate(63.623047 0.684375)"/>
       <use xlink:href="#DejaVuSans-2212" transform="translate(128.203125 38.965625) scale(0.7)"/>
       <use xlink:href="#DejaVuSans-31" transform="translate(186.855469 38.965625) scale(0.7)"/>
      </g>
     </g>
    </g>
    <g id="ytick_8">
     <g id="line2d_36">
      <g>
       <use xlink:href="#m9af46bd576" x="73.058741" y="183.881714" style="stroke: #000000; stroke-width: 0.8"/>
      </g>
     </g>
     <g id="text_24">
      <!-- $\mathdefault{10^{3}}$ -->
      <g transform="translate(41.418741 189.200621) scale(0.14 -0.14)">
       <use xlink:href="#DejaVuSans-31" transform="translate(0 0.765625)"/>
       <use xlink:href="#DejaVuSans-30" transform="translate(63.623047 0.765625)"/>
       <use xlink:href="#DejaVuSans-33" transform="translate(128.203125 39.046875) scale(0.7)"/>
      </g>
     </g>
    </g>
    <g id="text_25">
     <!-- Intensity -->
     <g transform="translate(26.247178 259.4485) rotate(-90) scale(0.14 -0.14)">
      <use xlink:href="#DejaVuSans-49"/>
      <use xlink:href="#DejaVuSans-6e" x="29.492188"/>
      <use xlink:href="#DejaVuSans-74" x="92.871094"/>
      <use xlink:href="#DejaVuSans-65" x="132.080078"/>
      <use xlink:href="#DejaVuSans-6e" x="193.603516"/>
      <use xlink:href="#DejaVuSans-73" x="256.982422"/>
      <use xlink:href="#DejaVuSans-69" x="309.082031"/>
      <use xlink:href="#DejaVuSans-74" x="336.865234"/>
      <use xlink:href="#DejaVuSans-79" x="376.074219"/>
     </g>
    </g>
   </g>
   <g id="line2d_37">
    <path d="M 73.057416 170.196047 
L 74.434668 173.157417 
L 75.811921 180.012738 
L 77.189173 190.352747 
L 78.566426 192.955439 
L 79.943679 193.502457 
L 81.320931 194.183502 
L 82.698184 197.47752 
L 84.075436 204.755311 
L 85.452689 215.880025 
L 86.829941 215.0702 
L 88.207194 205.147198 
L 89.584446 204.646981 
L 90.961699 206.973674 
L 92.338951 212.700699 
L 93.716204 215.288033 
L 95.093457 212.215152 
L 96.470709 206.92536 
L 97.847962 205.428859 
L 99.225214 207.658786 
L 100.602467 214.101467 
L 101.979719 214.82262 
L 103.356972 214.448491 
L 104.734224 206.429888 
L 106.111477 204.592996 
L 107.48873 209.987759 
L 108.865982 228.941159 
L 110.243235 223.285854 
L 111.620487 211.403552 
L 112.99774 208.675915 
L 114.374992 208.139973 
L 115.752245 210.886814 
L 117.129497 220.086424 
L 118.50675 227.174975 
L 119.884003 215.725591 
L 121.261255 210.946904 
L 122.638508 211.495953 
L 124.01576 215.694972 
L 125.393013 220.579203 
L 126.770265 223.025613 
L 128.147518 217.781378 
L 129.52477 214.715391 
L 130.902023 215.342745 
L 132.279275 220.084215 
L 133.656528 222.638732 
L 135.033781 224.311144 
L 136.411033 219.348131 
L 137.788286 217.58475 
L 139.165538 219.29801 
L 140.542791 221.912635 
L 141.920043 221.247307 
L 143.297296 223.557131 
L 144.674548 220.862887 
L 146.051801 220.49451 
L 147.429054 222.761366 
L 148.806306 221.127086 
L 150.183559 221.930249 
L 151.560811 225.174391 
L 152.938064 223.342347 
L 154.315316 222.957425 
L 155.692569 224.155245 
L 157.069821 222.015246 
L 158.447074 223.97823 
L 159.824326 231.750894 
L 161.201579 231.623748 
L 162.578832 225.606014 
L 163.956084 221.986025 
L 165.333337 224.268392 
L 166.710589 235.368076 
L 168.087842 236.13028 
L 169.465094 233.357511 
L 170.842347 225.703451 
L 172.219599 225.004315 
L 173.596852 226.909697 
L 174.974105 229.240584 
L 176.351357 234.864431 
L 177.72861 234.091522 
L 179.105862 229.930349 
L 180.483115 226.776347 
L 181.860367 225.850747 
L 183.23762 227.732507 
L 184.614872 233.14583 
L 185.992125 235.179839 
L 187.369377 230.82572 
L 188.74663 228.746908 
L 190.123883 227.99611 
L 191.501135 229.530963 
L 192.878388 233.917091 
L 194.25564 235.620797 
L 195.632893 231.384995 
L 197.010145 230.354512 
L 198.387398 232.351719 
L 199.76465 234.83053 
L 201.141903 237.78001 
L 202.519156 243.64871 
L 203.896408 234.37352 
L 205.273661 229.971174 
L 206.650913 228.755053 
L 208.028166 230.513717 
L 209.405418 235.211784 
L 210.782671 238.884821 
L 212.159923 235.940967 
L 213.537176 233.879876 
L 214.914428 232.907017 
L 216.291681 232.64287 
L 217.668934 235.15043 
L 219.046186 240.526713 
L 220.423439 235.684772 
L 221.800691 232.59041 
L 223.177944 232.503981 
L 224.555196 235.267632 
L 225.932449 241.830913 
L 227.309701 249.104105 
L 228.686954 241.224085 
L 230.064207 235.829009 
L 231.441459 233.109664 
L 232.818712 232.593382 
L 234.195964 234.687776 
L 235.573217 239.643117 
L 236.950469 237.63109 
L 238.327722 234.601562 
L 239.704974 234.676715 
L 241.082227 237.364055 
L 243.836732 253.047789 
L 245.213985 243.649959 
L 246.591237 238.75938 
L 247.96849 235.317607 
L 249.345742 234.360701 
L 250.722995 235.508115 
L 252.100247 239.806221 
L 253.4775 240.042092 
L 254.854752 235.783361 
L 256.232005 234.678833 
L 257.609258 235.872706 
L 258.98651 239.788517 
L 260.363763 242.874689 
L 261.741015 240.052033 
L 263.118268 239.324566 
L 265.872773 240.392634 
L 267.250025 240.716398 
L 268.627278 244.360471 
L 270.004531 255.426479 
L 271.381783 240.493446 
L 272.759036 236.242963 
L 274.136288 235.133639 
L 275.513541 235.932548 
L 276.890793 238.520449 
L 278.268046 238.91892 
L 279.645298 236.621915 
L 281.022551 235.801578 
L 282.399803 236.59529 
L 283.777056 238.788322 
L 285.154309 239.043242 
L 286.531561 236.760221 
L 287.908814 235.884027 
L 289.286066 236.957107 
L 290.663319 240.691144 
L 292.040571 248.459497 
L 293.417824 241.758311 
L 294.795076 237.98069 
L 296.172329 237.461934 
L 297.549582 238.883487 
L 298.926834 243.720518 
L 300.304087 255.061526 
L 301.681339 244.85182 
L 303.058592 241.159329 
L 304.435844 240.753316 
L 305.813097 242.073024 
L 307.190349 246.039357 
L 308.567602 250.644 
L 311.322107 245.908478 
L 312.69936 245.393372 
L 314.076612 246.752389 
L 315.453865 249.48683 
L 316.831117 253.109353 
L 318.20837 252.55882 
L 319.585622 251.862796 
L 320.962875 251.010978 
L 322.340127 252.946195 
L 323.71738 254.470589 
L 325.094633 258.635597 
L 326.471885 257.741733 
L 327.849138 258.696389 
L 329.22639 257.503356 
L 330.603643 260.297994 
L 331.980895 260.566668 
L 333.358148 265.01303 
L 334.7354 264.463147 
L 336.112653 266.24372 
L 337.489905 266.014263 
L 338.867158 266.739778 
L 340.244411 268.065805 
L 341.621663 270.129343 
L 342.998916 273.932816 
L 344.376168 270.528101 
L 345.753421 276.591554 
L 347.130673 271.625776 
L 348.507926 279.285413 
L 349.885178 274.102428 
L 351.262431 283.47681 
L 352.639684 273.779005 
L 354.016936 281.557288 
L 355.394189 275.09835 
L 356.771441 280.732279 
L 358.148694 275.191863 
L 359.525946 279.957729 
L 360.903199 277.111068 
L 362.280451 276.88397 
L 363.657704 278.574464 
L 365.034957 278.085773 
L 366.412209 277.896275 
L 367.789462 277.257473 
L 369.166714 278.35313 
L 370.543967 278.551588 
L 371.921219 277.55969 
L 373.298472 279.582176 
L 374.675724 277.449988 
L 376.052977 278.193738 
L 377.430229 279.372976 
L 378.807482 278.731038 
L 380.184735 278.503422 
L 381.561987 277.867332 
L 382.93924 280.299334 
L 384.316492 278.389407 
L 385.693745 278.510648 
L 387.070997 279.933984 
L 388.44825 278.709576 
L 389.825502 279.160777 
L 391.202755 278.77056 
L 392.580008 280.573572 
L 393.95726 278.645102 
L 395.334513 278.975297 
L 396.711765 280.513914 
L 398.089018 278.651782 
L 399.46627 280.178804 
L 400.843523 279.573756 
L 402.220775 280.093664 
L 403.598028 279.316437 
L 404.97528 279.448994 
L 406.352533 281.309954 
L 407.729786 279.034399 
L 409.107038 280.311675 
L 410.484291 280.384176 
L 411.861543 279.71716 
L 413.238796 280.500181 
L 414.616048 280.121618 
L 415.993301 281.554057 
L 417.370553 279.239398 
L 420.125059 281.541208 
L 421.502311 280.183485 
L 422.879564 281.058122 
L 424.256816 280.182922 
L 425.634069 281.230456 
L 427.011321 280.682836 
L 428.388574 281.348866 
L 429.765826 281.411151 
L 431.143079 279.839697 
L 432.520331 281.627754 
L 433.897584 281.803477 
L 436.652089 280.711233 
L 438.029342 281.147792 
L 438.029342 281.147792 
" clip-path="url(#p843d32c084)" style="fill: none; stroke: #000000; stroke-width: 1.5; stroke-linecap: square"/>
   </g>
   <g id="line2d_38">
    <path d="M 73.057416 170.18854 
L 74.434668 173.149075 
L 75.811921 180.005535 
L 77.189173 190.3381 
L 78.566426 192.941246 
L 79.943679 193.492331 
L 81.320931 194.173363 
L 82.698184 197.466059 
L 84.075436 204.742082 
L 85.452689 215.837217 
L 86.829941 215.075374 
L 88.207194 205.146416 
L 89.584446 204.648747 
L 90.961699 206.972936 
L 92.338951 212.711816 
L 93.716204 215.301044 
L 95.093457 212.209831 
L 96.470709 206.921097 
L 97.847962 205.425708 
L 99.225214 207.659322 
L 100.602467 214.107512 
L 101.979719 214.823895 
L 103.356972 214.44776 
L 104.734224 206.421698 
L 106.111477 204.595139 
L 107.48873 210.003358 
L 108.865982 228.739331 
L 110.243235 223.251031 
L 111.620487 211.411297 
L 112.99774 208.681254 
L 114.374992 208.132876 
L 115.752245 210.884169 
L 117.129497 220.097038 
L 118.50675 227.171089 
L 119.884003 215.71919 
L 121.261255 210.947416 
L 122.638508 211.499906 
L 124.01576 215.685952 
L 125.393013 220.575736 
L 126.770265 223.045005 
L 128.147518 217.790051 
L 129.52477 214.717719 
L 130.902023 215.342625 
L 132.279275 220.082235 
L 133.656528 222.637376 
L 135.033781 224.331832 
L 136.411033 219.358247 
L 137.788286 217.591172 
L 139.165538 219.297516 
L 140.542791 221.899072 
L 141.920043 221.241696 
L 143.297296 223.56464 
L 144.674548 220.872204 
L 146.051801 220.501065 
L 147.429054 222.754143 
L 148.806306 221.116806 
L 150.183559 221.926107 
L 151.560811 225.174054 
L 152.938064 223.341254 
L 154.315316 222.962253 
L 155.692569 224.154744 
L 157.069821 222.013032 
L 158.447074 223.979578 
L 159.824326 231.770781 
L 161.201579 231.628649 
L 162.578832 225.605673 
L 163.956084 221.993463 
L 165.333337 224.28251 
L 166.710589 235.380134 
L 168.087842 236.087766 
L 169.465094 233.369303 
L 170.842347 225.709034 
L 172.219599 225.008617 
L 173.596852 226.911458 
L 174.974105 229.241872 
L 176.351357 234.878633 
L 177.72861 234.104785 
L 179.105862 229.930721 
L 180.483115 226.772861 
L 181.860367 225.850321 
L 183.23762 227.735177 
L 184.614872 233.151759 
L 185.992125 235.186551 
L 187.369377 230.824151 
L 188.74663 228.745836 
L 190.123883 227.995799 
L 191.501135 229.535116 
L 192.878388 233.932973 
L 194.25564 235.644059 
L 195.632893 231.401825 
L 197.010145 230.370235 
L 198.387398 232.362554 
L 199.76465 234.815081 
L 201.141903 237.750899 
L 202.519156 243.624211 
L 203.896408 234.366344 
L 205.273661 229.969347 
L 206.650913 228.75653 
L 208.028166 230.520179 
L 209.405418 235.228447 
L 210.782671 238.901757 
L 212.159923 235.9513 
L 213.537176 233.882965 
L 214.914428 232.904795 
L 216.291681 232.638711 
L 217.668934 235.148065 
L 219.046186 240.540506 
L 220.423439 235.693198 
L 221.800691 232.598238 
L 223.177944 232.514085 
L 224.555196 235.279047 
L 225.932449 241.84957 
L 227.309701 249.154702 
L 228.686954 241.230879 
L 230.064207 235.826696 
L 231.441459 233.106738 
L 232.818712 232.593306 
L 234.195964 234.689022 
L 235.573217 239.655361 
L 236.950469 237.641719 
L 238.327722 234.609801 
L 239.704974 234.689295 
L 241.082227 237.377463 
L 243.836732 253.141587 
L 245.213985 243.660554 
L 246.591237 238.761199 
L 247.96849 235.314111 
L 249.345742 234.360113 
L 250.722995 235.507495 
L 252.100247 239.811264 
L 253.4775 240.053321 
L 254.854752 235.790043 
L 256.232005 234.687974 
L 257.609258 235.884593 
L 258.98651 239.806764 
L 260.363763 242.899009 
L 261.741015 240.062586 
L 263.118268 239.332019 
L 265.872773 240.383386 
L 267.250025 240.70521 
L 268.627278 244.345152 
L 270.004531 255.451289 
L 271.381783 240.499267 
L 272.759036 236.245364 
L 274.136288 235.138363 
L 275.513541 235.936672 
L 276.890793 238.527163 
L 278.268046 238.926484 
L 279.645298 236.626917 
L 281.022551 235.809154 
L 282.399803 236.605334 
L 283.777056 238.801647 
L 285.154309 239.056568 
L 286.531561 236.767348 
L 287.908814 235.889226 
L 289.286066 236.964002 
L 290.663319 240.698775 
L 292.040571 248.50025 
L 293.417824 241.771957 
L 294.795076 237.986881 
L 296.172329 237.468184 
L 297.549582 238.88782 
L 298.926834 243.721214 
L 300.304087 255.006241 
L 301.681339 244.860853 
L 303.058592 241.164441 
L 304.435844 240.760785 
L 305.813097 242.076013 
L 307.190349 246.04218 
L 308.567602 250.629578 
L 311.322107 245.91379 
L 312.69936 245.401621 
L 314.076612 246.756309 
L 315.453865 249.491654 
L 316.831117 253.104256 
L 318.20837 252.560799 
L 319.585622 251.871093 
L 320.962875 251.016383 
L 322.340127 252.954176 
L 323.71738 254.472492 
L 325.094633 258.645077 
L 326.471885 257.738141 
L 327.849138 258.714408 
L 329.22639 257.500433 
L 330.603643 260.318995 
L 331.980895 260.558646 
L 333.358148 265.043088 
L 334.7354 264.443368 
L 336.112653 266.274389 
L 337.489905 265.998279 
L 338.867158 266.767109 
L 340.244411 268.039348 
L 341.621663 270.148101 
L 342.998916 273.86757 
L 344.376168 270.527363 
L 345.753421 276.512493 
L 347.130673 271.619105 
L 348.507926 279.138705 
L 349.885178 274.076875 
L 351.262431 283.314788 
L 352.639684 273.74118 
L 354.016936 281.453378 
L 355.394189 275.052891 
L 356.771441 280.660422 
L 358.148694 275.142363 
L 359.525946 279.877038 
L 360.903199 277.054873 
L 362.280451 276.83349 
L 363.657704 278.50062 
L 365.034957 278.032188 
L 366.412209 277.833559 
L 367.789462 277.205451 
L 369.166714 278.285175 
L 370.543967 278.498176 
L 371.921219 277.496626 
L 373.298472 279.518595 
L 374.675724 277.397791 
L 376.052977 278.131847 
L 377.430229 279.309181 
L 378.807482 278.671062 
L 380.184735 278.448727 
L 381.561987 277.811226 
L 382.93924 280.227372 
L 384.316492 278.339317 
L 385.693745 278.452301 
L 387.070997 279.871332 
L 388.44825 278.654788 
L 389.825502 279.104395 
L 391.202755 278.712401 
L 392.580008 280.508808 
L 393.95726 278.597415 
L 395.334513 278.914965 
L 396.711765 280.455619 
L 398.089018 278.600047 
L 399.46627 280.117527 
L 400.843523 279.518234 
L 402.220775 280.034614 
L 403.598028 279.266881 
L 404.97528 279.39056 
L 406.352533 281.248784 
L 407.729786 278.984692 
L 409.107038 280.249632 
L 410.484291 280.330793 
L 411.861543 279.663954 
L 413.238796 280.445113 
L 414.616048 280.062096 
L 415.993301 281.49398 
L 417.370553 279.193552 
L 420.125059 281.485982 
L 421.502311 280.129386 
L 422.879564 281.001317 
L 424.256816 280.130678 
L 425.634069 281.173485 
L 427.011321 280.631233 
L 428.388574 281.287884 
L 429.765826 281.36121 
L 431.143079 279.791456 
L 432.520331 281.566981 
L 433.897584 281.748312 
L 436.652089 280.663414 
L 438.029342 281.090871 
L 438.029342 281.090871 
" clip-path="url(#p843d32c084)" style="fill: none; stroke-dasharray: 5.55,2.4; stroke-dashoffset: 0; stroke: #ff0000; stroke-width: 1.5"/>
   </g>
   <g id="patch_9">
    <path d="M 73.058741 292.12 
L 73.058741 165.842 
" style="fill: none; stroke: #000000; stroke-width: 0.8; stroke-linejoin: miter; stroke-linecap: square"/>
   </g>
   <g id="patch_10">
    <path d="M 436.77 292.12 
L 436.77 165.842 
" style="fill: none; stroke: #000000; stroke-width: 0.8; stroke-linejoin: miter; stroke-linecap: square"/>
   </g>
   <g id="patch_11">
    <path d="M 73.058741 292.12 
L 436.77 292.12 
" style="fill: none; stroke: #000000; stroke-width: 0.8; stroke-linejoin: miter; stroke-linecap: square"/>
   </g>
   <g id="patch_12">
    <path d="M 73.058741 165.842 
L 436.77 165.842 
" style="fill: none; stroke: #000000; stroke-width: 0.8; stroke-linejoin: miter; stroke-linecap: square"/>
   </g>
   <g id="legend_2">
    <g id="patch_13">
     <path d="M 329.25 218.197625 
L 426.97 218.197625 
Q 429.77 218.197625 429.77 215.397625 
L 429.77 175.642 
Q 429.77 172.842 426.97 172.842 
L 329.25 172.842 
Q 326.45 172.842 326.45 175.642 
L 326.45 215.397625 
Q 326.45 218.197625 329.25 218.197625 
z
" style="fill: #ffffff; opacity: 0.8; stroke: #cccccc; stroke-linejoin: miter"/>
    </g>
    <g id="line2d_39">
     <path d="M 332.05 184.179812 
L 346.05 184.179812 
L 360.05 184.179812 
" style="fill: none; stroke: #000000; stroke-width: 1.5; stroke-linecap: square"/>
    </g>
    <g id="text_26">
     <!-- $\mu=\infty$ -->
     <g transform="translate(371.25 189.079812) scale(0.14 -0.14)">
      <use xlink:href="#DejaVuSans-Oblique-3bc" transform="translate(0 0.3125)"/>
      <use xlink:href="#DejaVuSans-3d" transform="translate(83.105469 0.3125)"/>
      <use xlink:href="#DejaVuSans-221e" transform="translate(186.376953 0.3125)"/>
     </g>
    </g>
    <g id="line2d_40">
     <path d="M 332.05 204.757625 
L 346.05 204.757625 
L 360.05 204.757625 
" style="fill: none; stroke-dasharray: 5.55,2.4; stroke-dashoffset: 0; stroke: #ff0000; stroke-width: 1.5"/>
    </g>
    <g id="text_27">
     <!-- $\mu=100$ -->
     <g transform="translate(371.25 209.657625) scale(0.14 -0.14)">
      <use xlink:href="#DejaVuSans-Oblique-3bc" transform="translate(0 0.78125)"/>
      <use xlink:href="#DejaVuSans-3d" transform="translate(83.105469 0.78125)"/>
      <use xlink:href="#DejaVuSans-31" transform="translate(186.376953 0.78125)"/>
      <use xlink:href="#DejaVuSans-30" transform="translate(250 0.78125)"/>
      <use xlink:href="#DejaVuSans-30" transform="translate(313.623047 0.78125)"/>
     </g>
    </g>
   </g>
  </g>
 </g>
 <defs>
  <clipPath id="p6287ad879e">
   <rect x="73.058741" y="15.12" width="363.711259" height="126.278"/>
  </clipPath>
  <clipPath id="p843d32c084">
   <rect x="73.058741" y="165.842" width="363.711259" height="126.278"/>
  </clipPath>
 </defs>
</svg>
