<?xml version="1.0" encoding="utf-8" standalone="no"?>
<!DOCTYPE svg PUBLIC "-//W3C//DTD SVG 1.1//EN"
  "http://www.w3.org/Graphics/SVG/1.1/DTD/svg11.dtd">
<svg xmlns:xlink="http://www.w3.org/1999/xlink" width="460.8pt" height="345.6pt" viewBox="0 0 460.8 345.6" xmlns="http://www.w3.org/2000/svg" version="1.1">
 <metadata>
  <rdf:RDF xmlns:dc="http://purl.org/dc/elements/1.1/" xmlns:cc="http://creativecommons.org/ns#" xmlns:rdf="http://www.w3.org/1999/02/22-rdf-syntax-ns#">
   <cc:Work>
    <dc:type rdf:resource="http://purl.org/dc/dcmitype/StillImage"/>
    <dc:date>2024-04-02T15:04:38.950665</dc:date>
    <dc:format>image/svg+xml</dc:format>
    <dc:creator>
     <cc:Agent>
      <dc:title>Matplotlib v3.6.1, https://matplotlib.org/</dc:title>
     </cc:Agent>
    </dc:creator>
   </cc:Work>
  </rdf:RDF>
 </metadata>
 <defs>
  <style type="text/css">*{stroke-linejoin: round; stroke-linecap: butt}</style>
 </defs>
 <g id="figure_1">
  <g id="patch_1">
   <path d="M 0 345.6 
L 460.8 345.6 
L 460.8 0 
L 0 0 
z
" style="fill: #ffffff"/>
  </g>
  <g id="axes_1">
   <g id="patch_2">
    <path d="M 79.311614 111.509924 
L 445.68 111.509924 
L 445.68 21.564 
L 79.311614 21.564 
z
" style="fill: #ffffff"/>
   </g>
   <g id="matplotlib.axis_1">
    <g id="xtick_1">
     <g id="line2d_1">
      <defs>
       <path id="ma330915e0b" d="M 0 0 
L 0 3.5 
" style="stroke: #000000; stroke-width: 0.8"/>
      </defs>
      <g>
       <use xlink:href="#ma330915e0b" x="79.311614" y="111.509924" style="stroke: #000000; stroke-width: 0.8"/>
      </g>
     </g>
    </g>
    <g id="xtick_2">
     <g id="line2d_2">
      <g>
       <use xlink:href="#ma330915e0b" x="125.107662" y="111.509924" style="stroke: #000000; stroke-width: 0.8"/>
      </g>
     </g>
    </g>
    <g id="xtick_3">
     <g id="line2d_3">
      <g>
       <use xlink:href="#ma330915e0b" x="170.90371" y="111.509924" style="stroke: #000000; stroke-width: 0.8"/>
      </g>
     </g>
    </g>
    <g id="xtick_4">
     <g id="line2d_4">
      <g>
       <use xlink:href="#ma330915e0b" x="216.699759" y="111.509924" style="stroke: #000000; stroke-width: 0.8"/>
      </g>
     </g>
    </g>
    <g id="xtick_5">
     <g id="line2d_5">
      <g>
       <use xlink:href="#ma330915e0b" x="262.495807" y="111.509924" style="stroke: #000000; stroke-width: 0.8"/>
      </g>
     </g>
    </g>
    <g id="xtick_6">
     <g id="line2d_6">
      <g>
       <use xlink:href="#ma330915e0b" x="308.291855" y="111.509924" style="stroke: #000000; stroke-width: 0.8"/>
      </g>
     </g>
    </g>
    <g id="xtick_7">
     <g id="line2d_7">
      <g>
       <use xlink:href="#ma330915e0b" x="354.087903" y="111.509924" style="stroke: #000000; stroke-width: 0.8"/>
      </g>
     </g>
    </g>
    <g id="xtick_8">
     <g id="line2d_8">
      <g>
       <use xlink:href="#ma330915e0b" x="399.883952" y="111.509924" style="stroke: #000000; stroke-width: 0.8"/>
      </g>
     </g>
    </g>
   </g>
   <g id="matplotlib.axis_2">
    <g id="ytick_1">
     <g id="line2d_9">
      <defs>
       <path id="mb7de8aa0bb" d="M 0 0 
L -3.5 0 
" style="stroke: #000000; stroke-width: 0.8"/>
      </defs>
      <g>
       <use xlink:href="#mb7de8aa0bb" x="79.311614" y="111.509924" style="stroke: #000000; stroke-width: 0.8"/>
      </g>
     </g>
     <g id="text_1">
      <!-- $\mathdefault{10^{-10}}$ -->
      <g transform="translate(33.251614 116.82883) scale(0.14 -0.14)">
       <defs>
        <path id="DejaVuSans-31" d="M 794 531 
L 1825 531 
L 1825 4091 
L 703 3866 
L 703 4441 
L 1819 4666 
L 2450 4666 
L 2450 531 
L 3481 531 
L 3481 0 
L 794 0 
L 794 531 
z
" transform="scale(0.015625)"/>
        <path id="DejaVuSans-30" d="M 2034 4250 
Q 1547 4250 1301 3770 
Q 1056 3291 1056 2328 
Q 1056 1369 1301 889 
Q 1547 409 2034 409 
Q 2525 409 2770 889 
Q 3016 1369 3016 2328 
Q 3016 3291 2770 3770 
Q 2525 4250 2034 4250 
z
M 2034 4750 
Q 2819 4750 3233 4129 
Q 3647 3509 3647 2328 
Q 3647 1150 3233 529 
Q 2819 -91 2034 -91 
Q 1250 -91 836 529 
Q 422 1150 422 2328 
Q 422 3509 836 4129 
Q 1250 4750 2034 4750 
z
" transform="scale(0.015625)"/>
        <path id="DejaVuSans-2212" d="M 678 2272 
L 4684 2272 
L 4684 1741 
L 678 1741 
L 678 2272 
z
" transform="scale(0.015625)"/>
       </defs>
       <use xlink:href="#DejaVuSans-31" transform="translate(0 0.765625)"/>
       <use xlink:href="#DejaVuSans-30" transform="translate(63.623047 0.765625)"/>
       <use xlink:href="#DejaVuSans-2212" transform="translate(128.203125 39.046875) scale(0.7)"/>
       <use xlink:href="#DejaVuSans-31" transform="translate(186.855469 39.046875) scale(0.7)"/>
       <use xlink:href="#DejaVuSans-30" transform="translate(231.391602 39.046875) scale(0.7)"/>
      </g>
     </g>
    </g>
    <g id="ytick_2">
     <g id="line2d_10">
      <g>
       <use xlink:href="#mb7de8aa0bb" x="79.311614" y="74.032456" style="stroke: #000000; stroke-width: 0.8"/>
      </g>
     </g>
     <g id="text_2">
      <!-- $\mathdefault{10^{-5}}$ -->
      <g transform="translate(39.411614 79.351362) scale(0.14 -0.14)">
       <defs>
        <path id="DejaVuSans-35" d="M 691 4666 
L 3169 4666 
L 3169 4134 
L 1269 4134 
L 1269 2991 
Q 1406 3038 1543 3061 
Q 1681 3084 1819 3084 
Q 2600 3084 3056 2656 
Q 3513 2228 3513 1497 
Q 3513 744 3044 326 
Q 2575 -91 1722 -91 
Q 1428 -91 1123 -41 
Q 819 9 494 109 
L 494 744 
Q 775 591 1075 516 
Q 1375 441 1709 441 
Q 2250 441 2565 725 
Q 2881 1009 2881 1497 
Q 2881 1984 2565 2268 
Q 2250 2553 1709 2553 
Q 1456 2553 1204 2497 
Q 953 2441 691 2322 
L 691 4666 
z
" transform="scale(0.015625)"/>
       </defs>
       <use xlink:href="#DejaVuSans-31" transform="translate(0 0.684375)"/>
       <use xlink:href="#DejaVuSans-30" transform="translate(63.623047 0.684375)"/>
       <use xlink:href="#DejaVuSans-2212" transform="translate(128.203125 38.965625) scale(0.7)"/>
       <use xlink:href="#DejaVuSans-35" transform="translate(186.855469 38.965625) scale(0.7)"/>
      </g>
     </g>
    </g>
    <g id="ytick_3">
     <g id="line2d_11">
      <g>
       <use xlink:href="#mb7de8aa0bb" x="79.311614" y="36.554987" style="stroke: #000000; stroke-width: 0.8"/>
      </g>
     </g>
     <g id="text_3">
      <!-- $\mathdefault{10^{0}}$ -->
      <g transform="translate(47.671614 41.873894) scale(0.14 -0.14)">
       <use xlink:href="#DejaVuSans-31" transform="translate(0 0.765625)"/>
       <use xlink:href="#DejaVuSans-30" transform="translate(63.623047 0.765625)"/>
       <use xlink:href="#DejaVuSans-30" transform="translate(128.203125 39.046875) scale(0.7)"/>
      </g>
     </g>
    </g>
    <g id="text_4">
     <!-- Intensity -->
     <g transform="translate(26.340051 97.004462) rotate(-90) scale(0.14 -0.14)">
      <defs>
       <path id="DejaVuSans-49" d="M 628 4666 
L 1259 4666 
L 1259 0 
L 628 0 
L 628 4666 
z
" transform="scale(0.015625)"/>
       <path id="DejaVuSans-6e" d="M 3513 2113 
L 3513 0 
L 2938 0 
L 2938 2094 
Q 2938 2591 2744 2837 
Q 2550 3084 2163 3084 
Q 1697 3084 1428 2787 
Q 1159 2491 1159 1978 
L 1159 0 
L 581 0 
L 581 3500 
L 1159 3500 
L 1159 2956 
Q 1366 3272 1645 3428 
Q 1925 3584 2291 3584 
Q 2894 3584 3203 3211 
Q 3513 2838 3513 2113 
z
" transform="scale(0.015625)"/>
       <path id="DejaVuSans-74" d="M 1172 4494 
L 1172 3500 
L 2356 3500 
L 2356 3053 
L 1172 3053 
L 1172 1153 
Q 1172 725 1289 603 
Q 1406 481 1766 481 
L 2356 481 
L 2356 0 
L 1766 0 
Q 1100 0 847 248 
Q 594 497 594 1153 
L 594 3053 
L 172 3053 
L 172 3500 
L 594 3500 
L 594 4494 
L 1172 4494 
z
" transform="scale(0.015625)"/>
       <path id="DejaVuSans-65" d="M 3597 1894 
L 3597 1613 
L 953 1613 
Q 991 1019 1311 708 
Q 1631 397 2203 397 
Q 2534 397 2845 478 
Q 3156 559 3463 722 
L 3463 178 
Q 3153 47 2828 -22 
Q 2503 -91 2169 -91 
Q 1331 -91 842 396 
Q 353 884 353 1716 
Q 353 2575 817 3079 
Q 1281 3584 2069 3584 
Q 2775 3584 3186 3129 
Q 3597 2675 3597 1894 
z
M 3022 2063 
Q 3016 2534 2758 2815 
Q 2500 3097 2075 3097 
Q 1594 3097 1305 2825 
Q 1016 2553 972 2059 
L 3022 2063 
z
" transform="scale(0.015625)"/>
       <path id="DejaVuSans-73" d="M 2834 3397 
L 2834 2853 
Q 2591 2978 2328 3040 
Q 2066 3103 1784 3103 
Q 1356 3103 1142 2972 
Q 928 2841 928 2578 
Q 928 2378 1081 2264 
Q 1234 2150 1697 2047 
L 1894 2003 
Q 2506 1872 2764 1633 
Q 3022 1394 3022 966 
Q 3022 478 2636 193 
Q 2250 -91 1575 -91 
Q 1294 -91 989 -36 
Q 684 19 347 128 
L 347 722 
Q 666 556 975 473 
Q 1284 391 1588 391 
Q 1994 391 2212 530 
Q 2431 669 2431 922 
Q 2431 1156 2273 1281 
Q 2116 1406 1581 1522 
L 1381 1569 
Q 847 1681 609 1914 
Q 372 2147 372 2553 
Q 372 3047 722 3315 
Q 1072 3584 1716 3584 
Q 2034 3584 2315 3537 
Q 2597 3491 2834 3397 
z
" transform="scale(0.015625)"/>
       <path id="DejaVuSans-69" d="M 603 3500 
L 1178 3500 
L 1178 0 
L 603 0 
L 603 3500 
z
M 603 4863 
L 1178 4863 
L 1178 4134 
L 603 4134 
L 603 4863 
z
" transform="scale(0.015625)"/>
       <path id="DejaVuSans-79" d="M 2059 -325 
Q 1816 -950 1584 -1140 
Q 1353 -1331 966 -1331 
L 506 -1331 
L 506 -850 
L 844 -850 
Q 1081 -850 1212 -737 
Q 1344 -625 1503 -206 
L 1606 56 
L 191 3500 
L 800 3500 
L 1894 763 
L 2988 3500 
L 3597 3500 
L 2059 -325 
z
" transform="scale(0.015625)"/>
      </defs>
      <use xlink:href="#DejaVuSans-49"/>
      <use xlink:href="#DejaVuSans-6e" x="29.492188"/>
      <use xlink:href="#DejaVuSans-74" x="92.871094"/>
      <use xlink:href="#DejaVuSans-65" x="132.080078"/>
      <use xlink:href="#DejaVuSans-6e" x="193.603516"/>
      <use xlink:href="#DejaVuSans-73" x="256.982422"/>
      <use xlink:href="#DejaVuSans-69" x="309.082031"/>
      <use xlink:href="#DejaVuSans-74" x="336.865234"/>
      <use xlink:href="#DejaVuSans-79" x="376.074219"/>
     </g>
    </g>
   </g>
   <g id="line2d_12">
    <path d="M 79.309167 29.094399 
L 81.852576 28.32168 
L 84.395986 34.029853 
L 86.939395 49.315209 
L 89.482805 42.936069 
L 92.026214 37.67963 
L 94.569623 35.187099 
L 97.113033 35.463925 
L 99.656442 38.059335 
L 102.199851 44.016984 
L 104.743261 48.001908 
L 107.28667 40.727315 
L 109.830079 38.217475 
L 112.373489 38.055857 
L 114.916898 39.548774 
L 117.460308 42.253838 
L 120.003717 51.221966 
L 122.547126 40.680197 
L 125.090536 35.96745 
L 127.633945 36.388922 
L 130.177354 41.019018 
L 132.720764 48.135083 
L 135.264173 41.541617 
L 137.807582 38.715511 
L 140.350992 38.07263 
L 142.894401 39.728466 
L 145.437811 44.157608 
L 147.98122 47.534634 
L 150.524629 45.214008 
L 153.068039 43.141767 
L 155.611448 42.310182 
L 158.154857 44.196628 
L 160.698267 52.106393 
L 163.241676 48.965628 
L 165.785085 44.29393 
L 168.328495 43.611061 
L 170.871904 46.674145 
L 173.415314 54.412835 
L 175.958723 49.025004 
L 178.502132 47.52625 
L 181.045542 47.547327 
L 188.67577 49.765897 
L 193.762588 53.556988 
L 196.305998 53.305063 
L 198.849407 51.359392 
L 201.392817 50.010595 
L 203.936226 50.019908 
L 206.479635 50.866815 
L 209.023045 51.836142 
L 214.109863 53.132165 
L 216.653273 54.484095 
L 219.196682 55.47485 
L 221.740091 55.648064 
L 224.283501 55.060304 
L 229.37032 52.512006 
L 231.913729 51.746423 
L 234.457138 51.813791 
L 237.000548 52.334359 
L 239.543957 52.600797 
L 242.087366 52.516839 
L 244.630776 52.555178 
L 247.174185 53.224031 
L 252.261004 56.145643 
L 254.804413 56.81208 
L 257.347823 56.905426 
L 259.891232 57.3139 
L 262.434641 58.726227 
L 267.52146 63.52633 
L 270.064869 64.442784 
L 272.608279 64.241247 
L 275.151688 64.675 
L 277.695098 66.63154 
L 280.238507 69.518482 
L 282.781916 73.443646 
L 285.325326 74.81991 
L 287.868735 73.422141 
L 290.412144 73.901828 
L 292.955554 76.162047 
L 295.498963 78.774905 
L 298.042372 86.567004 
L 300.585782 88.430589 
L 303.129191 83.116415 
L 305.672601 85.455861 
L 308.21601 85.826057 
L 310.759419 88.972367 
L 313.302829 97.131016 
L 315.846238 95.637369 
L 318.389647 91.47659 
L 320.933057 104.955475 
L 323.476466 92.117141 
L 326.019875 97.637625 
L 328.563285 94.701317 
L 331.106694 95.541546 
L 333.650104 95.671901 
L 336.193513 96.438238 
L 338.736922 95.141364 
L 341.280332 96.604344 
L 343.823741 96.262606 
L 348.91056 96.34796 
L 351.453969 96.847508 
L 356.540788 96.567852 
L 359.084197 97.095038 
L 361.627607 97.330055 
L 364.171016 96.951878 
L 366.714425 97.122376 
L 369.257835 97.679703 
L 374.344653 97.435689 
L 379.431472 97.996828 
L 381.974882 97.871714 
L 384.518291 98.025581 
L 387.0617 98.359701 
L 392.148519 98.187822 
L 394.691928 98.612372 
L 397.235338 98.824472 
L 399.778747 98.546351 
L 402.322156 98.651722 
L 404.865566 99.081485 
L 407.408975 99.121236 
L 409.952385 98.980477 
L 415.039203 99.438123 
L 420.126022 99.438562 
L 422.669431 99.699068 
L 425.212841 99.744641 
L 427.75625 99.674653 
L 432.843069 100.146082 
L 437.929888 100.028019 
L 443.016706 100.492585 
L 448.103525 100.446423 
L 448.103525 100.446423 
" clip-path="url(#pdf93b24d4e)" style="fill: none; stroke: #000000; stroke-width: 1.5; stroke-linecap: square"/>
   </g>
   <g id="line2d_13">
    <path d="M 79.309167 29.379595 
L 81.852576 28.342708 
L 84.395986 33.879508 
L 86.939395 47.065882 
L 89.482805 43.646823 
L 92.026214 37.87663 
L 94.569623 35.11976 
L 97.113033 35.343189 
L 99.656442 37.899022 
L 102.199851 43.820338 
L 104.743261 48.283512 
L 107.28667 40.748787 
L 109.830079 38.172775 
L 112.373489 38.026946 
L 114.916898 39.512603 
L 117.460308 42.242051 
L 120.003717 51.281262 
L 122.547126 40.654863 
L 125.090536 35.956021 
L 127.633945 36.392459 
L 130.177354 41.01687 
L 132.720764 48.10694 
L 135.264173 41.553087 
L 137.807582 38.722348 
L 140.350992 38.082909 
L 142.894401 39.725293 
L 145.437811 44.138673 
L 147.98122 47.52161 
L 150.524629 45.245278 
L 153.068039 43.150405 
L 155.611448 42.309567 
L 158.154857 44.208673 
L 160.698267 52.158004 
L 163.241676 48.902936 
L 165.785085 44.269738 
L 168.328495 43.616327 
L 170.871904 46.693139 
L 173.415314 54.339459 
L 175.958723 49.013322 
L 178.502132 47.524734 
L 181.045542 47.558177 
L 188.67577 49.795599 
L 193.762588 53.572948 
L 196.305998 53.275249 
L 198.849407 51.350522 
L 201.392817 50.009538 
L 203.936226 50.036188 
L 206.479635 50.875473 
L 209.023045 51.84797 
L 214.109863 53.161975 
L 216.653273 54.51668 
L 219.196682 55.479325 
L 221.740091 55.633379 
L 224.283501 55.036278 
L 229.37032 52.515811 
L 231.913729 51.758587 
L 234.457138 51.821496 
L 237.000548 52.356475 
L 239.543957 52.633229 
L 244.630776 52.613983 
L 247.174185 53.25998 
L 252.261004 56.209752 
L 254.804413 56.861343 
L 257.347823 56.974357 
L 259.891232 57.391316 
L 262.434641 58.810616 
L 267.52146 63.583029 
L 270.064869 64.499831 
L 272.608279 64.313587 
L 275.151688 64.685893 
L 277.695098 66.65931 
L 280.238507 69.508606 
L 282.781916 73.438393 
L 285.325326 74.782506 
L 287.868735 73.341537 
L 290.412144 73.8463 
L 292.955554 76.347563 
L 295.498963 78.438257 
L 298.042372 86.392477 
L 300.585782 92.347709 
L 303.129191 83.029639 
L 305.672601 84.66107 
L 308.21601 84.99337 
L 310.759419 87.553811 
L 313.302829 93.923722 
L 315.846238 96.316686 
L 318.389647 89.542472 
L 320.933057 101.568752 
L 323.476466 88.484318 
L 326.019875 98.938469 
L 328.563285 95.66433 
L 331.106694 93.568477 
L 333.650104 92.44729 
L 336.193513 97.502484 
L 338.736922 92.061099 
L 341.280332 100.845469 
L 343.823741 92.927396 
L 346.36715 96.573271 
L 348.91056 92.664151 
L 351.453969 102.26102 
L 353.997378 92.095174 
L 356.540788 100.942471 
L 359.084197 92.98372 
L 361.627607 97.936844 
L 364.171016 96.161734 
L 366.714425 94.609931 
L 369.257835 98.364259 
L 371.801244 94.677241 
L 374.344653 95.412885 
L 376.888063 100.827042 
L 379.431472 95.7694 
L 381.974882 94.440311 
L 384.518291 101.335898 
L 387.0617 93.836113 
L 389.60511 102.40704 
L 392.148519 93.513634 
L 394.691928 107.846241 
L 397.235338 93.452413 
L 399.778747 99.684496 
L 402.322156 94.588406 
L 404.865566 102.065556 
L 407.408975 96.49225 
L 409.952385 96.7399 
L 412.495794 99.327208 
L 415.039203 96.484611 
L 417.582613 100.847237 
L 420.126022 96.129273 
L 422.669431 96.339127 
L 425.212841 98.673052 
L 427.75625 96.002013 
L 430.299659 104.800335 
L 432.843069 94.361897 
L 435.386478 105.865093 
L 437.929888 96.728648 
L 440.473297 100.020589 
L 443.016706 97.708091 
L 445.560116 101.55556 
L 448.103525 97.655796 
L 448.103525 97.655796 
" clip-path="url(#pdf93b24d4e)" style="fill: none; stroke-dasharray: 5.55,2.4; stroke-dashoffset: 0; stroke: #ff0000; stroke-width: 1.5"/>
   </g>
   <g id="line2d_14">
    <path d="M 79.309167 29.377226 
L 81.852576 28.343072 
L 84.395986 33.879467 
L 86.939395 47.067566 
L 89.482805 43.64637 
L 92.026214 37.871749 
L 94.569623 35.115604 
L 97.113033 35.339551 
L 99.656442 37.890055 
L 102.199851 43.78111 
L 104.743261 48.363464 
L 107.28667 40.756994 
L 109.830079 38.172473 
L 112.373489 38.049994 
L 114.916898 39.545427 
L 117.460308 42.232756 
L 120.003717 51.053002 
L 122.547126 40.718788 
L 125.090536 35.966597 
L 127.633945 36.380253 
L 130.177354 40.955048 
L 132.720764 47.802418 
L 135.264173 41.585402 
L 137.807582 38.750678 
L 140.350992 38.054042 
L 142.894401 39.6566 
L 145.437811 44.057173 
L 147.98122 47.561228 
L 150.524629 45.252211 
L 153.068039 43.136221 
L 155.611448 42.325489 
L 158.154857 44.240998 
L 160.698267 52.15933 
L 163.241676 48.831227 
L 165.785085 44.232844 
L 168.328495 43.574706 
L 170.871904 46.60189 
L 173.415314 54.243643 
L 175.958723 49.101957 
L 178.502132 47.527208 
L 181.045542 47.511825 
L 188.67577 49.569265 
L 193.762588 53.179244 
L 196.305998 52.955656 
L 198.849407 51.253898 
L 201.392817 49.96403 
L 203.936226 49.957223 
L 206.479635 50.788513 
L 209.023045 51.778792 
L 214.109863 53.166157 
L 216.653273 54.631518 
L 219.196682 55.544112 
L 221.740091 55.623368 
L 224.283501 55.112173 
L 229.37032 52.640299 
L 231.913729 51.829144 
L 234.457138 51.875009 
L 237.000548 52.428655 
L 239.543957 52.720043 
L 244.630776 52.699863 
L 247.174185 53.377923 
L 252.261004 56.338359 
L 254.804413 56.938865 
L 257.347823 57.018205 
L 259.891232 57.434951 
L 262.434641 58.839913 
L 267.52146 63.429317 
L 270.064869 64.100437 
L 272.608279 63.813151 
L 275.151688 64.177945 
L 277.695098 66.298433 
L 280.238507 69.295383 
L 282.781916 72.086145 
L 285.325326 72.765312 
L 287.868735 72.161637 
L 290.412144 73.63588 
L 292.955554 78.333801 
L 295.498963 84.472443 
L 298.042372 85.835877 
L 300.585782 82.54397 
L 303.129191 79.447304 
L 305.672601 81.965445 
L 308.21601 94.49962 
L 310.759419 87.25004 
L 313.302829 85.209571 
L 315.846238 87.989645 
L 318.389647 87.41341 
L 320.933057 88.526301 
L 323.476466 91.046178 
L 326.019875 91.970405 
L 328.563285 86.7607 
L 331.106694 87.051225 
L 333.650104 88.398891 
L 336.193513 90.961247 
L 338.736922 89.587216 
L 341.280332 87.415895 
L 343.823741 94.782938 
L 346.36715 86.04803 
L 348.91056 90.272655 
L 351.453969 93.147097 
L 353.997378 100.88384 
L 356.540788 89.903466 
L 359.084197 95.256203 
L 361.627607 90.627199 
L 364.171016 93.524116 
L 366.714425 87.018445 
L 369.257835 86.499412 
L 371.801244 87.334227 
L 374.344653 87.277879 
L 376.888063 86.228693 
L 379.431472 84.569538 
L 381.974882 88.820753 
L 384.518291 87.847581 
L 387.0617 90.710298 
L 389.60511 85.620861 
L 392.148519 88.17142 
L 394.691928 92.458214 
L 397.235338 92.428305 
L 399.778747 91.283826 
L 402.322156 90.295419 
L 404.865566 91.342024 
L 407.408975 90.283602 
L 409.952385 96.217656 
L 412.495794 88.897372 
L 415.039203 90.016192 
L 417.582613 88.906084 
L 420.126022 90.219862 
L 422.669431 97.966124 
L 425.212841 91.581931 
L 427.75625 85.620056 
L 430.299659 85.705983 
L 432.843069 86.878827 
L 435.386478 87.171306 
L 437.929888 88.224102 
L 440.473297 86.723225 
L 443.016706 90.549346 
L 445.560116 90.85352 
L 448.103525 90.400329 
L 448.103525 90.400329 
" clip-path="url(#pdf93b24d4e)" style="fill: none; stroke-dasharray: 5.55,2.4; stroke-dashoffset: 0; stroke: #008000; stroke-width: 1.5"/>
   </g>
   <g id="line2d_15">
    <path d="M 79.309167 29.365069 
L 81.852576 28.343405 
L 84.395986 33.885258 
L 86.939395 47.096738 
L 89.482805 43.660859 
L 92.026214 37.891459 
L 94.569623 35.121232 
L 97.113033 35.345835 
L 99.656442 37.90819 
L 102.199851 43.722612 
L 104.743261 48.461112 
L 107.28667 40.711307 
L 109.830079 38.0826 
L 112.373489 38.02786 
L 114.916898 39.67487 
L 117.460308 42.694412 
L 120.003717 52.936275 
L 122.547126 40.524584 
L 125.090536 35.909082 
L 127.633945 36.241373 
L 130.177354 40.64737 
L 132.720764 48.802287 
L 135.264173 41.44329 
L 137.807582 38.456776 
L 140.350992 37.995212 
L 142.894401 39.841448 
L 145.437811 44.445581 
L 147.98122 47.875034 
L 150.524629 45.191199 
L 153.068039 43.100391 
L 155.611448 42.405687 
L 158.154857 44.369111 
L 160.698267 51.959799 
L 163.241676 48.237061 
L 165.785085 44.135733 
L 168.328495 43.6993 
L 170.871904 46.828056 
L 173.415314 53.816125 
L 175.958723 49.737815 
L 178.502132 48.293583 
L 181.045542 48.402776 
L 183.588951 49.497267 
L 186.13236 49.850842 
L 188.67577 49.790135 
L 193.762588 52.940209 
L 196.305998 52.25457 
L 198.849407 51.090539 
L 201.392817 50.408171 
L 203.936226 50.633384 
L 206.479635 51.793561 
L 209.023045 53.26314 
L 211.566454 53.683486 
L 214.109863 53.506738 
L 219.196682 54.72617 
L 221.740091 55.161267 
L 224.283501 55.37673 
L 226.82691 54.476573 
L 229.37032 53.09872 
L 231.913729 52.193925 
L 234.457138 52.227501 
L 237.000548 52.629715 
L 244.630776 53.005539 
L 247.174185 53.945335 
L 249.717595 55.825567 
L 252.261004 57.930542 
L 254.804413 58.644344 
L 259.891232 57.466466 
L 262.434641 58.038821 
L 264.978051 59.744851 
L 267.52146 61.748901 
L 270.064869 62.765025 
L 272.608279 62.346076 
L 275.151688 62.539672 
L 277.695098 63.910128 
L 280.238507 64.893261 
L 282.781916 65.300695 
L 285.325326 65.503644 
L 287.868735 65.893677 
L 290.412144 67.174903 
L 292.955554 68.602066 
L 295.498963 68.356028 
L 298.042372 67.849103 
L 300.585782 68.888745 
L 305.672601 72.518539 
L 308.21601 75.591628 
L 310.759419 75.660023 
L 313.302829 72.79545 
L 315.846238 74.776289 
L 318.389647 84.190936 
L 320.933057 76.85018 
L 323.476466 77.955668 
L 326.019875 75.927609 
L 328.563285 73.140581 
L 331.106694 72.130608 
L 333.650104 69.556391 
L 336.193513 69.240394 
L 338.736922 72.954684 
L 341.280332 84.428125 
L 343.823741 74.944585 
L 346.36715 72.104707 
L 348.91056 70.969052 
L 351.453969 70.960884 
L 353.997378 72.556499 
L 356.540788 72.443481 
L 359.084197 72.979237 
L 361.627607 76.369079 
L 364.171016 91.145435 
L 366.714425 74.378853 
L 369.257835 72.016937 
L 371.801244 72.884988 
L 374.344653 74.782335 
L 379.431472 80.299545 
L 381.974882 75.53869 
L 384.518291 73.067656 
L 389.60511 72.123358 
L 392.148519 73.015614 
L 394.691928 74.299143 
L 397.235338 73.810818 
L 399.778747 72.970889 
L 404.865566 71.530581 
L 407.408975 71.660705 
L 409.952385 72.912555 
L 415.039203 74.90629 
L 417.582613 77.109705 
L 420.126022 78.419317 
L 422.669431 78.388872 
L 425.212841 77.879641 
L 427.75625 76.107898 
L 430.299659 74.667187 
L 432.843069 74.995698 
L 435.386478 75.576457 
L 437.929888 75.914129 
L 440.473297 78.709616 
L 443.016706 82.233066 
L 445.560116 77.457015 
L 448.103525 76.306148 
L 448.103525 76.306148 
" clip-path="url(#pdf93b24d4e)" style="fill: none; stroke-dasharray: 5.55,2.4; stroke-dashoffset: 0; stroke: #0000ff; stroke-width: 1.5"/>
   </g>
   <g id="line2d_16">
    <path d="M 256.217777 111.509924 
L 256.217777 21.564 
" clip-path="url(#pdf93b24d4e)" style="fill: none; stroke-dasharray: 1.5,2.475; stroke-dashoffset: 0; stroke: #808080; stroke-width: 1.5"/>
   </g>
   <g id="patch_3">
    <path d="M 79.311614 111.509924 
L 79.311614 21.564 
" style="fill: none; stroke: #000000; stroke-width: 0.8; stroke-linejoin: miter; stroke-linecap: square"/>
   </g>
   <g id="patch_4">
    <path d="M 445.68 111.509924 
L 445.68 21.564 
" style="fill: none; stroke: #000000; stroke-width: 0.8; stroke-linejoin: miter; stroke-linecap: square"/>
   </g>
   <g id="patch_5">
    <path d="M 79.311614 111.509924 
L 445.68 111.509924 
" style="fill: none; stroke: #000000; stroke-width: 0.8; stroke-linejoin: miter; stroke-linecap: square"/>
   </g>
   <g id="patch_6">
    <path d="M 79.311614 21.564 
L 445.68 21.564 
" style="fill: none; stroke: #000000; stroke-width: 0.8; stroke-linejoin: miter; stroke-linecap: square"/>
   </g>
  </g>
  <g id="axes_2">
   <g id="patch_7">
    <path d="M 79.311614 224.64 
L 445.68 224.64 
L 445.68 134.694076 
L 79.311614 134.694076 
z
" style="fill: #ffffff"/>
   </g>
   <g id="matplotlib.axis_3">
    <g id="xtick_9">
     <g id="line2d_17">
      <g>
       <use xlink:href="#ma330915e0b" x="79.311614" y="224.64" style="stroke: #000000; stroke-width: 0.8"/>
      </g>
     </g>
     <g id="text_5">
      <!-- 1 -->
      <g transform="translate(74.857864 242.277812) scale(0.14 -0.14)">
       <use xlink:href="#DejaVuSans-31"/>
      </g>
     </g>
    </g>
    <g id="xtick_10">
     <g id="line2d_18">
      <g>
       <use xlink:href="#ma330915e0b" x="125.107662" y="224.64" style="stroke: #000000; stroke-width: 0.8"/>
      </g>
     </g>
     <g id="text_6">
      <!-- 7 -->
      <g transform="translate(120.653912 242.277812) scale(0.14 -0.14)">
       <defs>
        <path id="DejaVuSans-37" d="M 525 4666 
L 3525 4666 
L 3525 4397 
L 1831 0 
L 1172 0 
L 2766 4134 
L 525 4134 
L 525 4666 
z
" transform="scale(0.015625)"/>
       </defs>
       <use xlink:href="#DejaVuSans-37"/>
      </g>
     </g>
    </g>
    <g id="xtick_11">
     <g id="line2d_19">
      <g>
       <use xlink:href="#ma330915e0b" x="170.90371" y="224.64" style="stroke: #000000; stroke-width: 0.8"/>
      </g>
     </g>
     <g id="text_7">
      <!-- 13 -->
      <g transform="translate(161.99621 242.277812) scale(0.14 -0.14)">
       <defs>
        <path id="DejaVuSans-33" d="M 2597 2516 
Q 3050 2419 3304 2112 
Q 3559 1806 3559 1356 
Q 3559 666 3084 287 
Q 2609 -91 1734 -91 
Q 1441 -91 1130 -33 
Q 819 25 488 141 
L 488 750 
Q 750 597 1062 519 
Q 1375 441 1716 441 
Q 2309 441 2620 675 
Q 2931 909 2931 1356 
Q 2931 1769 2642 2001 
Q 2353 2234 1838 2234 
L 1294 2234 
L 1294 2753 
L 1863 2753 
Q 2328 2753 2575 2939 
Q 2822 3125 2822 3475 
Q 2822 3834 2567 4026 
Q 2313 4219 1838 4219 
Q 1578 4219 1281 4162 
Q 984 4106 628 3988 
L 628 4550 
Q 988 4650 1302 4700 
Q 1616 4750 1894 4750 
Q 2613 4750 3031 4423 
Q 3450 4097 3450 3541 
Q 3450 3153 3228 2886 
Q 3006 2619 2597 2516 
z
" transform="scale(0.015625)"/>
       </defs>
       <use xlink:href="#DejaVuSans-31"/>
       <use xlink:href="#DejaVuSans-33" x="63.623047"/>
      </g>
     </g>
    </g>
    <g id="xtick_12">
     <g id="line2d_20">
      <g>
       <use xlink:href="#ma330915e0b" x="216.699759" y="224.64" style="stroke: #000000; stroke-width: 0.8"/>
      </g>
     </g>
     <g id="text_8">
      <!-- 19 -->
      <g transform="translate(207.792259 242.277812) scale(0.14 -0.14)">
       <defs>
        <path id="DejaVuSans-39" d="M 703 97 
L 703 672 
Q 941 559 1184 500 
Q 1428 441 1663 441 
Q 2288 441 2617 861 
Q 2947 1281 2994 2138 
Q 2813 1869 2534 1725 
Q 2256 1581 1919 1581 
Q 1219 1581 811 2004 
Q 403 2428 403 3163 
Q 403 3881 828 4315 
Q 1253 4750 1959 4750 
Q 2769 4750 3195 4129 
Q 3622 3509 3622 2328 
Q 3622 1225 3098 567 
Q 2575 -91 1691 -91 
Q 1453 -91 1209 -44 
Q 966 3 703 97 
z
M 1959 2075 
Q 2384 2075 2632 2365 
Q 2881 2656 2881 3163 
Q 2881 3666 2632 3958 
Q 2384 4250 1959 4250 
Q 1534 4250 1286 3958 
Q 1038 3666 1038 3163 
Q 1038 2656 1286 2365 
Q 1534 2075 1959 2075 
z
" transform="scale(0.015625)"/>
       </defs>
       <use xlink:href="#DejaVuSans-31"/>
       <use xlink:href="#DejaVuSans-39" x="63.623047"/>
      </g>
     </g>
    </g>
    <g id="xtick_13">
     <g id="line2d_21">
      <g>
       <use xlink:href="#ma330915e0b" x="262.495807" y="224.64" style="stroke: #000000; stroke-width: 0.8"/>
      </g>
     </g>
     <g id="text_9">
      <!-- 25 -->
      <g transform="translate(253.588307 242.277812) scale(0.14 -0.14)">
       <defs>
        <path id="DejaVuSans-32" d="M 1228 531 
L 3431 531 
L 3431 0 
L 469 0 
L 469 531 
Q 828 903 1448 1529 
Q 2069 2156 2228 2338 
Q 2531 2678 2651 2914 
Q 2772 3150 2772 3378 
Q 2772 3750 2511 3984 
Q 2250 4219 1831 4219 
Q 1534 4219 1204 4116 
Q 875 4013 500 3803 
L 500 4441 
Q 881 4594 1212 4672 
Q 1544 4750 1819 4750 
Q 2544 4750 2975 4387 
Q 3406 4025 3406 3419 
Q 3406 3131 3298 2873 
Q 3191 2616 2906 2266 
Q 2828 2175 2409 1742 
Q 1991 1309 1228 531 
z
" transform="scale(0.015625)"/>
       </defs>
       <use xlink:href="#DejaVuSans-32"/>
       <use xlink:href="#DejaVuSans-35" x="63.623047"/>
      </g>
     </g>
    </g>
    <g id="xtick_14">
     <g id="line2d_22">
      <g>
       <use xlink:href="#ma330915e0b" x="308.291855" y="224.64" style="stroke: #000000; stroke-width: 0.8"/>
      </g>
     </g>
     <g id="text_10">
      <!-- 31 -->
      <g transform="translate(299.384355 242.277812) scale(0.14 -0.14)">
       <use xlink:href="#DejaVuSans-33"/>
       <use xlink:href="#DejaVuSans-31" x="63.623047"/>
      </g>
     </g>
    </g>
    <g id="xtick_15">
     <g id="line2d_23">
      <g>
       <use xlink:href="#ma330915e0b" x="354.087903" y="224.64" style="stroke: #000000; stroke-width: 0.8"/>
      </g>
     </g>
     <g id="text_11">
      <!-- 37 -->
      <g transform="translate(345.180403 242.277812) scale(0.14 -0.14)">
       <use xlink:href="#DejaVuSans-33"/>
       <use xlink:href="#DejaVuSans-37" x="63.623047"/>
      </g>
     </g>
    </g>
    <g id="xtick_16">
     <g id="line2d_24">
      <g>
       <use xlink:href="#ma330915e0b" x="399.883952" y="224.64" style="stroke: #000000; stroke-width: 0.8"/>
      </g>
     </g>
     <g id="text_12">
      <!-- 43 -->
      <g transform="translate(390.976452 242.277812) scale(0.14 -0.14)">
       <defs>
        <path id="DejaVuSans-34" d="M 2419 4116 
L 825 1625 
L 2419 1625 
L 2419 4116 
z
M 2253 4666 
L 3047 4666 
L 3047 1625 
L 3713 1625 
L 3713 1100 
L 3047 1100 
L 3047 0 
L 2419 0 
L 2419 1100 
L 313 1100 
L 313 1709 
L 2253 4666 
z
" transform="scale(0.015625)"/>
       </defs>
       <use xlink:href="#DejaVuSans-34"/>
       <use xlink:href="#DejaVuSans-33" x="63.623047"/>
      </g>
     </g>
    </g>
    <g id="text_13">
     <!-- Harmonic order -->
     <g transform="translate(207.963619 259.827187) scale(0.14 -0.14)">
      <defs>
       <path id="DejaVuSans-48" d="M 628 4666 
L 1259 4666 
L 1259 2753 
L 3553 2753 
L 3553 4666 
L 4184 4666 
L 4184 0 
L 3553 0 
L 3553 2222 
L 1259 2222 
L 1259 0 
L 628 0 
L 628 4666 
z
" transform="scale(0.015625)"/>
       <path id="DejaVuSans-61" d="M 2194 1759 
Q 1497 1759 1228 1600 
Q 959 1441 959 1056 
Q 959 750 1161 570 
Q 1363 391 1709 391 
Q 2188 391 2477 730 
Q 2766 1069 2766 1631 
L 2766 1759 
L 2194 1759 
z
M 3341 1997 
L 3341 0 
L 2766 0 
L 2766 531 
Q 2569 213 2275 61 
Q 1981 -91 1556 -91 
Q 1019 -91 701 211 
Q 384 513 384 1019 
Q 384 1609 779 1909 
Q 1175 2209 1959 2209 
L 2766 2209 
L 2766 2266 
Q 2766 2663 2505 2880 
Q 2244 3097 1772 3097 
Q 1472 3097 1187 3025 
Q 903 2953 641 2809 
L 641 3341 
Q 956 3463 1253 3523 
Q 1550 3584 1831 3584 
Q 2591 3584 2966 3190 
Q 3341 2797 3341 1997 
z
" transform="scale(0.015625)"/>
       <path id="DejaVuSans-72" d="M 2631 2963 
Q 2534 3019 2420 3045 
Q 2306 3072 2169 3072 
Q 1681 3072 1420 2755 
Q 1159 2438 1159 1844 
L 1159 0 
L 581 0 
L 581 3500 
L 1159 3500 
L 1159 2956 
Q 1341 3275 1631 3429 
Q 1922 3584 2338 3584 
Q 2397 3584 2469 3576 
Q 2541 3569 2628 3553 
L 2631 2963 
z
" transform="scale(0.015625)"/>
       <path id="DejaVuSans-6d" d="M 3328 2828 
Q 3544 3216 3844 3400 
Q 4144 3584 4550 3584 
Q 5097 3584 5394 3201 
Q 5691 2819 5691 2113 
L 5691 0 
L 5113 0 
L 5113 2094 
Q 5113 2597 4934 2840 
Q 4756 3084 4391 3084 
Q 3944 3084 3684 2787 
Q 3425 2491 3425 1978 
L 3425 0 
L 2847 0 
L 2847 2094 
Q 2847 2600 2669 2842 
Q 2491 3084 2119 3084 
Q 1678 3084 1418 2786 
Q 1159 2488 1159 1978 
L 1159 0 
L 581 0 
L 581 3500 
L 1159 3500 
L 1159 2956 
Q 1356 3278 1631 3431 
Q 1906 3584 2284 3584 
Q 2666 3584 2933 3390 
Q 3200 3197 3328 2828 
z
" transform="scale(0.015625)"/>
       <path id="DejaVuSans-6f" d="M 1959 3097 
Q 1497 3097 1228 2736 
Q 959 2375 959 1747 
Q 959 1119 1226 758 
Q 1494 397 1959 397 
Q 2419 397 2687 759 
Q 2956 1122 2956 1747 
Q 2956 2369 2687 2733 
Q 2419 3097 1959 3097 
z
M 1959 3584 
Q 2709 3584 3137 3096 
Q 3566 2609 3566 1747 
Q 3566 888 3137 398 
Q 2709 -91 1959 -91 
Q 1206 -91 779 398 
Q 353 888 353 1747 
Q 353 2609 779 3096 
Q 1206 3584 1959 3584 
z
" transform="scale(0.015625)"/>
       <path id="DejaVuSans-63" d="M 3122 3366 
L 3122 2828 
Q 2878 2963 2633 3030 
Q 2388 3097 2138 3097 
Q 1578 3097 1268 2742 
Q 959 2388 959 1747 
Q 959 1106 1268 751 
Q 1578 397 2138 397 
Q 2388 397 2633 464 
Q 2878 531 3122 666 
L 3122 134 
Q 2881 22 2623 -34 
Q 2366 -91 2075 -91 
Q 1284 -91 818 406 
Q 353 903 353 1747 
Q 353 2603 823 3093 
Q 1294 3584 2113 3584 
Q 2378 3584 2631 3529 
Q 2884 3475 3122 3366 
z
" transform="scale(0.015625)"/>
       <path id="DejaVuSans-20" transform="scale(0.015625)"/>
       <path id="DejaVuSans-64" d="M 2906 2969 
L 2906 4863 
L 3481 4863 
L 3481 0 
L 2906 0 
L 2906 525 
Q 2725 213 2448 61 
Q 2172 -91 1784 -91 
Q 1150 -91 751 415 
Q 353 922 353 1747 
Q 353 2572 751 3078 
Q 1150 3584 1784 3584 
Q 2172 3584 2448 3432 
Q 2725 3281 2906 2969 
z
M 947 1747 
Q 947 1113 1208 752 
Q 1469 391 1925 391 
Q 2381 391 2643 752 
Q 2906 1113 2906 1747 
Q 2906 2381 2643 2742 
Q 2381 3103 1925 3103 
Q 1469 3103 1208 2742 
Q 947 2381 947 1747 
z
" transform="scale(0.015625)"/>
      </defs>
      <use xlink:href="#DejaVuSans-48"/>
      <use xlink:href="#DejaVuSans-61" x="75.195312"/>
      <use xlink:href="#DejaVuSans-72" x="136.474609"/>
      <use xlink:href="#DejaVuSans-6d" x="175.837891"/>
      <use xlink:href="#DejaVuSans-6f" x="273.25"/>
      <use xlink:href="#DejaVuSans-6e" x="334.431641"/>
      <use xlink:href="#DejaVuSans-69" x="397.810547"/>
      <use xlink:href="#DejaVuSans-63" x="425.59375"/>
      <use xlink:href="#DejaVuSans-20" x="480.574219"/>
      <use xlink:href="#DejaVuSans-6f" x="512.361328"/>
      <use xlink:href="#DejaVuSans-72" x="573.542969"/>
      <use xlink:href="#DejaVuSans-64" x="612.90625"/>
      <use xlink:href="#DejaVuSans-65" x="676.382812"/>
      <use xlink:href="#DejaVuSans-72" x="737.90625"/>
     </g>
    </g>
   </g>
   <g id="matplotlib.axis_4">
    <g id="ytick_4">
     <g id="line2d_25">
      <g>
       <use xlink:href="#mb7de8aa0bb" x="79.311614" y="224.64" style="stroke: #000000; stroke-width: 0.8"/>
      </g>
     </g>
     <g id="text_14">
      <!-- $\mathdefault{10^{-10}}$ -->
      <g transform="translate(33.251614 229.958906) scale(0.14 -0.14)">
       <use xlink:href="#DejaVuSans-31" transform="translate(0 0.765625)"/>
       <use xlink:href="#DejaVuSans-30" transform="translate(63.623047 0.765625)"/>
       <use xlink:href="#DejaVuSans-2212" transform="translate(128.203125 39.046875) scale(0.7)"/>
       <use xlink:href="#DejaVuSans-31" transform="translate(186.855469 39.046875) scale(0.7)"/>
       <use xlink:href="#DejaVuSans-30" transform="translate(231.391602 39.046875) scale(0.7)"/>
      </g>
     </g>
    </g>
    <g id="ytick_5">
     <g id="line2d_26">
      <g>
       <use xlink:href="#mb7de8aa0bb" x="79.311614" y="187.162532" style="stroke: #000000; stroke-width: 0.8"/>
      </g>
     </g>
     <g id="text_15">
      <!-- $\mathdefault{10^{-5}}$ -->
      <g transform="translate(39.411614 192.481438) scale(0.14 -0.14)">
       <use xlink:href="#DejaVuSans-31" transform="translate(0 0.684375)"/>
       <use xlink:href="#DejaVuSans-30" transform="translate(63.623047 0.684375)"/>
       <use xlink:href="#DejaVuSans-2212" transform="translate(128.203125 38.965625) scale(0.7)"/>
       <use xlink:href="#DejaVuSans-35" transform="translate(186.855469 38.965625) scale(0.7)"/>
      </g>
     </g>
    </g>
    <g id="ytick_6">
     <g id="line2d_27">
      <g>
       <use xlink:href="#mb7de8aa0bb" x="79.311614" y="149.685063" style="stroke: #000000; stroke-width: 0.8"/>
      </g>
     </g>
     <g id="text_16">
      <!-- $\mathdefault{10^{0}}$ -->
      <g transform="translate(47.671614 155.00397) scale(0.14 -0.14)">
       <use xlink:href="#DejaVuSans-31" transform="translate(0 0.765625)"/>
       <use xlink:href="#DejaVuSans-30" transform="translate(63.623047 0.765625)"/>
       <use xlink:href="#DejaVuSans-30" transform="translate(128.203125 39.046875) scale(0.7)"/>
      </g>
     </g>
    </g>
    <g id="text_17">
     <!-- Intensity -->
     <g transform="translate(26.340051 210.134538) rotate(-90) scale(0.14 -0.14)">
      <use xlink:href="#DejaVuSans-49"/>
      <use xlink:href="#DejaVuSans-6e" x="29.492188"/>
      <use xlink:href="#DejaVuSans-74" x="92.871094"/>
      <use xlink:href="#DejaVuSans-65" x="132.080078"/>
      <use xlink:href="#DejaVuSans-6e" x="193.603516"/>
      <use xlink:href="#DejaVuSans-73" x="256.982422"/>
      <use xlink:href="#DejaVuSans-69" x="309.082031"/>
      <use xlink:href="#DejaVuSans-74" x="336.865234"/>
      <use xlink:href="#DejaVuSans-79" x="376.074219"/>
     </g>
    </g>
   </g>
   <g id="line2d_28">
    <path d="M 79.309167 142.224476 
L 81.852576 141.451756 
L 84.395986 147.159929 
L 86.939395 162.445285 
L 89.482805 156.066145 
L 92.026214 150.809706 
L 94.569623 148.317176 
L 97.113033 148.594001 
L 99.656442 151.189411 
L 102.199851 157.14706 
L 104.743261 161.131984 
L 107.28667 153.857391 
L 109.830079 151.347551 
L 112.373489 151.185933 
L 114.916898 152.67885 
L 117.460308 155.383914 
L 120.003717 164.352042 
L 122.547126 153.810273 
L 125.090536 149.097526 
L 127.633945 149.518998 
L 130.177354 154.149094 
L 132.720764 161.265159 
L 135.264173 154.671693 
L 137.807582 151.845587 
L 140.350992 151.202706 
L 142.894401 152.858542 
L 145.437811 157.287684 
L 147.98122 160.66471 
L 150.524629 158.344085 
L 153.068039 156.271843 
L 155.611448 155.440258 
L 158.154857 157.326704 
L 160.698267 165.23647 
L 163.241676 162.095704 
L 165.785085 157.424006 
L 168.328495 156.741137 
L 170.871904 159.804221 
L 173.415314 167.542911 
L 175.958723 162.15508 
L 178.502132 160.656326 
L 181.045542 160.677403 
L 188.67577 162.895973 
L 193.762588 166.687064 
L 196.305998 166.435139 
L 198.849407 164.489468 
L 201.392817 163.140671 
L 203.936226 163.149984 
L 206.479635 163.996891 
L 209.023045 164.966218 
L 214.109863 166.262241 
L 216.653273 167.614171 
L 219.196682 168.604926 
L 221.740091 168.77814 
L 224.283501 168.19038 
L 229.37032 165.642082 
L 231.913729 164.876499 
L 234.457138 164.943867 
L 237.000548 165.464435 
L 239.543957 165.730873 
L 242.087366 165.646915 
L 244.630776 165.685254 
L 247.174185 166.354107 
L 252.261004 169.275719 
L 254.804413 169.942157 
L 257.347823 170.035502 
L 259.891232 170.443976 
L 262.434641 171.856303 
L 267.52146 176.656406 
L 270.064869 177.57286 
L 272.608279 177.371323 
L 275.151688 177.805076 
L 277.695098 179.761616 
L 280.238507 182.648558 
L 282.781916 186.573722 
L 285.325326 187.949986 
L 287.868735 186.552217 
L 290.412144 187.031904 
L 292.955554 189.292123 
L 295.498963 191.904981 
L 298.042372 199.69708 
L 300.585782 201.560665 
L 303.129191 196.246491 
L 305.672601 198.585937 
L 308.21601 198.956133 
L 310.759419 202.102443 
L 313.302829 210.261092 
L 315.846238 208.767446 
L 318.389647 204.606666 
L 320.933057 218.085551 
L 323.476466 205.247217 
L 326.019875 210.767701 
L 328.563285 207.831393 
L 331.106694 208.671622 
L 333.650104 208.801977 
L 336.193513 209.568314 
L 338.736922 208.27144 
L 341.280332 209.73442 
L 343.823741 209.392682 
L 348.91056 209.478036 
L 351.453969 209.977584 
L 356.540788 209.697928 
L 359.084197 210.225114 
L 361.627607 210.460131 
L 364.171016 210.081954 
L 366.714425 210.252452 
L 369.257835 210.809779 
L 374.344653 210.565765 
L 379.431472 211.126904 
L 381.974882 211.00179 
L 384.518291 211.155657 
L 387.0617 211.489777 
L 392.148519 211.317899 
L 394.691928 211.742448 
L 397.235338 211.954548 
L 399.778747 211.676427 
L 402.322156 211.781798 
L 404.865566 212.211561 
L 407.408975 212.251312 
L 409.952385 212.110554 
L 415.039203 212.568199 
L 420.126022 212.568638 
L 422.669431 212.829144 
L 425.212841 212.874717 
L 427.75625 212.80473 
L 432.843069 213.276158 
L 437.929888 213.158095 
L 443.016706 213.622661 
L 448.103525 213.576499 
L 448.103525 213.576499 
" clip-path="url(#pf3742bf61a)" style="fill: none; stroke: #000000; stroke-width: 1.5; stroke-linecap: square"/>
   </g>
   <g id="line2d_29">
    <path d="M 79.309167 142.509671 
L 81.852576 141.472784 
L 84.395986 147.009584 
L 86.939395 160.195958 
L 89.482805 156.776899 
L 92.026214 151.006706 
L 94.569623 148.249836 
L 97.113033 148.473265 
L 99.656442 151.029098 
L 102.199851 156.950415 
L 104.743261 161.413589 
L 107.28667 153.878863 
L 109.830079 151.302851 
L 112.373489 151.157022 
L 114.916898 152.642679 
L 117.460308 155.372127 
L 120.003717 164.411339 
L 122.547126 153.784939 
L 125.090536 149.086098 
L 127.633945 149.522536 
L 130.177354 154.146946 
L 132.720764 161.237016 
L 135.264173 154.683163 
L 137.807582 151.852424 
L 140.350992 151.212986 
L 142.894401 152.855369 
L 145.437811 157.268749 
L 147.98122 160.651686 
L 150.524629 158.375354 
L 153.068039 156.280481 
L 155.611448 155.439644 
L 158.154857 157.338749 
L 160.698267 165.28808 
L 163.241676 162.033012 
L 165.785085 157.399814 
L 168.328495 156.746403 
L 170.871904 159.823215 
L 173.415314 167.469535 
L 175.958723 162.143398 
L 178.502132 160.65481 
L 181.045542 160.688253 
L 188.67577 162.925675 
L 193.762588 166.703024 
L 196.305998 166.405326 
L 198.849407 164.480598 
L 201.392817 163.139614 
L 203.936226 163.166264 
L 206.479635 164.005549 
L 209.023045 164.978046 
L 214.109863 166.292051 
L 216.653273 167.646756 
L 219.196682 168.609401 
L 221.740091 168.763455 
L 224.283501 168.166354 
L 229.37032 165.645887 
L 231.913729 164.888664 
L 234.457138 164.951572 
L 237.000548 165.486552 
L 239.543957 165.763305 
L 244.630776 165.74406 
L 247.174185 166.390056 
L 252.261004 169.339828 
L 254.804413 169.99142 
L 257.347823 170.104433 
L 259.891232 170.521392 
L 262.434641 171.940692 
L 267.52146 176.713105 
L 270.064869 177.629907 
L 272.608279 177.443663 
L 275.151688 177.815969 
L 277.695098 179.789386 
L 280.238507 182.638682 
L 282.781916 186.568469 
L 285.325326 187.912582 
L 287.868735 186.471613 
L 290.412144 186.976376 
L 292.955554 189.477639 
L 295.498963 191.568333 
L 298.042372 199.522554 
L 300.585782 205.477786 
L 303.129191 196.159716 
L 305.672601 197.791146 
L 308.21601 198.123446 
L 310.759419 200.683887 
L 313.302829 207.053798 
L 315.846238 209.446763 
L 318.389647 202.672548 
L 320.933057 214.698828 
L 323.476466 201.614394 
L 326.019875 212.068545 
L 328.563285 208.794406 
L 331.106694 206.698553 
L 333.650104 205.577366 
L 336.193513 210.63256 
L 338.736922 205.191175 
L 341.280332 213.975545 
L 343.823741 206.057472 
L 346.36715 209.703347 
L 348.91056 205.794227 
L 351.453969 215.391096 
L 353.997378 205.22525 
L 356.540788 214.072548 
L 359.084197 206.113796 
L 361.627607 211.066921 
L 364.171016 209.291811 
L 366.714425 207.740007 
L 369.257835 211.494335 
L 371.801244 207.807317 
L 374.344653 208.542961 
L 376.888063 213.957118 
L 379.431472 208.899476 
L 381.974882 207.570387 
L 384.518291 214.465974 
L 387.0617 206.966189 
L 389.60511 215.537116 
L 392.148519 206.64371 
L 394.691928 220.976317 
L 397.235338 206.582489 
L 399.778747 212.814572 
L 402.322156 207.718482 
L 404.865566 215.195632 
L 407.408975 209.622326 
L 409.952385 209.869976 
L 412.495794 212.457284 
L 415.039203 209.614687 
L 417.582613 213.977313 
L 420.126022 209.259349 
L 422.669431 209.469203 
L 425.212841 211.803128 
L 427.75625 209.132089 
L 430.299659 217.930411 
L 432.843069 207.491973 
L 435.386478 218.995169 
L 437.929888 209.858724 
L 440.473297 213.150665 
L 443.016706 210.838168 
L 445.560116 214.685636 
L 448.103525 210.785872 
L 448.103525 210.785872 
" clip-path="url(#pf3742bf61a)" style="fill: none; stroke-dasharray: 5.55,2.4; stroke-dashoffset: 0; stroke: #ff0000; stroke-width: 1.5"/>
   </g>
   <g id="line2d_30">
    <path d="M 79.309167 138.264893 
L 81.852576 139.033029 
L 84.395986 145.742875 
L 86.939395 164.468983 
L 89.482805 154.782001 
L 92.026214 150.639944 
L 94.569623 149.414999 
L 97.113033 149.990477 
L 99.656442 153.307542 
L 102.199851 163.198839 
L 104.743261 156.431196 
L 107.28667 151.196253 
L 109.830079 149.443237 
L 112.373489 149.723159 
L 114.916898 150.193162 
L 117.460308 149.961388 
L 120.003717 151.969131 
L 122.547126 158.383037 
L 125.090536 151.993506 
L 127.633945 154.171345 
L 130.177354 155.249237 
L 132.720764 154.099073 
L 135.264173 156.138158 
L 137.807582 157.670121 
L 140.350992 158.302858 
L 142.894401 156.939486 
L 145.437811 158.829266 
L 147.98122 164.075119 
L 150.524629 153.943263 
L 153.068039 149.596992 
L 155.611448 149.162017 
L 158.154857 152.42592 
L 160.698267 162.680103 
L 163.241676 153.093669 
L 165.785085 150.623742 
L 168.328495 151.175745 
L 170.871904 151.001074 
L 173.415314 149.827657 
L 175.958723 150.868568 
L 178.502132 154.980056 
L 181.045542 160.433431 
L 183.588951 156.588774 
L 186.13236 156.374877 
L 188.67577 158.766776 
L 191.219179 158.565878 
L 193.762588 158.757577 
L 196.305998 155.933737 
L 198.849407 152.69048 
L 201.392817 151.354347 
L 203.936226 151.530834 
L 206.479635 153.05294 
L 209.023045 156.131427 
L 211.566454 157.832787 
L 214.109863 154.547115 
L 216.653273 152.587984 
L 219.196682 152.450674 
L 221.740091 154.306986 
L 224.283501 159.395747 
L 226.82691 171.619833 
L 229.37032 165.261024 
L 234.457138 156.116905 
L 237.000548 153.693968 
L 239.543957 152.890067 
L 242.087366 153.729662 
L 244.630776 156.047436 
L 247.174185 159.079689 
L 249.717595 161.460326 
L 252.261004 162.224696 
L 254.804413 162.448731 
L 257.347823 163.226068 
L 259.891232 164.707919 
L 262.434641 166.869509 
L 267.52146 172.342235 
L 270.064869 174.763026 
L 275.151688 178.310735 
L 277.695098 180.873346 
L 280.238507 185.180316 
L 282.781916 192.490499 
L 285.325326 190.985083 
L 287.868735 188.984874 
L 290.412144 188.10952 
L 292.955554 187.092474 
L 295.498963 186.358539 
L 298.042372 186.887609 
L 300.585782 188.501426 
L 303.129191 189.647818 
L 305.672601 188.676712 
L 308.21601 187.370902 
L 310.759419 187.152567 
L 313.302829 188.435556 
L 315.846238 191.960547 
L 318.389647 200.773273 
L 320.933057 198.092327 
L 323.476466 193.69166 
L 326.019875 192.376312 
L 328.563285 193.05541 
L 331.106694 195.514555 
L 333.650104 196.386865 
L 336.193513 192.590546 
L 338.736922 190.065933 
L 341.280332 188.957817 
L 343.823741 189.11724 
L 346.36715 190.642531 
L 348.91056 193.996445 
L 351.453969 200.303096 
L 353.997378 196.396435 
L 356.540788 193.280104 
L 359.084197 192.437936 
L 361.627607 192.919257 
L 364.171016 193.903129 
L 366.714425 194.423548 
L 369.257835 195.077217 
L 371.801244 197.442653 
L 374.344653 204.153341 
L 376.888063 205.501012 
L 379.431472 198.78677 
L 381.974882 196.014747 
L 384.518291 193.930884 
L 387.0617 192.794438 
L 389.60511 193.008609 
L 392.148519 195.144463 
L 394.691928 201.842753 
L 397.235338 203.155276 
L 399.778747 197.848419 
L 402.322156 197.949038 
L 404.865566 202.530716 
L 407.408975 201.852561 
L 409.952385 197.509891 
L 412.495794 196.351046 
L 415.039203 196.443331 
L 417.582613 195.740028 
L 420.126022 194.837963 
L 422.669431 195.165469 
L 425.212841 197.748997 
L 427.75625 205.685036 
L 430.299659 201.861569 
L 432.843069 198.672023 
L 435.386478 199.079635 
L 437.929888 203.011832 
L 440.473297 220.914983 
L 443.016706 204.158253 
L 445.560116 201.827976 
L 448.103525 202.20863 
L 448.103525 202.20863 
" clip-path="url(#pf3742bf61a)" style="fill: none; stroke-dasharray: 5.55,2.4; stroke-dashoffset: 0; stroke: #800080; stroke-width: 1.5"/>
   </g>
   <g id="line2d_31">
    <path d="M 79.309167 138.268945 
L 81.852576 139.001221 
L 84.395986 145.553913 
L 86.939395 160.984542 
L 89.482805 154.202946 
L 92.026214 150.952425 
L 94.569623 149.213307 
L 97.113033 149.695081 
L 99.656442 153.934655 
L 102.199851 160.612848 
L 104.743261 153.526707 
L 107.28667 150.232561 
L 109.830079 149.334239 
L 112.373489 149.743961 
L 114.916898 149.162492 
L 117.460308 148.280795 
L 120.003717 150.058688 
L 122.547126 154.661298 
L 125.090536 151.552422 
L 127.633945 153.34532 
L 130.177354 150.776217 
L 132.720764 150.521889 
L 135.264173 152.633779 
L 137.807582 155.325877 
L 140.350992 162.638633 
L 142.894401 161.086843 
L 145.437811 168.269361 
L 147.98122 157.543368 
L 150.524629 151.060136 
L 153.068039 147.903444 
L 155.611448 147.702426 
L 158.154857 150.590177 
L 160.698267 164.442331 
L 163.241676 151.513632 
L 165.785085 148.206265 
L 168.328495 148.52028 
L 170.871904 150.344655 
L 173.415314 150.590399 
L 175.958723 152.131419 
L 178.502132 159.742727 
L 181.045542 153.168705 
L 183.588951 150.059368 
L 186.13236 150.951997 
L 188.67577 156.829289 
L 191.219179 165.311819 
L 193.762588 161.559109 
L 196.305998 155.918333 
L 198.849407 151.235287 
L 201.392817 150.188228 
L 203.936226 151.483732 
L 206.479635 153.090778 
L 209.023045 153.740936 
L 211.566454 153.481337 
L 214.109863 150.365864 
L 216.653273 148.1827 
L 219.196682 147.840825 
L 221.740091 149.238111 
L 224.283501 152.31006 
L 226.82691 155.030304 
L 229.37032 156.497067 
L 231.913729 161.331292 
L 234.457138 156.570726 
L 237.000548 153.625734 
L 239.543957 153.861691 
L 242.087366 157.056833 
L 244.630776 162.06176 
L 247.174185 163.255795 
L 249.717595 162.192873 
L 252.261004 158.938411 
L 254.804413 156.386628 
L 257.347823 155.058534 
L 259.891232 155.171606 
L 262.434641 156.661994 
L 267.52146 161.80403 
L 270.064869 161.148431 
L 272.608279 159.511923 
L 275.151688 159.110903 
L 277.695098 160.089848 
L 280.238507 162.376993 
L 282.781916 165.867027 
L 285.325326 169.607169 
L 287.868735 170.672834 
L 290.412144 169.927037 
L 292.955554 168.941636 
L 295.498963 169.485606 
L 298.042372 172.147423 
L 300.585782 175.449048 
L 303.129191 176.289466 
L 305.672601 176.335955 
L 308.21601 176.579196 
L 315.846238 178.184286 
L 318.389647 178.43708 
L 320.933057 178.557335 
L 323.476466 178.96449 
L 326.019875 180.126561 
L 331.106694 183.966627 
L 333.650104 184.949279 
L 336.193513 184.774185 
L 338.736922 185.071339 
L 341.280332 186.947644 
L 343.823741 190.695706 
L 346.36715 194.708818 
L 348.91056 192.785733 
L 351.453969 189.063671 
L 353.997378 186.869116 
L 356.540788 186.038824 
L 359.084197 186.430791 
L 361.627607 188.733596 
L 364.171016 194.842355 
L 366.714425 200.589772 
L 369.257835 193.895968 
L 371.801244 193.632294 
L 374.344653 194.931993 
L 376.888063 191.332786 
L 379.431472 188.222936 
L 381.974882 187.984351 
L 384.518291 190.110728 
L 387.0617 188.652783 
L 389.60511 189.093669 
L 392.148519 191.153195 
L 394.691928 191.080127 
L 397.235338 190.76363 
L 399.778747 191.875685 
L 402.322156 195.497154 
L 404.865566 201.966786 
L 407.408975 196.607606 
L 409.952385 197.13352 
L 412.495794 202.616387 
L 415.039203 195.08072 
L 417.582613 191.572571 
L 420.126022 190.657548 
L 422.669431 192.410765 
L 425.212841 200.549605 
L 427.75625 195.146028 
L 430.299659 191.457912 
L 432.843069 191.413029 
L 435.386478 193.305868 
L 437.929888 196.785421 
L 440.473297 198.323952 
L 443.016706 196.890492 
L 445.560116 197.957745 
L 448.103525 204.468605 
L 448.103525 204.468605 
" clip-path="url(#pf3742bf61a)" style="fill: none; stroke-dasharray: 5.55,2.4; stroke-dashoffset: 0; stroke: #ffa500; stroke-width: 1.5"/>
   </g>
   <g id="line2d_32">
    <path d="M 256.217777 224.64 
L 256.217777 134.694076 
" clip-path="url(#pf3742bf61a)" style="fill: none; stroke-dasharray: 1.5,2.475; stroke-dashoffset: 0; stroke: #808080; stroke-width: 1.5"/>
   </g>
   <g id="patch_8">
    <path d="M 79.311614 224.64 
L 79.311614 134.694076 
" style="fill: none; stroke: #000000; stroke-width: 0.8; stroke-linejoin: miter; stroke-linecap: square"/>
   </g>
   <g id="patch_9">
    <path d="M 445.68 224.64 
L 445.68 134.694076 
" style="fill: none; stroke: #000000; stroke-width: 0.8; stroke-linejoin: miter; stroke-linecap: square"/>
   </g>
   <g id="patch_10">
    <path d="M 79.311614 224.64 
L 445.68 224.64 
" style="fill: none; stroke: #000000; stroke-width: 0.8; stroke-linejoin: miter; stroke-linecap: square"/>
   </g>
   <g id="patch_11">
    <path d="M 79.311614 134.694076 
L 445.68 134.694076 
" style="fill: none; stroke: #000000; stroke-width: 0.8; stroke-linejoin: miter; stroke-linecap: square"/>
   </g>
  </g>
  <g id="legend_1">
   <g id="patch_12">
    <path d="M 10.002812 338.6 
L 450.797188 338.6 
Q 453.597188 338.6 453.597188 335.8 
L 453.597188 275.551875 
Q 453.597188 272.751875 450.797188 272.751875 
L 10.002812 272.751875 
Q 7.202812 272.751875 7.202812 275.551875 
L 7.202812 335.8 
Q 7.202812 338.6 10.002812 338.6 
z
" style="fill: #ffffff; opacity: 0.8; stroke: #cccccc; stroke-linejoin: miter"/>
   </g>
   <g id="line2d_33">
    <path d="M 12.802812 284.089687 
L 26.802812 284.089687 
L 40.802812 284.089687 
" style="fill: none; stroke: #000000; stroke-width: 1.5; stroke-linecap: square"/>
   </g>
   <g id="text_18">
    <!-- DVR -->
    <g transform="translate(52.002812 288.989687) scale(0.14 -0.14)">
     <defs>
      <path id="DejaVuSans-44" d="M 1259 4147 
L 1259 519 
L 2022 519 
Q 2988 519 3436 956 
Q 3884 1394 3884 2338 
Q 3884 3275 3436 3711 
Q 2988 4147 2022 4147 
L 1259 4147 
z
M 628 4666 
L 1925 4666 
Q 3281 4666 3915 4102 
Q 4550 3538 4550 2338 
Q 4550 1131 3912 565 
Q 3275 0 1925 0 
L 628 0 
L 628 4666 
z
" transform="scale(0.015625)"/>
      <path id="DejaVuSans-56" d="M 1831 0 
L 50 4666 
L 709 4666 
L 2188 738 
L 3669 4666 
L 4325 4666 
L 2547 0 
L 1831 0 
z
" transform="scale(0.015625)"/>
      <path id="DejaVuSans-52" d="M 2841 2188 
Q 3044 2119 3236 1894 
Q 3428 1669 3622 1275 
L 4263 0 
L 3584 0 
L 2988 1197 
Q 2756 1666 2539 1819 
Q 2322 1972 1947 1972 
L 1259 1972 
L 1259 0 
L 628 0 
L 628 4666 
L 2053 4666 
Q 2853 4666 3247 4331 
Q 3641 3997 3641 3322 
Q 3641 2881 3436 2590 
Q 3231 2300 2841 2188 
z
M 1259 4147 
L 1259 2491 
L 2053 2491 
Q 2509 2491 2742 2702 
Q 2975 2913 2975 3322 
Q 2975 3731 2742 3939 
Q 2509 4147 2053 4147 
L 1259 4147 
z
" transform="scale(0.015625)"/>
     </defs>
     <use xlink:href="#DejaVuSans-44"/>
     <use xlink:href="#DejaVuSans-56" x="75.251953"/>
     <use xlink:href="#DejaVuSans-52" x="143.660156"/>
    </g>
   </g>
   <g id="line2d_34">
    <path d="M 12.802812 304.639062 
L 26.802812 304.639062 
L 40.802812 304.639062 
" style="fill: none; stroke-dasharray: 5.55,2.4; stroke-dashoffset: 0; stroke: #ff0000; stroke-width: 1.5"/>
   </g>
   <g id="text_19">
    <!-- Rothe ($M_{max}=147$) -->
    <g transform="translate(52.002812 309.539062) scale(0.14 -0.14)">
     <defs>
      <path id="DejaVuSans-68" d="M 3513 2113 
L 3513 0 
L 2938 0 
L 2938 2094 
Q 2938 2591 2744 2837 
Q 2550 3084 2163 3084 
Q 1697 3084 1428 2787 
Q 1159 2491 1159 1978 
L 1159 0 
L 581 0 
L 581 4863 
L 1159 4863 
L 1159 2956 
Q 1366 3272 1645 3428 
Q 1925 3584 2291 3584 
Q 2894 3584 3203 3211 
Q 3513 2838 3513 2113 
z
" transform="scale(0.015625)"/>
      <path id="DejaVuSans-28" d="M 1984 4856 
Q 1566 4138 1362 3434 
Q 1159 2731 1159 2009 
Q 1159 1288 1364 580 
Q 1569 -128 1984 -844 
L 1484 -844 
Q 1016 -109 783 600 
Q 550 1309 550 2009 
Q 550 2706 781 3412 
Q 1013 4119 1484 4856 
L 1984 4856 
z
" transform="scale(0.015625)"/>
      <path id="DejaVuSans-Oblique-4d" d="M 1081 4666 
L 2028 4666 
L 2572 1522 
L 4378 4666 
L 5350 4666 
L 4441 0 
L 3828 0 
L 4622 4091 
L 2791 897 
L 2175 897 
L 1581 4103 
L 788 0 
L 172 0 
L 1081 4666 
z
" transform="scale(0.015625)"/>
      <path id="DejaVuSans-Oblique-6d" d="M 5747 2113 
L 5338 0 
L 4763 0 
L 5166 2094 
Q 5191 2228 5203 2325 
Q 5216 2422 5216 2491 
Q 5216 2772 5059 2928 
Q 4903 3084 4622 3084 
Q 4203 3084 3875 2770 
Q 3547 2456 3450 1953 
L 3066 0 
L 2491 0 
L 2900 2094 
Q 2925 2209 2937 2307 
Q 2950 2406 2950 2484 
Q 2950 2769 2794 2926 
Q 2638 3084 2363 3084 
Q 1938 3084 1609 2770 
Q 1281 2456 1184 1953 
L 800 0 
L 225 0 
L 909 3500 
L 1484 3500 
L 1375 2956 
Q 1609 3263 1923 3423 
Q 2238 3584 2597 3584 
Q 2978 3584 3223 3384 
Q 3469 3184 3519 2828 
Q 3781 3197 4126 3390 
Q 4472 3584 4856 3584 
Q 5306 3584 5551 3325 
Q 5797 3066 5797 2591 
Q 5797 2488 5784 2364 
Q 5772 2241 5747 2113 
z
" transform="scale(0.015625)"/>
      <path id="DejaVuSans-Oblique-61" d="M 3438 1997 
L 3047 0 
L 2472 0 
L 2578 531 
Q 2325 219 2001 64 
Q 1678 -91 1281 -91 
Q 834 -91 548 182 
Q 263 456 263 884 
Q 263 1497 752 1853 
Q 1241 2209 2100 2209 
L 2900 2209 
L 2931 2363 
Q 2938 2388 2941 2417 
Q 2944 2447 2944 2509 
Q 2944 2788 2717 2942 
Q 2491 3097 2081 3097 
Q 1800 3097 1504 3025 
Q 1209 2953 897 2809 
L 997 3341 
Q 1322 3463 1633 3523 
Q 1944 3584 2234 3584 
Q 2853 3584 3176 3315 
Q 3500 3047 3500 2534 
Q 3500 2431 3484 2292 
Q 3469 2153 3438 1997 
z
M 2816 1759 
L 2241 1759 
Q 1534 1759 1195 1570 
Q 856 1381 856 984 
Q 856 709 1029 553 
Q 1203 397 1509 397 
Q 1978 397 2328 733 
Q 2678 1069 2791 1631 
L 2816 1759 
z
" transform="scale(0.015625)"/>
      <path id="DejaVuSans-Oblique-78" d="M 3841 3500 
L 2234 1784 
L 3219 0 
L 2559 0 
L 1819 1388 
L 531 0 
L -166 0 
L 1556 1844 
L 641 3500 
L 1300 3500 
L 1972 2234 
L 3144 3500 
L 3841 3500 
z
" transform="scale(0.015625)"/>
      <path id="DejaVuSans-3d" d="M 678 2906 
L 4684 2906 
L 4684 2381 
L 678 2381 
L 678 2906 
z
M 678 1631 
L 4684 1631 
L 4684 1100 
L 678 1100 
L 678 1631 
z
" transform="scale(0.015625)"/>
      <path id="DejaVuSans-29" d="M 513 4856 
L 1013 4856 
Q 1481 4119 1714 3412 
Q 1947 2706 1947 2009 
Q 1947 1309 1714 600 
Q 1481 -109 1013 -844 
L 513 -844 
Q 928 -128 1133 580 
Q 1338 1288 1338 2009 
Q 1338 2731 1133 3434 
Q 928 4138 513 4856 
z
" transform="scale(0.015625)"/>
     </defs>
     <use xlink:href="#DejaVuSans-52" transform="translate(0 0.015625)"/>
     <use xlink:href="#DejaVuSans-6f" transform="translate(69.482422 0.015625)"/>
     <use xlink:href="#DejaVuSans-74" transform="translate(130.664062 0.015625)"/>
     <use xlink:href="#DejaVuSans-68" transform="translate(169.873047 0.015625)"/>
     <use xlink:href="#DejaVuSans-65" transform="translate(233.251953 0.015625)"/>
     <use xlink:href="#DejaVuSans-20" transform="translate(294.775391 0.015625)"/>
     <use xlink:href="#DejaVuSans-28" transform="translate(326.5625 0.015625)"/>
     <use xlink:href="#DejaVuSans-Oblique-4d" transform="translate(365.576172 0.015625)"/>
     <use xlink:href="#DejaVuSans-Oblique-6d" transform="translate(451.855469 -16.390625) scale(0.7)"/>
     <use xlink:href="#DejaVuSans-Oblique-61" transform="translate(520.043945 -16.390625) scale(0.7)"/>
     <use xlink:href="#DejaVuSans-Oblique-78" transform="translate(562.939453 -16.390625) scale(0.7)"/>
     <use xlink:href="#DejaVuSans-3d" transform="translate(626.582031 0.015625)"/>
     <use xlink:href="#DejaVuSans-31" transform="translate(729.853516 0.015625)"/>
     <use xlink:href="#DejaVuSans-34" transform="translate(793.476562 0.015625)"/>
     <use xlink:href="#DejaVuSans-37" transform="translate(857.099609 0.015625)"/>
     <use xlink:href="#DejaVuSans-29" transform="translate(920.722656 0.015625)"/>
    </g>
   </g>
   <g id="line2d_35">
    <path d="M 12.802812 325.188437 
L 26.802812 325.188437 
L 40.802812 325.188437 
" style="fill: none; stroke-dasharray: 5.55,2.4; stroke-dashoffset: 0; stroke: #008000; stroke-width: 1.5"/>
   </g>
   <g id="text_20">
    <!-- Rothe ($M_{max}=100$) -->
    <g transform="translate(52.002812 330.088437) scale(0.14 -0.14)">
     <use xlink:href="#DejaVuSans-52" transform="translate(0 0.015625)"/>
     <use xlink:href="#DejaVuSans-6f" transform="translate(69.482422 0.015625)"/>
     <use xlink:href="#DejaVuSans-74" transform="translate(130.664062 0.015625)"/>
     <use xlink:href="#DejaVuSans-68" transform="translate(169.873047 0.015625)"/>
     <use xlink:href="#DejaVuSans-65" transform="translate(233.251953 0.015625)"/>
     <use xlink:href="#DejaVuSans-20" transform="translate(294.775391 0.015625)"/>
     <use xlink:href="#DejaVuSans-28" transform="translate(326.5625 0.015625)"/>
     <use xlink:href="#DejaVuSans-Oblique-4d" transform="translate(365.576172 0.015625)"/>
     <use xlink:href="#DejaVuSans-Oblique-6d" transform="translate(451.855469 -16.390625) scale(0.7)"/>
     <use xlink:href="#DejaVuSans-Oblique-61" transform="translate(520.043945 -16.390625) scale(0.7)"/>
     <use xlink:href="#DejaVuSans-Oblique-78" transform="translate(562.939453 -16.390625) scale(0.7)"/>
     <use xlink:href="#DejaVuSans-3d" transform="translate(626.582031 0.015625)"/>
     <use xlink:href="#DejaVuSans-31" transform="translate(729.853516 0.015625)"/>
     <use xlink:href="#DejaVuSans-30" transform="translate(793.476562 0.015625)"/>
     <use xlink:href="#DejaVuSans-30" transform="translate(857.099609 0.015625)"/>
     <use xlink:href="#DejaVuSans-29" transform="translate(920.722656 0.015625)"/>
    </g>
   </g>
   <g id="line2d_36">
    <path d="M 214.402813 284.089687 
L 228.402813 284.089687 
L 242.402813 284.089687 
" style="fill: none; stroke-dasharray: 5.55,2.4; stroke-dashoffset: 0; stroke: #0000ff; stroke-width: 1.5"/>
   </g>
   <g id="text_21">
    <!-- Rothe ($M_{max}=66$) -->
    <g transform="translate(253.602813 288.989687) scale(0.14 -0.14)">
     <defs>
      <path id="DejaVuSans-36" d="M 2113 2584 
Q 1688 2584 1439 2293 
Q 1191 2003 1191 1497 
Q 1191 994 1439 701 
Q 1688 409 2113 409 
Q 2538 409 2786 701 
Q 3034 994 3034 1497 
Q 3034 2003 2786 2293 
Q 2538 2584 2113 2584 
z
M 3366 4563 
L 3366 3988 
Q 3128 4100 2886 4159 
Q 2644 4219 2406 4219 
Q 1781 4219 1451 3797 
Q 1122 3375 1075 2522 
Q 1259 2794 1537 2939 
Q 1816 3084 2150 3084 
Q 2853 3084 3261 2657 
Q 3669 2231 3669 1497 
Q 3669 778 3244 343 
Q 2819 -91 2113 -91 
Q 1303 -91 875 529 
Q 447 1150 447 2328 
Q 447 3434 972 4092 
Q 1497 4750 2381 4750 
Q 2619 4750 2861 4703 
Q 3103 4656 3366 4563 
z
" transform="scale(0.015625)"/>
     </defs>
     <use xlink:href="#DejaVuSans-52" transform="translate(0 0.015625)"/>
     <use xlink:href="#DejaVuSans-6f" transform="translate(69.482422 0.015625)"/>
     <use xlink:href="#DejaVuSans-74" transform="translate(130.664062 0.015625)"/>
     <use xlink:href="#DejaVuSans-68" transform="translate(169.873047 0.015625)"/>
     <use xlink:href="#DejaVuSans-65" transform="translate(233.251953 0.015625)"/>
     <use xlink:href="#DejaVuSans-20" transform="translate(294.775391 0.015625)"/>
     <use xlink:href="#DejaVuSans-28" transform="translate(326.5625 0.015625)"/>
     <use xlink:href="#DejaVuSans-Oblique-4d" transform="translate(365.576172 0.015625)"/>
     <use xlink:href="#DejaVuSans-Oblique-6d" transform="translate(451.855469 -16.390625) scale(0.7)"/>
     <use xlink:href="#DejaVuSans-Oblique-61" transform="translate(520.043945 -16.390625) scale(0.7)"/>
     <use xlink:href="#DejaVuSans-Oblique-78" transform="translate(562.939453 -16.390625) scale(0.7)"/>
     <use xlink:href="#DejaVuSans-3d" transform="translate(626.582031 0.015625)"/>
     <use xlink:href="#DejaVuSans-36" transform="translate(729.853516 0.015625)"/>
     <use xlink:href="#DejaVuSans-36" transform="translate(793.476562 0.015625)"/>
     <use xlink:href="#DejaVuSans-29" transform="translate(857.099609 0.015625)"/>
    </g>
   </g>
   <g id="line2d_37">
    <path d="M 214.402813 304.639062 
L 228.402813 304.639062 
L 242.402813 304.639062 
" style="fill: none; stroke-dasharray: 5.55,2.4; stroke-dashoffset: 0; stroke: #800080; stroke-width: 1.5"/>
   </g>
   <g id="text_22">
    <!-- 6-aug-ccPVTZ+8K (HLM) -->
    <g transform="translate(253.602813 309.539062) scale(0.14 -0.14)">
     <defs>
      <path id="DejaVuSans-2d" d="M 313 2009 
L 1997 2009 
L 1997 1497 
L 313 1497 
L 313 2009 
z
" transform="scale(0.015625)"/>
      <path id="DejaVuSans-75" d="M 544 1381 
L 544 3500 
L 1119 3500 
L 1119 1403 
Q 1119 906 1312 657 
Q 1506 409 1894 409 
Q 2359 409 2629 706 
Q 2900 1003 2900 1516 
L 2900 3500 
L 3475 3500 
L 3475 0 
L 2900 0 
L 2900 538 
Q 2691 219 2414 64 
Q 2138 -91 1772 -91 
Q 1169 -91 856 284 
Q 544 659 544 1381 
z
M 1991 3584 
L 1991 3584 
z
" transform="scale(0.015625)"/>
      <path id="DejaVuSans-67" d="M 2906 1791 
Q 2906 2416 2648 2759 
Q 2391 3103 1925 3103 
Q 1463 3103 1205 2759 
Q 947 2416 947 1791 
Q 947 1169 1205 825 
Q 1463 481 1925 481 
Q 2391 481 2648 825 
Q 2906 1169 2906 1791 
z
M 3481 434 
Q 3481 -459 3084 -895 
Q 2688 -1331 1869 -1331 
Q 1566 -1331 1297 -1286 
Q 1028 -1241 775 -1147 
L 775 -588 
Q 1028 -725 1275 -790 
Q 1522 -856 1778 -856 
Q 2344 -856 2625 -561 
Q 2906 -266 2906 331 
L 2906 616 
Q 2728 306 2450 153 
Q 2172 0 1784 0 
Q 1141 0 747 490 
Q 353 981 353 1791 
Q 353 2603 747 3093 
Q 1141 3584 1784 3584 
Q 2172 3584 2450 3431 
Q 2728 3278 2906 2969 
L 2906 3500 
L 3481 3500 
L 3481 434 
z
" transform="scale(0.015625)"/>
      <path id="DejaVuSans-50" d="M 1259 4147 
L 1259 2394 
L 2053 2394 
Q 2494 2394 2734 2622 
Q 2975 2850 2975 3272 
Q 2975 3691 2734 3919 
Q 2494 4147 2053 4147 
L 1259 4147 
z
M 628 4666 
L 2053 4666 
Q 2838 4666 3239 4311 
Q 3641 3956 3641 3272 
Q 3641 2581 3239 2228 
Q 2838 1875 2053 1875 
L 1259 1875 
L 1259 0 
L 628 0 
L 628 4666 
z
" transform="scale(0.015625)"/>
      <path id="DejaVuSans-54" d="M -19 4666 
L 3928 4666 
L 3928 4134 
L 2272 4134 
L 2272 0 
L 1638 0 
L 1638 4134 
L -19 4134 
L -19 4666 
z
" transform="scale(0.015625)"/>
      <path id="DejaVuSans-5a" d="M 359 4666 
L 4025 4666 
L 4025 4184 
L 1075 531 
L 4097 531 
L 4097 0 
L 288 0 
L 288 481 
L 3238 4134 
L 359 4134 
L 359 4666 
z
" transform="scale(0.015625)"/>
      <path id="DejaVuSans-2b" d="M 2944 4013 
L 2944 2272 
L 4684 2272 
L 4684 1741 
L 2944 1741 
L 2944 0 
L 2419 0 
L 2419 1741 
L 678 1741 
L 678 2272 
L 2419 2272 
L 2419 4013 
L 2944 4013 
z
" transform="scale(0.015625)"/>
      <path id="DejaVuSans-38" d="M 2034 2216 
Q 1584 2216 1326 1975 
Q 1069 1734 1069 1313 
Q 1069 891 1326 650 
Q 1584 409 2034 409 
Q 2484 409 2743 651 
Q 3003 894 3003 1313 
Q 3003 1734 2745 1975 
Q 2488 2216 2034 2216 
z
M 1403 2484 
Q 997 2584 770 2862 
Q 544 3141 544 3541 
Q 544 4100 942 4425 
Q 1341 4750 2034 4750 
Q 2731 4750 3128 4425 
Q 3525 4100 3525 3541 
Q 3525 3141 3298 2862 
Q 3072 2584 2669 2484 
Q 3125 2378 3379 2068 
Q 3634 1759 3634 1313 
Q 3634 634 3220 271 
Q 2806 -91 2034 -91 
Q 1263 -91 848 271 
Q 434 634 434 1313 
Q 434 1759 690 2068 
Q 947 2378 1403 2484 
z
M 1172 3481 
Q 1172 3119 1398 2916 
Q 1625 2713 2034 2713 
Q 2441 2713 2670 2916 
Q 2900 3119 2900 3481 
Q 2900 3844 2670 4047 
Q 2441 4250 2034 4250 
Q 1625 4250 1398 4047 
Q 1172 3844 1172 3481 
z
" transform="scale(0.015625)"/>
      <path id="DejaVuSans-4b" d="M 628 4666 
L 1259 4666 
L 1259 2694 
L 3353 4666 
L 4166 4666 
L 1850 2491 
L 4331 0 
L 3500 0 
L 1259 2247 
L 1259 0 
L 628 0 
L 628 4666 
z
" transform="scale(0.015625)"/>
      <path id="DejaVuSans-4c" d="M 628 4666 
L 1259 4666 
L 1259 531 
L 3531 531 
L 3531 0 
L 628 0 
L 628 4666 
z
" transform="scale(0.015625)"/>
      <path id="DejaVuSans-4d" d="M 628 4666 
L 1569 4666 
L 2759 1491 
L 3956 4666 
L 4897 4666 
L 4897 0 
L 4281 0 
L 4281 4097 
L 3078 897 
L 2444 897 
L 1241 4097 
L 1241 0 
L 628 0 
L 628 4666 
z
" transform="scale(0.015625)"/>
     </defs>
     <use xlink:href="#DejaVuSans-36"/>
     <use xlink:href="#DejaVuSans-2d" x="63.623047"/>
     <use xlink:href="#DejaVuSans-61" x="99.707031"/>
     <use xlink:href="#DejaVuSans-75" x="160.986328"/>
     <use xlink:href="#DejaVuSans-67" x="224.365234"/>
     <use xlink:href="#DejaVuSans-2d" x="287.841797"/>
     <use xlink:href="#DejaVuSans-63" x="323.925781"/>
     <use xlink:href="#DejaVuSans-63" x="378.90625"/>
     <use xlink:href="#DejaVuSans-50" x="433.886719"/>
     <use xlink:href="#DejaVuSans-56" x="494.189453"/>
     <use xlink:href="#DejaVuSans-54" x="562.597656"/>
     <use xlink:href="#DejaVuSans-5a" x="623.681641"/>
     <use xlink:href="#DejaVuSans-2b" x="692.1875"/>
     <use xlink:href="#DejaVuSans-38" x="775.976562"/>
     <use xlink:href="#DejaVuSans-4b" x="839.599609"/>
     <use xlink:href="#DejaVuSans-20" x="905.175781"/>
     <use xlink:href="#DejaVuSans-28" x="936.962891"/>
     <use xlink:href="#DejaVuSans-48" x="975.976562"/>
     <use xlink:href="#DejaVuSans-4c" x="1051.171875"/>
     <use xlink:href="#DejaVuSans-4d" x="1106.884766"/>
     <use xlink:href="#DejaVuSans-29" x="1193.164062"/>
    </g>
   </g>
   <g id="line2d_38">
    <path d="M 214.402813 325.188437 
L 228.402813 325.188437 
L 242.402813 325.188437 
" style="fill: none; stroke-dasharray: 5.55,2.4; stroke-dashoffset: 0; stroke: #ffa500; stroke-width: 1.5"/>
   </g>
   <g id="text_23">
    <!-- 6-aug-ccPVTZ+8K (no HLM) -->
    <g transform="translate(253.602813 330.088437) scale(0.14 -0.14)">
     <use xlink:href="#DejaVuSans-36"/>
     <use xlink:href="#DejaVuSans-2d" x="63.623047"/>
     <use xlink:href="#DejaVuSans-61" x="99.707031"/>
     <use xlink:href="#DejaVuSans-75" x="160.986328"/>
     <use xlink:href="#DejaVuSans-67" x="224.365234"/>
     <use xlink:href="#DejaVuSans-2d" x="287.841797"/>
     <use xlink:href="#DejaVuSans-63" x="323.925781"/>
     <use xlink:href="#DejaVuSans-63" x="378.90625"/>
     <use xlink:href="#DejaVuSans-50" x="433.886719"/>
     <use xlink:href="#DejaVuSans-56" x="494.189453"/>
     <use xlink:href="#DejaVuSans-54" x="562.597656"/>
     <use xlink:href="#DejaVuSans-5a" x="623.681641"/>
     <use xlink:href="#DejaVuSans-2b" x="692.1875"/>
     <use xlink:href="#DejaVuSans-38" x="775.976562"/>
     <use xlink:href="#DejaVuSans-4b" x="839.599609"/>
     <use xlink:href="#DejaVuSans-20" x="905.175781"/>
     <use xlink:href="#DejaVuSans-28" x="936.962891"/>
     <use xlink:href="#DejaVuSans-6e" x="975.976562"/>
     <use xlink:href="#DejaVuSans-6f" x="1039.355469"/>
     <use xlink:href="#DejaVuSans-20" x="1100.537109"/>
     <use xlink:href="#DejaVuSans-48" x="1132.324219"/>
     <use xlink:href="#DejaVuSans-4c" x="1207.519531"/>
     <use xlink:href="#DejaVuSans-4d" x="1263.232422"/>
     <use xlink:href="#DejaVuSans-29" x="1349.511719"/>
    </g>
   </g>
  </g>
 </g>
 <defs>
  <clipPath id="pdf93b24d4e">
   <rect x="79.311614" y="21.564" width="366.368386" height="89.945924"/>
  </clipPath>
  <clipPath id="pf3742bf61a">
   <rect x="79.311614" y="134.694076" width="366.368386" height="89.945924"/>
  </clipPath>
 </defs>
</svg>
