<?xml version="1.0" encoding="utf-8" standalone="no"?>
<!DOCTYPE svg PUBLIC "-//W3C//DTD SVG 1.1//EN"
  "http://www.w3.org/Graphics/SVG/1.1/DTD/svg11.dtd">
<svg xmlns:xlink="http://www.w3.org/1999/xlink" width="460.8pt" height="345.6pt" viewBox="0 0 460.8 345.6" xmlns="http://www.w3.org/2000/svg" version="1.1">
 <metadata>
  <rdf:RDF xmlns:dc="http://purl.org/dc/elements/1.1/" xmlns:cc="http://creativecommons.org/ns#" xmlns:rdf="http://www.w3.org/1999/02/22-rdf-syntax-ns#">
   <cc:Work>
    <dc:type rdf:resource="http://purl.org/dc/dcmitype/StillImage"/>
    <dc:date>2024-04-02T15:04:00.544083</dc:date>
    <dc:format>image/svg+xml</dc:format>
    <dc:creator>
     <cc:Agent>
      <dc:title>Matplotlib v3.6.1, https://matplotlib.org/</dc:title>
     </cc:Agent>
    </dc:creator>
   </cc:Work>
  </rdf:RDF>
 </metadata>
 <defs>
  <style type="text/css">*{stroke-linejoin: round; stroke-linecap: butt}</style>
 </defs>
 <g id="figure_1">
  <g id="patch_1">
   <path d="M 0 345.6 
L 460.8 345.6 
L 460.8 0 
L 0 0 
z
" style="fill: #ffffff"/>
  </g>
  <g id="axes_1">
   <g id="patch_2">
    <path d="M 73.058741 110.635403 
L 436.77 110.635403 
L 436.77 15.12 
L 73.058741 15.12 
z
" style="fill: #ffffff"/>
   </g>
   <g id="matplotlib.axis_1">
    <g id="xtick_1">
     <g id="line2d_1">
      <defs>
       <path id="m05edd2d122" d="M 0 0 
L 0 3.5 
" style="stroke: #000000; stroke-width: 0.8"/>
      </defs>
      <g>
       <use xlink:href="#m05edd2d122" x="73.058741" y="110.635403" style="stroke: #000000; stroke-width: 0.8"/>
      </g>
     </g>
    </g>
    <g id="xtick_2">
     <g id="line2d_2">
      <g>
       <use xlink:href="#m05edd2d122" x="106.123401" y="110.635403" style="stroke: #000000; stroke-width: 0.8"/>
      </g>
     </g>
    </g>
    <g id="xtick_3">
     <g id="line2d_3">
      <g>
       <use xlink:href="#m05edd2d122" x="139.188061" y="110.635403" style="stroke: #000000; stroke-width: 0.8"/>
      </g>
     </g>
    </g>
    <g id="xtick_4">
     <g id="line2d_4">
      <g>
       <use xlink:href="#m05edd2d122" x="172.25272" y="110.635403" style="stroke: #000000; stroke-width: 0.8"/>
      </g>
     </g>
    </g>
    <g id="xtick_5">
     <g id="line2d_5">
      <g>
       <use xlink:href="#m05edd2d122" x="205.31738" y="110.635403" style="stroke: #000000; stroke-width: 0.8"/>
      </g>
     </g>
    </g>
    <g id="xtick_6">
     <g id="line2d_6">
      <g>
       <use xlink:href="#m05edd2d122" x="238.38204" y="110.635403" style="stroke: #000000; stroke-width: 0.8"/>
      </g>
     </g>
    </g>
    <g id="xtick_7">
     <g id="line2d_7">
      <g>
       <use xlink:href="#m05edd2d122" x="271.4467" y="110.635403" style="stroke: #000000; stroke-width: 0.8"/>
      </g>
     </g>
    </g>
    <g id="xtick_8">
     <g id="line2d_8">
      <g>
       <use xlink:href="#m05edd2d122" x="304.51136" y="110.635403" style="stroke: #000000; stroke-width: 0.8"/>
      </g>
     </g>
    </g>
    <g id="xtick_9">
     <g id="line2d_9">
      <g>
       <use xlink:href="#m05edd2d122" x="337.57602" y="110.635403" style="stroke: #000000; stroke-width: 0.8"/>
      </g>
     </g>
    </g>
    <g id="xtick_10">
     <g id="line2d_10">
      <g>
       <use xlink:href="#m05edd2d122" x="370.64068" y="110.635403" style="stroke: #000000; stroke-width: 0.8"/>
      </g>
     </g>
    </g>
    <g id="xtick_11">
     <g id="line2d_11">
      <g>
       <use xlink:href="#m05edd2d122" x="403.70534" y="110.635403" style="stroke: #000000; stroke-width: 0.8"/>
      </g>
     </g>
    </g>
    <g id="xtick_12">
     <g id="line2d_12">
      <g>
       <use xlink:href="#m05edd2d122" x="436.77" y="110.635403" style="stroke: #000000; stroke-width: 0.8"/>
      </g>
     </g>
    </g>
   </g>
   <g id="matplotlib.axis_2">
    <g id="ytick_1">
     <g id="line2d_13">
      <defs>
       <path id="m4fb849a3c1" d="M 0 0 
L -3.5 0 
" style="stroke: #000000; stroke-width: 0.8"/>
      </defs>
      <g>
       <use xlink:href="#m4fb849a3c1" x="73.058741" y="110.635403" style="stroke: #000000; stroke-width: 0.8"/>
      </g>
     </g>
     <g id="text_1">
      <!-- $\mathdefault{10^{-9}}$ -->
      <g transform="translate(33.158741 115.954309) scale(0.14 -0.14)">
       <defs>
        <path id="DejaVuSans-31" d="M 794 531 
L 1825 531 
L 1825 4091 
L 703 3866 
L 703 4441 
L 1819 4666 
L 2450 4666 
L 2450 531 
L 3481 531 
L 3481 0 
L 794 0 
L 794 531 
z
" transform="scale(0.015625)"/>
        <path id="DejaVuSans-30" d="M 2034 4250 
Q 1547 4250 1301 3770 
Q 1056 3291 1056 2328 
Q 1056 1369 1301 889 
Q 1547 409 2034 409 
Q 2525 409 2770 889 
Q 3016 1369 3016 2328 
Q 3016 3291 2770 3770 
Q 2525 4250 2034 4250 
z
M 2034 4750 
Q 2819 4750 3233 4129 
Q 3647 3509 3647 2328 
Q 3647 1150 3233 529 
Q 2819 -91 2034 -91 
Q 1250 -91 836 529 
Q 422 1150 422 2328 
Q 422 3509 836 4129 
Q 1250 4750 2034 4750 
z
" transform="scale(0.015625)"/>
        <path id="DejaVuSans-2212" d="M 678 2272 
L 4684 2272 
L 4684 1741 
L 678 1741 
L 678 2272 
z
" transform="scale(0.015625)"/>
        <path id="DejaVuSans-39" d="M 703 97 
L 703 672 
Q 941 559 1184 500 
Q 1428 441 1663 441 
Q 2288 441 2617 861 
Q 2947 1281 2994 2138 
Q 2813 1869 2534 1725 
Q 2256 1581 1919 1581 
Q 1219 1581 811 2004 
Q 403 2428 403 3163 
Q 403 3881 828 4315 
Q 1253 4750 1959 4750 
Q 2769 4750 3195 4129 
Q 3622 3509 3622 2328 
Q 3622 1225 3098 567 
Q 2575 -91 1691 -91 
Q 1453 -91 1209 -44 
Q 966 3 703 97 
z
M 1959 2075 
Q 2384 2075 2632 2365 
Q 2881 2656 2881 3163 
Q 2881 3666 2632 3958 
Q 2384 4250 1959 4250 
Q 1534 4250 1286 3958 
Q 1038 3666 1038 3163 
Q 1038 2656 1286 2365 
Q 1534 2075 1959 2075 
z
" transform="scale(0.015625)"/>
       </defs>
       <use xlink:href="#DejaVuSans-31" transform="translate(0 0.765625)"/>
       <use xlink:href="#DejaVuSans-30" transform="translate(63.623047 0.765625)"/>
       <use xlink:href="#DejaVuSans-2212" transform="translate(128.203125 39.046875) scale(0.7)"/>
       <use xlink:href="#DejaVuSans-39" transform="translate(186.855469 39.046875) scale(0.7)"/>
      </g>
     </g>
    </g>
    <g id="ytick_2">
     <g id="line2d_14">
      <g>
       <use xlink:href="#m4fb849a3c1" x="73.058741" y="76.522759" style="stroke: #000000; stroke-width: 0.8"/>
      </g>
     </g>
     <g id="text_2">
      <!-- $\mathdefault{10^{-4}}$ -->
      <g transform="translate(33.158741 81.841665) scale(0.14 -0.14)">
       <defs>
        <path id="DejaVuSans-34" d="M 2419 4116 
L 825 1625 
L 2419 1625 
L 2419 4116 
z
M 2253 4666 
L 3047 4666 
L 3047 1625 
L 3713 1625 
L 3713 1100 
L 3047 1100 
L 3047 0 
L 2419 0 
L 2419 1100 
L 313 1100 
L 313 1709 
L 2253 4666 
z
" transform="scale(0.015625)"/>
       </defs>
       <use xlink:href="#DejaVuSans-31" transform="translate(0 0.684375)"/>
       <use xlink:href="#DejaVuSans-30" transform="translate(63.623047 0.684375)"/>
       <use xlink:href="#DejaVuSans-2212" transform="translate(128.203125 38.965625) scale(0.7)"/>
       <use xlink:href="#DejaVuSans-34" transform="translate(186.855469 38.965625) scale(0.7)"/>
      </g>
     </g>
    </g>
    <g id="ytick_3">
     <g id="line2d_15">
      <g>
       <use xlink:href="#m4fb849a3c1" x="73.058741" y="42.410115" style="stroke: #000000; stroke-width: 0.8"/>
      </g>
     </g>
     <g id="text_3">
      <!-- $\mathdefault{10^{1}}$ -->
      <g transform="translate(41.418741 47.729021) scale(0.14 -0.14)">
       <use xlink:href="#DejaVuSans-31" transform="translate(0 0.684375)"/>
       <use xlink:href="#DejaVuSans-30" transform="translate(63.623047 0.684375)"/>
       <use xlink:href="#DejaVuSans-31" transform="translate(128.203125 38.965625) scale(0.7)"/>
      </g>
     </g>
    </g>
    <g id="text_4">
     <!-- Intensity -->
     <g transform="translate(26.247178 93.345201) rotate(-90) scale(0.14 -0.14)">
      <defs>
       <path id="DejaVuSans-49" d="M 628 4666 
L 1259 4666 
L 1259 0 
L 628 0 
L 628 4666 
z
" transform="scale(0.015625)"/>
       <path id="DejaVuSans-6e" d="M 3513 2113 
L 3513 0 
L 2938 0 
L 2938 2094 
Q 2938 2591 2744 2837 
Q 2550 3084 2163 3084 
Q 1697 3084 1428 2787 
Q 1159 2491 1159 1978 
L 1159 0 
L 581 0 
L 581 3500 
L 1159 3500 
L 1159 2956 
Q 1366 3272 1645 3428 
Q 1925 3584 2291 3584 
Q 2894 3584 3203 3211 
Q 3513 2838 3513 2113 
z
" transform="scale(0.015625)"/>
       <path id="DejaVuSans-74" d="M 1172 4494 
L 1172 3500 
L 2356 3500 
L 2356 3053 
L 1172 3053 
L 1172 1153 
Q 1172 725 1289 603 
Q 1406 481 1766 481 
L 2356 481 
L 2356 0 
L 1766 0 
Q 1100 0 847 248 
Q 594 497 594 1153 
L 594 3053 
L 172 3053 
L 172 3500 
L 594 3500 
L 594 4494 
L 1172 4494 
z
" transform="scale(0.015625)"/>
       <path id="DejaVuSans-65" d="M 3597 1894 
L 3597 1613 
L 953 1613 
Q 991 1019 1311 708 
Q 1631 397 2203 397 
Q 2534 397 2845 478 
Q 3156 559 3463 722 
L 3463 178 
Q 3153 47 2828 -22 
Q 2503 -91 2169 -91 
Q 1331 -91 842 396 
Q 353 884 353 1716 
Q 353 2575 817 3079 
Q 1281 3584 2069 3584 
Q 2775 3584 3186 3129 
Q 3597 2675 3597 1894 
z
M 3022 2063 
Q 3016 2534 2758 2815 
Q 2500 3097 2075 3097 
Q 1594 3097 1305 2825 
Q 1016 2553 972 2059 
L 3022 2063 
z
" transform="scale(0.015625)"/>
       <path id="DejaVuSans-73" d="M 2834 3397 
L 2834 2853 
Q 2591 2978 2328 3040 
Q 2066 3103 1784 3103 
Q 1356 3103 1142 2972 
Q 928 2841 928 2578 
Q 928 2378 1081 2264 
Q 1234 2150 1697 2047 
L 1894 2003 
Q 2506 1872 2764 1633 
Q 3022 1394 3022 966 
Q 3022 478 2636 193 
Q 2250 -91 1575 -91 
Q 1294 -91 989 -36 
Q 684 19 347 128 
L 347 722 
Q 666 556 975 473 
Q 1284 391 1588 391 
Q 1994 391 2212 530 
Q 2431 669 2431 922 
Q 2431 1156 2273 1281 
Q 2116 1406 1581 1522 
L 1381 1569 
Q 847 1681 609 1914 
Q 372 2147 372 2553 
Q 372 3047 722 3315 
Q 1072 3584 1716 3584 
Q 2034 3584 2315 3537 
Q 2597 3491 2834 3397 
z
" transform="scale(0.015625)"/>
       <path id="DejaVuSans-69" d="M 603 3500 
L 1178 3500 
L 1178 0 
L 603 0 
L 603 3500 
z
M 603 4863 
L 1178 4863 
L 1178 4134 
L 603 4134 
L 603 4863 
z
" transform="scale(0.015625)"/>
       <path id="DejaVuSans-79" d="M 2059 -325 
Q 1816 -950 1584 -1140 
Q 1353 -1331 966 -1331 
L 506 -1331 
L 506 -850 
L 844 -850 
Q 1081 -850 1212 -737 
Q 1344 -625 1503 -206 
L 1606 56 
L 191 3500 
L 800 3500 
L 1894 763 
L 2988 3500 
L 3597 3500 
L 2059 -325 
z
" transform="scale(0.015625)"/>
      </defs>
      <use xlink:href="#DejaVuSans-49"/>
      <use xlink:href="#DejaVuSans-6e" x="29.492188"/>
      <use xlink:href="#DejaVuSans-74" x="92.871094"/>
      <use xlink:href="#DejaVuSans-65" x="132.080078"/>
      <use xlink:href="#DejaVuSans-6e" x="193.603516"/>
      <use xlink:href="#DejaVuSans-73" x="256.982422"/>
      <use xlink:href="#DejaVuSans-69" x="309.082031"/>
      <use xlink:href="#DejaVuSans-74" x="336.865234"/>
      <use xlink:href="#DejaVuSans-79" x="376.074219"/>
     </g>
    </g>
   </g>
   <g id="line2d_16">
    <path d="M 73.057416 18.413357 
L 74.434668 20.653307 
L 75.811921 25.838603 
L 77.189173 33.659681 
L 78.566426 35.628331 
L 81.320931 36.557226 
L 82.698184 39.048787 
L 84.075436 44.553635 
L 85.452689 52.968256 
L 86.829941 52.355713 
L 88.207194 44.850054 
L 89.584446 44.471695 
L 90.961699 46.231582 
L 92.338951 50.563446 
L 93.716204 52.52048 
L 95.093457 50.196184 
L 96.470709 46.195038 
L 97.847962 45.0631 
L 99.225214 46.749794 
L 100.602467 51.622973 
L 101.979719 52.168446 
L 103.356972 51.885458 
L 104.734224 45.820268 
L 106.111477 44.430862 
L 107.48873 48.511406 
L 108.865982 62.847566 
L 110.243235 58.569951 
L 111.620487 49.582297 
L 112.99774 47.51914 
L 114.374992 47.113759 
L 115.752245 49.191442 
L 117.129497 56.149934 
L 118.50675 61.511642 
L 119.884003 52.851444 
L 121.261255 49.236893 
L 122.638508 49.652189 
L 124.01576 52.828284 
L 125.393013 56.522667 
L 126.770265 58.373107 
L 128.147518 54.40642 
L 129.52477 52.087339 
L 130.902023 52.561863 
L 132.279275 56.148263 
L 133.656528 58.080474 
L 135.033781 59.34547 
L 136.411033 55.591497 
L 137.788286 54.257693 
L 139.165538 55.553586 
L 140.542791 57.531262 
L 141.920043 57.028014 
L 143.297296 58.775141 
L 144.674548 56.737243 
L 146.051801 56.458606 
L 147.429054 58.173233 
L 148.806306 56.93708 
L 150.183559 57.544585 
L 151.560811 59.99842 
L 152.938064 58.612681 
L 154.315316 58.32153 
L 155.692569 59.227549 
L 157.069821 57.608875 
L 158.447074 59.093657 
L 159.824326 64.972821 
L 161.201579 64.876649 
L 162.578832 60.324896 
L 163.956084 57.586773 
L 165.333337 59.313132 
L 166.710589 67.708821 
L 168.087842 68.285345 
L 169.465094 66.18805 
L 170.842347 60.398597 
L 172.219599 59.869777 
L 173.596852 61.310989 
L 174.974105 63.074048 
L 176.351357 67.327869 
L 177.72861 66.743249 
L 179.105862 63.595779 
L 180.483115 61.210124 
L 181.860367 60.51001 
L 183.23762 61.933354 
L 184.614872 66.027937 
L 185.992125 67.566441 
L 187.369377 64.273029 
L 188.74663 62.700636 
L 190.123883 62.13274 
L 191.501135 63.293688 
L 192.878388 66.611311 
L 194.25564 67.899977 
L 195.632893 64.696059 
L 197.010145 63.916612 
L 198.387398 65.427279 
L 199.76465 67.302227 
L 201.141903 69.533183 
L 202.519156 73.972209 
L 203.896408 66.956549 
L 205.273661 63.626659 
L 206.650913 62.706798 
L 208.028166 64.037033 
L 209.405418 67.590604 
L 210.782671 70.368851 
L 212.159923 68.14215 
L 213.537176 66.583162 
L 214.914428 65.847301 
L 216.291681 65.647503 
L 217.668934 67.544196 
L 219.046186 71.610762 
L 220.423439 67.948367 
L 221.800691 65.607823 
L 223.177944 65.542449 
L 224.555196 67.632846 
L 225.932449 72.597246 
L 227.309701 78.098615 
L 228.686954 72.138247 
L 230.064207 68.057466 
L 231.441459 66.000581 
L 232.818712 65.610071 
L 234.195964 67.194249 
L 235.573217 70.942419 
L 236.950469 69.420542 
L 238.327722 67.129038 
L 239.704974 67.185883 
L 241.082227 69.21856 
L 243.836732 81.081577 
L 245.213985 73.973154 
L 246.591237 70.273969 
L 247.96849 67.670647 
L 249.345742 66.946853 
L 250.722995 67.814745 
L 252.100247 71.065789 
L 253.4775 71.2442 
L 254.854752 68.022938 
L 256.232005 67.187485 
L 257.609258 68.090518 
L 258.98651 71.052398 
L 260.363763 73.386748 
L 261.741015 71.251719 
L 263.118268 70.70147 
L 267.250025 71.754238 
L 268.627278 74.510578 
L 270.004531 82.880795 
L 271.381783 71.585599 
L 272.759036 68.370577 
L 274.136288 67.531495 
L 275.513541 68.135782 
L 276.890793 70.093244 
L 278.268046 70.394644 
L 279.645298 68.657212 
L 281.022551 68.036717 
L 282.399803 68.637074 
L 283.777056 70.295861 
L 285.154309 70.48868 
L 286.531561 68.761826 
L 287.908814 68.099081 
L 289.286066 68.910748 
L 290.663319 71.735136 
L 292.040571 77.61104 
L 293.417824 72.54233 
L 294.795076 69.684976 
L 296.172329 69.292594 
L 297.549582 70.367843 
L 298.926834 74.026524 
L 300.304087 82.604748 
L 301.681339 74.882229 
L 303.058592 72.089266 
L 304.435844 71.782162 
L 305.813097 72.780376 
L 307.190349 75.78047 
L 308.567602 79.263376 
L 311.322107 75.681475 
L 312.69936 75.291854 
L 314.076612 76.3198 
L 315.453865 78.388104 
L 316.831117 81.128143 
L 319.585622 80.185261 
L 320.962875 79.540954 
L 322.340127 81.004733 
L 323.71738 82.157769 
L 325.094633 85.308139 
L 326.471885 84.632029 
L 327.849138 85.354121 
L 329.22639 84.451723 
L 330.603643 86.565559 
L 331.980895 86.768781 
L 333.358148 90.131964 
L 334.7354 89.716039 
L 336.112653 91.062846 
L 337.489905 90.889287 
L 338.867158 91.438059 
L 340.244411 92.441053 
L 341.621663 94.001892 
L 342.998916 96.878801 
L 344.376168 94.303509 
L 345.753421 98.889843 
L 347.130673 95.133779 
L 348.507926 100.927451 
L 349.885178 97.007093 
L 351.262431 104.097781 
L 352.639684 96.762459 
L 354.016936 102.645874 
L 355.394189 97.760399 
L 356.771441 102.021846 
L 358.148694 97.831131 
L 359.525946 101.435984 
L 360.903199 99.282798 
L 362.280451 99.111023 
L 363.657704 100.389696 
L 365.034957 100.020055 
L 366.412209 99.876721 
L 367.789462 99.393537 
L 369.166714 100.222281 
L 370.543967 100.372393 
L 371.921219 99.622131 
L 373.298472 101.151919 
L 374.675724 99.539154 
L 376.052977 100.101719 
L 377.430229 100.993682 
L 378.807482 100.508127 
L 380.184735 100.335961 
L 381.561987 99.854829 
L 382.93924 101.694371 
L 384.316492 100.249721 
L 385.693745 100.341426 
L 387.070997 101.418023 
L 388.44825 100.491893 
L 389.825502 100.833178 
L 391.202755 100.538021 
L 392.580008 101.901801 
L 393.95726 100.443126 
L 395.334513 100.692882 
L 396.711765 101.856677 
L 398.089018 100.448179 
L 399.46627 101.603203 
L 400.843523 101.14555 
L 402.220775 101.538804 
L 403.598028 100.950917 
L 404.97528 101.051182 
L 406.352533 102.458794 
L 407.729786 100.737587 
L 409.107038 101.703705 
L 410.484291 101.758544 
L 411.861543 101.25402 
L 413.238796 101.846289 
L 414.616048 101.559948 
L 415.993301 102.64343 
L 417.370553 100.892646 
L 420.125059 102.633711 
L 421.502311 101.606743 
L 422.879564 102.26831 
L 424.256816 101.606318 
L 425.634069 102.398662 
L 427.011321 101.984447 
L 428.388574 102.488226 
L 429.765826 102.535338 
L 431.143079 101.346705 
L 432.520331 102.699174 
L 433.897584 102.832089 
L 436.652089 102.005927 
L 438.029342 102.336135 
L 438.029342 102.336135 
" clip-path="url(#p7a574c3a37)" style="fill: none; stroke: #000000; stroke-width: 1.5; stroke-linecap: square"/>
   </g>
   <g id="line2d_17">
    <path d="M 73.057416 18.300884 
L 74.434668 20.596461 
L 75.811921 25.87606 
L 77.189173 34.104693 
L 78.566426 35.49401 
L 79.943679 35.475539 
L 81.320931 35.848886 
L 82.698184 38.405639 
L 84.075436 44.727856 
L 85.452689 56.798625 
L 86.829941 55.102634 
L 88.207194 45.257921 
L 89.584446 45.000069 
L 90.961699 46.405701 
L 92.338951 49.96545 
L 93.716204 51.97132 
L 95.093457 49.878518 
L 96.470709 46.384881 
L 97.847962 45.050168 
L 99.225214 46.64887 
L 100.602467 52.136935 
L 101.979719 52.903794 
L 103.356972 51.870236 
L 104.734224 46.039044 
L 106.111477 44.678334 
L 107.48873 48.833883 
L 108.865982 60.934896 
L 110.243235 59.239125 
L 111.620487 49.530573 
L 112.99774 47.153454 
L 114.374992 47.423862 
L 115.752245 50.004686 
L 118.50675 62.638849 
L 119.884003 53.338062 
L 121.261255 49.249807 
L 122.638508 49.327338 
L 124.01576 52.931608 
L 125.393013 57.356134 
L 126.770265 58.606286 
L 128.147518 54.422775 
L 129.52477 52.040781 
L 130.902023 52.43219 
L 132.279275 55.624167 
L 135.033781 59.368947 
L 136.411033 55.758982 
L 137.788286 54.617766 
L 139.165538 55.931599 
L 140.542791 58.07527 
L 141.920043 58.065697 
L 143.297296 58.898155 
L 144.674548 55.881793 
L 146.051801 55.4197 
L 147.429054 58.257778 
L 148.806306 58.036673 
L 150.183559 58.221965 
L 151.560811 61.125895 
L 152.938064 59.659701 
L 154.315316 58.477528 
L 155.692569 57.689888 
L 157.069821 57.829545 
L 158.447074 60.09259 
L 159.824326 67.101376 
L 161.201579 65.215063 
L 162.578832 62.068899 
L 163.956084 58.527923 
L 165.333337 59.11652 
L 166.710589 65.341423 
L 168.087842 67.951724 
L 169.465094 66.309223 
L 170.842347 59.751523 
L 172.219599 59.014581 
L 173.596852 61.635084 
L 174.974105 63.59632 
L 176.351357 65.963889 
L 177.72861 65.453089 
L 179.105862 64.309309 
L 180.483115 61.774114 
L 181.860367 60.405725 
L 183.23762 62.068085 
L 184.614872 68.030287 
L 185.992125 70.131704 
L 187.369377 65.121573 
L 188.74663 63.834998 
L 190.123883 63.786372 
L 191.501135 64.322629 
L 192.878388 66.524008 
L 194.25564 67.227408 
L 195.632893 64.135813 
L 197.010145 62.974808 
L 198.387398 64.09465 
L 199.76465 66.086464 
L 201.141903 69.610161 
L 202.519156 74.637147 
L 203.896408 67.620737 
L 205.273661 64.254485 
L 206.650913 63.164394 
L 208.028166 65.029141 
L 209.405418 70.062622 
L 210.782671 76.736019 
L 212.159923 71.769858 
L 213.537176 68.601477 
L 214.914428 66.503816 
L 216.291681 65.494864 
L 217.668934 66.773853 
L 219.046186 70.021002 
L 220.423439 67.159078 
L 221.800691 64.754365 
L 223.177944 64.347633 
L 224.555196 65.914107 
L 225.932449 70.078181 
L 227.309701 72.932696 
L 228.686954 71.476625 
L 230.064207 70.285637 
L 231.441459 68.055425 
L 232.818712 67.101823 
L 234.195964 67.83086 
L 235.573217 69.891586 
L 236.950469 68.765044 
L 238.327722 66.648612 
L 239.704974 66.819377 
L 241.082227 68.479735 
L 242.45948 72.317071 
L 243.836732 73.322953 
L 245.213985 69.244913 
L 246.591237 68.04243 
L 247.96849 67.560698 
L 249.345742 67.780441 
L 250.722995 69.147681 
L 252.100247 73.359826 
L 253.4775 80.647583 
L 254.854752 71.619177 
L 256.232005 68.62996 
L 257.609258 67.843722 
L 258.98651 69.145145 
L 260.363763 71.70773 
L 261.741015 71.332553 
L 263.118268 69.236847 
L 264.49552 68.511267 
L 265.872773 70.265297 
L 267.250025 75.291744 
L 268.627278 75.710399 
L 270.004531 72.162857 
L 271.381783 71.065937 
L 272.759036 70.796143 
L 274.136288 70.873393 
L 275.513541 71.562798 
L 276.890793 74.330707 
L 278.268046 75.917637 
L 279.645298 70.831198 
L 281.022551 68.554123 
L 282.399803 67.907824 
L 283.777056 69.051212 
L 285.154309 70.838609 
L 286.531561 69.45984 
L 287.908814 67.835729 
L 289.286066 67.504523 
L 290.663319 68.778888 
L 292.040571 71.447015 
L 293.417824 71.347895 
L 294.795076 69.634441 
L 296.172329 69.387367 
L 297.549582 70.571802 
L 298.926834 74.053048 
L 300.304087 77.968865 
L 301.681339 73.346271 
L 303.058592 71.373748 
L 304.435844 71.480581 
L 305.813097 73.117828 
L 307.190349 77.60405 
L 308.567602 78.809038 
L 309.944854 74.063049 
L 311.322107 73.989595 
L 312.69936 75.577285 
L 314.076612 75.215178 
L 315.453865 75.10068 
L 316.831117 75.178317 
L 318.20837 75.00511 
L 319.585622 76.146758 
L 320.962875 76.02118 
L 323.71738 73.839315 
L 325.094633 74.646597 
L 326.471885 78.390946 
L 327.849138 85.434733 
L 329.22639 80.749588 
L 330.603643 79.230225 
L 331.980895 78.723811 
L 334.7354 79.650553 
L 336.112653 80.337359 
L 337.489905 83.511773 
L 338.867158 88.749499 
L 340.244411 86.453525 
L 341.621663 83.436696 
L 342.998916 82.113619 
L 344.376168 80.139831 
L 345.753421 79.643805 
L 347.130673 81.127149 
L 348.507926 91.296094 
L 349.885178 80.175541 
L 351.262431 77.175085 
L 352.639684 76.072898 
L 354.016936 76.734895 
L 355.394189 78.811204 
L 356.771441 82.763771 
L 358.148694 83.358034 
L 359.525946 79.675597 
L 360.903199 77.83759 
L 362.280451 77.592037 
L 363.657704 77.82499 
L 365.034957 79.821344 
L 366.412209 87.036415 
L 367.789462 86.912119 
L 369.166714 80.434028 
L 370.543967 78.757303 
L 371.921219 79.240858 
L 373.298472 82.30102 
L 374.675724 91.00355 
L 376.052977 82.251843 
L 377.430229 79.406382 
L 378.807482 80.692791 
L 380.184735 82.659509 
L 381.561987 81.521684 
L 382.93924 82.475311 
L 384.316492 85.338998 
L 385.693745 84.834487 
L 387.070997 82.523737 
L 388.44825 82.487779 
L 389.825502 82.744158 
L 391.202755 84.302455 
L 392.580008 85.345605 
L 393.95726 86.074818 
L 395.334513 90.516711 
L 396.711765 91.291519 
L 398.089018 86.627973 
L 399.46627 83.371479 
L 400.843523 82.979625 
L 402.220775 83.882801 
L 403.598028 86.830478 
L 404.97528 87.525655 
L 406.352533 89.413092 
L 407.729786 89.826079 
L 409.107038 88.618306 
L 410.484291 87.728328 
L 411.861543 87.514413 
L 413.238796 84.773396 
L 414.616048 83.16102 
L 415.993301 82.315351 
L 417.370553 84.780852 
L 418.747806 85.973902 
L 420.125059 80.892035 
L 421.502311 80.292109 
L 422.879564 82.353281 
L 424.256816 86.410128 
L 425.634069 86.099044 
L 427.011321 80.936014 
L 428.388574 79.632674 
L 429.765826 80.777111 
L 431.143079 85.441074 
L 432.520331 83.496346 
L 433.897584 79.251151 
L 435.274837 79.074998 
L 436.652089 80.851438 
L 438.029342 86.655016 
L 438.029342 86.655016 
" clip-path="url(#p7a574c3a37)" style="fill: none; stroke-dasharray: 5.55,2.4; stroke-dashoffset: 0; stroke: #ff0000; stroke-width: 1.5"/>
   </g>
   <g id="line2d_18">
    <path d="M 73.057416 18.316642 
L 74.434668 20.601945 
L 75.811921 25.89166 
L 77.189173 34.02547 
L 78.566426 35.423723 
L 79.943679 35.466275 
L 81.320931 35.879283 
L 82.698184 38.407785 
L 84.075436 44.705614 
L 85.452689 56.750496 
L 86.829941 56.968497 
L 88.207194 45.39103 
L 89.584446 44.691315 
L 90.961699 46.189822 
L 92.338951 49.635101 
L 93.716204 51.379695 
L 95.093457 49.97354 
L 96.470709 46.165553 
L 97.847962 44.741719 
L 99.225214 46.208997 
L 100.602467 50.76613 
L 101.979719 51.93171 
L 103.356972 52.13234 
L 104.734224 46.51347 
L 106.111477 45.047256 
L 107.48873 48.360331 
L 108.865982 61.91036 
L 110.243235 60.913163 
L 111.620487 50.125475 
L 112.99774 47.230286 
L 114.374992 48.084412 
L 115.752245 51.314118 
L 117.129497 59.398517 
L 118.50675 60.871233 
L 119.884003 52.017264 
L 121.261255 49.106014 
L 122.638508 49.61402 
L 124.01576 53.164464 
L 125.393013 58.85277 
L 126.770265 56.579066 
L 128.147518 52.09147 
L 129.52477 50.66769 
L 130.902023 51.9372 
L 132.279275 55.075727 
L 133.656528 57.63946 
L 135.033781 58.978442 
L 136.411033 56.135933 
L 137.788286 54.680691 
L 139.165538 55.647488 
L 140.542791 57.699303 
L 141.920043 58.384661 
L 143.297296 61.316365 
L 144.674548 58.49979 
L 146.051801 56.891088 
L 147.429054 59.680139 
L 148.806306 57.451372 
L 150.183559 59.499824 
L 151.560811 65.197454 
L 152.938064 61.119623 
L 154.315316 64.533178 
L 155.692569 60.916494 
L 157.069821 58.528895 
L 158.447074 60.094096 
L 159.824326 61.298673 
L 161.201579 58.700459 
L 162.578832 58.679221 
L 163.956084 57.38806 
L 165.333337 57.400584 
L 166.710589 60.859964 
L 168.087842 63.897218 
L 169.465094 62.351112 
L 170.842347 59.329137 
L 172.219599 59.677131 
L 173.596852 63.925129 
L 174.974105 62.365438 
L 176.351357 62.171411 
L 177.72861 63.088538 
L 179.105862 62.438892 
L 180.483115 61.094124 
L 181.860367 61.039403 
L 183.23762 64.88842 
L 184.614872 74.891878 
L 185.992125 68.057316 
L 187.369377 64.416806 
L 188.74663 61.385051 
L 190.123883 60.827521 
L 191.501135 61.902788 
L 192.878388 64.134549 
L 194.25564 66.776674 
L 195.632893 65.621866 
L 197.010145 63.433923 
L 198.387398 62.334052 
L 199.76465 62.361922 
L 201.141903 64.367775 
L 202.519156 67.835083 
L 203.896408 68.018604 
L 205.273661 66.409098 
L 206.650913 65.601697 
L 208.028166 67.568619 
L 209.405418 72.374284 
L 210.782671 66.694291 
L 212.159923 63.188916 
L 213.537176 62.266454 
L 214.914428 63.636139 
L 216.291681 65.835326 
L 217.668934 67.245918 
L 220.423439 73.360963 
L 221.800691 65.862865 
L 223.177944 63.193421 
L 224.555196 63.340271 
L 225.932449 66.534794 
L 227.309701 84.344141 
L 228.686954 68.47499 
L 230.064207 67.323276 
L 231.441459 68.95178 
L 232.818712 67.947711 
L 234.195964 65.569464 
L 235.573217 65.170904 
L 236.950469 65.557462 
L 238.327722 64.858112 
L 239.704974 63.738942 
L 241.082227 63.728011 
L 242.45948 65.341485 
L 243.836732 68.289158 
L 245.213985 69.063183 
L 246.591237 68.210298 
L 247.96849 69.254367 
L 249.345742 73.013896 
L 250.722995 83.202822 
L 252.100247 75.500805 
L 253.4775 70.926018 
L 254.854752 67.834742 
L 256.232005 66.010205 
L 257.609258 65.246047 
L 258.98651 65.634583 
L 260.363763 66.804199 
L 261.741015 68.322028 
L 263.118268 70.261633 
L 264.49552 71.297466 
L 265.872773 70.109394 
L 267.250025 69.238243 
L 268.627278 70.024197 
L 270.004531 73.734149 
L 271.381783 82.100719 
L 272.759036 72.480817 
L 274.136288 69.794043 
L 275.513541 69.238833 
L 276.890793 69.950943 
L 278.268046 70.424912 
L 281.022551 69.157254 
L 283.777056 68.958196 
L 286.531561 67.105329 
L 287.908814 67.244083 
L 289.286066 68.587833 
L 290.663319 70.766464 
L 292.040571 70.169851 
L 293.417824 68.114242 
L 294.795076 67.208639 
L 296.172329 67.607783 
L 297.549582 69.551458 
L 298.926834 75.090099 
L 300.304087 74.295612 
L 301.681339 70.271228 
L 303.058592 68.860299 
L 304.435844 68.411343 
L 305.813097 68.613933 
L 307.190349 70.047354 
L 308.567602 73.212749 
L 309.944854 75.369783 
L 311.322107 72.422542 
L 312.69936 71.399009 
L 314.076612 72.497373 
L 315.453865 76.259564 
L 316.831117 77.145035 
L 318.20837 74.51623 
L 322.340127 72.772422 
L 323.71738 73.03794 
L 325.094633 75.048377 
L 326.471885 77.867956 
L 327.849138 76.099369 
L 329.22639 73.989981 
L 330.603643 74.136419 
L 331.980895 76.49674 
L 333.358148 80.035529 
L 334.7354 77.668354 
L 336.112653 75.765749 
L 337.489905 75.095177 
L 338.867158 75.513184 
L 340.244411 75.455146 
L 341.621663 75.71141 
L 342.998916 76.14855 
L 344.376168 77.42578 
L 345.753421 77.50805 
L 347.130673 76.963896 
L 348.507926 76.071865 
L 349.885178 75.996929 
L 351.262431 77.264223 
L 352.639684 80.769388 
L 354.016936 90.11093 
L 355.394189 83.345604 
L 356.771441 83.072309 
L 358.148694 85.652062 
L 359.525946 82.841745 
L 360.903199 82.145281 
L 362.280451 82.133242 
L 363.657704 83.399418 
L 365.034957 85.695448 
L 366.412209 80.543286 
L 367.789462 79.128292 
L 369.166714 79.349107 
L 370.543967 80.543045 
L 371.921219 81.306998 
L 373.298472 85.233687 
L 374.675724 88.210049 
L 376.052977 84.283277 
L 377.430229 83.107676 
L 378.807482 84.431674 
L 380.184735 90.333206 
L 381.561987 86.909785 
L 382.93924 82.9139 
L 385.693745 78.806983 
L 387.070997 79.117566 
L 388.44825 82.542246 
L 389.825502 84.853796 
L 391.202755 80.752773 
L 392.580008 80.582078 
L 393.95726 82.743744 
L 395.334513 89.077783 
L 396.711765 82.906836 
L 398.089018 80.00455 
L 399.46627 79.778652 
L 400.843523 82.584139 
L 402.220775 85.113629 
L 404.97528 79.693595 
L 406.352533 78.672697 
L 407.729786 81.004891 
L 409.107038 84.257734 
L 410.484291 82.741854 
L 411.861543 81.756361 
L 413.238796 80.148528 
L 414.616048 78.999843 
L 415.993301 79.83683 
L 417.370553 83.551235 
L 418.747806 86.830094 
L 420.125059 83.192018 
L 422.879564 82.90707 
L 424.256816 81.6649 
L 425.634069 83.192819 
L 427.011321 85.181044 
L 428.388574 80.923066 
L 429.765826 81.459312 
L 431.143079 89.196877 
L 432.520331 83.340756 
L 433.897584 79.812356 
L 435.274837 79.669691 
L 436.652089 80.15598 
L 438.029342 81.033727 
L 438.029342 81.033727 
" clip-path="url(#p7a574c3a37)" style="fill: none; stroke-dasharray: 5.55,2.4; stroke-dashoffset: 0; stroke: #008000; stroke-width: 1.5"/>
   </g>
   <g id="line2d_19">
    <path d="M 73.057416 18.47477 
L 74.434668 20.677005 
L 75.811921 26.064359 
L 77.189173 33.640658 
L 78.566426 35.18357 
L 79.943679 35.464021 
L 81.320931 36.053676 
L 82.698184 38.583915 
L 84.075436 46.080501 
L 85.452689 52.4417 
L 86.829941 60.259596 
L 88.207194 45.62864 
L 89.584446 43.453986 
L 90.961699 43.984672 
L 92.338951 46.953043 
L 93.716204 48.635422 
L 95.093457 50.578809 
L 96.470709 45.678811 
L 97.847962 43.284383 
L 99.225214 44.372429 
L 100.602467 46.781953 
L 101.979719 48.418831 
L 103.356972 52.469468 
L 104.734224 45.381186 
L 106.111477 44.159883 
L 107.48873 47.268418 
L 108.865982 57.476567 
L 110.243235 60.221582 
L 111.620487 49.330889 
L 112.99774 45.628038 
L 114.374992 46.624512 
L 115.752245 50.777491 
L 117.129497 56.026092 
L 118.50675 58.294275 
L 119.884003 52.145767 
L 121.261255 48.92955 
L 122.638508 48.526138 
L 124.01576 51.126524 
L 125.393013 62.116674 
L 126.770265 62.709041 
L 128.147518 53.313901 
L 129.52477 50.573433 
L 130.902023 51.024756 
L 132.279275 54.949039 
L 133.656528 62.110467 
L 135.033781 62.810966 
L 136.411033 54.202898 
L 137.788286 52.562642 
L 139.165538 53.788558 
L 140.542791 55.931182 
L 141.920043 60.521429 
L 143.297296 61.503671 
L 144.674548 56.464965 
L 146.051801 54.57854 
L 147.429054 56.845981 
L 148.806306 56.174832 
L 150.183559 57.271904 
L 151.560811 59.84438 
L 152.938064 58.913862 
L 154.315316 58.814925 
L 155.692569 56.936463 
L 157.069821 57.304434 
L 158.447074 56.722578 
L 159.824326 57.40395 
L 161.201579 58.236005 
L 162.578832 59.650897 
L 163.956084 58.654006 
L 165.333337 56.944842 
L 166.710589 58.3448 
L 168.087842 61.895598 
L 169.465094 62.845191 
L 170.842347 58.365988 
L 172.219599 56.960281 
L 173.596852 58.248815 
L 174.974105 60.766698 
L 176.351357 63.542631 
L 177.72861 67.750709 
L 179.105862 65.738943 
L 180.483115 63.931773 
L 181.860367 63.151667 
L 183.23762 63.514921 
L 184.614872 62.32462 
L 185.992125 61.298989 
L 187.369377 61.550212 
L 188.74663 62.603398 
L 190.123883 62.725414 
L 191.501135 63.653664 
L 192.878388 66.277733 
L 194.25564 64.492098 
L 195.632893 60.764797 
L 197.010145 58.936775 
L 198.387398 58.740999 
L 199.76465 59.505865 
L 201.141903 61.229806 
L 202.519156 63.33369 
L 203.896408 64.021697 
L 205.273661 63.128156 
L 206.650913 61.764797 
L 208.028166 62.163209 
L 209.405418 64.442954 
L 210.782671 69.023098 
L 212.159923 74.07102 
L 213.537176 85.033034 
L 214.914428 70.144506 
L 216.291681 67.698246 
L 217.668934 71.289411 
L 220.423439 63.033168 
L 221.800691 61.783455 
L 223.177944 62.315757 
L 224.555196 63.718981 
L 225.932449 65.829006 
L 227.309701 65.573387 
L 228.686954 64.202061 
L 230.064207 64.380731 
L 231.441459 65.458898 
L 232.818712 63.929559 
L 234.195964 62.605358 
L 235.573217 63.334781 
L 238.327722 68.704398 
L 239.704974 67.368265 
L 241.082227 66.836041 
L 242.45948 67.290407 
L 243.836732 68.032117 
L 246.591237 71.042861 
L 247.96849 74.036865 
L 249.345742 79.588857 
L 250.722995 71.309519 
L 252.100247 71.089476 
L 253.4775 72.703762 
L 254.854752 68.215656 
L 256.232005 65.492832 
L 257.609258 64.654027 
L 258.98651 65.628452 
L 260.363763 68.669581 
L 261.741015 75.75572 
L 263.118268 74.175038 
L 264.49552 70.188473 
L 265.872773 68.48013 
L 267.250025 67.561629 
L 268.627278 67.306613 
L 270.004531 67.936985 
L 271.381783 71.13041 
L 272.759036 71.104147 
L 274.136288 66.917697 
L 275.513541 65.221155 
L 276.890793 65.34943 
L 278.268046 66.182502 
L 279.645298 67.201571 
L 281.022551 67.159945 
L 282.399803 66.004551 
L 283.777056 65.136314 
L 285.154309 64.570817 
L 286.531561 64.280051 
L 289.286066 64.197336 
L 290.663319 64.415362 
L 292.040571 64.988952 
L 294.795076 65.56801 
L 296.172329 66.171052 
L 297.549582 66.989277 
L 298.926834 69.024981 
L 300.304087 72.955703 
L 301.681339 73.656717 
L 303.058592 69.779291 
L 304.435844 68.416963 
L 305.813097 68.480458 
L 307.190349 69.528349 
L 308.567602 70.822662 
L 309.944854 75.345753 
L 311.322107 82.072941 
L 312.69936 72.664582 
L 314.076612 71.348132 
L 315.453865 73.28552 
L 316.831117 75.481999 
L 318.20837 72.31009 
L 319.585622 71.617891 
L 320.962875 73.867729 
L 322.340127 78.033207 
L 323.71738 72.031485 
L 325.094633 70.927391 
L 326.471885 72.309113 
L 327.849138 77.394919 
L 329.22639 75.884878 
L 330.603643 75.085711 
L 331.980895 76.382224 
L 333.358148 79.167293 
L 334.7354 82.322983 
L 336.112653 87.829985 
L 338.867158 82.062313 
L 340.244411 83.812759 
L 341.621663 76.475731 
L 342.998916 73.273967 
L 344.376168 72.135084 
L 345.753421 73.361292 
L 347.130673 75.410271 
L 348.507926 75.121938 
L 349.885178 71.621787 
L 351.262431 69.810878 
L 352.639684 69.400483 
L 354.016936 70.240665 
L 355.394189 72.495137 
L 356.771441 73.598142 
L 358.148694 72.559117 
L 359.525946 71.109687 
L 360.903199 71.220812 
L 362.280451 72.76215 
L 363.657704 75.809121 
L 365.034957 77.848755 
L 366.412209 77.458934 
L 367.789462 78.924355 
L 369.166714 80.739577 
L 370.543967 79.983377 
L 371.921219 76.803748 
L 373.298472 75.446357 
L 374.675724 75.105658 
L 376.052977 76.445061 
L 378.807482 73.58738 
L 380.184735 73.582388 
L 381.561987 75.766441 
L 382.93924 82.380594 
L 384.316492 82.81664 
L 385.693745 77.915031 
L 387.070997 75.92369 
L 388.44825 75.762197 
L 389.825502 76.289778 
L 391.202755 76.241269 
L 392.580008 73.705623 
L 393.95726 73.08013 
L 395.334513 74.142256 
L 396.711765 77.072411 
L 398.089018 78.939749 
L 400.843523 75.121267 
L 402.220775 74.131747 
L 403.598028 75.842542 
L 404.97528 82.703366 
L 407.729786 74.952639 
L 409.107038 75.819881 
L 410.484291 82.385865 
L 413.238796 75.272586 
L 415.993301 77.049161 
L 417.370553 75.149485 
L 418.747806 75.925848 
L 420.125059 82.240924 
L 421.502311 79.695398 
L 422.879564 75.494084 
L 424.256816 76.328813 
L 425.634069 81.387411 
L 427.011321 81.292657 
L 428.388574 76.691263 
L 429.765826 75.984427 
L 431.143079 77.039028 
L 432.520331 81.096922 
L 433.897584 86.058638 
L 435.274837 85.489128 
L 436.652089 82.205135 
L 438.029342 76.642651 
L 438.029342 76.642651 
" clip-path="url(#p7a574c3a37)" style="fill: none; stroke-dasharray: 5.55,2.4; stroke-dashoffset: 0; stroke: #0000ff; stroke-width: 1.5"/>
   </g>
   <g id="line2d_20">
    <path d="M 359.870402 110.635403 
L 359.870402 15.12 
" clip-path="url(#p7a574c3a37)" style="fill: none; stroke-dasharray: 1.5,2.475; stroke-dashoffset: 0; stroke: #808080; stroke-width: 1.5"/>
   </g>
   <g id="patch_3">
    <path d="M 73.058741 110.635403 
L 73.058741 15.12 
" style="fill: none; stroke: #000000; stroke-width: 0.8; stroke-linejoin: miter; stroke-linecap: square"/>
   </g>
   <g id="patch_4">
    <path d="M 436.77 110.635403 
L 436.77 15.12 
" style="fill: none; stroke: #000000; stroke-width: 0.8; stroke-linejoin: miter; stroke-linecap: square"/>
   </g>
   <g id="patch_5">
    <path d="M 73.058741 110.635403 
L 436.77 110.635403 
" style="fill: none; stroke: #000000; stroke-width: 0.8; stroke-linejoin: miter; stroke-linecap: square"/>
   </g>
   <g id="patch_6">
    <path d="M 73.058741 15.12 
L 436.77 15.12 
" style="fill: none; stroke: #000000; stroke-width: 0.8; stroke-linejoin: miter; stroke-linecap: square"/>
   </g>
  </g>
  <g id="axes_2">
   <g id="patch_7">
    <path d="M 73.058741 224.64 
L 436.77 224.64 
L 436.77 129.124597 
L 73.058741 129.124597 
z
" style="fill: #ffffff"/>
   </g>
   <g id="matplotlib.axis_3">
    <g id="xtick_13">
     <g id="line2d_21">
      <g>
       <use xlink:href="#m05edd2d122" x="73.058741" y="224.64" style="stroke: #000000; stroke-width: 0.8"/>
      </g>
     </g>
     <g id="text_5">
      <!-- 1 -->
      <g transform="translate(68.604991 242.277812) scale(0.14 -0.14)">
       <use xlink:href="#DejaVuSans-31"/>
      </g>
     </g>
    </g>
    <g id="xtick_14">
     <g id="line2d_22">
      <g>
       <use xlink:href="#m05edd2d122" x="106.123401" y="224.64" style="stroke: #000000; stroke-width: 0.8"/>
      </g>
     </g>
     <g id="text_6">
      <!-- 9 -->
      <g transform="translate(101.669651 242.277812) scale(0.14 -0.14)">
       <use xlink:href="#DejaVuSans-39"/>
      </g>
     </g>
    </g>
    <g id="xtick_15">
     <g id="line2d_23">
      <g>
       <use xlink:href="#m05edd2d122" x="139.188061" y="224.64" style="stroke: #000000; stroke-width: 0.8"/>
      </g>
     </g>
     <g id="text_7">
      <!-- 17 -->
      <g transform="translate(130.280561 242.277812) scale(0.14 -0.14)">
       <defs>
        <path id="DejaVuSans-37" d="M 525 4666 
L 3525 4666 
L 3525 4397 
L 1831 0 
L 1172 0 
L 2766 4134 
L 525 4134 
L 525 4666 
z
" transform="scale(0.015625)"/>
       </defs>
       <use xlink:href="#DejaVuSans-31"/>
       <use xlink:href="#DejaVuSans-37" x="63.623047"/>
      </g>
     </g>
    </g>
    <g id="xtick_16">
     <g id="line2d_24">
      <g>
       <use xlink:href="#m05edd2d122" x="172.25272" y="224.64" style="stroke: #000000; stroke-width: 0.8"/>
      </g>
     </g>
     <g id="text_8">
      <!-- 25 -->
      <g transform="translate(163.34522 242.277812) scale(0.14 -0.14)">
       <defs>
        <path id="DejaVuSans-32" d="M 1228 531 
L 3431 531 
L 3431 0 
L 469 0 
L 469 531 
Q 828 903 1448 1529 
Q 2069 2156 2228 2338 
Q 2531 2678 2651 2914 
Q 2772 3150 2772 3378 
Q 2772 3750 2511 3984 
Q 2250 4219 1831 4219 
Q 1534 4219 1204 4116 
Q 875 4013 500 3803 
L 500 4441 
Q 881 4594 1212 4672 
Q 1544 4750 1819 4750 
Q 2544 4750 2975 4387 
Q 3406 4025 3406 3419 
Q 3406 3131 3298 2873 
Q 3191 2616 2906 2266 
Q 2828 2175 2409 1742 
Q 1991 1309 1228 531 
z
" transform="scale(0.015625)"/>
        <path id="DejaVuSans-35" d="M 691 4666 
L 3169 4666 
L 3169 4134 
L 1269 4134 
L 1269 2991 
Q 1406 3038 1543 3061 
Q 1681 3084 1819 3084 
Q 2600 3084 3056 2656 
Q 3513 2228 3513 1497 
Q 3513 744 3044 326 
Q 2575 -91 1722 -91 
Q 1428 -91 1123 -41 
Q 819 9 494 109 
L 494 744 
Q 775 591 1075 516 
Q 1375 441 1709 441 
Q 2250 441 2565 725 
Q 2881 1009 2881 1497 
Q 2881 1984 2565 2268 
Q 2250 2553 1709 2553 
Q 1456 2553 1204 2497 
Q 953 2441 691 2322 
L 691 4666 
z
" transform="scale(0.015625)"/>
       </defs>
       <use xlink:href="#DejaVuSans-32"/>
       <use xlink:href="#DejaVuSans-35" x="63.623047"/>
      </g>
     </g>
    </g>
    <g id="xtick_17">
     <g id="line2d_25">
      <g>
       <use xlink:href="#m05edd2d122" x="205.31738" y="224.64" style="stroke: #000000; stroke-width: 0.8"/>
      </g>
     </g>
     <g id="text_9">
      <!-- 33 -->
      <g transform="translate(196.40988 242.277812) scale(0.14 -0.14)">
       <defs>
        <path id="DejaVuSans-33" d="M 2597 2516 
Q 3050 2419 3304 2112 
Q 3559 1806 3559 1356 
Q 3559 666 3084 287 
Q 2609 -91 1734 -91 
Q 1441 -91 1130 -33 
Q 819 25 488 141 
L 488 750 
Q 750 597 1062 519 
Q 1375 441 1716 441 
Q 2309 441 2620 675 
Q 2931 909 2931 1356 
Q 2931 1769 2642 2001 
Q 2353 2234 1838 2234 
L 1294 2234 
L 1294 2753 
L 1863 2753 
Q 2328 2753 2575 2939 
Q 2822 3125 2822 3475 
Q 2822 3834 2567 4026 
Q 2313 4219 1838 4219 
Q 1578 4219 1281 4162 
Q 984 4106 628 3988 
L 628 4550 
Q 988 4650 1302 4700 
Q 1616 4750 1894 4750 
Q 2613 4750 3031 4423 
Q 3450 4097 3450 3541 
Q 3450 3153 3228 2886 
Q 3006 2619 2597 2516 
z
" transform="scale(0.015625)"/>
       </defs>
       <use xlink:href="#DejaVuSans-33"/>
       <use xlink:href="#DejaVuSans-33" x="63.623047"/>
      </g>
     </g>
    </g>
    <g id="xtick_18">
     <g id="line2d_26">
      <g>
       <use xlink:href="#m05edd2d122" x="238.38204" y="224.64" style="stroke: #000000; stroke-width: 0.8"/>
      </g>
     </g>
     <g id="text_10">
      <!-- 41 -->
      <g transform="translate(229.47454 242.277812) scale(0.14 -0.14)">
       <use xlink:href="#DejaVuSans-34"/>
       <use xlink:href="#DejaVuSans-31" x="63.623047"/>
      </g>
     </g>
    </g>
    <g id="xtick_19">
     <g id="line2d_27">
      <g>
       <use xlink:href="#m05edd2d122" x="271.4467" y="224.64" style="stroke: #000000; stroke-width: 0.8"/>
      </g>
     </g>
     <g id="text_11">
      <!-- 49 -->
      <g transform="translate(262.5392 242.277812) scale(0.14 -0.14)">
       <use xlink:href="#DejaVuSans-34"/>
       <use xlink:href="#DejaVuSans-39" x="63.623047"/>
      </g>
     </g>
    </g>
    <g id="xtick_20">
     <g id="line2d_28">
      <g>
       <use xlink:href="#m05edd2d122" x="304.51136" y="224.64" style="stroke: #000000; stroke-width: 0.8"/>
      </g>
     </g>
     <g id="text_12">
      <!-- 57 -->
      <g transform="translate(295.60386 242.277812) scale(0.14 -0.14)">
       <use xlink:href="#DejaVuSans-35"/>
       <use xlink:href="#DejaVuSans-37" x="63.623047"/>
      </g>
     </g>
    </g>
    <g id="xtick_21">
     <g id="line2d_29">
      <g>
       <use xlink:href="#m05edd2d122" x="337.57602" y="224.64" style="stroke: #000000; stroke-width: 0.8"/>
      </g>
     </g>
     <g id="text_13">
      <!-- 65 -->
      <g transform="translate(328.66852 242.277812) scale(0.14 -0.14)">
       <defs>
        <path id="DejaVuSans-36" d="M 2113 2584 
Q 1688 2584 1439 2293 
Q 1191 2003 1191 1497 
Q 1191 994 1439 701 
Q 1688 409 2113 409 
Q 2538 409 2786 701 
Q 3034 994 3034 1497 
Q 3034 2003 2786 2293 
Q 2538 2584 2113 2584 
z
M 3366 4563 
L 3366 3988 
Q 3128 4100 2886 4159 
Q 2644 4219 2406 4219 
Q 1781 4219 1451 3797 
Q 1122 3375 1075 2522 
Q 1259 2794 1537 2939 
Q 1816 3084 2150 3084 
Q 2853 3084 3261 2657 
Q 3669 2231 3669 1497 
Q 3669 778 3244 343 
Q 2819 -91 2113 -91 
Q 1303 -91 875 529 
Q 447 1150 447 2328 
Q 447 3434 972 4092 
Q 1497 4750 2381 4750 
Q 2619 4750 2861 4703 
Q 3103 4656 3366 4563 
z
" transform="scale(0.015625)"/>
       </defs>
       <use xlink:href="#DejaVuSans-36"/>
       <use xlink:href="#DejaVuSans-35" x="63.623047"/>
      </g>
     </g>
    </g>
    <g id="xtick_22">
     <g id="line2d_30">
      <g>
       <use xlink:href="#m05edd2d122" x="370.64068" y="224.64" style="stroke: #000000; stroke-width: 0.8"/>
      </g>
     </g>
     <g id="text_14">
      <!-- 73 -->
      <g transform="translate(361.73318 242.277812) scale(0.14 -0.14)">
       <use xlink:href="#DejaVuSans-37"/>
       <use xlink:href="#DejaVuSans-33" x="63.623047"/>
      </g>
     </g>
    </g>
    <g id="xtick_23">
     <g id="line2d_31">
      <g>
       <use xlink:href="#m05edd2d122" x="403.70534" y="224.64" style="stroke: #000000; stroke-width: 0.8"/>
      </g>
     </g>
     <g id="text_15">
      <!-- 81 -->
      <g transform="translate(394.79784 242.277812) scale(0.14 -0.14)">
       <defs>
        <path id="DejaVuSans-38" d="M 2034 2216 
Q 1584 2216 1326 1975 
Q 1069 1734 1069 1313 
Q 1069 891 1326 650 
Q 1584 409 2034 409 
Q 2484 409 2743 651 
Q 3003 894 3003 1313 
Q 3003 1734 2745 1975 
Q 2488 2216 2034 2216 
z
M 1403 2484 
Q 997 2584 770 2862 
Q 544 3141 544 3541 
Q 544 4100 942 4425 
Q 1341 4750 2034 4750 
Q 2731 4750 3128 4425 
Q 3525 4100 3525 3541 
Q 3525 3141 3298 2862 
Q 3072 2584 2669 2484 
Q 3125 2378 3379 2068 
Q 3634 1759 3634 1313 
Q 3634 634 3220 271 
Q 2806 -91 2034 -91 
Q 1263 -91 848 271 
Q 434 634 434 1313 
Q 434 1759 690 2068 
Q 947 2378 1403 2484 
z
M 1172 3481 
Q 1172 3119 1398 2916 
Q 1625 2713 2034 2713 
Q 2441 2713 2670 2916 
Q 2900 3119 2900 3481 
Q 2900 3844 2670 4047 
Q 2441 4250 2034 4250 
Q 1625 4250 1398 4047 
Q 1172 3844 1172 3481 
z
" transform="scale(0.015625)"/>
       </defs>
       <use xlink:href="#DejaVuSans-38"/>
       <use xlink:href="#DejaVuSans-31" x="63.623047"/>
      </g>
     </g>
    </g>
    <g id="xtick_24">
     <g id="line2d_32">
      <g>
       <use xlink:href="#m05edd2d122" x="436.77" y="224.64" style="stroke: #000000; stroke-width: 0.8"/>
      </g>
     </g>
     <g id="text_16">
      <!-- 89 -->
      <g transform="translate(427.8625 242.277812) scale(0.14 -0.14)">
       <use xlink:href="#DejaVuSans-38"/>
       <use xlink:href="#DejaVuSans-39" x="63.623047"/>
      </g>
     </g>
    </g>
    <g id="text_17">
     <!-- Harmonic order -->
     <g transform="translate(200.382183 259.827187) scale(0.14 -0.14)">
      <defs>
       <path id="DejaVuSans-48" d="M 628 4666 
L 1259 4666 
L 1259 2753 
L 3553 2753 
L 3553 4666 
L 4184 4666 
L 4184 0 
L 3553 0 
L 3553 2222 
L 1259 2222 
L 1259 0 
L 628 0 
L 628 4666 
z
" transform="scale(0.015625)"/>
       <path id="DejaVuSans-61" d="M 2194 1759 
Q 1497 1759 1228 1600 
Q 959 1441 959 1056 
Q 959 750 1161 570 
Q 1363 391 1709 391 
Q 2188 391 2477 730 
Q 2766 1069 2766 1631 
L 2766 1759 
L 2194 1759 
z
M 3341 1997 
L 3341 0 
L 2766 0 
L 2766 531 
Q 2569 213 2275 61 
Q 1981 -91 1556 -91 
Q 1019 -91 701 211 
Q 384 513 384 1019 
Q 384 1609 779 1909 
Q 1175 2209 1959 2209 
L 2766 2209 
L 2766 2266 
Q 2766 2663 2505 2880 
Q 2244 3097 1772 3097 
Q 1472 3097 1187 3025 
Q 903 2953 641 2809 
L 641 3341 
Q 956 3463 1253 3523 
Q 1550 3584 1831 3584 
Q 2591 3584 2966 3190 
Q 3341 2797 3341 1997 
z
" transform="scale(0.015625)"/>
       <path id="DejaVuSans-72" d="M 2631 2963 
Q 2534 3019 2420 3045 
Q 2306 3072 2169 3072 
Q 1681 3072 1420 2755 
Q 1159 2438 1159 1844 
L 1159 0 
L 581 0 
L 581 3500 
L 1159 3500 
L 1159 2956 
Q 1341 3275 1631 3429 
Q 1922 3584 2338 3584 
Q 2397 3584 2469 3576 
Q 2541 3569 2628 3553 
L 2631 2963 
z
" transform="scale(0.015625)"/>
       <path id="DejaVuSans-6d" d="M 3328 2828 
Q 3544 3216 3844 3400 
Q 4144 3584 4550 3584 
Q 5097 3584 5394 3201 
Q 5691 2819 5691 2113 
L 5691 0 
L 5113 0 
L 5113 2094 
Q 5113 2597 4934 2840 
Q 4756 3084 4391 3084 
Q 3944 3084 3684 2787 
Q 3425 2491 3425 1978 
L 3425 0 
L 2847 0 
L 2847 2094 
Q 2847 2600 2669 2842 
Q 2491 3084 2119 3084 
Q 1678 3084 1418 2786 
Q 1159 2488 1159 1978 
L 1159 0 
L 581 0 
L 581 3500 
L 1159 3500 
L 1159 2956 
Q 1356 3278 1631 3431 
Q 1906 3584 2284 3584 
Q 2666 3584 2933 3390 
Q 3200 3197 3328 2828 
z
" transform="scale(0.015625)"/>
       <path id="DejaVuSans-6f" d="M 1959 3097 
Q 1497 3097 1228 2736 
Q 959 2375 959 1747 
Q 959 1119 1226 758 
Q 1494 397 1959 397 
Q 2419 397 2687 759 
Q 2956 1122 2956 1747 
Q 2956 2369 2687 2733 
Q 2419 3097 1959 3097 
z
M 1959 3584 
Q 2709 3584 3137 3096 
Q 3566 2609 3566 1747 
Q 3566 888 3137 398 
Q 2709 -91 1959 -91 
Q 1206 -91 779 398 
Q 353 888 353 1747 
Q 353 2609 779 3096 
Q 1206 3584 1959 3584 
z
" transform="scale(0.015625)"/>
       <path id="DejaVuSans-63" d="M 3122 3366 
L 3122 2828 
Q 2878 2963 2633 3030 
Q 2388 3097 2138 3097 
Q 1578 3097 1268 2742 
Q 959 2388 959 1747 
Q 959 1106 1268 751 
Q 1578 397 2138 397 
Q 2388 397 2633 464 
Q 2878 531 3122 666 
L 3122 134 
Q 2881 22 2623 -34 
Q 2366 -91 2075 -91 
Q 1284 -91 818 406 
Q 353 903 353 1747 
Q 353 2603 823 3093 
Q 1294 3584 2113 3584 
Q 2378 3584 2631 3529 
Q 2884 3475 3122 3366 
z
" transform="scale(0.015625)"/>
       <path id="DejaVuSans-20" transform="scale(0.015625)"/>
       <path id="DejaVuSans-64" d="M 2906 2969 
L 2906 4863 
L 3481 4863 
L 3481 0 
L 2906 0 
L 2906 525 
Q 2725 213 2448 61 
Q 2172 -91 1784 -91 
Q 1150 -91 751 415 
Q 353 922 353 1747 
Q 353 2572 751 3078 
Q 1150 3584 1784 3584 
Q 2172 3584 2448 3432 
Q 2725 3281 2906 2969 
z
M 947 1747 
Q 947 1113 1208 752 
Q 1469 391 1925 391 
Q 2381 391 2643 752 
Q 2906 1113 2906 1747 
Q 2906 2381 2643 2742 
Q 2381 3103 1925 3103 
Q 1469 3103 1208 2742 
Q 947 2381 947 1747 
z
" transform="scale(0.015625)"/>
      </defs>
      <use xlink:href="#DejaVuSans-48"/>
      <use xlink:href="#DejaVuSans-61" x="75.195312"/>
      <use xlink:href="#DejaVuSans-72" x="136.474609"/>
      <use xlink:href="#DejaVuSans-6d" x="175.837891"/>
      <use xlink:href="#DejaVuSans-6f" x="273.25"/>
      <use xlink:href="#DejaVuSans-6e" x="334.431641"/>
      <use xlink:href="#DejaVuSans-69" x="397.810547"/>
      <use xlink:href="#DejaVuSans-63" x="425.59375"/>
      <use xlink:href="#DejaVuSans-20" x="480.574219"/>
      <use xlink:href="#DejaVuSans-6f" x="512.361328"/>
      <use xlink:href="#DejaVuSans-72" x="573.542969"/>
      <use xlink:href="#DejaVuSans-64" x="612.90625"/>
      <use xlink:href="#DejaVuSans-65" x="676.382812"/>
      <use xlink:href="#DejaVuSans-72" x="737.90625"/>
     </g>
    </g>
   </g>
   <g id="matplotlib.axis_4">
    <g id="ytick_4">
     <g id="line2d_33">
      <g>
       <use xlink:href="#m4fb849a3c1" x="73.058741" y="224.64" style="stroke: #000000; stroke-width: 0.8"/>
      </g>
     </g>
     <g id="text_18">
      <!-- $\mathdefault{10^{-9}}$ -->
      <g transform="translate(33.158741 229.958906) scale(0.14 -0.14)">
       <use xlink:href="#DejaVuSans-31" transform="translate(0 0.765625)"/>
       <use xlink:href="#DejaVuSans-30" transform="translate(63.623047 0.765625)"/>
       <use xlink:href="#DejaVuSans-2212" transform="translate(128.203125 39.046875) scale(0.7)"/>
       <use xlink:href="#DejaVuSans-39" transform="translate(186.855469 39.046875) scale(0.7)"/>
      </g>
     </g>
    </g>
    <g id="ytick_5">
     <g id="line2d_34">
      <g>
       <use xlink:href="#m4fb849a3c1" x="73.058741" y="190.527356" style="stroke: #000000; stroke-width: 0.8"/>
      </g>
     </g>
     <g id="text_19">
      <!-- $\mathdefault{10^{-4}}$ -->
      <g transform="translate(33.158741 195.846262) scale(0.14 -0.14)">
       <use xlink:href="#DejaVuSans-31" transform="translate(0 0.684375)"/>
       <use xlink:href="#DejaVuSans-30" transform="translate(63.623047 0.684375)"/>
       <use xlink:href="#DejaVuSans-2212" transform="translate(128.203125 38.965625) scale(0.7)"/>
       <use xlink:href="#DejaVuSans-34" transform="translate(186.855469 38.965625) scale(0.7)"/>
      </g>
     </g>
    </g>
    <g id="ytick_6">
     <g id="line2d_35">
      <g>
       <use xlink:href="#m4fb849a3c1" x="73.058741" y="156.414712" style="stroke: #000000; stroke-width: 0.8"/>
      </g>
     </g>
     <g id="text_20">
      <!-- $\mathdefault{10^{1}}$ -->
      <g transform="translate(41.418741 161.733619) scale(0.14 -0.14)">
       <use xlink:href="#DejaVuSans-31" transform="translate(0 0.684375)"/>
       <use xlink:href="#DejaVuSans-30" transform="translate(63.623047 0.684375)"/>
       <use xlink:href="#DejaVuSans-31" transform="translate(128.203125 38.965625) scale(0.7)"/>
      </g>
     </g>
    </g>
    <g id="text_21">
     <!-- Intensity -->
     <g transform="translate(26.247178 207.349799) rotate(-90) scale(0.14 -0.14)">
      <use xlink:href="#DejaVuSans-49"/>
      <use xlink:href="#DejaVuSans-6e" x="29.492188"/>
      <use xlink:href="#DejaVuSans-74" x="92.871094"/>
      <use xlink:href="#DejaVuSans-65" x="132.080078"/>
      <use xlink:href="#DejaVuSans-6e" x="193.603516"/>
      <use xlink:href="#DejaVuSans-73" x="256.982422"/>
      <use xlink:href="#DejaVuSans-69" x="309.082031"/>
      <use xlink:href="#DejaVuSans-74" x="336.865234"/>
      <use xlink:href="#DejaVuSans-79" x="376.074219"/>
     </g>
    </g>
   </g>
   <g id="line2d_36">
    <path d="M 359.870402 224.64 
L 359.870402 129.124597 
" clip-path="url(#pe4ce8f5236)" style="fill: none; stroke-dasharray: 1.5,2.475; stroke-dashoffset: 0; stroke: #808080; stroke-width: 1.5"/>
   </g>
   <g id="line2d_37">
    <path d="M 73.057416 132.417955 
L 74.434668 134.657905 
L 75.811921 139.8432 
L 77.189173 147.664278 
L 78.566426 149.632928 
L 81.320931 150.561823 
L 82.698184 153.053385 
L 84.075436 158.558233 
L 85.452689 166.972854 
L 86.829941 166.36031 
L 88.207194 158.854652 
L 89.584446 158.476293 
L 90.961699 160.236179 
L 92.338951 164.568043 
L 93.716204 166.525077 
L 95.093457 164.200781 
L 96.470709 160.199635 
L 97.847962 159.067698 
L 99.225214 160.754391 
L 100.602467 165.62757 
L 101.979719 166.173043 
L 103.356972 165.890055 
L 104.734224 159.824865 
L 106.111477 158.435459 
L 107.48873 162.516003 
L 108.865982 176.852163 
L 110.243235 172.574548 
L 111.620487 163.586895 
L 112.99774 161.523738 
L 114.374992 161.118357 
L 115.752245 163.196039 
L 117.129497 170.154532 
L 118.50675 175.516239 
L 119.884003 166.856041 
L 121.261255 163.24149 
L 122.638508 163.656786 
L 124.01576 166.832881 
L 125.393013 170.527265 
L 126.770265 172.377704 
L 128.147518 168.411018 
L 129.52477 166.091936 
L 130.902023 166.56646 
L 132.279275 170.15286 
L 133.656528 172.085071 
L 135.033781 173.350067 
L 136.411033 169.596094 
L 137.788286 168.26229 
L 139.165538 169.558183 
L 140.542791 171.535859 
L 141.920043 171.032612 
L 143.297296 172.779739 
L 144.674548 170.74184 
L 146.051801 170.463203 
L 147.429054 172.177831 
L 148.806306 170.941677 
L 150.183559 171.549182 
L 151.560811 174.003018 
L 152.938064 172.617279 
L 154.315316 172.326128 
L 155.692569 173.232146 
L 157.069821 171.613472 
L 158.447074 173.098254 
L 159.824326 178.977418 
L 161.201579 178.881247 
L 162.578832 174.329493 
L 163.956084 171.591371 
L 165.333337 173.317729 
L 166.710589 181.713418 
L 168.087842 182.289942 
L 169.465094 180.192648 
L 170.842347 174.403194 
L 172.219599 173.874374 
L 173.596852 175.315586 
L 174.974105 177.078646 
L 176.351357 181.332467 
L 177.72861 180.747846 
L 179.105862 177.600376 
L 180.483115 175.214722 
L 181.860367 174.514607 
L 183.23762 175.937951 
L 184.614872 180.032534 
L 185.992125 181.571038 
L 187.369377 178.277626 
L 188.74663 176.705234 
L 190.123883 176.137338 
L 191.501135 177.298285 
L 192.878388 180.615908 
L 194.25564 181.904574 
L 195.632893 178.700656 
L 197.010145 177.921209 
L 198.387398 179.431877 
L 199.76465 181.306824 
L 201.141903 183.537781 
L 202.519156 187.976806 
L 203.896408 180.961146 
L 205.273661 177.631256 
L 206.650913 176.711395 
L 208.028166 178.04163 
L 209.405418 181.595201 
L 210.782671 184.373449 
L 212.159923 182.146747 
L 213.537176 180.587759 
L 214.914428 179.851898 
L 216.291681 179.6521 
L 217.668934 181.548793 
L 219.046186 185.615359 
L 220.423439 181.952964 
L 221.800691 179.61242 
L 223.177944 179.547046 
L 224.555196 181.637444 
L 225.932449 186.601843 
L 227.309701 192.103212 
L 228.686954 186.142844 
L 230.064207 182.062063 
L 231.441459 180.005178 
L 232.818712 179.614668 
L 234.195964 181.198846 
L 235.573217 184.947016 
L 236.950469 183.425139 
L 238.327722 181.133635 
L 239.704974 181.19048 
L 241.082227 183.223157 
L 243.836732 195.086174 
L 245.213985 187.977751 
L 246.591237 184.278567 
L 247.96849 181.675244 
L 249.345742 180.95145 
L 250.722995 181.819342 
L 252.100247 185.070386 
L 253.4775 185.248797 
L 254.854752 182.027536 
L 256.232005 181.192082 
L 257.609258 182.095115 
L 258.98651 185.056995 
L 260.363763 187.391345 
L 261.741015 185.256316 
L 263.118268 184.706068 
L 267.250025 185.758835 
L 268.627278 188.515175 
L 270.004531 196.885392 
L 271.381783 185.590197 
L 272.759036 182.375174 
L 274.136288 181.536092 
L 275.513541 182.14038 
L 276.890793 184.097841 
L 278.268046 184.399241 
L 279.645298 182.661809 
L 281.022551 182.041315 
L 282.399803 182.641671 
L 283.777056 184.300458 
L 285.154309 184.493277 
L 286.531561 182.766423 
L 287.908814 182.103679 
L 289.286066 182.915346 
L 290.663319 185.739733 
L 292.040571 191.615637 
L 293.417824 186.546927 
L 294.795076 183.689573 
L 296.172329 183.297191 
L 297.549582 184.37244 
L 298.926834 188.031121 
L 300.304087 196.609345 
L 301.681339 188.886827 
L 303.058592 186.093864 
L 304.435844 185.786759 
L 305.813097 186.784974 
L 307.190349 189.785068 
L 308.567602 193.267973 
L 311.322107 189.686072 
L 312.69936 189.296451 
L 314.076612 190.324398 
L 315.453865 192.392701 
L 316.831117 195.132741 
L 319.585622 194.189858 
L 320.962875 193.545551 
L 322.340127 195.00933 
L 323.71738 196.162366 
L 325.094633 199.312736 
L 326.471885 198.636626 
L 327.849138 199.358718 
L 329.22639 198.45632 
L 330.603643 200.570157 
L 331.980895 200.773379 
L 333.358148 204.136562 
L 334.7354 203.720636 
L 336.112653 205.067444 
L 337.489905 204.893884 
L 338.867158 205.442657 
L 340.244411 206.44565 
L 341.621663 208.006489 
L 342.998916 210.883398 
L 344.376168 208.308106 
L 345.753421 212.89444 
L 347.130673 209.138376 
L 348.507926 214.932048 
L 349.885178 211.011691 
L 351.262431 218.102379 
L 352.639684 210.767057 
L 354.016936 216.650471 
L 355.394189 211.764996 
L 356.771441 216.026443 
L 358.148694 211.835729 
L 359.525946 215.440581 
L 360.903199 213.287395 
L 362.280451 213.115621 
L 363.657704 214.394293 
L 365.034957 214.024653 
L 366.412209 213.881318 
L 367.789462 213.398134 
L 369.166714 214.226878 
L 370.543967 214.37699 
L 371.921219 213.626728 
L 373.298472 215.156517 
L 374.675724 213.543751 
L 376.052977 214.106316 
L 377.430229 214.99828 
L 378.807482 214.512724 
L 380.184735 214.340558 
L 381.561987 213.859426 
L 382.93924 215.698968 
L 384.316492 214.254318 
L 385.693745 214.346024 
L 387.070997 215.42262 
L 388.44825 214.496491 
L 389.825502 214.837775 
L 391.202755 214.542618 
L 392.580008 215.906399 
L 393.95726 214.447724 
L 395.334513 214.697479 
L 396.711765 215.861274 
L 398.089018 214.452776 
L 399.46627 215.6078 
L 400.843523 215.150148 
L 402.220775 215.543401 
L 403.598028 214.955514 
L 404.97528 215.055779 
L 406.352533 216.463391 
L 407.729786 214.742184 
L 409.107038 215.708303 
L 410.484291 215.763142 
L 411.861543 215.258617 
L 413.238796 215.850886 
L 414.616048 215.564545 
L 415.993301 216.648028 
L 417.370553 214.897243 
L 420.125059 216.638308 
L 421.502311 215.611341 
L 422.879564 216.272907 
L 424.256816 215.610915 
L 425.634069 216.403259 
L 427.011321 215.989044 
L 428.388574 216.492823 
L 429.765826 216.539935 
L 431.143079 215.351303 
L 432.520331 216.703771 
L 433.897584 216.836686 
L 436.652089 216.010524 
L 438.029342 216.340733 
L 438.029342 216.340733 
" clip-path="url(#pe4ce8f5236)" style="fill: none; stroke: #000000; stroke-width: 1.5; stroke-linecap: square"/>
   </g>
   <g id="line2d_38">
    <path d="M 73.057416 132.305481 
L 74.434668 134.601058 
L 75.811921 139.880658 
L 77.189173 148.109291 
L 78.566426 149.498607 
L 79.943679 149.480136 
L 81.320931 149.853483 
L 82.698184 152.410236 
L 84.075436 158.732453 
L 85.452689 170.803222 
L 86.829941 169.107231 
L 88.207194 159.262518 
L 89.584446 159.004666 
L 90.961699 160.410298 
L 92.338951 163.970047 
L 93.716204 165.975917 
L 95.093457 163.883115 
L 96.470709 160.389479 
L 97.847962 159.054766 
L 99.225214 160.653467 
L 100.602467 166.141532 
L 101.979719 166.908391 
L 103.356972 165.874833 
L 104.734224 160.043641 
L 106.111477 158.682931 
L 107.48873 162.83848 
L 108.865982 174.939493 
L 110.243235 173.243722 
L 111.620487 163.53517 
L 112.99774 161.158051 
L 114.374992 161.428459 
L 115.752245 164.009283 
L 118.50675 176.643446 
L 119.884003 167.342659 
L 121.261255 163.254404 
L 122.638508 163.331935 
L 124.01576 166.936205 
L 125.393013 171.360731 
L 126.770265 172.610884 
L 128.147518 168.427372 
L 129.52477 166.045378 
L 130.902023 166.436788 
L 132.279275 169.628764 
L 135.033781 173.373545 
L 136.411033 169.763579 
L 137.788286 168.622363 
L 139.165538 169.936196 
L 140.542791 172.079867 
L 141.920043 172.070294 
L 143.297296 172.902752 
L 144.674548 169.88639 
L 146.051801 169.424297 
L 147.429054 172.262375 
L 148.806306 172.04127 
L 150.183559 172.226562 
L 151.560811 175.130493 
L 152.938064 173.664298 
L 154.315316 172.482125 
L 155.692569 171.694485 
L 157.069821 171.834142 
L 158.447074 174.097187 
L 159.824326 181.105973 
L 161.201579 179.21966 
L 162.578832 176.073496 
L 163.956084 172.53252 
L 165.333337 173.121118 
L 166.710589 179.346021 
L 168.087842 181.956321 
L 169.465094 180.31382 
L 170.842347 173.756121 
L 172.219599 173.019178 
L 173.596852 175.639681 
L 174.974105 177.600917 
L 176.351357 179.968486 
L 177.72861 179.457686 
L 179.105862 178.313907 
L 180.483115 175.778711 
L 181.860367 174.410323 
L 183.23762 176.072682 
L 184.614872 182.034884 
L 185.992125 184.136301 
L 187.369377 179.12617 
L 188.74663 177.839595 
L 190.123883 177.790969 
L 191.501135 178.327226 
L 192.878388 180.528605 
L 194.25564 181.232005 
L 195.632893 178.140411 
L 197.010145 176.979405 
L 198.387398 178.099248 
L 199.76465 180.091061 
L 201.141903 183.614758 
L 202.519156 188.641744 
L 203.896408 181.625334 
L 205.273661 178.259082 
L 206.650913 177.168991 
L 208.028166 179.033739 
L 209.405418 184.06722 
L 210.782671 190.740616 
L 212.159923 185.774455 
L 213.537176 182.606074 
L 214.914428 180.508413 
L 216.291681 179.499462 
L 217.668934 180.77845 
L 219.046186 184.025599 
L 220.423439 181.163675 
L 221.800691 178.758962 
L 223.177944 178.35223 
L 224.555196 179.918704 
L 225.932449 184.082778 
L 227.309701 186.937294 
L 228.686954 185.481223 
L 230.064207 184.290235 
L 231.441459 182.060022 
L 232.818712 181.10642 
L 234.195964 181.835457 
L 235.573217 183.896183 
L 236.950469 182.769641 
L 238.327722 180.653209 
L 239.704974 180.823974 
L 241.082227 182.484332 
L 242.45948 186.321668 
L 243.836732 187.327551 
L 245.213985 183.24951 
L 246.591237 182.047027 
L 247.96849 181.565295 
L 249.345742 181.785038 
L 250.722995 183.152278 
L 252.100247 187.364423 
L 253.4775 194.65218 
L 254.854752 185.623774 
L 256.232005 182.634558 
L 257.609258 181.84832 
L 258.98651 183.149742 
L 260.363763 185.712328 
L 261.741015 185.33715 
L 263.118268 183.241444 
L 264.49552 182.515864 
L 265.872773 184.269894 
L 267.250025 189.296342 
L 268.627278 189.714996 
L 270.004531 186.167454 
L 271.381783 185.070534 
L 272.759036 184.800741 
L 274.136288 184.87799 
L 275.513541 185.567395 
L 276.890793 188.335304 
L 278.268046 189.922235 
L 279.645298 184.835795 
L 281.022551 182.55872 
L 282.399803 181.912421 
L 283.777056 183.055809 
L 285.154309 184.843206 
L 286.531561 183.464437 
L 287.908814 181.840326 
L 289.286066 181.509121 
L 290.663319 182.783485 
L 292.040571 185.451612 
L 293.417824 185.352492 
L 294.795076 183.639038 
L 296.172329 183.391965 
L 297.549582 184.576399 
L 298.926834 188.057645 
L 300.304087 191.973462 
L 301.681339 187.350868 
L 303.058592 185.378345 
L 304.435844 185.485178 
L 305.813097 187.122425 
L 307.190349 191.608647 
L 308.567602 192.813636 
L 309.944854 188.067647 
L 311.322107 187.994192 
L 312.69936 189.581882 
L 314.076612 189.219776 
L 315.453865 189.105278 
L 316.831117 189.182914 
L 318.20837 189.009708 
L 319.585622 190.151355 
L 320.962875 190.025777 
L 323.71738 187.843912 
L 325.094633 188.651195 
L 326.471885 192.395544 
L 327.849138 199.43933 
L 329.22639 194.754186 
L 330.603643 193.234823 
L 331.980895 192.728409 
L 334.7354 193.655151 
L 336.112653 194.341956 
L 337.489905 197.51637 
L 338.867158 202.754096 
L 340.244411 200.458122 
L 341.621663 197.441293 
L 342.998916 196.118216 
L 344.376168 194.144428 
L 345.753421 193.648402 
L 347.130673 195.131746 
L 348.507926 205.300691 
L 349.885178 194.180138 
L 351.262431 191.179683 
L 352.639684 190.077496 
L 354.016936 190.739492 
L 355.394189 192.815801 
L 356.771441 196.768368 
L 358.148694 197.362631 
L 359.525946 193.680195 
L 360.903199 191.842187 
L 362.280451 191.596635 
L 363.657704 191.829587 
L 365.034957 193.825941 
L 366.412209 201.041012 
L 367.789462 200.916716 
L 369.166714 194.438625 
L 370.543967 192.7619 
L 371.921219 193.245455 
L 373.298472 196.305618 
L 374.675724 205.008148 
L 376.052977 196.256441 
L 377.430229 193.410979 
L 378.807482 194.697389 
L 380.184735 196.664106 
L 381.561987 195.526281 
L 382.93924 196.479908 
L 384.316492 199.343596 
L 385.693745 198.839084 
L 387.070997 196.528334 
L 388.44825 196.492376 
L 389.825502 196.748756 
L 391.202755 198.307053 
L 392.580008 199.350202 
L 393.95726 200.079415 
L 395.334513 204.521308 
L 396.711765 205.296117 
L 398.089018 200.632571 
L 399.46627 197.376076 
L 400.843523 196.984223 
L 402.220775 197.887398 
L 403.598028 200.835075 
L 404.97528 201.530252 
L 406.352533 203.417689 
L 407.729786 203.830676 
L 409.107038 202.622903 
L 410.484291 201.732925 
L 411.861543 201.519011 
L 413.238796 198.777993 
L 414.616048 197.165617 
L 415.993301 196.319949 
L 417.370553 198.78545 
L 418.747806 199.978499 
L 420.125059 194.896632 
L 421.502311 194.296706 
L 422.879564 196.357879 
L 424.256816 200.414726 
L 425.634069 200.103641 
L 427.011321 194.940611 
L 428.388574 193.637272 
L 429.765826 194.781708 
L 431.143079 199.445671 
L 432.520331 197.500943 
L 433.897584 193.255748 
L 435.274837 193.079595 
L 436.652089 194.856036 
L 438.029342 200.659613 
L 438.029342 200.659613 
" clip-path="url(#pe4ce8f5236)" style="fill: none; stroke-dasharray: 5.55,2.4; stroke-dashoffset: 0; stroke: #ff0000; stroke-width: 1.5"/>
   </g>
   <g id="line2d_39">
    <path d="M 73.057416 143.374199 
L 74.434668 143.514161 
L 75.811921 146.19202 
L 77.189173 149.284667 
L 78.566426 153.005595 
L 79.943679 148.326851 
L 81.320931 145.966951 
L 82.698184 146.553078 
L 84.075436 148.844854 
L 85.452689 151.998554 
L 86.829941 152.138952 
L 88.207194 150.607461 
L 89.584446 150.157801 
L 90.961699 149.956476 
L 92.338951 149.919061 
L 93.716204 152.210354 
L 95.093457 163.648488 
L 96.470709 152.101899 
L 97.847962 150.182264 
L 99.225214 148.985716 
L 100.602467 149.881796 
L 101.979719 154.217264 
L 103.356972 155.509494 
L 104.734224 149.821662 
L 106.111477 147.637787 
L 107.48873 146.948866 
L 108.865982 147.64705 
L 110.243235 150.214133 
L 111.620487 153.076764 
L 112.99774 152.645006 
L 114.374992 153.686709 
L 115.752245 152.942168 
L 117.129497 151.915233 
L 119.884003 153.89988 
L 121.261255 155.420725 
L 122.638508 160.477153 
L 124.01576 162.834106 
L 125.393013 157.741129 
L 126.770265 158.699783 
L 128.147518 157.842913 
L 129.52477 154.266561 
L 130.902023 153.150426 
L 133.656528 152.275092 
L 135.033781 152.689426 
L 136.411033 154.817626 
L 137.788286 161.051828 
L 139.165538 157.61234 
L 140.542791 154.939605 
L 141.920043 157.300766 
L 143.297296 163.168014 
L 144.674548 157.982506 
L 146.051801 157.71435 
L 147.429054 158.764061 
L 148.806306 158.306555 
L 150.183559 155.893014 
L 151.560811 156.559254 
L 152.938064 162.155718 
L 154.315316 170.412114 
L 155.692569 162.780394 
L 157.069821 158.619454 
L 158.447074 157.895769 
L 159.824326 158.284438 
L 161.201579 158.152938 
L 162.578832 158.747112 
L 163.956084 161.571555 
L 165.333337 165.195086 
L 166.710589 163.753357 
L 168.087842 159.708407 
L 169.465094 156.49432 
L 170.842347 154.997788 
L 172.219599 154.891835 
L 173.596852 156.147707 
L 174.974105 158.375564 
L 176.351357 158.516575 
L 177.72861 156.277053 
L 179.105862 154.547926 
L 180.483115 154.053741 
L 181.860367 154.786857 
L 183.23762 156.801382 
L 184.614872 157.753558 
L 185.992125 154.568556 
L 187.369377 153.080079 
L 188.74663 153.212104 
L 190.123883 154.356479 
L 192.878388 159.871195 
L 194.25564 157.939508 
L 195.632893 156.755487 
L 197.010145 156.725684 
L 198.387398 157.442573 
L 199.76465 158.746624 
L 201.141903 159.34187 
L 202.519156 158.273476 
L 203.896408 157.355431 
L 205.273661 156.843015 
L 206.650913 156.912562 
L 208.028166 158.148969 
L 209.405418 160.542564 
L 210.782671 161.316668 
L 212.159923 159.854781 
L 213.537176 159.016502 
L 214.914428 159.266803 
L 216.291681 161.060177 
L 217.668934 165.735472 
L 219.046186 166.747637 
L 220.423439 162.180233 
L 221.800691 160.62398 
L 223.177944 160.954621 
L 224.555196 163.131162 
L 225.932449 166.239428 
L 227.309701 164.578397 
L 228.686954 162.151833 
L 230.064207 160.901625 
L 231.441459 160.890551 
L 232.818712 162.30318 
L 234.195964 164.979438 
L 235.573217 166.477299 
L 236.950469 165.504882 
L 238.327722 164.158248 
L 239.704974 163.742097 
L 241.082227 165.13806 
L 242.45948 169.002929 
L 243.836732 170.040453 
L 245.213985 166.166159 
L 246.591237 164.540361 
L 247.96849 164.611553 
L 249.345742 166.208051 
L 250.722995 168.531513 
L 252.100247 168.454796 
L 253.4775 166.993898 
L 254.854752 165.999853 
L 256.232005 165.858767 
L 257.609258 166.887948 
L 258.98651 169.275399 
L 260.363763 172.218727 
L 261.741015 172.702616 
L 263.118268 172.595537 
L 264.49552 173.651696 
L 265.872773 175.836954 
L 267.250025 181.372247 
L 268.627278 179.371837 
L 270.004531 172.789285 
L 271.381783 170.195545 
L 272.759036 169.297274 
L 274.136288 169.357836 
L 275.513541 169.820611 
L 276.890793 170.15842 
L 278.268046 169.986485 
L 279.645298 169.292514 
L 281.022551 168.471164 
L 282.399803 167.985781 
L 283.777056 168.157653 
L 285.154309 169.092982 
L 286.531561 170.460879 
L 287.908814 171.288784 
L 289.286066 170.849716 
L 290.663319 169.862506 
L 292.040571 169.448049 
L 293.417824 169.9862 
L 294.795076 171.099035 
L 296.172329 171.778893 
L 297.549582 171.466275 
L 298.926834 170.826073 
L 300.304087 170.675784 
L 301.681339 171.255638 
L 303.058592 172.213345 
L 304.435844 172.798488 
L 305.813097 172.683595 
L 307.190349 172.446184 
L 308.567602 172.768973 
L 309.944854 173.934659 
L 311.322107 175.379465 
L 312.69936 175.620638 
L 314.076612 175.213643 
L 315.453865 175.260764 
L 316.831117 175.784512 
L 318.20837 176.45533 
L 319.585622 176.886548 
L 320.962875 177.181978 
L 322.340127 177.94297 
L 325.094633 181.078989 
L 326.471885 181.29541 
L 329.22639 178.756548 
L 330.603643 178.331987 
L 331.980895 178.785889 
L 333.358148 180.167408 
L 334.7354 182.274246 
L 336.112653 182.942626 
L 337.489905 181.160856 
L 338.867158 179.890446 
L 340.244411 180.44008 
L 341.621663 183.847038 
L 342.998916 197.842009 
L 344.376168 187.936347 
L 345.753421 186.841674 
L 347.130673 187.603562 
L 348.507926 187.038512 
L 351.262431 183.42077 
L 352.639684 182.022467 
L 354.016936 180.987053 
L 355.394189 180.411328 
L 356.771441 180.293667 
L 359.525946 181.073041 
L 360.903199 180.718705 
L 363.657704 179.021115 
L 365.034957 178.660384 
L 366.412209 179.065512 
L 367.789462 180.029815 
L 369.166714 180.747196 
L 370.543967 180.806319 
L 371.921219 180.621856 
L 373.298472 180.774249 
L 374.675724 181.682373 
L 376.052977 182.951573 
L 377.430229 183.222393 
L 378.807482 182.958277 
L 380.184735 183.257909 
L 381.561987 184.171525 
L 382.93924 185.330567 
L 384.316492 185.818782 
L 385.693745 185.36574 
L 387.070997 185.268732 
L 388.44825 186.601806 
L 391.202755 194.601432 
L 392.580008 189.434905 
L 393.95726 187.425583 
L 395.334513 186.645247 
L 396.711765 186.378473 
L 398.089018 184.525562 
L 399.46627 182.24988 
L 400.843523 181.045982 
L 402.220775 180.77797 
L 403.598028 181.137472 
L 404.97528 181.851156 
L 406.352533 182.087388 
L 409.107038 180.480112 
L 410.484291 180.402838 
L 411.861543 181.146309 
L 413.238796 182.302906 
L 414.616048 183.133412 
L 417.370553 183.683457 
L 418.747806 184.516741 
L 420.125059 185.81555 
L 421.502311 186.515823 
L 422.879564 185.856803 
L 424.256816 185.026765 
L 425.634069 185.155653 
L 427.011321 186.665782 
L 428.388574 189.622505 
L 429.765826 193.254787 
L 431.143079 193.385737 
L 432.520331 190.548802 
L 433.897584 188.763921 
L 435.274837 188.124898 
L 436.652089 188.028164 
L 438.029342 188.066591 
L 438.029342 188.066591 
" clip-path="url(#pe4ce8f5236)" style="fill: none; stroke-dasharray: 5.55,2.4; stroke-dashoffset: 0; stroke: #800080; stroke-width: 1.5"/>
   </g>
   <g id="line2d_40">
    <path d="M 73.057416 143.027276 
L 74.434668 142.824751 
L 77.189173 146.97524 
L 78.566426 153.125817 
L 79.943679 147.297212 
L 81.320931 144.88329 
L 82.698184 145.69737 
L 84.075436 147.391422 
L 85.452689 151.794685 
L 86.829941 153.647059 
L 88.207194 149.333204 
L 89.584446 148.616333 
L 90.961699 148.972924 
L 92.338951 148.706824 
L 93.716204 149.958716 
L 95.093457 155.022144 
L 96.470709 150.428907 
L 97.847962 149.613456 
L 99.225214 148.545505 
L 100.602467 149.307437 
L 101.979719 154.458534 
L 103.356972 155.136208 
L 104.734224 147.933006 
L 106.111477 145.120963 
L 107.48873 144.441965 
L 108.865982 145.991517 
L 110.243235 149.777931 
L 111.620487 150.794344 
L 112.99774 150.760514 
L 114.374992 155.889397 
L 115.752245 151.259147 
L 117.129497 149.442305 
L 118.50675 150.843334 
L 119.884003 151.36883 
L 121.261255 152.387535 
L 122.638508 157.154614 
L 124.01576 157.094394 
L 125.393013 153.649724 
L 126.770265 153.06805 
L 128.147518 152.981603 
L 129.52477 151.392799 
L 130.902023 151.209797 
L 132.279275 150.89475 
L 133.656528 149.619299 
L 135.033781 149.584613 
L 136.411033 151.761113 
L 137.788286 159.038487 
L 139.165538 154.503245 
L 140.542791 151.553062 
L 141.920043 154.824358 
L 143.297296 158.442226 
L 144.674548 153.019845 
L 146.051801 153.623435 
L 147.429054 158.179304 
L 148.806306 155.369223 
L 150.183559 150.707952 
L 151.560811 151.35895 
L 152.938064 156.624324 
L 154.315316 161.399985 
L 155.692569 156.872243 
L 157.069821 154.040274 
L 158.447074 154.193375 
L 159.824326 155.956933 
L 161.201579 155.705391 
L 162.578832 155.959676 
L 163.956084 160.053633 
L 165.333337 160.219811 
L 166.710589 159.79101 
L 168.087842 163.45826 
L 169.465094 154.86718 
L 170.842347 152.351026 
L 172.219599 151.986002 
L 173.596852 153.061562 
L 174.974105 155.016781 
L 176.351357 155.957461 
L 177.72861 153.786365 
L 179.105862 151.904398 
L 180.483115 152.262582 
L 181.860367 153.975155 
L 183.23762 155.459033 
L 184.614872 155.730787 
L 185.992125 152.289493 
L 187.369377 150.895035 
L 188.74663 151.230451 
L 190.123883 152.034987 
L 191.501135 154.063534 
L 192.878388 156.376463 
L 194.25564 155.121849 
L 195.632893 154.366786 
L 197.010145 154.751319 
L 198.387398 155.278195 
L 199.76465 155.239344 
L 202.519156 154.337534 
L 203.896408 154.606167 
L 205.273661 154.521989 
L 206.650913 154.194902 
L 208.028166 154.963953 
L 209.405418 156.867185 
L 210.782671 157.816196 
L 212.159923 156.971567 
L 213.537176 156.320461 
L 214.914428 156.916607 
L 216.291681 159.453108 
L 217.668934 165.671372 
L 219.046186 165.523424 
L 220.423439 159.946601 
L 221.800691 157.383129 
L 223.177944 157.082463 
L 224.555196 158.958048 
L 225.932449 161.855082 
L 227.309701 162.192354 
L 228.686954 160.824684 
L 230.064207 158.678105 
L 231.441459 157.859065 
L 232.818712 158.875657 
L 235.573217 163.976138 
L 236.950469 164.742763 
L 238.327722 161.992694 
L 239.704974 160.670512 
L 241.082227 162.093946 
L 242.45948 165.488452 
L 243.836732 165.520519 
L 245.213985 162.755116 
L 246.591237 161.300255 
L 247.96849 161.191693 
L 249.345742 162.349992 
L 250.722995 164.100789 
L 252.100247 164.910197 
L 253.4775 164.559535 
L 254.854752 163.345632 
L 256.232005 162.642868 
L 257.609258 163.2929 
L 258.98651 165.412784 
L 260.363763 168.497252 
L 261.741015 171.271232 
L 263.118268 175.08696 
L 264.49552 173.704893 
L 265.872773 171.782974 
L 267.250025 173.948574 
L 268.627278 173.771392 
L 270.004531 168.417912 
L 271.381783 166.306844 
L 272.759036 165.992122 
L 275.513541 167.073447 
L 276.890793 166.839005 
L 281.022551 165.035852 
L 282.399803 164.714581 
L 283.777056 164.654444 
L 285.154309 165.22443 
L 287.908814 168.0614 
L 289.286066 168.123458 
L 290.663319 167.060177 
L 292.040571 166.331366 
L 293.417824 166.592085 
L 296.172329 168.995536 
L 297.549582 169.120083 
L 298.926834 168.351659 
L 300.304087 168.138773 
L 301.681339 169.144105 
L 303.058592 171.098082 
L 304.435844 171.756085 
L 305.813097 170.525063 
L 307.190349 169.878175 
L 308.567602 170.591389 
L 309.944854 173.440484 
L 311.322107 179.333622 
L 312.69936 174.561242 
L 314.076612 172.567006 
L 315.453865 172.925276 
L 316.831117 174.544594 
L 318.20837 176.46519 
L 319.585622 177.190792 
L 320.962875 176.826365 
L 322.340127 177.312019 
L 325.094633 181.598493 
L 326.471885 180.843325 
L 327.849138 177.740707 
L 329.22639 174.986096 
L 330.603643 173.684655 
L 331.980895 173.665824 
L 333.358148 174.983783 
L 334.7354 178.563398 
L 336.112653 192.377586 
L 337.489905 178.417725 
L 338.867158 175.377581 
L 340.244411 175.11213 
L 341.621663 177.169791 
L 342.998916 179.878906 
L 344.376168 178.618591 
L 345.753421 178.411628 
L 347.130673 179.942554 
L 348.507926 183.279887 
L 349.885178 194.038214 
L 351.262431 185.055906 
L 352.639684 180.712989 
L 354.016936 178.803245 
L 355.394189 178.209681 
L 356.771441 178.189055 
L 358.148694 178.642039 
L 360.903199 180.892691 
L 362.280451 181.604079 
L 363.657704 180.127246 
L 365.034957 178.352818 
L 366.412209 177.984733 
L 367.789462 179.107101 
L 369.166714 181.135196 
L 370.543967 183.769839 
L 371.921219 184.054704 
L 373.298472 180.578263 
L 374.675724 179.541485 
L 376.052977 180.061943 
L 377.430229 179.584255 
L 378.807482 179.451758 
L 380.184735 181.820107 
L 381.561987 186.789322 
L 384.316492 180.783863 
L 385.693745 179.352796 
L 387.070997 179.508631 
L 388.44825 181.485592 
L 389.825502 185.486225 
L 391.202755 192.237493 
L 392.580008 194.783354 
L 393.95726 188.943096 
L 395.334513 186.147026 
L 396.711765 185.567931 
L 398.089018 183.942128 
L 399.46627 180.480278 
L 400.843523 178.322428 
L 402.220775 177.402347 
L 403.598028 177.401764 
L 404.97528 178.317377 
L 406.352533 179.761825 
L 407.729786 179.771038 
L 409.107038 178.487142 
L 410.484291 177.858792 
L 411.861543 178.195441 
L 413.238796 179.032878 
L 414.616048 179.675241 
L 415.993301 179.982515 
L 417.370553 180.562818 
L 418.747806 182.076961 
L 420.125059 184.472779 
L 421.502311 185.80144 
L 422.879564 184.00747 
L 424.256816 181.854165 
L 425.634069 181.222612 
L 427.011321 182.346279 
L 428.388574 185.151017 
L 429.765826 189.846977 
L 431.143079 196.633927 
L 432.520331 189.974618 
L 433.897584 188.074894 
L 435.274837 188.558245 
L 436.652089 188.492105 
L 438.029342 187.321808 
L 438.029342 187.321808 
" clip-path="url(#pe4ce8f5236)" style="fill: none; stroke-dasharray: 5.55,2.4; stroke-dashoffset: 0; stroke: #ffa500; stroke-width: 1.5"/>
   </g>
   <g id="patch_8">
    <path d="M 73.058741 224.64 
L 73.058741 129.124597 
" style="fill: none; stroke: #000000; stroke-width: 0.8; stroke-linejoin: miter; stroke-linecap: square"/>
   </g>
   <g id="patch_9">
    <path d="M 436.77 224.64 
L 436.77 129.124597 
" style="fill: none; stroke: #000000; stroke-width: 0.8; stroke-linejoin: miter; stroke-linecap: square"/>
   </g>
   <g id="patch_10">
    <path d="M 73.058741 224.64 
L 436.77 224.64 
" style="fill: none; stroke: #000000; stroke-width: 0.8; stroke-linejoin: miter; stroke-linecap: square"/>
   </g>
   <g id="patch_11">
    <path d="M 73.058741 129.124597 
L 436.77 129.124597 
" style="fill: none; stroke: #000000; stroke-width: 0.8; stroke-linejoin: miter; stroke-linecap: square"/>
   </g>
  </g>
  <g id="legend_1">
   <g id="patch_12">
    <path d="M 10.002812 338.6 
L 450.797188 338.6 
Q 453.597188 338.6 453.597188 335.8 
L 453.597188 275.551875 
Q 453.597188 272.751875 450.797188 272.751875 
L 10.002812 272.751875 
Q 7.202812 272.751875 7.202812 275.551875 
L 7.202812 335.8 
Q 7.202812 338.6 10.002812 338.6 
z
" style="fill: #ffffff; opacity: 0.8; stroke: #cccccc; stroke-linejoin: miter"/>
   </g>
   <g id="line2d_41">
    <path d="M 12.802812 284.089687 
L 26.802812 284.089687 
L 40.802812 284.089687 
" style="fill: none; stroke: #000000; stroke-width: 1.5; stroke-linecap: square"/>
   </g>
   <g id="text_22">
    <!-- DVR -->
    <g transform="translate(52.002812 288.989687) scale(0.14 -0.14)">
     <defs>
      <path id="DejaVuSans-44" d="M 1259 4147 
L 1259 519 
L 2022 519 
Q 2988 519 3436 956 
Q 3884 1394 3884 2338 
Q 3884 3275 3436 3711 
Q 2988 4147 2022 4147 
L 1259 4147 
z
M 628 4666 
L 1925 4666 
Q 3281 4666 3915 4102 
Q 4550 3538 4550 2338 
Q 4550 1131 3912 565 
Q 3275 0 1925 0 
L 628 0 
L 628 4666 
z
" transform="scale(0.015625)"/>
      <path id="DejaVuSans-56" d="M 1831 0 
L 50 4666 
L 709 4666 
L 2188 738 
L 3669 4666 
L 4325 4666 
L 2547 0 
L 1831 0 
z
" transform="scale(0.015625)"/>
      <path id="DejaVuSans-52" d="M 2841 2188 
Q 3044 2119 3236 1894 
Q 3428 1669 3622 1275 
L 4263 0 
L 3584 0 
L 2988 1197 
Q 2756 1666 2539 1819 
Q 2322 1972 1947 1972 
L 1259 1972 
L 1259 0 
L 628 0 
L 628 4666 
L 2053 4666 
Q 2853 4666 3247 4331 
Q 3641 3997 3641 3322 
Q 3641 2881 3436 2590 
Q 3231 2300 2841 2188 
z
M 1259 4147 
L 1259 2491 
L 2053 2491 
Q 2509 2491 2742 2702 
Q 2975 2913 2975 3322 
Q 2975 3731 2742 3939 
Q 2509 4147 2053 4147 
L 1259 4147 
z
" transform="scale(0.015625)"/>
     </defs>
     <use xlink:href="#DejaVuSans-44"/>
     <use xlink:href="#DejaVuSans-56" x="75.251953"/>
     <use xlink:href="#DejaVuSans-52" x="143.660156"/>
    </g>
   </g>
   <g id="line2d_42">
    <path d="M 12.802812 304.639062 
L 26.802812 304.639062 
L 40.802812 304.639062 
" style="fill: none; stroke-dasharray: 5.55,2.4; stroke-dashoffset: 0; stroke: #ff0000; stroke-width: 1.5"/>
   </g>
   <g id="text_23">
    <!-- Rothe ($M_{max}=181$) -->
    <g transform="translate(52.002812 309.539062) scale(0.14 -0.14)">
     <defs>
      <path id="DejaVuSans-68" d="M 3513 2113 
L 3513 0 
L 2938 0 
L 2938 2094 
Q 2938 2591 2744 2837 
Q 2550 3084 2163 3084 
Q 1697 3084 1428 2787 
Q 1159 2491 1159 1978 
L 1159 0 
L 581 0 
L 581 4863 
L 1159 4863 
L 1159 2956 
Q 1366 3272 1645 3428 
Q 1925 3584 2291 3584 
Q 2894 3584 3203 3211 
Q 3513 2838 3513 2113 
z
" transform="scale(0.015625)"/>
      <path id="DejaVuSans-28" d="M 1984 4856 
Q 1566 4138 1362 3434 
Q 1159 2731 1159 2009 
Q 1159 1288 1364 580 
Q 1569 -128 1984 -844 
L 1484 -844 
Q 1016 -109 783 600 
Q 550 1309 550 2009 
Q 550 2706 781 3412 
Q 1013 4119 1484 4856 
L 1984 4856 
z
" transform="scale(0.015625)"/>
      <path id="DejaVuSans-Oblique-4d" d="M 1081 4666 
L 2028 4666 
L 2572 1522 
L 4378 4666 
L 5350 4666 
L 4441 0 
L 3828 0 
L 4622 4091 
L 2791 897 
L 2175 897 
L 1581 4103 
L 788 0 
L 172 0 
L 1081 4666 
z
" transform="scale(0.015625)"/>
      <path id="DejaVuSans-Oblique-6d" d="M 5747 2113 
L 5338 0 
L 4763 0 
L 5166 2094 
Q 5191 2228 5203 2325 
Q 5216 2422 5216 2491 
Q 5216 2772 5059 2928 
Q 4903 3084 4622 3084 
Q 4203 3084 3875 2770 
Q 3547 2456 3450 1953 
L 3066 0 
L 2491 0 
L 2900 2094 
Q 2925 2209 2937 2307 
Q 2950 2406 2950 2484 
Q 2950 2769 2794 2926 
Q 2638 3084 2363 3084 
Q 1938 3084 1609 2770 
Q 1281 2456 1184 1953 
L 800 0 
L 225 0 
L 909 3500 
L 1484 3500 
L 1375 2956 
Q 1609 3263 1923 3423 
Q 2238 3584 2597 3584 
Q 2978 3584 3223 3384 
Q 3469 3184 3519 2828 
Q 3781 3197 4126 3390 
Q 4472 3584 4856 3584 
Q 5306 3584 5551 3325 
Q 5797 3066 5797 2591 
Q 5797 2488 5784 2364 
Q 5772 2241 5747 2113 
z
" transform="scale(0.015625)"/>
      <path id="DejaVuSans-Oblique-61" d="M 3438 1997 
L 3047 0 
L 2472 0 
L 2578 531 
Q 2325 219 2001 64 
Q 1678 -91 1281 -91 
Q 834 -91 548 182 
Q 263 456 263 884 
Q 263 1497 752 1853 
Q 1241 2209 2100 2209 
L 2900 2209 
L 2931 2363 
Q 2938 2388 2941 2417 
Q 2944 2447 2944 2509 
Q 2944 2788 2717 2942 
Q 2491 3097 2081 3097 
Q 1800 3097 1504 3025 
Q 1209 2953 897 2809 
L 997 3341 
Q 1322 3463 1633 3523 
Q 1944 3584 2234 3584 
Q 2853 3584 3176 3315 
Q 3500 3047 3500 2534 
Q 3500 2431 3484 2292 
Q 3469 2153 3438 1997 
z
M 2816 1759 
L 2241 1759 
Q 1534 1759 1195 1570 
Q 856 1381 856 984 
Q 856 709 1029 553 
Q 1203 397 1509 397 
Q 1978 397 2328 733 
Q 2678 1069 2791 1631 
L 2816 1759 
z
" transform="scale(0.015625)"/>
      <path id="DejaVuSans-Oblique-78" d="M 3841 3500 
L 2234 1784 
L 3219 0 
L 2559 0 
L 1819 1388 
L 531 0 
L -166 0 
L 1556 1844 
L 641 3500 
L 1300 3500 
L 1972 2234 
L 3144 3500 
L 3841 3500 
z
" transform="scale(0.015625)"/>
      <path id="DejaVuSans-3d" d="M 678 2906 
L 4684 2906 
L 4684 2381 
L 678 2381 
L 678 2906 
z
M 678 1631 
L 4684 1631 
L 4684 1100 
L 678 1100 
L 678 1631 
z
" transform="scale(0.015625)"/>
      <path id="DejaVuSans-29" d="M 513 4856 
L 1013 4856 
Q 1481 4119 1714 3412 
Q 1947 2706 1947 2009 
Q 1947 1309 1714 600 
Q 1481 -109 1013 -844 
L 513 -844 
Q 928 -128 1133 580 
Q 1338 1288 1338 2009 
Q 1338 2731 1133 3434 
Q 928 4138 513 4856 
z
" transform="scale(0.015625)"/>
     </defs>
     <use xlink:href="#DejaVuSans-52" transform="translate(0 0.015625)"/>
     <use xlink:href="#DejaVuSans-6f" transform="translate(69.482422 0.015625)"/>
     <use xlink:href="#DejaVuSans-74" transform="translate(130.664062 0.015625)"/>
     <use xlink:href="#DejaVuSans-68" transform="translate(169.873047 0.015625)"/>
     <use xlink:href="#DejaVuSans-65" transform="translate(233.251953 0.015625)"/>
     <use xlink:href="#DejaVuSans-20" transform="translate(294.775391 0.015625)"/>
     <use xlink:href="#DejaVuSans-28" transform="translate(326.5625 0.015625)"/>
     <use xlink:href="#DejaVuSans-Oblique-4d" transform="translate(365.576172 0.015625)"/>
     <use xlink:href="#DejaVuSans-Oblique-6d" transform="translate(451.855469 -16.390625) scale(0.7)"/>
     <use xlink:href="#DejaVuSans-Oblique-61" transform="translate(520.043945 -16.390625) scale(0.7)"/>
     <use xlink:href="#DejaVuSans-Oblique-78" transform="translate(562.939453 -16.390625) scale(0.7)"/>
     <use xlink:href="#DejaVuSans-3d" transform="translate(626.582031 0.015625)"/>
     <use xlink:href="#DejaVuSans-31" transform="translate(729.853516 0.015625)"/>
     <use xlink:href="#DejaVuSans-38" transform="translate(793.476562 0.015625)"/>
     <use xlink:href="#DejaVuSans-31" transform="translate(857.099609 0.015625)"/>
     <use xlink:href="#DejaVuSans-29" transform="translate(920.722656 0.015625)"/>
    </g>
   </g>
   <g id="line2d_43">
    <path d="M 12.802812 325.188437 
L 26.802812 325.188437 
L 40.802812 325.188437 
" style="fill: none; stroke-dasharray: 5.55,2.4; stroke-dashoffset: 0; stroke: #008000; stroke-width: 1.5"/>
   </g>
   <g id="text_24">
    <!-- Rothe ($M_{max}=118$) -->
    <g transform="translate(52.002812 330.088437) scale(0.14 -0.14)">
     <use xlink:href="#DejaVuSans-52" transform="translate(0 0.015625)"/>
     <use xlink:href="#DejaVuSans-6f" transform="translate(69.482422 0.015625)"/>
     <use xlink:href="#DejaVuSans-74" transform="translate(130.664062 0.015625)"/>
     <use xlink:href="#DejaVuSans-68" transform="translate(169.873047 0.015625)"/>
     <use xlink:href="#DejaVuSans-65" transform="translate(233.251953 0.015625)"/>
     <use xlink:href="#DejaVuSans-20" transform="translate(294.775391 0.015625)"/>
     <use xlink:href="#DejaVuSans-28" transform="translate(326.5625 0.015625)"/>
     <use xlink:href="#DejaVuSans-Oblique-4d" transform="translate(365.576172 0.015625)"/>
     <use xlink:href="#DejaVuSans-Oblique-6d" transform="translate(451.855469 -16.390625) scale(0.7)"/>
     <use xlink:href="#DejaVuSans-Oblique-61" transform="translate(520.043945 -16.390625) scale(0.7)"/>
     <use xlink:href="#DejaVuSans-Oblique-78" transform="translate(562.939453 -16.390625) scale(0.7)"/>
     <use xlink:href="#DejaVuSans-3d" transform="translate(626.582031 0.015625)"/>
     <use xlink:href="#DejaVuSans-31" transform="translate(729.853516 0.015625)"/>
     <use xlink:href="#DejaVuSans-31" transform="translate(793.476562 0.015625)"/>
     <use xlink:href="#DejaVuSans-38" transform="translate(857.099609 0.015625)"/>
     <use xlink:href="#DejaVuSans-29" transform="translate(920.722656 0.015625)"/>
    </g>
   </g>
   <g id="line2d_44">
    <path d="M 214.402813 284.089687 
L 228.402813 284.089687 
L 242.402813 284.089687 
" style="fill: none; stroke-dasharray: 5.55,2.4; stroke-dashoffset: 0; stroke: #0000ff; stroke-width: 1.5"/>
   </g>
   <g id="text_25">
    <!-- Rothe ($M_{max}=72$) -->
    <g transform="translate(253.602813 288.989687) scale(0.14 -0.14)">
     <use xlink:href="#DejaVuSans-52" transform="translate(0 0.015625)"/>
     <use xlink:href="#DejaVuSans-6f" transform="translate(69.482422 0.015625)"/>
     <use xlink:href="#DejaVuSans-74" transform="translate(130.664062 0.015625)"/>
     <use xlink:href="#DejaVuSans-68" transform="translate(169.873047 0.015625)"/>
     <use xlink:href="#DejaVuSans-65" transform="translate(233.251953 0.015625)"/>
     <use xlink:href="#DejaVuSans-20" transform="translate(294.775391 0.015625)"/>
     <use xlink:href="#DejaVuSans-28" transform="translate(326.5625 0.015625)"/>
     <use xlink:href="#DejaVuSans-Oblique-4d" transform="translate(365.576172 0.015625)"/>
     <use xlink:href="#DejaVuSans-Oblique-6d" transform="translate(451.855469 -16.390625) scale(0.7)"/>
     <use xlink:href="#DejaVuSans-Oblique-61" transform="translate(520.043945 -16.390625) scale(0.7)"/>
     <use xlink:href="#DejaVuSans-Oblique-78" transform="translate(562.939453 -16.390625) scale(0.7)"/>
     <use xlink:href="#DejaVuSans-3d" transform="translate(626.582031 0.015625)"/>
     <use xlink:href="#DejaVuSans-37" transform="translate(729.853516 0.015625)"/>
     <use xlink:href="#DejaVuSans-32" transform="translate(793.476562 0.015625)"/>
     <use xlink:href="#DejaVuSans-29" transform="translate(857.099609 0.015625)"/>
    </g>
   </g>
   <g id="line2d_45">
    <path d="M 214.402813 304.639062 
L 228.402813 304.639062 
L 242.402813 304.639062 
" style="fill: none; stroke-dasharray: 5.55,2.4; stroke-dashoffset: 0; stroke: #800080; stroke-width: 1.5"/>
   </g>
   <g id="text_26">
    <!-- 6-aug-ccPVTZ+8K (HLM) -->
    <g transform="translate(253.602813 309.539062) scale(0.14 -0.14)">
     <defs>
      <path id="DejaVuSans-2d" d="M 313 2009 
L 1997 2009 
L 1997 1497 
L 313 1497 
L 313 2009 
z
" transform="scale(0.015625)"/>
      <path id="DejaVuSans-75" d="M 544 1381 
L 544 3500 
L 1119 3500 
L 1119 1403 
Q 1119 906 1312 657 
Q 1506 409 1894 409 
Q 2359 409 2629 706 
Q 2900 1003 2900 1516 
L 2900 3500 
L 3475 3500 
L 3475 0 
L 2900 0 
L 2900 538 
Q 2691 219 2414 64 
Q 2138 -91 1772 -91 
Q 1169 -91 856 284 
Q 544 659 544 1381 
z
M 1991 3584 
L 1991 3584 
z
" transform="scale(0.015625)"/>
      <path id="DejaVuSans-67" d="M 2906 1791 
Q 2906 2416 2648 2759 
Q 2391 3103 1925 3103 
Q 1463 3103 1205 2759 
Q 947 2416 947 1791 
Q 947 1169 1205 825 
Q 1463 481 1925 481 
Q 2391 481 2648 825 
Q 2906 1169 2906 1791 
z
M 3481 434 
Q 3481 -459 3084 -895 
Q 2688 -1331 1869 -1331 
Q 1566 -1331 1297 -1286 
Q 1028 -1241 775 -1147 
L 775 -588 
Q 1028 -725 1275 -790 
Q 1522 -856 1778 -856 
Q 2344 -856 2625 -561 
Q 2906 -266 2906 331 
L 2906 616 
Q 2728 306 2450 153 
Q 2172 0 1784 0 
Q 1141 0 747 490 
Q 353 981 353 1791 
Q 353 2603 747 3093 
Q 1141 3584 1784 3584 
Q 2172 3584 2450 3431 
Q 2728 3278 2906 2969 
L 2906 3500 
L 3481 3500 
L 3481 434 
z
" transform="scale(0.015625)"/>
      <path id="DejaVuSans-50" d="M 1259 4147 
L 1259 2394 
L 2053 2394 
Q 2494 2394 2734 2622 
Q 2975 2850 2975 3272 
Q 2975 3691 2734 3919 
Q 2494 4147 2053 4147 
L 1259 4147 
z
M 628 4666 
L 2053 4666 
Q 2838 4666 3239 4311 
Q 3641 3956 3641 3272 
Q 3641 2581 3239 2228 
Q 2838 1875 2053 1875 
L 1259 1875 
L 1259 0 
L 628 0 
L 628 4666 
z
" transform="scale(0.015625)"/>
      <path id="DejaVuSans-54" d="M -19 4666 
L 3928 4666 
L 3928 4134 
L 2272 4134 
L 2272 0 
L 1638 0 
L 1638 4134 
L -19 4134 
L -19 4666 
z
" transform="scale(0.015625)"/>
      <path id="DejaVuSans-5a" d="M 359 4666 
L 4025 4666 
L 4025 4184 
L 1075 531 
L 4097 531 
L 4097 0 
L 288 0 
L 288 481 
L 3238 4134 
L 359 4134 
L 359 4666 
z
" transform="scale(0.015625)"/>
      <path id="DejaVuSans-2b" d="M 2944 4013 
L 2944 2272 
L 4684 2272 
L 4684 1741 
L 2944 1741 
L 2944 0 
L 2419 0 
L 2419 1741 
L 678 1741 
L 678 2272 
L 2419 2272 
L 2419 4013 
L 2944 4013 
z
" transform="scale(0.015625)"/>
      <path id="DejaVuSans-4b" d="M 628 4666 
L 1259 4666 
L 1259 2694 
L 3353 4666 
L 4166 4666 
L 1850 2491 
L 4331 0 
L 3500 0 
L 1259 2247 
L 1259 0 
L 628 0 
L 628 4666 
z
" transform="scale(0.015625)"/>
      <path id="DejaVuSans-4c" d="M 628 4666 
L 1259 4666 
L 1259 531 
L 3531 531 
L 3531 0 
L 628 0 
L 628 4666 
z
" transform="scale(0.015625)"/>
      <path id="DejaVuSans-4d" d="M 628 4666 
L 1569 4666 
L 2759 1491 
L 3956 4666 
L 4897 4666 
L 4897 0 
L 4281 0 
L 4281 4097 
L 3078 897 
L 2444 897 
L 1241 4097 
L 1241 0 
L 628 0 
L 628 4666 
z
" transform="scale(0.015625)"/>
     </defs>
     <use xlink:href="#DejaVuSans-36"/>
     <use xlink:href="#DejaVuSans-2d" x="63.623047"/>
     <use xlink:href="#DejaVuSans-61" x="99.707031"/>
     <use xlink:href="#DejaVuSans-75" x="160.986328"/>
     <use xlink:href="#DejaVuSans-67" x="224.365234"/>
     <use xlink:href="#DejaVuSans-2d" x="287.841797"/>
     <use xlink:href="#DejaVuSans-63" x="323.925781"/>
     <use xlink:href="#DejaVuSans-63" x="378.90625"/>
     <use xlink:href="#DejaVuSans-50" x="433.886719"/>
     <use xlink:href="#DejaVuSans-56" x="494.189453"/>
     <use xlink:href="#DejaVuSans-54" x="562.597656"/>
     <use xlink:href="#DejaVuSans-5a" x="623.681641"/>
     <use xlink:href="#DejaVuSans-2b" x="692.1875"/>
     <use xlink:href="#DejaVuSans-38" x="775.976562"/>
     <use xlink:href="#DejaVuSans-4b" x="839.599609"/>
     <use xlink:href="#DejaVuSans-20" x="905.175781"/>
     <use xlink:href="#DejaVuSans-28" x="936.962891"/>
     <use xlink:href="#DejaVuSans-48" x="975.976562"/>
     <use xlink:href="#DejaVuSans-4c" x="1051.171875"/>
     <use xlink:href="#DejaVuSans-4d" x="1106.884766"/>
     <use xlink:href="#DejaVuSans-29" x="1193.164062"/>
    </g>
   </g>
   <g id="line2d_46">
    <path d="M 214.402813 325.188437 
L 228.402813 325.188437 
L 242.402813 325.188437 
" style="fill: none; stroke-dasharray: 5.55,2.4; stroke-dashoffset: 0; stroke: #ffa500; stroke-width: 1.5"/>
   </g>
   <g id="text_27">
    <!-- 6-aug-ccPVTZ+8K (no HLM) -->
    <g transform="translate(253.602813 330.088437) scale(0.14 -0.14)">
     <use xlink:href="#DejaVuSans-36"/>
     <use xlink:href="#DejaVuSans-2d" x="63.623047"/>
     <use xlink:href="#DejaVuSans-61" x="99.707031"/>
     <use xlink:href="#DejaVuSans-75" x="160.986328"/>
     <use xlink:href="#DejaVuSans-67" x="224.365234"/>
     <use xlink:href="#DejaVuSans-2d" x="287.841797"/>
     <use xlink:href="#DejaVuSans-63" x="323.925781"/>
     <use xlink:href="#DejaVuSans-63" x="378.90625"/>
     <use xlink:href="#DejaVuSans-50" x="433.886719"/>
     <use xlink:href="#DejaVuSans-56" x="494.189453"/>
     <use xlink:href="#DejaVuSans-54" x="562.597656"/>
     <use xlink:href="#DejaVuSans-5a" x="623.681641"/>
     <use xlink:href="#DejaVuSans-2b" x="692.1875"/>
     <use xlink:href="#DejaVuSans-38" x="775.976562"/>
     <use xlink:href="#DejaVuSans-4b" x="839.599609"/>
     <use xlink:href="#DejaVuSans-20" x="905.175781"/>
     <use xlink:href="#DejaVuSans-28" x="936.962891"/>
     <use xlink:href="#DejaVuSans-6e" x="975.976562"/>
     <use xlink:href="#DejaVuSans-6f" x="1039.355469"/>
     <use xlink:href="#DejaVuSans-20" x="1100.537109"/>
     <use xlink:href="#DejaVuSans-48" x="1132.324219"/>
     <use xlink:href="#DejaVuSans-4c" x="1207.519531"/>
     <use xlink:href="#DejaVuSans-4d" x="1263.232422"/>
     <use xlink:href="#DejaVuSans-29" x="1349.511719"/>
    </g>
   </g>
  </g>
 </g>
 <defs>
  <clipPath id="p7a574c3a37">
   <rect x="73.058741" y="15.12" width="363.711259" height="95.515403"/>
  </clipPath>
  <clipPath id="pe4ce8f5236">
   <rect x="73.058741" y="129.124597" width="363.711259" height="95.515403"/>
  </clipPath>
 </defs>
</svg>
