<?xml version="1.0" encoding="utf-8" standalone="no"?>
<!DOCTYPE svg PUBLIC "-//W3C//DTD SVG 1.1//EN"
  "http://www.w3.org/Graphics/SVG/1.1/DTD/svg11.dtd">
<svg xmlns:xlink="http://www.w3.org/1999/xlink" width="648pt" height="360pt" viewBox="0 0 648 360" xmlns="http://www.w3.org/2000/svg" version="1.1">
 <metadata>
  <rdf:RDF xmlns:dc="http://purl.org/dc/elements/1.1/" xmlns:cc="http://creativecommons.org/ns#" xmlns:rdf="http://www.w3.org/1999/02/22-rdf-syntax-ns#">
   <cc:Work>
    <dc:type rdf:resource="http://purl.org/dc/dcmitype/StillImage"/>
    <dc:date>2024-04-02T15:03:52.063542</dc:date>
    <dc:format>image/svg+xml</dc:format>
    <dc:creator>
     <cc:Agent>
      <dc:title>Matplotlib v3.6.1, https://matplotlib.org/</dc:title>
     </cc:Agent>
    </dc:creator>
   </cc:Work>
  </rdf:RDF>
 </metadata>
 <defs>
  <style type="text/css">*{stroke-linejoin: round; stroke-linecap: butt}</style>
 </defs>
 <g id="figure_1">
  <g id="patch_1">
   <path d="M 0 360 
L 648 360 
L 648 0 
L 0 0 
z
" style="fill: #ffffff"/>
  </g>
  <g id="axes_1">
   <g id="patch_2">
    <path d="M 97.947123 198 
L 628.56 198 
L 628.56 27.432 
L 97.947123 27.432 
z
" style="fill: #ffffff"/>
   </g>
   <g id="matplotlib.axis_1">
    <g id="xtick_1">
     <g id="line2d_1">
      <defs>
       <path id="mab0e78428d" d="M 0 0 
L 0 3.5 
" style="stroke: #000000; stroke-width: 0.8"/>
      </defs>
      <g>
       <use xlink:href="#mab0e78428d" x="97.947123" y="198" style="stroke: #000000; stroke-width: 0.8"/>
      </g>
     </g>
     <g id="text_1">
      <!-- 1 -->
      <g transform="translate(92.220873 218.677188) scale(0.18 -0.18)">
       <defs>
        <path id="DejaVuSans-31" d="M 794 531 
L 1825 531 
L 1825 4091 
L 703 3866 
L 703 4441 
L 1819 4666 
L 2450 4666 
L 2450 531 
L 3481 531 
L 3481 0 
L 794 0 
L 794 531 
z
" transform="scale(0.015625)"/>
       </defs>
       <use xlink:href="#DejaVuSans-31"/>
      </g>
     </g>
    </g>
    <g id="xtick_2">
     <g id="line2d_2">
      <g>
       <use xlink:href="#mab0e78428d" x="164.273732" y="198" style="stroke: #000000; stroke-width: 0.8"/>
      </g>
     </g>
     <g id="text_2">
      <!-- 7 -->
      <g transform="translate(158.547482 218.677188) scale(0.18 -0.18)">
       <defs>
        <path id="DejaVuSans-37" d="M 525 4666 
L 3525 4666 
L 3525 4397 
L 1831 0 
L 1172 0 
L 2766 4134 
L 525 4134 
L 525 4666 
z
" transform="scale(0.015625)"/>
       </defs>
       <use xlink:href="#DejaVuSans-37"/>
      </g>
     </g>
    </g>
    <g id="xtick_3">
     <g id="line2d_3">
      <g>
       <use xlink:href="#mab0e78428d" x="230.600342" y="198" style="stroke: #000000; stroke-width: 0.8"/>
      </g>
     </g>
     <g id="text_3">
      <!-- 13 -->
      <g transform="translate(219.147842 218.677188) scale(0.18 -0.18)">
       <defs>
        <path id="DejaVuSans-33" d="M 2597 2516 
Q 3050 2419 3304 2112 
Q 3559 1806 3559 1356 
Q 3559 666 3084 287 
Q 2609 -91 1734 -91 
Q 1441 -91 1130 -33 
Q 819 25 488 141 
L 488 750 
Q 750 597 1062 519 
Q 1375 441 1716 441 
Q 2309 441 2620 675 
Q 2931 909 2931 1356 
Q 2931 1769 2642 2001 
Q 2353 2234 1838 2234 
L 1294 2234 
L 1294 2753 
L 1863 2753 
Q 2328 2753 2575 2939 
Q 2822 3125 2822 3475 
Q 2822 3834 2567 4026 
Q 2313 4219 1838 4219 
Q 1578 4219 1281 4162 
Q 984 4106 628 3988 
L 628 4550 
Q 988 4650 1302 4700 
Q 1616 4750 1894 4750 
Q 2613 4750 3031 4423 
Q 3450 4097 3450 3541 
Q 3450 3153 3228 2886 
Q 3006 2619 2597 2516 
z
" transform="scale(0.015625)"/>
       </defs>
       <use xlink:href="#DejaVuSans-31"/>
       <use xlink:href="#DejaVuSans-33" x="63.623047"/>
      </g>
     </g>
    </g>
    <g id="xtick_4">
     <g id="line2d_4">
      <g>
       <use xlink:href="#mab0e78428d" x="296.926952" y="198" style="stroke: #000000; stroke-width: 0.8"/>
      </g>
     </g>
     <g id="text_4">
      <!-- 19 -->
      <g transform="translate(285.474452 218.677188) scale(0.18 -0.18)">
       <defs>
        <path id="DejaVuSans-39" d="M 703 97 
L 703 672 
Q 941 559 1184 500 
Q 1428 441 1663 441 
Q 2288 441 2617 861 
Q 2947 1281 2994 2138 
Q 2813 1869 2534 1725 
Q 2256 1581 1919 1581 
Q 1219 1581 811 2004 
Q 403 2428 403 3163 
Q 403 3881 828 4315 
Q 1253 4750 1959 4750 
Q 2769 4750 3195 4129 
Q 3622 3509 3622 2328 
Q 3622 1225 3098 567 
Q 2575 -91 1691 -91 
Q 1453 -91 1209 -44 
Q 966 3 703 97 
z
M 1959 2075 
Q 2384 2075 2632 2365 
Q 2881 2656 2881 3163 
Q 2881 3666 2632 3958 
Q 2384 4250 1959 4250 
Q 1534 4250 1286 3958 
Q 1038 3666 1038 3163 
Q 1038 2656 1286 2365 
Q 1534 2075 1959 2075 
z
" transform="scale(0.015625)"/>
       </defs>
       <use xlink:href="#DejaVuSans-31"/>
       <use xlink:href="#DejaVuSans-39" x="63.623047"/>
      </g>
     </g>
    </g>
    <g id="xtick_5">
     <g id="line2d_5">
      <g>
       <use xlink:href="#mab0e78428d" x="363.253561" y="198" style="stroke: #000000; stroke-width: 0.8"/>
      </g>
     </g>
     <g id="text_5">
      <!-- 25 -->
      <g transform="translate(351.801061 218.677188) scale(0.18 -0.18)">
       <defs>
        <path id="DejaVuSans-32" d="M 1228 531 
L 3431 531 
L 3431 0 
L 469 0 
L 469 531 
Q 828 903 1448 1529 
Q 2069 2156 2228 2338 
Q 2531 2678 2651 2914 
Q 2772 3150 2772 3378 
Q 2772 3750 2511 3984 
Q 2250 4219 1831 4219 
Q 1534 4219 1204 4116 
Q 875 4013 500 3803 
L 500 4441 
Q 881 4594 1212 4672 
Q 1544 4750 1819 4750 
Q 2544 4750 2975 4387 
Q 3406 4025 3406 3419 
Q 3406 3131 3298 2873 
Q 3191 2616 2906 2266 
Q 2828 2175 2409 1742 
Q 1991 1309 1228 531 
z
" transform="scale(0.015625)"/>
        <path id="DejaVuSans-35" d="M 691 4666 
L 3169 4666 
L 3169 4134 
L 1269 4134 
L 1269 2991 
Q 1406 3038 1543 3061 
Q 1681 3084 1819 3084 
Q 2600 3084 3056 2656 
Q 3513 2228 3513 1497 
Q 3513 744 3044 326 
Q 2575 -91 1722 -91 
Q 1428 -91 1123 -41 
Q 819 9 494 109 
L 494 744 
Q 775 591 1075 516 
Q 1375 441 1709 441 
Q 2250 441 2565 725 
Q 2881 1009 2881 1497 
Q 2881 1984 2565 2268 
Q 2250 2553 1709 2553 
Q 1456 2553 1204 2497 
Q 953 2441 691 2322 
L 691 4666 
z
" transform="scale(0.015625)"/>
       </defs>
       <use xlink:href="#DejaVuSans-32"/>
       <use xlink:href="#DejaVuSans-35" x="63.623047"/>
      </g>
     </g>
    </g>
    <g id="xtick_6">
     <g id="line2d_6">
      <g>
       <use xlink:href="#mab0e78428d" x="429.580171" y="198" style="stroke: #000000; stroke-width: 0.8"/>
      </g>
     </g>
     <g id="text_6">
      <!-- 31 -->
      <g transform="translate(418.127671 218.677188) scale(0.18 -0.18)">
       <use xlink:href="#DejaVuSans-33"/>
       <use xlink:href="#DejaVuSans-31" x="63.623047"/>
      </g>
     </g>
    </g>
    <g id="xtick_7">
     <g id="line2d_7">
      <g>
       <use xlink:href="#mab0e78428d" x="495.906781" y="198" style="stroke: #000000; stroke-width: 0.8"/>
      </g>
     </g>
     <g id="text_7">
      <!-- 37 -->
      <g transform="translate(484.454281 218.677188) scale(0.18 -0.18)">
       <use xlink:href="#DejaVuSans-33"/>
       <use xlink:href="#DejaVuSans-37" x="63.623047"/>
      </g>
     </g>
    </g>
    <g id="xtick_8">
     <g id="line2d_8">
      <g>
       <use xlink:href="#mab0e78428d" x="562.23339" y="198" style="stroke: #000000; stroke-width: 0.8"/>
      </g>
     </g>
     <g id="text_8">
      <!-- 43 -->
      <g transform="translate(550.78089 218.677188) scale(0.18 -0.18)">
       <defs>
        <path id="DejaVuSans-34" d="M 2419 4116 
L 825 1625 
L 2419 1625 
L 2419 4116 
z
M 2253 4666 
L 3047 4666 
L 3047 1625 
L 3713 1625 
L 3713 1100 
L 3047 1100 
L 3047 0 
L 2419 0 
L 2419 1100 
L 313 1100 
L 313 1709 
L 2253 4666 
z
" transform="scale(0.015625)"/>
       </defs>
       <use xlink:href="#DejaVuSans-34"/>
       <use xlink:href="#DejaVuSans-33" x="63.623047"/>
      </g>
     </g>
    </g>
    <g id="text_9">
     <!-- Harmonic order -->
     <g transform="translate(293.140749 240.097813) scale(0.18 -0.18)">
      <defs>
       <path id="DejaVuSans-48" d="M 628 4666 
L 1259 4666 
L 1259 2753 
L 3553 2753 
L 3553 4666 
L 4184 4666 
L 4184 0 
L 3553 0 
L 3553 2222 
L 1259 2222 
L 1259 0 
L 628 0 
L 628 4666 
z
" transform="scale(0.015625)"/>
       <path id="DejaVuSans-61" d="M 2194 1759 
Q 1497 1759 1228 1600 
Q 959 1441 959 1056 
Q 959 750 1161 570 
Q 1363 391 1709 391 
Q 2188 391 2477 730 
Q 2766 1069 2766 1631 
L 2766 1759 
L 2194 1759 
z
M 3341 1997 
L 3341 0 
L 2766 0 
L 2766 531 
Q 2569 213 2275 61 
Q 1981 -91 1556 -91 
Q 1019 -91 701 211 
Q 384 513 384 1019 
Q 384 1609 779 1909 
Q 1175 2209 1959 2209 
L 2766 2209 
L 2766 2266 
Q 2766 2663 2505 2880 
Q 2244 3097 1772 3097 
Q 1472 3097 1187 3025 
Q 903 2953 641 2809 
L 641 3341 
Q 956 3463 1253 3523 
Q 1550 3584 1831 3584 
Q 2591 3584 2966 3190 
Q 3341 2797 3341 1997 
z
" transform="scale(0.015625)"/>
       <path id="DejaVuSans-72" d="M 2631 2963 
Q 2534 3019 2420 3045 
Q 2306 3072 2169 3072 
Q 1681 3072 1420 2755 
Q 1159 2438 1159 1844 
L 1159 0 
L 581 0 
L 581 3500 
L 1159 3500 
L 1159 2956 
Q 1341 3275 1631 3429 
Q 1922 3584 2338 3584 
Q 2397 3584 2469 3576 
Q 2541 3569 2628 3553 
L 2631 2963 
z
" transform="scale(0.015625)"/>
       <path id="DejaVuSans-6d" d="M 3328 2828 
Q 3544 3216 3844 3400 
Q 4144 3584 4550 3584 
Q 5097 3584 5394 3201 
Q 5691 2819 5691 2113 
L 5691 0 
L 5113 0 
L 5113 2094 
Q 5113 2597 4934 2840 
Q 4756 3084 4391 3084 
Q 3944 3084 3684 2787 
Q 3425 2491 3425 1978 
L 3425 0 
L 2847 0 
L 2847 2094 
Q 2847 2600 2669 2842 
Q 2491 3084 2119 3084 
Q 1678 3084 1418 2786 
Q 1159 2488 1159 1978 
L 1159 0 
L 581 0 
L 581 3500 
L 1159 3500 
L 1159 2956 
Q 1356 3278 1631 3431 
Q 1906 3584 2284 3584 
Q 2666 3584 2933 3390 
Q 3200 3197 3328 2828 
z
" transform="scale(0.015625)"/>
       <path id="DejaVuSans-6f" d="M 1959 3097 
Q 1497 3097 1228 2736 
Q 959 2375 959 1747 
Q 959 1119 1226 758 
Q 1494 397 1959 397 
Q 2419 397 2687 759 
Q 2956 1122 2956 1747 
Q 2956 2369 2687 2733 
Q 2419 3097 1959 3097 
z
M 1959 3584 
Q 2709 3584 3137 3096 
Q 3566 2609 3566 1747 
Q 3566 888 3137 398 
Q 2709 -91 1959 -91 
Q 1206 -91 779 398 
Q 353 888 353 1747 
Q 353 2609 779 3096 
Q 1206 3584 1959 3584 
z
" transform="scale(0.015625)"/>
       <path id="DejaVuSans-6e" d="M 3513 2113 
L 3513 0 
L 2938 0 
L 2938 2094 
Q 2938 2591 2744 2837 
Q 2550 3084 2163 3084 
Q 1697 3084 1428 2787 
Q 1159 2491 1159 1978 
L 1159 0 
L 581 0 
L 581 3500 
L 1159 3500 
L 1159 2956 
Q 1366 3272 1645 3428 
Q 1925 3584 2291 3584 
Q 2894 3584 3203 3211 
Q 3513 2838 3513 2113 
z
" transform="scale(0.015625)"/>
       <path id="DejaVuSans-69" d="M 603 3500 
L 1178 3500 
L 1178 0 
L 603 0 
L 603 3500 
z
M 603 4863 
L 1178 4863 
L 1178 4134 
L 603 4134 
L 603 4863 
z
" transform="scale(0.015625)"/>
       <path id="DejaVuSans-63" d="M 3122 3366 
L 3122 2828 
Q 2878 2963 2633 3030 
Q 2388 3097 2138 3097 
Q 1578 3097 1268 2742 
Q 959 2388 959 1747 
Q 959 1106 1268 751 
Q 1578 397 2138 397 
Q 2388 397 2633 464 
Q 2878 531 3122 666 
L 3122 134 
Q 2881 22 2623 -34 
Q 2366 -91 2075 -91 
Q 1284 -91 818 406 
Q 353 903 353 1747 
Q 353 2603 823 3093 
Q 1294 3584 2113 3584 
Q 2378 3584 2631 3529 
Q 2884 3475 3122 3366 
z
" transform="scale(0.015625)"/>
       <path id="DejaVuSans-20" transform="scale(0.015625)"/>
       <path id="DejaVuSans-64" d="M 2906 2969 
L 2906 4863 
L 3481 4863 
L 3481 0 
L 2906 0 
L 2906 525 
Q 2725 213 2448 61 
Q 2172 -91 1784 -91 
Q 1150 -91 751 415 
Q 353 922 353 1747 
Q 353 2572 751 3078 
Q 1150 3584 1784 3584 
Q 2172 3584 2448 3432 
Q 2725 3281 2906 2969 
z
M 947 1747 
Q 947 1113 1208 752 
Q 1469 391 1925 391 
Q 2381 391 2643 752 
Q 2906 1113 2906 1747 
Q 2906 2381 2643 2742 
Q 2381 3103 1925 3103 
Q 1469 3103 1208 2742 
Q 947 2381 947 1747 
z
" transform="scale(0.015625)"/>
       <path id="DejaVuSans-65" d="M 3597 1894 
L 3597 1613 
L 953 1613 
Q 991 1019 1311 708 
Q 1631 397 2203 397 
Q 2534 397 2845 478 
Q 3156 559 3463 722 
L 3463 178 
Q 3153 47 2828 -22 
Q 2503 -91 2169 -91 
Q 1331 -91 842 396 
Q 353 884 353 1716 
Q 353 2575 817 3079 
Q 1281 3584 2069 3584 
Q 2775 3584 3186 3129 
Q 3597 2675 3597 1894 
z
M 3022 2063 
Q 3016 2534 2758 2815 
Q 2500 3097 2075 3097 
Q 1594 3097 1305 2825 
Q 1016 2553 972 2059 
L 3022 2063 
z
" transform="scale(0.015625)"/>
      </defs>
      <use xlink:href="#DejaVuSans-48"/>
      <use xlink:href="#DejaVuSans-61" x="75.195312"/>
      <use xlink:href="#DejaVuSans-72" x="136.474609"/>
      <use xlink:href="#DejaVuSans-6d" x="175.837891"/>
      <use xlink:href="#DejaVuSans-6f" x="273.25"/>
      <use xlink:href="#DejaVuSans-6e" x="334.431641"/>
      <use xlink:href="#DejaVuSans-69" x="397.810547"/>
      <use xlink:href="#DejaVuSans-63" x="425.59375"/>
      <use xlink:href="#DejaVuSans-20" x="480.574219"/>
      <use xlink:href="#DejaVuSans-6f" x="512.361328"/>
      <use xlink:href="#DejaVuSans-72" x="573.542969"/>
      <use xlink:href="#DejaVuSans-64" x="612.90625"/>
      <use xlink:href="#DejaVuSans-65" x="676.382812"/>
      <use xlink:href="#DejaVuSans-72" x="737.90625"/>
     </g>
    </g>
   </g>
   <g id="matplotlib.axis_2">
    <g id="ytick_1">
     <g id="line2d_9">
      <defs>
       <path id="m875e21e49c" d="M 0 0 
L -3.5 0 
" style="stroke: #000000; stroke-width: 0.8"/>
      </defs>
      <g>
       <use xlink:href="#m875e21e49c" x="97.947123" y="198" style="stroke: #000000; stroke-width: 0.8"/>
      </g>
     </g>
     <g id="text_10">
      <!-- $\mathdefault{10^{-10}}$ -->
      <g transform="translate(40.727123 204.838594) scale(0.18 -0.18)">
       <defs>
        <path id="DejaVuSans-30" d="M 2034 4250 
Q 1547 4250 1301 3770 
Q 1056 3291 1056 2328 
Q 1056 1369 1301 889 
Q 1547 409 2034 409 
Q 2525 409 2770 889 
Q 3016 1369 3016 2328 
Q 3016 3291 2770 3770 
Q 2525 4250 2034 4250 
z
M 2034 4750 
Q 2819 4750 3233 4129 
Q 3647 3509 3647 2328 
Q 3647 1150 3233 529 
Q 2819 -91 2034 -91 
Q 1250 -91 836 529 
Q 422 1150 422 2328 
Q 422 3509 836 4129 
Q 1250 4750 2034 4750 
z
" transform="scale(0.015625)"/>
        <path id="DejaVuSans-2212" d="M 678 2272 
L 4684 2272 
L 4684 1741 
L 678 1741 
L 678 2272 
z
" transform="scale(0.015625)"/>
       </defs>
       <use xlink:href="#DejaVuSans-31" transform="translate(0 0.765625)"/>
       <use xlink:href="#DejaVuSans-30" transform="translate(63.623047 0.765625)"/>
       <use xlink:href="#DejaVuSans-2212" transform="translate(128.203125 39.046875) scale(0.7)"/>
       <use xlink:href="#DejaVuSans-31" transform="translate(186.855469 39.046875) scale(0.7)"/>
       <use xlink:href="#DejaVuSans-30" transform="translate(231.391602 39.046875) scale(0.7)"/>
      </g>
     </g>
    </g>
    <g id="ytick_2">
     <g id="line2d_10">
      <g>
       <use xlink:href="#m875e21e49c" x="97.947123" y="141.144" style="stroke: #000000; stroke-width: 0.8"/>
      </g>
     </g>
     <g id="text_11">
      <!-- $\mathdefault{10^{-6}}$ -->
      <g transform="translate(48.647123 147.982594) scale(0.18 -0.18)">
       <defs>
        <path id="DejaVuSans-36" d="M 2113 2584 
Q 1688 2584 1439 2293 
Q 1191 2003 1191 1497 
Q 1191 994 1439 701 
Q 1688 409 2113 409 
Q 2538 409 2786 701 
Q 3034 994 3034 1497 
Q 3034 2003 2786 2293 
Q 2538 2584 2113 2584 
z
M 3366 4563 
L 3366 3988 
Q 3128 4100 2886 4159 
Q 2644 4219 2406 4219 
Q 1781 4219 1451 3797 
Q 1122 3375 1075 2522 
Q 1259 2794 1537 2939 
Q 1816 3084 2150 3084 
Q 2853 3084 3261 2657 
Q 3669 2231 3669 1497 
Q 3669 778 3244 343 
Q 2819 -91 2113 -91 
Q 1303 -91 875 529 
Q 447 1150 447 2328 
Q 447 3434 972 4092 
Q 1497 4750 2381 4750 
Q 2619 4750 2861 4703 
Q 3103 4656 3366 4563 
z
" transform="scale(0.015625)"/>
       </defs>
       <use xlink:href="#DejaVuSans-31" transform="translate(0 0.765625)"/>
       <use xlink:href="#DejaVuSans-30" transform="translate(63.623047 0.765625)"/>
       <use xlink:href="#DejaVuSans-2212" transform="translate(128.203125 39.046875) scale(0.7)"/>
       <use xlink:href="#DejaVuSans-36" transform="translate(186.855469 39.046875) scale(0.7)"/>
      </g>
     </g>
    </g>
    <g id="ytick_3">
     <g id="line2d_11">
      <g>
       <use xlink:href="#m875e21e49c" x="97.947123" y="84.288" style="stroke: #000000; stroke-width: 0.8"/>
      </g>
     </g>
     <g id="text_12">
      <!-- $\mathdefault{10^{-2}}$ -->
      <g transform="translate(48.647123 91.126594) scale(0.18 -0.18)">
       <use xlink:href="#DejaVuSans-31" transform="translate(0 0.765625)"/>
       <use xlink:href="#DejaVuSans-30" transform="translate(63.623047 0.765625)"/>
       <use xlink:href="#DejaVuSans-2212" transform="translate(128.203125 39.046875) scale(0.7)"/>
       <use xlink:href="#DejaVuSans-32" transform="translate(186.855469 39.046875) scale(0.7)"/>
      </g>
     </g>
    </g>
    <g id="ytick_4">
     <g id="line2d_12">
      <g>
       <use xlink:href="#m875e21e49c" x="97.947123" y="27.432" style="stroke: #000000; stroke-width: 0.8"/>
      </g>
     </g>
     <g id="text_13">
      <!-- $\mathdefault{10^{2}}$ -->
      <g transform="translate(59.267123 34.270594) scale(0.18 -0.18)">
       <use xlink:href="#DejaVuSans-31" transform="translate(0 0.765625)"/>
       <use xlink:href="#DejaVuSans-30" transform="translate(63.623047 0.765625)"/>
       <use xlink:href="#DejaVuSans-32" transform="translate(128.203125 39.046875) scale(0.7)"/>
      </g>
     </g>
    </g>
    <g id="text_14">
     <!-- Intensity -->
     <g transform="translate(32.983685 151.8885) rotate(-90) scale(0.18 -0.18)">
      <defs>
       <path id="DejaVuSans-49" d="M 628 4666 
L 1259 4666 
L 1259 0 
L 628 0 
L 628 4666 
z
" transform="scale(0.015625)"/>
       <path id="DejaVuSans-74" d="M 1172 4494 
L 1172 3500 
L 2356 3500 
L 2356 3053 
L 1172 3053 
L 1172 1153 
Q 1172 725 1289 603 
Q 1406 481 1766 481 
L 2356 481 
L 2356 0 
L 1766 0 
Q 1100 0 847 248 
Q 594 497 594 1153 
L 594 3053 
L 172 3053 
L 172 3500 
L 594 3500 
L 594 4494 
L 1172 4494 
z
" transform="scale(0.015625)"/>
       <path id="DejaVuSans-73" d="M 2834 3397 
L 2834 2853 
Q 2591 2978 2328 3040 
Q 2066 3103 1784 3103 
Q 1356 3103 1142 2972 
Q 928 2841 928 2578 
Q 928 2378 1081 2264 
Q 1234 2150 1697 2047 
L 1894 2003 
Q 2506 1872 2764 1633 
Q 3022 1394 3022 966 
Q 3022 478 2636 193 
Q 2250 -91 1575 -91 
Q 1294 -91 989 -36 
Q 684 19 347 128 
L 347 722 
Q 666 556 975 473 
Q 1284 391 1588 391 
Q 1994 391 2212 530 
Q 2431 669 2431 922 
Q 2431 1156 2273 1281 
Q 2116 1406 1581 1522 
L 1381 1569 
Q 847 1681 609 1914 
Q 372 2147 372 2553 
Q 372 3047 722 3315 
Q 1072 3584 1716 3584 
Q 2034 3584 2315 3537 
Q 2597 3491 2834 3397 
z
" transform="scale(0.015625)"/>
       <path id="DejaVuSans-79" d="M 2059 -325 
Q 1816 -950 1584 -1140 
Q 1353 -1331 966 -1331 
L 506 -1331 
L 506 -850 
L 844 -850 
Q 1081 -850 1212 -737 
Q 1344 -625 1503 -206 
L 1606 56 
L 191 3500 
L 800 3500 
L 1894 763 
L 2988 3500 
L 3597 3500 
L 2059 -325 
z
" transform="scale(0.015625)"/>
      </defs>
      <use xlink:href="#DejaVuSans-49"/>
      <use xlink:href="#DejaVuSans-6e" x="29.492188"/>
      <use xlink:href="#DejaVuSans-74" x="92.871094"/>
      <use xlink:href="#DejaVuSans-65" x="132.080078"/>
      <use xlink:href="#DejaVuSans-6e" x="193.603516"/>
      <use xlink:href="#DejaVuSans-73" x="256.982422"/>
      <use xlink:href="#DejaVuSans-69" x="309.082031"/>
      <use xlink:href="#DejaVuSans-74" x="336.865234"/>
      <use xlink:href="#DejaVuSans-79" x="376.074219"/>
     </g>
    </g>
   </g>
   <g id="line2d_13">
    <path d="M 97.943579 41.712193 
L 101.62721 40.246854 
L 105.31084 51.071488 
L 108.994471 80.057711 
L 112.678101 67.960696 
L 116.361732 57.992704 
L 120.045362 53.26602 
L 123.728993 53.790975 
L 127.412623 58.712753 
L 131.096254 70.010479 
L 134.779884 77.567248 
L 138.463515 63.77215 
L 142.147145 59.012641 
L 145.830776 58.706159 
L 149.514406 61.537236 
L 153.198037 66.666956 
L 156.881667 83.673569 
L 160.565298 63.682798 
L 164.248928 54.745829 
L 167.932559 55.545084 
L 171.616189 64.325317 
L 175.29982 77.819792 
L 178.98345 65.316343 
L 182.667081 59.957086 
L 186.350711 58.737966 
L 190.034342 61.877993 
L 193.717972 70.27715 
L 197.401603 76.681136 
L 201.085233 72.280443 
L 204.768864 68.35077 
L 208.452494 66.773802 
L 212.136125 70.351144 
L 215.819755 85.350744 
L 219.503386 79.394786 
L 223.187016 70.535662 
L 226.870647 69.24071 
L 230.554277 75.049357 
L 234.237908 89.724539 
L 237.921538 79.507385 
L 241.605169 76.665238 
L 245.288799 76.705208 
L 256.339691 80.912369 
L 260.023321 84.417777 
L 263.706952 88.101564 
L 267.390582 87.623829 
L 271.074213 83.934176 
L 274.757843 81.376398 
L 278.441474 81.39406 
L 282.125104 83.000083 
L 285.808735 84.838255 
L 289.492365 85.968634 
L 293.175996 87.295955 
L 296.859626 89.859674 
L 300.543257 91.738481 
L 304.226887 92.066953 
L 307.910518 90.952361 
L 315.277779 86.119923 
L 318.961409 84.668119 
L 322.64504 84.795871 
L 326.32867 85.783044 
L 330.012301 86.288301 
L 333.695931 86.129089 
L 337.379562 86.201792 
L 341.063192 87.470165 
L 348.430453 93.010532 
L 352.114084 94.274324 
L 355.797714 94.451338 
L 359.481345 95.225944 
L 363.164975 97.904195 
L 370.532236 107.006821 
L 374.215867 108.744727 
L 377.899497 108.362545 
L 381.583128 109.185088 
L 385.266758 112.895352 
L 388.950389 118.369974 
L 392.634019 125.813418 
L 396.31765 128.42328 
L 400.00128 125.772636 
L 403.684911 126.682286 
L 407.368541 130.968428 
L 411.052172 135.923293 
L 414.735802 150.699758 
L 418.419433 154.233747 
L 422.103063 144.15627 
L 425.786694 148.592653 
L 429.470324 149.294672 
L 433.153955 155.261143 
L 436.837585 170.732711 
L 440.521216 167.90025 
L 444.204846 160.01 
L 447.888477 185.57054 
L 451.572107 161.224701 
L 455.255738 171.693412 
L 458.939368 166.125177 
L 462.622999 167.718535 
L 466.306629 167.965733 
L 469.99026 169.418967 
L 473.67389 166.959654 
L 477.357521 169.733961 
L 481.041151 169.085911 
L 484.724782 169.068584 
L 488.408412 169.24777 
L 492.092043 170.195083 
L 499.459304 169.66476 
L 503.142934 170.664484 
L 506.826565 171.110155 
L 510.510195 170.393003 
L 514.193826 170.716327 
L 517.877456 171.773208 
L 521.561087 171.615248 
L 525.244717 171.310474 
L 528.928348 171.940367 
L 532.611978 172.374583 
L 536.295609 172.137324 
L 539.979239 172.429109 
L 543.662869 173.062713 
L 551.03013 172.736774 
L 554.713761 173.541864 
L 558.397391 173.944078 
L 562.081022 173.416666 
L 565.764652 173.616484 
L 569.448283 174.431461 
L 573.131913 174.506843 
L 576.815544 174.239917 
L 580.499174 174.597518 
L 584.182805 175.107769 
L 587.866435 175.003308 
L 591.550066 175.1086 
L 595.233696 175.602609 
L 598.917327 175.68903 
L 602.600957 175.55631 
L 609.968218 176.450298 
L 617.335479 176.226412 
L 621.01911 176.738971 
L 624.70274 177.107387 
L 628.386371 176.981775 
L 632.070001 177.019846 
L 632.070001 177.019846 
" clip-path="url(#p1652b12d6b)" style="fill: none; stroke: #000000; stroke-width: 1.5; stroke-linecap: square"/>
   </g>
   <g id="line2d_14">
    <path d="M 97.943579 42.253021 
L 101.62721 40.286731 
L 105.31084 50.786384 
L 108.994471 75.792224 
L 112.678101 69.308527 
L 116.361732 58.366284 
L 120.045362 53.138321 
L 123.728993 53.562019 
L 127.412623 58.408746 
L 131.096254 69.637572 
L 134.779884 78.101264 
L 138.463515 63.812868 
L 142.147145 58.927874 
L 145.830776 58.651334 
L 149.514406 61.468643 
L 153.198037 66.644603 
L 156.881667 83.786016 
L 160.565298 63.634755 
L 164.248928 54.724157 
L 167.932559 55.551792 
L 171.616189 64.321244 
L 175.29982 77.766424 
L 178.98345 65.338094 
L 182.667081 59.970052 
L 186.350711 58.757459 
L 190.034342 61.871975 
L 193.717972 70.241243 
L 197.401603 76.656438 
L 201.085233 72.33974 
L 204.768864 68.36715 
L 208.452494 66.772637 
L 212.136125 70.373986 
L 215.819755 85.448615 
L 219.503386 79.275902 
L 223.187016 70.489786 
L 226.870647 69.250697 
L 230.554277 75.085377 
L 234.237908 89.585395 
L 237.921538 79.485231 
L 241.605169 76.662362 
L 245.288799 76.725783 
L 252.65606 79.52034 
L 256.339691 80.968693 
L 263.706952 88.131829 
L 267.390582 87.567292 
L 271.074213 83.917356 
L 274.757843 81.374394 
L 278.441474 81.424932 
L 282.125104 83.016501 
L 285.808735 84.860686 
L 293.175996 87.352485 
L 296.859626 89.921465 
L 300.543257 91.746968 
L 304.226887 92.039106 
L 307.910518 90.9068 
L 315.277779 86.127138 
L 318.961409 84.691186 
L 322.64504 84.810482 
L 326.32867 85.824985 
L 330.012301 86.349803 
L 333.695931 86.23769 
L 337.379562 86.313307 
L 341.063192 87.538336 
L 348.430453 93.132104 
L 352.114084 94.367743 
L 355.797714 94.582056 
L 359.481345 95.372751 
L 363.164975 98.064225 
L 370.532236 107.11434 
L 374.215867 108.852909 
L 377.899497 108.499727 
L 381.583128 109.205744 
L 385.266758 112.948013 
L 388.950389 118.351246 
L 392.634019 125.803455 
L 396.31765 128.35235 
L 400.00128 125.619784 
L 403.684911 126.576985 
L 407.368541 131.32023 
L 411.052172 135.284894 
L 414.735802 150.368796 
L 418.419433 161.661938 
L 422.103063 143.991714 
L 425.786694 147.08546 
L 429.470324 147.715614 
L 433.153955 152.571079 
L 436.837585 164.650592 
L 440.521216 169.188465 
L 444.204846 156.342254 
L 447.888477 179.148164 
L 451.572107 154.335635 
L 455.255738 174.160255 
L 458.939368 167.951376 
L 462.622999 163.976927 
L 466.306629 161.850777 
L 469.99026 171.437139 
L 473.67389 161.118428 
L 477.357521 177.776574 
L 481.041151 162.76122 
L 484.724782 169.675036 
L 488.408412 162.262018 
L 492.092043 180.46094 
L 495.775673 161.183045 
L 499.459304 177.960523 
L 503.142934 162.868029 
L 506.826565 172.260835 
L 510.510195 168.894624 
L 514.193826 165.951878 
L 517.877456 173.071358 
L 521.561087 166.07952 
L 525.244717 167.474551 
L 528.928348 177.74163 
L 532.611978 168.150625 
L 536.295609 165.63022 
L 539.979239 178.706593 
L 543.662869 164.484456 
L 547.3465 180.737842 
L 551.03013 163.872927 
L 554.713761 191.052414 
L 558.397391 163.75683 
L 562.081022 175.574975 
L 565.764652 165.911059 
L 569.448283 180.090273 
L 573.131913 169.521393 
L 576.815544 169.991022 
L 580.499174 174.897436 
L 584.182805 169.506906 
L 587.866435 177.779926 
L 591.550066 168.833066 
L 595.233696 169.231019 
L 598.917327 173.656934 
L 602.600957 168.591738 
L 606.284588 185.276342 
L 609.968218 165.48152 
L 613.651849 187.295484 
L 617.335479 169.969684 
L 621.01911 176.212321 
L 624.70274 171.827041 
L 628.386371 179.123147 
L 632.070001 171.727871 
L 632.070001 171.727871 
" clip-path="url(#p1652b12d6b)" style="fill: none; stroke-dasharray: 5.55,2.4; stroke-dashoffset: 0; stroke: #ff0000; stroke-width: 1.5"/>
   </g>
   <g id="line2d_15">
    <path d="M 97.940439 35.205959 
L 101.623023 37.277938 
L 105.305607 50.390246 
L 108.988191 71.89456 
L 112.670775 64.539747 
L 116.353358 54.911947 
L 120.035942 51.007894 
L 123.718526 51.763091 
L 127.40111 57.474708 
L 131.083694 69.324356 
L 134.766277 84.10567 
L 138.448861 65.291722 
L 142.131445 59.585385 
L 145.814029 59.108461 
L 149.496613 61.502377 
L 153.179197 65.589481 
L 156.86178 85.276899 
L 160.544364 61.444395 
L 164.226948 53.486334 
L 167.909532 53.71565 
L 171.592116 60.020772 
L 175.2747 74.980337 
L 178.957283 71.947001 
L 182.639867 61.213658 
L 186.322451 58.742811 
L 190.005035 60.468629 
L 193.687619 65.139128 
L 197.370203 72.393927 
L 201.052786 84.811466 
L 204.73537 71.587098 
L 208.417954 65.929888 
L 212.100538 67.944232 
L 215.783122 74.879986 
L 219.465706 65.80874 
L 223.148289 61.396066 
L 226.830873 62.099629 
L 230.513457 66.639931 
L 234.196041 75.347547 
L 237.878625 93.598617 
L 241.561209 95.665485 
L 245.243792 85.199521 
L 248.926376 79.717962 
L 252.60896 75.049776 
L 256.291544 71.915818 
L 259.974128 72.352051 
L 263.656712 76.566947 
L 267.339295 85.855358 
L 271.021879 99.755651 
L 274.704463 80.851531 
L 278.387047 75.166158 
L 282.069631 75.432361 
L 285.752215 76.563051 
L 289.434798 76.61647 
L 293.117382 77.136853 
L 296.799966 78.859893 
L 300.48255 82.496007 
L 304.165134 80.757956 
L 307.847718 75.466416 
L 311.530301 73.958636 
L 315.212885 76.954083 
L 318.895469 85.208686 
L 322.578053 85.267762 
L 326.260637 77.646323 
L 329.94322 76.95824 
L 333.625804 80.998557 
L 337.308388 85.617236 
L 340.990972 87.129641 
L 344.673556 87.695281 
L 348.35614 87.93316 
L 352.038723 86.825302 
L 355.721307 88.17202 
L 359.403891 94.970758 
L 363.086475 97.968577 
L 366.769059 87.292619 
L 370.451643 81.550967 
L 374.134226 78.737005 
L 377.81681 77.891896 
L 381.499394 78.449857 
L 385.181978 79.834631 
L 388.864562 81.066366 
L 392.547146 81.530169 
L 396.229729 81.843376 
L 399.912313 82.799023 
L 403.594897 84.818009 
L 407.277481 87.978652 
L 410.960065 91.628126 
L 414.642649 94.676387 
L 418.325232 97.27722 
L 422.007816 102.376127 
L 425.6904 113.395214 
L 429.372984 116.347307 
L 433.055568 107.004493 
L 436.738152 105.737704 
L 440.420735 108.383178 
L 444.103319 106.294908 
L 447.785903 101.835489 
L 451.468487 100.145626 
L 455.151071 103.417207 
L 458.833655 111.790745 
L 462.516238 108.590561 
L 466.198822 105.240307 
L 469.881406 105.205476 
L 477.246574 111.13129 
L 480.929158 106.971744 
L 484.611741 103.945002 
L 488.294325 103.990581 
L 491.976909 106.913343 
L 495.659493 113.730082 
L 499.342077 131.110414 
L 503.02466 120.461288 
L 506.707244 113.306828 
L 510.389828 111.355786 
L 514.072412 112.532934 
L 517.754996 116.987139 
L 521.43758 119.578975 
L 525.120163 114.960287 
L 528.802747 113.150897 
L 532.485331 115.293676 
L 536.167915 125.297605 
L 539.850499 124.782224 
L 543.533083 111.665451 
L 547.215666 107.353771 
L 550.89825 106.299582 
L 554.580834 107.491902 
L 558.263418 111.995445 
L 561.946002 123.186406 
L 565.628586 125.512205 
L 569.311169 116.362358 
L 572.993753 112.925009 
L 576.676337 112.795891 
L 580.358921 115.163593 
L 584.041505 115.740115 
L 587.724089 111.74231 
L 591.406672 108.683907 
L 595.089256 109.491311 
L 598.77184 116.894024 
L 602.454424 133.813615 
L 606.137008 112.771299 
L 609.819592 106.286083 
L 613.502175 104.036506 
L 617.184759 105.442679 
L 620.867343 111.608903 
L 624.549927 124.805658 
L 628.232511 113.936541 
L 631.915095 108.232729 
L 631.915095 108.232729 
" clip-path="url(#p1652b12d6b)" style="fill: none; stroke-dasharray: 5.55,2.4; stroke-dashoffset: 0; stroke: #008000; stroke-width: 1.5"/>
   </g>
   <g id="line2d_16">
    <path d="M 97.940439 36.050649 
L 101.623023 37.517666 
L 105.305607 50.382279 
L 108.988191 80.546259 
L 112.670775 65.548289 
L 116.353358 56.584708 
L 120.035942 53.042241 
L 123.718526 53.825424 
L 127.40111 59.320358 
L 131.083694 71.535334 
L 134.766277 76.584844 
L 138.448861 63.368719 
L 142.131445 59.192286 
L 145.814029 58.97698 
L 149.496613 62.082546 
L 153.179197 67.524763 
L 156.86178 86.44005 
L 160.544364 62.452043 
L 164.226948 54.705741 
L 167.909532 55.599302 
L 171.592116 63.713644 
L 175.2747 78.009707 
L 178.957283 65.892712 
L 182.639867 59.57196 
L 186.322451 58.341297 
L 190.005035 61.993876 
L 193.687619 70.657042 
L 197.370203 75.78605 
L 201.052786 72.495087 
L 204.73537 69.406476 
L 208.417954 66.751379 
L 212.100538 69.064675 
L 215.783122 81.005703 
L 219.465706 80.925502 
L 223.148289 71.879415 
L 226.830873 70.849845 
L 230.513457 77.370525 
L 234.196041 87.901888 
L 237.878625 80.283385 
L 248.926376 75.867388 
L 252.60896 76.154391 
L 256.291544 78.890219 
L 259.974128 83.638225 
L 263.656712 86.613162 
L 267.339295 84.161382 
L 271.021879 81.181502 
L 274.704463 80.137019 
L 278.387047 80.534885 
L 282.069631 82.213875 
L 285.752215 85.181661 
L 289.434798 90.498051 
L 293.117382 100.396499 
L 296.799966 98.557976 
L 300.48255 93.040359 
L 304.165134 90.762044 
L 307.847718 90.159787 
L 311.530301 88.268001 
L 315.212885 83.651897 
L 318.895469 81.331432 
L 322.578053 82.104933 
L 329.94322 87.106459 
L 333.625804 89.69224 
L 337.308388 93.259699 
L 340.990972 96.224701 
L 344.673556 96.085787 
L 348.35614 96.105537 
L 352.038723 98.25877 
L 355.721307 101.689552 
L 359.403891 105.905301 
L 363.086475 109.63748 
L 366.769059 110.201271 
L 370.451643 108.515439 
L 374.134226 108.196634 
L 377.81681 112.446854 
L 381.499394 126.14847 
L 385.181978 123.600102 
L 388.864562 116.842637 
L 392.547146 116.092525 
L 396.229729 116.980137 
L 399.912313 119.856438 
L 403.594897 129.067922 
L 407.277481 142.382203 
L 410.960065 125.736366 
L 414.642649 122.286056 
L 418.325232 121.859137 
L 422.007816 123.52213 
L 425.6904 128.929604 
L 429.372984 147.629668 
L 433.055568 134.423586 
L 436.738152 124.867314 
L 440.420735 122.580206 
L 444.103319 126.599942 
L 447.785903 145.081953 
L 451.468487 133.703645 
L 455.151071 127.306727 
L 458.833655 127.4969 
L 462.516238 132.255568 
L 466.198822 143.655701 
L 469.881406 147.138631 
L 473.56399 137.725973 
L 477.246574 135.838268 
L 480.929158 140.6308 
L 484.611741 144.679758 
L 488.294325 138.028562 
L 491.976909 136.048211 
L 495.659493 136.052899 
L 499.342077 139.620226 
L 503.02466 150.367222 
L 506.707244 143.753148 
L 514.072412 139.881585 
L 517.754996 134.9918 
L 521.43758 134.618896 
L 525.120163 136.48685 
L 528.802747 136.270035 
L 532.485331 135.596327 
L 536.167915 135.535594 
L 539.850499 135.16754 
L 543.533083 135.835777 
L 547.215666 139.82867 
L 550.89825 145.526215 
L 554.580834 144.874088 
L 558.263418 142.27477 
L 561.946002 143.098923 
L 565.628586 145.907098 
L 569.311169 143.818422 
L 572.993753 141.332742 
L 576.676337 145.634228 
L 580.358921 160.484487 
L 584.041505 152.250145 
L 587.724089 153.017187 
L 591.406672 143.156693 
L 595.089256 140.599664 
L 598.77184 146.987103 
L 602.454424 155.822648 
L 606.137008 153.050752 
L 609.819592 145.304496 
L 613.502175 141.044821 
L 617.184759 139.291952 
L 620.867343 135.002302 
L 624.549927 132.929028 
L 628.232511 134.703231 
L 631.915095 138.772766 
L 631.915095 138.772766 
" clip-path="url(#p1652b12d6b)" style="fill: none; stroke-dasharray: 5.55,2.4; stroke-dashoffset: 0; stroke: #0000ff; stroke-width: 1.5"/>
   </g>
   <g id="line2d_17">
    <path d="M 97.940439 34.206989 
L 101.623023 35.663637 
L 105.305607 48.387782 
L 108.988191 83.898837 
L 112.670775 65.529033 
L 116.353358 57.674286 
L 120.035942 55.351374 
L 123.718526 56.442677 
L 127.40111 62.732958 
L 131.083694 81.490214 
L 134.766277 68.656466 
L 138.448861 58.729236 
L 142.131445 55.404924 
L 145.814029 55.935751 
L 149.496613 56.827036 
L 153.179197 56.387514 
L 156.86178 60.194875 
L 160.544364 72.357819 
L 164.226948 60.241099 
L 167.909532 64.371022 
L 171.592116 66.41507 
L 175.2747 64.233969 
L 178.957283 68.100766 
L 182.639867 71.005887 
L 186.322451 72.205772 
L 190.005035 69.620356 
L 193.687619 73.20402 
L 197.370203 83.151939 
L 201.052786 63.9385 
L 204.73537 55.696495 
L 208.417954 54.871635 
L 212.100538 61.061103 
L 215.783122 80.506515 
L 219.465706 62.327381 
L 223.148289 57.643562 
L 226.830873 58.690348 
L 230.513457 58.35911 
L 234.196041 56.133915 
L 237.878625 58.107835 
L 241.561209 65.904611 
L 245.243792 76.246061 
L 248.926376 68.955288 
L 252.60896 68.549666 
L 256.291544 73.085518 
L 259.974128 72.704547 
L 263.656712 73.068074 
L 267.339295 67.713114 
L 271.021879 61.562799 
L 274.704463 59.029037 
L 278.387047 59.363715 
L 282.069631 62.250146 
L 285.752215 68.088002 
L 289.434798 71.314358 
L 293.117382 65.083609 
L 296.799966 61.368431 
L 300.48255 61.108046 
L 304.165134 64.628243 
L 307.847718 74.27826 
L 311.530301 97.459277 
L 315.212885 85.400815 
L 322.578053 68.060463 
L 326.260637 63.465753 
L 329.94322 61.941284 
L 333.625804 63.533441 
L 337.308388 67.928727 
L 340.990972 73.678907 
L 344.673556 78.193403 
L 348.35614 79.642908 
L 352.038723 80.067755 
L 355.721307 81.541849 
L 359.403891 84.351942 
L 363.086475 88.45105 
L 370.451643 98.829197 
L 374.134226 103.419837 
L 381.499394 110.147497 
L 385.181978 115.007077 
L 388.864562 123.174555 
L 392.547146 137.037143 
L 396.229729 134.182364 
L 399.912313 130.389288 
L 403.594897 128.72932 
L 407.277481 126.800656 
L 410.960065 125.408865 
L 414.642649 126.412161 
L 418.325232 129.472507 
L 422.007816 131.646456 
L 425.6904 129.804909 
L 429.372984 127.328648 
L 433.055568 126.914611 
L 436.738152 129.347595 
L 440.420735 136.032175 
L 444.103319 152.744093 
L 447.785903 147.66011 
L 451.468487 139.314952 
L 455.151071 136.820606 
L 458.833655 138.108405 
L 462.516238 142.77178 
L 466.198822 144.425976 
L 469.881406 137.226865 
L 473.56399 132.439343 
L 477.246574 130.337979 
L 480.929158 130.640299 
L 484.611741 133.532769 
L 488.294325 139.892927 
L 491.976909 151.852479 
L 495.659493 144.444123 
L 499.342077 138.534501 
L 503.02466 136.937466 
L 506.707244 137.850214 
L 510.389828 139.715969 
L 514.072412 140.70286 
L 517.754996 141.942439 
L 521.43758 146.428108 
L 525.120163 159.15385 
L 528.802747 161.709491 
L 532.485331 148.97701 
L 536.167915 143.720313 
L 539.850499 139.768602 
L 543.533083 137.613514 
L 547.215666 138.019655 
L 550.89825 142.06996 
L 554.580834 154.77219 
L 558.263418 157.261179 
L 561.946002 147.197578 
L 565.628586 147.388386 
L 569.311169 156.076802 
L 572.993753 154.790791 
L 576.676337 146.555614 
L 580.358921 144.35805 
L 584.041505 144.533055 
L 587.724089 143.199353 
L 591.406672 141.488732 
L 595.089256 142.109794 
L 598.77184 147.00904 
L 602.454424 162.058463 
L 606.137008 154.807872 
L 609.819592 148.759411 
L 613.502175 149.532382 
L 617.184759 156.98916 
L 620.867343 190.939612 
L 624.549927 159.163165 
L 628.232511 154.744168 
L 631.915095 155.466019 
L 631.915095 155.466019 
" clip-path="url(#p1652b12d6b)" style="fill: none; stroke-dasharray: 5.55,2.4; stroke-dashoffset: 0; stroke: #800080; stroke-width: 1.5"/>
   </g>
   <g id="line2d_18">
    <path d="M 354.161064 198 
L 354.161064 27.432 
" clip-path="url(#p1652b12d6b)" style="fill: none; stroke-dasharray: 1.5,2.475; stroke-dashoffset: 0; stroke: #808080; stroke-width: 1.5"/>
   </g>
   <g id="patch_3">
    <path d="M 97.947123 198 
L 97.947123 27.432 
" style="fill: none; stroke: #000000; stroke-width: 0.8; stroke-linejoin: miter; stroke-linecap: square"/>
   </g>
   <g id="patch_4">
    <path d="M 628.56 198 
L 628.56 27.432 
" style="fill: none; stroke: #000000; stroke-width: 0.8; stroke-linejoin: miter; stroke-linecap: square"/>
   </g>
   <g id="patch_5">
    <path d="M 97.947123 198 
L 628.56 198 
" style="fill: none; stroke: #000000; stroke-width: 0.8; stroke-linejoin: miter; stroke-linecap: square"/>
   </g>
   <g id="patch_6">
    <path d="M 97.947123 27.432 
L 628.56 27.432 
" style="fill: none; stroke: #000000; stroke-width: 0.8; stroke-linejoin: miter; stroke-linecap: square"/>
   </g>
  </g>
  <g id="legend_1">
   <g id="patch_7">
    <path d="M 21.24 351 
L 626.76 351 
Q 630.36 351 630.36 347.4 
L 630.36 265.899375 
Q 630.36 262.299375 626.76 262.299375 
L 21.24 262.299375 
Q 17.64 262.299375 17.64 265.899375 
L 17.64 347.4 
Q 17.64 351 21.24 351 
z
" style="fill: #ffffff; opacity: 0.8; stroke: #cccccc; stroke-linejoin: miter"/>
   </g>
   <g id="line2d_19">
    <path d="M 24.84 278.895938 
L 42.84 278.895938 
L 60.84 278.895938 
" style="fill: none; stroke: #000000; stroke-width: 1.5; stroke-linecap: square"/>
   </g>
   <g id="text_15">
    <!-- DVR -->
    <g transform="translate(75.24 285.195938) scale(0.18 -0.18)">
     <defs>
      <path id="DejaVuSans-44" d="M 1259 4147 
L 1259 519 
L 2022 519 
Q 2988 519 3436 956 
Q 3884 1394 3884 2338 
Q 3884 3275 3436 3711 
Q 2988 4147 2022 4147 
L 1259 4147 
z
M 628 4666 
L 1925 4666 
Q 3281 4666 3915 4102 
Q 4550 3538 4550 2338 
Q 4550 1131 3912 565 
Q 3275 0 1925 0 
L 628 0 
L 628 4666 
z
" transform="scale(0.015625)"/>
      <path id="DejaVuSans-56" d="M 1831 0 
L 50 4666 
L 709 4666 
L 2188 738 
L 3669 4666 
L 4325 4666 
L 2547 0 
L 1831 0 
z
" transform="scale(0.015625)"/>
      <path id="DejaVuSans-52" d="M 2841 2188 
Q 3044 2119 3236 1894 
Q 3428 1669 3622 1275 
L 4263 0 
L 3584 0 
L 2988 1197 
Q 2756 1666 2539 1819 
Q 2322 1972 1947 1972 
L 1259 1972 
L 1259 0 
L 628 0 
L 628 4666 
L 2053 4666 
Q 2853 4666 3247 4331 
Q 3641 3997 3641 3322 
Q 3641 2881 3436 2590 
Q 3231 2300 2841 2188 
z
M 1259 4147 
L 1259 2491 
L 2053 2491 
Q 2509 2491 2742 2702 
Q 2975 2913 2975 3322 
Q 2975 3731 2742 3939 
Q 2509 4147 2053 4147 
L 1259 4147 
z
" transform="scale(0.015625)"/>
     </defs>
     <use xlink:href="#DejaVuSans-44"/>
     <use xlink:href="#DejaVuSans-56" x="75.251953"/>
     <use xlink:href="#DejaVuSans-52" x="143.660156"/>
    </g>
   </g>
   <g id="line2d_20">
    <path d="M 24.84 305.316562 
L 42.84 305.316562 
L 60.84 305.316562 
" style="fill: none; stroke-dasharray: 5.55,2.4; stroke-dashoffset: 0; stroke: #ff0000; stroke-width: 1.5"/>
   </g>
   <g id="text_16">
    <!-- Rothe ($M(T_f)=147$) -->
    <g transform="translate(75.24 311.616562) scale(0.18 -0.18)">
     <defs>
      <path id="DejaVuSans-68" d="M 3513 2113 
L 3513 0 
L 2938 0 
L 2938 2094 
Q 2938 2591 2744 2837 
Q 2550 3084 2163 3084 
Q 1697 3084 1428 2787 
Q 1159 2491 1159 1978 
L 1159 0 
L 581 0 
L 581 4863 
L 1159 4863 
L 1159 2956 
Q 1366 3272 1645 3428 
Q 1925 3584 2291 3584 
Q 2894 3584 3203 3211 
Q 3513 2838 3513 2113 
z
" transform="scale(0.015625)"/>
      <path id="DejaVuSans-28" d="M 1984 4856 
Q 1566 4138 1362 3434 
Q 1159 2731 1159 2009 
Q 1159 1288 1364 580 
Q 1569 -128 1984 -844 
L 1484 -844 
Q 1016 -109 783 600 
Q 550 1309 550 2009 
Q 550 2706 781 3412 
Q 1013 4119 1484 4856 
L 1984 4856 
z
" transform="scale(0.015625)"/>
      <path id="DejaVuSans-Oblique-4d" d="M 1081 4666 
L 2028 4666 
L 2572 1522 
L 4378 4666 
L 5350 4666 
L 4441 0 
L 3828 0 
L 4622 4091 
L 2791 897 
L 2175 897 
L 1581 4103 
L 788 0 
L 172 0 
L 1081 4666 
z
" transform="scale(0.015625)"/>
      <path id="DejaVuSans-Oblique-54" d="M 378 4666 
L 4325 4666 
L 4225 4134 
L 2559 4134 
L 1759 0 
L 1125 0 
L 1925 4134 
L 275 4134 
L 378 4666 
z
" transform="scale(0.015625)"/>
      <path id="DejaVuSans-Oblique-66" d="M 3059 4863 
L 2969 4384 
L 2419 4384 
Q 2106 4384 1964 4261 
Q 1822 4138 1753 3809 
L 1691 3500 
L 2638 3500 
L 2553 3053 
L 1606 3053 
L 1013 0 
L 434 0 
L 1031 3053 
L 481 3053 
L 563 3500 
L 1113 3500 
L 1159 3744 
Q 1278 4363 1576 4613 
Q 1875 4863 2516 4863 
L 3059 4863 
z
" transform="scale(0.015625)"/>
      <path id="DejaVuSans-29" d="M 513 4856 
L 1013 4856 
Q 1481 4119 1714 3412 
Q 1947 2706 1947 2009 
Q 1947 1309 1714 600 
Q 1481 -109 1013 -844 
L 513 -844 
Q 928 -128 1133 580 
Q 1338 1288 1338 2009 
Q 1338 2731 1133 3434 
Q 928 4138 513 4856 
z
" transform="scale(0.015625)"/>
      <path id="DejaVuSans-3d" d="M 678 2906 
L 4684 2906 
L 4684 2381 
L 678 2381 
L 678 2906 
z
M 678 1631 
L 4684 1631 
L 4684 1100 
L 678 1100 
L 678 1631 
z
" transform="scale(0.015625)"/>
     </defs>
     <use xlink:href="#DejaVuSans-52" transform="translate(0 0.015625)"/>
     <use xlink:href="#DejaVuSans-6f" transform="translate(69.482422 0.015625)"/>
     <use xlink:href="#DejaVuSans-74" transform="translate(130.664062 0.015625)"/>
     <use xlink:href="#DejaVuSans-68" transform="translate(169.873047 0.015625)"/>
     <use xlink:href="#DejaVuSans-65" transform="translate(233.251953 0.015625)"/>
     <use xlink:href="#DejaVuSans-20" transform="translate(294.775391 0.015625)"/>
     <use xlink:href="#DejaVuSans-28" transform="translate(326.5625 0.015625)"/>
     <use xlink:href="#DejaVuSans-Oblique-4d" transform="translate(365.576172 0.015625)"/>
     <use xlink:href="#DejaVuSans-28" transform="translate(451.855469 0.015625)"/>
     <use xlink:href="#DejaVuSans-Oblique-54" transform="translate(490.869141 0.015625)"/>
     <use xlink:href="#DejaVuSans-Oblique-66" transform="translate(551.953125 -16.390625) scale(0.7)"/>
     <use xlink:href="#DejaVuSans-29" transform="translate(579.331055 0.015625)"/>
     <use xlink:href="#DejaVuSans-3d" transform="translate(637.827148 0.015625)"/>
     <use xlink:href="#DejaVuSans-31" transform="translate(741.098633 0.015625)"/>
     <use xlink:href="#DejaVuSans-34" transform="translate(804.72168 0.015625)"/>
     <use xlink:href="#DejaVuSans-37" transform="translate(868.344727 0.015625)"/>
     <use xlink:href="#DejaVuSans-29" transform="translate(931.967773 0.015625)"/>
    </g>
   </g>
   <g id="line2d_21">
    <path d="M 24.84 333.756562 
L 42.84 333.756562 
L 60.84 333.756562 
" style="fill: none; stroke-dasharray: 5.55,2.4; stroke-dashoffset: 0; stroke: #008000; stroke-width: 1.5"/>
   </g>
   <g id="text_17">
    <!-- N=300,$s_{\varepsilon}=10^{-5},M=268$ -->
    <g transform="translate(75.24 340.056562) scale(0.18 -0.18)">
     <defs>
      <path id="DejaVuSans-4e" d="M 628 4666 
L 1478 4666 
L 3547 763 
L 3547 4666 
L 4159 4666 
L 4159 0 
L 3309 0 
L 1241 3903 
L 1241 0 
L 628 0 
L 628 4666 
z
" transform="scale(0.015625)"/>
      <path id="DejaVuSans-2c" d="M 750 794 
L 1409 794 
L 1409 256 
L 897 -744 
L 494 -744 
L 750 256 
L 750 794 
z
" transform="scale(0.015625)"/>
      <path id="DejaVuSans-Oblique-73" d="M 3200 3397 
L 3091 2853 
Q 2863 2978 2609 3040 
Q 2356 3103 2088 3103 
Q 1634 3103 1373 2948 
Q 1113 2794 1113 2528 
Q 1113 2219 1719 2053 
Q 1766 2041 1788 2034 
L 1972 1978 
Q 2547 1819 2739 1644 
Q 2931 1469 2931 1166 
Q 2931 609 2489 259 
Q 2047 -91 1331 -91 
Q 1053 -91 747 -37 
Q 441 16 72 128 
L 184 722 
Q 500 559 806 475 
Q 1113 391 1394 391 
Q 1816 391 2080 572 
Q 2344 753 2344 1031 
Q 2344 1331 1650 1516 
L 1591 1531 
L 1394 1581 
Q 956 1697 753 1886 
Q 550 2075 550 2369 
Q 550 2928 970 3256 
Q 1391 3584 2113 3584 
Q 2397 3584 2667 3537 
Q 2938 3491 3200 3397 
z
" transform="scale(0.015625)"/>
      <path id="DejaVuSans-Oblique-3b5" d="M 1263 1888 
Q 925 1963 778 2166 
Q 669 2309 669 2503 
Q 669 3034 1175 3344 
Q 1575 3588 2188 3588 
Q 2425 3588 2684 3550 
Q 2944 3513 3234 3438 
L 3134 2916 
Q 2847 3006 2606 3047 
Q 2359 3088 2138 3088 
Q 1766 3088 1522 2944 
Q 1228 2772 1228 2522 
Q 1228 2356 1381 2241 
Q 1563 2103 1925 2103 
L 2409 2103 
L 2319 1628 
L 1856 1628 
Q 1425 1628 1172 1469 
Q 828 1253 828 916 
Q 828 703 1013 563 
Q 1244 388 1716 388 
Q 2006 388 2284 444 
Q 2563 503 2806 619 
L 2700 84 
Q 2403 -3 2131 -47 
Q 1859 -91 1609 -91 
Q 866 -91 516 194 
Q 250 413 250 781 
Q 250 1278 600 1584 
Q 859 1813 1263 1888 
z
" transform="scale(0.015625)"/>
      <path id="DejaVuSans-38" d="M 2034 2216 
Q 1584 2216 1326 1975 
Q 1069 1734 1069 1313 
Q 1069 891 1326 650 
Q 1584 409 2034 409 
Q 2484 409 2743 651 
Q 3003 894 3003 1313 
Q 3003 1734 2745 1975 
Q 2488 2216 2034 2216 
z
M 1403 2484 
Q 997 2584 770 2862 
Q 544 3141 544 3541 
Q 544 4100 942 4425 
Q 1341 4750 2034 4750 
Q 2731 4750 3128 4425 
Q 3525 4100 3525 3541 
Q 3525 3141 3298 2862 
Q 3072 2584 2669 2484 
Q 3125 2378 3379 2068 
Q 3634 1759 3634 1313 
Q 3634 634 3220 271 
Q 2806 -91 2034 -91 
Q 1263 -91 848 271 
Q 434 634 434 1313 
Q 434 1759 690 2068 
Q 947 2378 1403 2484 
z
M 1172 3481 
Q 1172 3119 1398 2916 
Q 1625 2713 2034 2713 
Q 2441 2713 2670 2916 
Q 2900 3119 2900 3481 
Q 2900 3844 2670 4047 
Q 2441 4250 2034 4250 
Q 1625 4250 1398 4047 
Q 1172 3844 1172 3481 
z
" transform="scale(0.015625)"/>
     </defs>
     <use xlink:href="#DejaVuSans-4e" transform="translate(0 0.684375)"/>
     <use xlink:href="#DejaVuSans-3d" transform="translate(74.804688 0.684375)"/>
     <use xlink:href="#DejaVuSans-33" transform="translate(158.59375 0.684375)"/>
     <use xlink:href="#DejaVuSans-30" transform="translate(222.216797 0.684375)"/>
     <use xlink:href="#DejaVuSans-30" transform="translate(285.839844 0.684375)"/>
     <use xlink:href="#DejaVuSans-2c" transform="translate(349.462891 0.684375)"/>
     <use xlink:href="#DejaVuSans-Oblique-73" transform="translate(381.25 0.684375)"/>
     <use xlink:href="#DejaVuSans-Oblique-3b5" transform="translate(433.349609 -15.721875) scale(0.7)"/>
     <use xlink:href="#DejaVuSans-3d" transform="translate(493.40332 0.684375)"/>
     <use xlink:href="#DejaVuSans-31" transform="translate(596.674805 0.684375)"/>
     <use xlink:href="#DejaVuSans-30" transform="translate(660.297852 0.684375)"/>
     <use xlink:href="#DejaVuSans-2212" transform="translate(724.87793 38.965625) scale(0.7)"/>
     <use xlink:href="#DejaVuSans-35" transform="translate(783.530273 38.965625) scale(0.7)"/>
     <use xlink:href="#DejaVuSans-2c" transform="translate(830.800781 0.684375)"/>
     <use xlink:href="#DejaVuSans-Oblique-4d" transform="translate(882.070312 0.684375)"/>
     <use xlink:href="#DejaVuSans-3d" transform="translate(987.832031 0.684375)"/>
     <use xlink:href="#DejaVuSans-32" transform="translate(1091.103516 0.684375)"/>
     <use xlink:href="#DejaVuSans-36" transform="translate(1154.726562 0.684375)"/>
     <use xlink:href="#DejaVuSans-38" transform="translate(1218.349609 0.684375)"/>
    </g>
   </g>
   <g id="line2d_22">
    <path d="M 342 278.895938 
L 360 278.895938 
L 378 278.895938 
" style="fill: none; stroke-dasharray: 5.55,2.4; stroke-dashoffset: 0; stroke: #0000ff; stroke-width: 1.5"/>
   </g>
   <g id="text_18">
    <!-- N=50,$s_{\varepsilon}=10^{-5},M=1067$ -->
    <g transform="translate(392.4 285.195938) scale(0.18 -0.18)">
     <use xlink:href="#DejaVuSans-4e" transform="translate(0 0.684375)"/>
     <use xlink:href="#DejaVuSans-3d" transform="translate(74.804688 0.684375)"/>
     <use xlink:href="#DejaVuSans-35" transform="translate(158.59375 0.684375)"/>
     <use xlink:href="#DejaVuSans-30" transform="translate(222.216797 0.684375)"/>
     <use xlink:href="#DejaVuSans-2c" transform="translate(285.839844 0.684375)"/>
     <use xlink:href="#DejaVuSans-Oblique-73" transform="translate(317.626953 0.684375)"/>
     <use xlink:href="#DejaVuSans-Oblique-3b5" transform="translate(369.726562 -15.721875) scale(0.7)"/>
     <use xlink:href="#DejaVuSans-3d" transform="translate(429.780273 0.684375)"/>
     <use xlink:href="#DejaVuSans-31" transform="translate(533.051758 0.684375)"/>
     <use xlink:href="#DejaVuSans-30" transform="translate(596.674805 0.684375)"/>
     <use xlink:href="#DejaVuSans-2212" transform="translate(661.254883 38.965625) scale(0.7)"/>
     <use xlink:href="#DejaVuSans-35" transform="translate(719.907227 38.965625) scale(0.7)"/>
     <use xlink:href="#DejaVuSans-2c" transform="translate(767.177734 0.684375)"/>
     <use xlink:href="#DejaVuSans-Oblique-4d" transform="translate(818.447266 0.684375)"/>
     <use xlink:href="#DejaVuSans-3d" transform="translate(924.208984 0.684375)"/>
     <use xlink:href="#DejaVuSans-31" transform="translate(1027.480469 0.684375)"/>
     <use xlink:href="#DejaVuSans-30" transform="translate(1091.103516 0.684375)"/>
     <use xlink:href="#DejaVuSans-36" transform="translate(1154.726562 0.684375)"/>
     <use xlink:href="#DejaVuSans-37" transform="translate(1218.349609 0.684375)"/>
    </g>
   </g>
   <g id="line2d_23">
    <path d="M 342 305.316562 
L 360 305.316562 
L 378 305.316562 
" style="fill: none; stroke-dasharray: 5.55,2.4; stroke-dashoffset: 0; stroke: #800080; stroke-width: 1.5"/>
   </g>
   <g id="text_19">
    <!-- 6-aug-ccPVTZ+8K (HLM) -->
    <g transform="translate(392.4 311.616562) scale(0.18 -0.18)">
     <defs>
      <path id="DejaVuSans-2d" d="M 313 2009 
L 1997 2009 
L 1997 1497 
L 313 1497 
L 313 2009 
z
" transform="scale(0.015625)"/>
      <path id="DejaVuSans-75" d="M 544 1381 
L 544 3500 
L 1119 3500 
L 1119 1403 
Q 1119 906 1312 657 
Q 1506 409 1894 409 
Q 2359 409 2629 706 
Q 2900 1003 2900 1516 
L 2900 3500 
L 3475 3500 
L 3475 0 
L 2900 0 
L 2900 538 
Q 2691 219 2414 64 
Q 2138 -91 1772 -91 
Q 1169 -91 856 284 
Q 544 659 544 1381 
z
M 1991 3584 
L 1991 3584 
z
" transform="scale(0.015625)"/>
      <path id="DejaVuSans-67" d="M 2906 1791 
Q 2906 2416 2648 2759 
Q 2391 3103 1925 3103 
Q 1463 3103 1205 2759 
Q 947 2416 947 1791 
Q 947 1169 1205 825 
Q 1463 481 1925 481 
Q 2391 481 2648 825 
Q 2906 1169 2906 1791 
z
M 3481 434 
Q 3481 -459 3084 -895 
Q 2688 -1331 1869 -1331 
Q 1566 -1331 1297 -1286 
Q 1028 -1241 775 -1147 
L 775 -588 
Q 1028 -725 1275 -790 
Q 1522 -856 1778 -856 
Q 2344 -856 2625 -561 
Q 2906 -266 2906 331 
L 2906 616 
Q 2728 306 2450 153 
Q 2172 0 1784 0 
Q 1141 0 747 490 
Q 353 981 353 1791 
Q 353 2603 747 3093 
Q 1141 3584 1784 3584 
Q 2172 3584 2450 3431 
Q 2728 3278 2906 2969 
L 2906 3500 
L 3481 3500 
L 3481 434 
z
" transform="scale(0.015625)"/>
      <path id="DejaVuSans-50" d="M 1259 4147 
L 1259 2394 
L 2053 2394 
Q 2494 2394 2734 2622 
Q 2975 2850 2975 3272 
Q 2975 3691 2734 3919 
Q 2494 4147 2053 4147 
L 1259 4147 
z
M 628 4666 
L 2053 4666 
Q 2838 4666 3239 4311 
Q 3641 3956 3641 3272 
Q 3641 2581 3239 2228 
Q 2838 1875 2053 1875 
L 1259 1875 
L 1259 0 
L 628 0 
L 628 4666 
z
" transform="scale(0.015625)"/>
      <path id="DejaVuSans-54" d="M -19 4666 
L 3928 4666 
L 3928 4134 
L 2272 4134 
L 2272 0 
L 1638 0 
L 1638 4134 
L -19 4134 
L -19 4666 
z
" transform="scale(0.015625)"/>
      <path id="DejaVuSans-5a" d="M 359 4666 
L 4025 4666 
L 4025 4184 
L 1075 531 
L 4097 531 
L 4097 0 
L 288 0 
L 288 481 
L 3238 4134 
L 359 4134 
L 359 4666 
z
" transform="scale(0.015625)"/>
      <path id="DejaVuSans-2b" d="M 2944 4013 
L 2944 2272 
L 4684 2272 
L 4684 1741 
L 2944 1741 
L 2944 0 
L 2419 0 
L 2419 1741 
L 678 1741 
L 678 2272 
L 2419 2272 
L 2419 4013 
L 2944 4013 
z
" transform="scale(0.015625)"/>
      <path id="DejaVuSans-4b" d="M 628 4666 
L 1259 4666 
L 1259 2694 
L 3353 4666 
L 4166 4666 
L 1850 2491 
L 4331 0 
L 3500 0 
L 1259 2247 
L 1259 0 
L 628 0 
L 628 4666 
z
" transform="scale(0.015625)"/>
      <path id="DejaVuSans-4c" d="M 628 4666 
L 1259 4666 
L 1259 531 
L 3531 531 
L 3531 0 
L 628 0 
L 628 4666 
z
" transform="scale(0.015625)"/>
      <path id="DejaVuSans-4d" d="M 628 4666 
L 1569 4666 
L 2759 1491 
L 3956 4666 
L 4897 4666 
L 4897 0 
L 4281 0 
L 4281 4097 
L 3078 897 
L 2444 897 
L 1241 4097 
L 1241 0 
L 628 0 
L 628 4666 
z
" transform="scale(0.015625)"/>
     </defs>
     <use xlink:href="#DejaVuSans-36"/>
     <use xlink:href="#DejaVuSans-2d" x="63.623047"/>
     <use xlink:href="#DejaVuSans-61" x="99.707031"/>
     <use xlink:href="#DejaVuSans-75" x="160.986328"/>
     <use xlink:href="#DejaVuSans-67" x="224.365234"/>
     <use xlink:href="#DejaVuSans-2d" x="287.841797"/>
     <use xlink:href="#DejaVuSans-63" x="323.925781"/>
     <use xlink:href="#DejaVuSans-63" x="378.90625"/>
     <use xlink:href="#DejaVuSans-50" x="433.886719"/>
     <use xlink:href="#DejaVuSans-56" x="494.189453"/>
     <use xlink:href="#DejaVuSans-54" x="562.597656"/>
     <use xlink:href="#DejaVuSans-5a" x="623.681641"/>
     <use xlink:href="#DejaVuSans-2b" x="692.1875"/>
     <use xlink:href="#DejaVuSans-38" x="775.976562"/>
     <use xlink:href="#DejaVuSans-4b" x="839.599609"/>
     <use xlink:href="#DejaVuSans-20" x="905.175781"/>
     <use xlink:href="#DejaVuSans-28" x="936.962891"/>
     <use xlink:href="#DejaVuSans-48" x="975.976562"/>
     <use xlink:href="#DejaVuSans-4c" x="1051.171875"/>
     <use xlink:href="#DejaVuSans-4d" x="1106.884766"/>
     <use xlink:href="#DejaVuSans-29" x="1193.164062"/>
    </g>
   </g>
  </g>
 </g>
 <defs>
  <clipPath id="p1652b12d6b">
   <rect x="97.947123" y="27.432" width="530.612877" height="170.568"/>
  </clipPath>
 </defs>
</svg>
